G04 #@! TF.FileFunction,Soldermask,Top*
%FSLAX46Y46*%
G04 Gerber Fmt 4.6, Leading zero omitted, Abs format (unit mm)*
G04 Created by KiCad (PCBNEW 4.0.0-rc1-stable) date 25.1.2017 19:41:53*
%MOMM*%
G01*
G04 APERTURE LIST*
%ADD10C,0.100000*%
%ADD11R,1.450000X1.000000*%
%ADD12R,0.750000X1.200000*%
%ADD13R,2.000000X0.800000*%
%ADD14R,1.970000X2.290000*%
%ADD15R,2.127200X2.432000*%
%ADD16O,2.127200X2.432000*%
%ADD17R,1.600000X2.200000*%
%ADD18R,1.000000X1.900000*%
%ADD19R,1.300000X1.600000*%
%ADD20R,2.432000X2.432000*%
%ADD21O,2.432000X2.432000*%
%ADD22C,1.906220*%
%ADD23R,1.900000X1.650000*%
%ADD24R,1.600000X1.300000*%
%ADD25R,2.127200X2.127200*%
%ADD26O,2.127200X2.127200*%
%ADD27O,1.900000X1.600000*%
%ADD28O,2.000000X1.600000*%
G04 APERTURE END LIST*
D10*
D11*
X45615000Y37335000D03*
X45615000Y39235000D03*
X42915000Y39235000D03*
X42915000Y37335000D03*
X42915000Y38285000D03*
D12*
X39065000Y20735000D03*
X39715000Y20735000D03*
X40365000Y20735000D03*
X41015000Y20735000D03*
X41015000Y18385000D03*
X40365000Y18385000D03*
X39065000Y18385000D03*
X39715000Y18385000D03*
D13*
X27440000Y39985000D03*
X27440000Y39335000D03*
X27440000Y38685000D03*
X27440000Y38035000D03*
X23240000Y38035000D03*
X23240000Y38685000D03*
X23240000Y39985000D03*
X23240000Y39335000D03*
D14*
X25340000Y39010000D03*
D15*
X3420000Y23840000D03*
D16*
X5960000Y23840000D03*
X8500000Y23840000D03*
X11040000Y23840000D03*
X13580000Y23840000D03*
X16120000Y23840000D03*
X18660000Y23840000D03*
X21200000Y23840000D03*
D17*
X33610000Y25830000D03*
X26010000Y25830000D03*
D18*
X32310000Y23330000D03*
X31310000Y23330000D03*
X30310000Y23330000D03*
X29310000Y23330000D03*
X28310000Y23330000D03*
X27310000Y23330000D03*
D19*
X23115000Y35310000D03*
X23115000Y33110000D03*
X20840000Y35310000D03*
X20840000Y33110000D03*
X25335000Y18400000D03*
X25335000Y20600000D03*
X23010000Y20600000D03*
X23010000Y18400000D03*
X18310000Y18400000D03*
X18310000Y20600000D03*
X20660000Y20600000D03*
X20660000Y18400000D03*
X13610000Y18390000D03*
X13610000Y20590000D03*
X15970000Y18400000D03*
X15970000Y20600000D03*
X9070000Y18390000D03*
X9070000Y20590000D03*
X11380000Y18390000D03*
X11380000Y20590000D03*
X20500000Y8320000D03*
X20500000Y6120000D03*
X22870000Y8320000D03*
X22870000Y6120000D03*
X11090000Y6150000D03*
X11090000Y8350000D03*
X18140000Y6120000D03*
X18140000Y8320000D03*
X8790000Y8350000D03*
X8790000Y6150000D03*
D20*
X12540000Y30585000D03*
D21*
X15080000Y30585000D03*
D20*
X31140000Y31830000D03*
D21*
X28600000Y31830000D03*
D22*
X54260000Y27640000D03*
X54260000Y30180000D03*
X41560000Y27640000D03*
X41560000Y30180000D03*
X44100000Y27640000D03*
X44100000Y30180000D03*
X46640000Y27640000D03*
X46640000Y30180000D03*
X49180000Y27640000D03*
X49180000Y30180000D03*
X51720000Y27640000D03*
X51720000Y30180000D03*
D19*
X15790000Y6130000D03*
X15790000Y8330000D03*
X13390000Y6130000D03*
X13390000Y8330000D03*
D23*
X48365000Y37635000D03*
X50865000Y37635000D03*
X5330000Y27100000D03*
X2830000Y27100000D03*
D24*
X3410000Y20820000D03*
X5610000Y20820000D03*
D23*
X36990000Y35130000D03*
X39490000Y35130000D03*
D24*
X33860000Y35130000D03*
X31660000Y35130000D03*
X38965000Y22735000D03*
X41165000Y22735000D03*
X47815000Y35035000D03*
X50015000Y35035000D03*
D25*
X33340000Y12660000D03*
D26*
X30800000Y12660000D03*
X33340000Y10120000D03*
X30800000Y10120000D03*
D27*
X37300000Y38090000D03*
D28*
X37300000Y39690000D03*
X35470000Y39690000D03*
X33640000Y39690000D03*
X33640000Y38090000D03*
X35470000Y38090000D03*
M02*
