G04 #@! TF.FileFunction,Soldermask,Top*
%FSLAX46Y46*%
G04 Gerber Fmt 4.6, Leading zero omitted, Abs format (unit mm)*
G04 Created by KiCad (PCBNEW 4.0.0-rc1-stable) date 30.1.2017 11:30:31*
%MOMM*%
G01*
G04 APERTURE LIST*
%ADD10C,0.100000*%
%ADD11R,1.450000X1.000000*%
%ADD12R,0.750000X1.200000*%
%ADD13R,2.000000X0.800000*%
%ADD14R,1.970000X2.290000*%
%ADD15R,2.127200X2.432000*%
%ADD16O,2.127200X2.432000*%
%ADD17R,1.600000X2.200000*%
%ADD18R,1.000000X1.900000*%
%ADD19R,1.300000X1.600000*%
%ADD20R,2.432000X2.432000*%
%ADD21O,2.432000X2.432000*%
%ADD22C,1.906220*%
%ADD23R,1.900000X1.650000*%
%ADD24R,1.600000X1.300000*%
%ADD25R,2.127200X2.127200*%
%ADD26O,2.127200X2.127200*%
%ADD27O,1.900000X1.600000*%
%ADD28O,2.000000X1.600000*%
G04 APERTURE END LIST*
D10*
D11*
X50660000Y37830000D03*
X50660000Y39730000D03*
X47960000Y39730000D03*
X47960000Y37830000D03*
X47960000Y38780000D03*
D12*
X35325000Y19265000D03*
X35975000Y19265000D03*
X36625000Y19265000D03*
X37275000Y19265000D03*
X37275000Y16915000D03*
X36625000Y16915000D03*
X35325000Y16915000D03*
X35975000Y16915000D03*
D13*
X24260000Y37855000D03*
X24260000Y37205000D03*
X24260000Y36555000D03*
X24260000Y35905000D03*
X20060000Y35905000D03*
X20060000Y36555000D03*
X20060000Y37855000D03*
X20060000Y37205000D03*
D14*
X22160000Y36880000D03*
D15*
X2890000Y23420000D03*
D16*
X5430000Y23420000D03*
X7970000Y23420000D03*
X10510000Y23420000D03*
X13050000Y23420000D03*
X15590000Y23420000D03*
X18130000Y23420000D03*
X20670000Y23420000D03*
D17*
X33080000Y25410000D03*
X25480000Y25410000D03*
D18*
X31780000Y22910000D03*
X30780000Y22910000D03*
X29780000Y22910000D03*
X28780000Y22910000D03*
X27780000Y22910000D03*
X26780000Y22910000D03*
D19*
X19900000Y31330000D03*
X19900000Y29130000D03*
X22490000Y31330000D03*
X22490000Y29130000D03*
X24805000Y17980000D03*
X24805000Y20180000D03*
X22480000Y20180000D03*
X22480000Y17980000D03*
X17780000Y17980000D03*
X17780000Y20180000D03*
X20130000Y20180000D03*
X20130000Y17980000D03*
X15560000Y17970000D03*
X15560000Y20170000D03*
X13280000Y17970000D03*
X13280000Y20170000D03*
X8540000Y17970000D03*
X8540000Y20170000D03*
X10850000Y17970000D03*
X10850000Y20170000D03*
X19970000Y7900000D03*
X19970000Y5700000D03*
X22340000Y7900000D03*
X22340000Y5700000D03*
X10560000Y5730000D03*
X10560000Y7930000D03*
X17610000Y5700000D03*
X17610000Y7900000D03*
X8260000Y7930000D03*
X8260000Y5730000D03*
D20*
X12020000Y30170000D03*
D21*
X14560000Y30170000D03*
D20*
X28030000Y30540000D03*
D21*
X30570000Y30540000D03*
D22*
X55740000Y26420000D03*
X55740000Y28960000D03*
X43040000Y26420000D03*
X43040000Y28960000D03*
X45580000Y26420000D03*
X45580000Y28960000D03*
X48120000Y26420000D03*
X48120000Y28960000D03*
X50660000Y26420000D03*
X50660000Y28960000D03*
X53200000Y26420000D03*
X53200000Y28960000D03*
D19*
X15260000Y5710000D03*
X15260000Y7910000D03*
X12860000Y5710000D03*
X12860000Y7910000D03*
D23*
X51750000Y33950000D03*
X54250000Y33950000D03*
X4800000Y26680000D03*
X2300000Y26680000D03*
D24*
X2880000Y20400000D03*
X5080000Y20400000D03*
D23*
X41300000Y33990000D03*
X43800000Y33990000D03*
D19*
X35930000Y31410000D03*
X35930000Y29210000D03*
D24*
X35330000Y21450000D03*
X37530000Y21450000D03*
X48670000Y33780000D03*
X46470000Y33780000D03*
D25*
X32810000Y12240000D03*
D26*
X30270000Y12240000D03*
X32810000Y9700000D03*
X30270000Y9700000D03*
D27*
X37430000Y34470000D03*
D28*
X37430000Y36070000D03*
X35600000Y36070000D03*
X33770000Y36070000D03*
X33770000Y34470000D03*
X35600000Y34470000D03*
M02*
