G04 #@! TF.FileFunction,Soldermask,Bot*
%FSLAX46Y46*%
G04 Gerber Fmt 4.6, Leading zero omitted, Abs format (unit mm)*
G04 Created by KiCad (PCBNEW 4.0.0-rc1-stable) date 27.1.2017 14:57:33*
%MOMM*%
G01*
G04 APERTURE LIST*
%ADD10C,0.100000*%
%ADD11R,2.127200X2.432000*%
%ADD12O,2.127200X2.432000*%
%ADD13R,2.432000X2.432000*%
%ADD14O,2.432000X2.432000*%
%ADD15C,1.906220*%
%ADD16R,1.900000X1.650000*%
%ADD17R,1.600000X1.300000*%
%ADD18R,1.300000X1.600000*%
%ADD19R,2.127200X2.127200*%
%ADD20O,2.127200X2.127200*%
%ADD21O,1.900000X1.600000*%
%ADD22O,2.000000X1.600000*%
%ADD23R,2.400000X1.400000*%
%ADD24R,1.400000X2.400000*%
G04 APERTURE END LIST*
D10*
D11*
X2890000Y23420000D03*
D12*
X5430000Y23420000D03*
X7970000Y23420000D03*
X10510000Y23420000D03*
X13050000Y23420000D03*
X15590000Y23420000D03*
X18130000Y23420000D03*
X20670000Y23420000D03*
D13*
X12020000Y30170000D03*
D14*
X14560000Y30170000D03*
D13*
X28030000Y30540000D03*
D14*
X30570000Y30540000D03*
D15*
X55740000Y26420000D03*
X55740000Y28960000D03*
X43040000Y26420000D03*
X43040000Y28960000D03*
X45580000Y26420000D03*
X45580000Y28960000D03*
X48120000Y26420000D03*
X48120000Y28960000D03*
X50660000Y26420000D03*
X50660000Y28960000D03*
X53200000Y26420000D03*
X53200000Y28960000D03*
D16*
X28035000Y27090000D03*
X30535000Y27090000D03*
D17*
X28210000Y24580000D03*
X30410000Y24580000D03*
D18*
X27060000Y7720000D03*
X27060000Y9920000D03*
D19*
X32810000Y12240000D03*
D20*
X30270000Y12240000D03*
X32810000Y9700000D03*
X30270000Y9700000D03*
D21*
X37430000Y34470000D03*
D22*
X37430000Y36070000D03*
X35600000Y36070000D03*
X33770000Y36070000D03*
X33770000Y34470000D03*
X35600000Y34470000D03*
D23*
X24030000Y4680000D03*
X24030000Y5950000D03*
X24030000Y7220000D03*
X24030000Y8490000D03*
X24030000Y9760000D03*
X24030000Y11030000D03*
X24030000Y3410000D03*
X24030000Y12300000D03*
X24030000Y13570000D03*
X24030000Y14840000D03*
X24030000Y16110000D03*
D24*
X8010000Y1660000D03*
X9280000Y1660000D03*
X10550000Y1660000D03*
X11820000Y1660000D03*
X13090000Y1660000D03*
X14360000Y1660000D03*
X15630000Y1660000D03*
X16900000Y1660000D03*
X18170000Y1660000D03*
X19440000Y1660000D03*
X20710000Y1660000D03*
X21980000Y1660000D03*
X8010000Y17860000D03*
X9280000Y17860000D03*
X10550000Y17860000D03*
X11820000Y17860000D03*
X13090000Y17860000D03*
X14360000Y17860000D03*
X15630000Y17860000D03*
X16900000Y17860000D03*
X18170000Y17860000D03*
X19440000Y17860000D03*
X20710000Y17860000D03*
X21980000Y17860000D03*
M02*
