G04 #@! TF.FileFunction,Copper,L2,Bot,Signal*
%FSLAX46Y46*%
G04 Gerber Fmt 4.6, Leading zero omitted, Abs format (unit mm)*
G04 Created by KiCad (PCBNEW 4.0.0-rc1-stable) date 24.1.2017 20:57:18*
%MOMM*%
G01*
G04 APERTURE LIST*
%ADD10C,0.100000*%
%ADD11R,1.727200X2.032000*%
%ADD12O,1.727200X2.032000*%
%ADD13R,2.000000X1.000000*%
%ADD14R,1.000000X2.000000*%
%ADD15R,2.032000X2.032000*%
%ADD16O,2.032000X2.032000*%
%ADD17C,1.506220*%
%ADD18R,1.500000X1.250000*%
%ADD19R,1.200000X0.900000*%
%ADD20R,0.900000X1.200000*%
%ADD21R,1.727200X1.727200*%
%ADD22O,1.727200X1.727200*%
%ADD23O,1.500000X1.200000*%
%ADD24O,1.600000X1.200000*%
%ADD25C,0.600000*%
%ADD26C,0.500000*%
%ADD27C,0.800000*%
%ADD28C,0.400000*%
G04 APERTURE END LIST*
D10*
D11*
X3420000Y23840000D03*
D12*
X5960000Y23840000D03*
X8500000Y23840000D03*
X11040000Y23840000D03*
X13580000Y23840000D03*
X16120000Y23840000D03*
X18660000Y23840000D03*
X21200000Y23840000D03*
D13*
X24690000Y5255000D03*
X24690000Y6525000D03*
X24690000Y7795000D03*
X24690000Y9065000D03*
X24690000Y10335000D03*
X24690000Y11605000D03*
X24690000Y3985000D03*
X24690000Y12875000D03*
X24690000Y14145000D03*
X24690000Y15415000D03*
X24690000Y16685000D03*
D14*
X8670000Y2235000D03*
X9940000Y2235000D03*
X11210000Y2235000D03*
X12480000Y2235000D03*
X13750000Y2235000D03*
X15020000Y2235000D03*
X16290000Y2235000D03*
X17560000Y2235000D03*
X18830000Y2235000D03*
X20100000Y2235000D03*
X21370000Y2235000D03*
X22640000Y2235000D03*
X8670000Y18435000D03*
X9940000Y18435000D03*
X11210000Y18435000D03*
X12480000Y18435000D03*
X13750000Y18435000D03*
X15020000Y18435000D03*
X16290000Y18435000D03*
X17560000Y18435000D03*
X18830000Y18435000D03*
X20100000Y18435000D03*
X21370000Y18435000D03*
X22640000Y18435000D03*
D15*
X12540000Y30585000D03*
D16*
X15080000Y30585000D03*
D15*
X31140000Y31830000D03*
D16*
X28600000Y31830000D03*
D17*
X54260000Y27640000D03*
X54260000Y30180000D03*
X41560000Y27640000D03*
X41560000Y30180000D03*
X44100000Y27640000D03*
X44100000Y30180000D03*
X46640000Y27640000D03*
X46640000Y30180000D03*
X49180000Y27640000D03*
X49180000Y30180000D03*
X51720000Y27640000D03*
X51720000Y30180000D03*
D18*
X31065000Y27510000D03*
X28565000Y27510000D03*
D19*
X30940000Y25000000D03*
X28740000Y25000000D03*
D20*
X27510000Y6170000D03*
X27510000Y8370000D03*
D21*
X33340000Y12660000D03*
D22*
X30800000Y12660000D03*
X33340000Y10120000D03*
X30800000Y10120000D03*
D23*
X37300000Y38090000D03*
D24*
X37300000Y39690000D03*
X35470000Y39690000D03*
X33640000Y39690000D03*
X33640000Y38090000D03*
X35470000Y38090000D03*
D25*
X18470000Y29830000D03*
X24300000Y22310000D03*
X25340000Y39010000D03*
X15730000Y11170000D03*
X15630000Y12880000D03*
X10630000Y14670000D03*
X61450000Y26210000D03*
X56120000Y29840000D03*
X44930000Y33300000D03*
X53020000Y32040000D03*
X49780000Y32380000D03*
X58970000Y32910000D03*
X32950000Y20120000D03*
X34080000Y15890000D03*
X35920000Y11520000D03*
X40580000Y16750000D03*
X29090000Y6110000D03*
X28880000Y9630000D03*
X38360000Y36730000D03*
X38850000Y30350000D03*
X28740000Y26090000D03*
X24500000Y25690000D03*
X18440000Y26860000D03*
X16390000Y26860000D03*
X28300000Y36030000D03*
X13330000Y25730000D03*
X11390000Y25730000D03*
X23110000Y28710000D03*
X55180000Y32280000D03*
X30050000Y29220000D03*
X35380000Y33860000D03*
X43780000Y35390000D03*
X21860000Y22130000D03*
X22970000Y10350000D03*
X29240000Y35230000D03*
X21420000Y38120000D03*
X12420000Y6140000D03*
X13790000Y14610000D03*
X42610000Y23000000D03*
X31340000Y3250000D03*
X28520000Y3250000D03*
X16130000Y3970000D03*
X37200000Y21860000D03*
X31350000Y4300000D03*
X28520000Y4300000D03*
X10470000Y3990000D03*
X9070000Y10550000D03*
X15020000Y3850000D03*
X27490000Y19200000D03*
X40430000Y28790000D03*
X21720000Y14710000D03*
X20140000Y11930000D03*
X30810000Y20150000D03*
X18650000Y13930000D03*
X36620000Y26710000D03*
X28700000Y21460000D03*
X17050000Y13060000D03*
X29620000Y20950000D03*
X34000000Y28200000D03*
X33270000Y27400000D03*
X15260000Y14660000D03*
X26680000Y34330000D03*
X26660000Y30760000D03*
X29990000Y38960000D03*
X26360000Y23310000D03*
X24460000Y36840000D03*
X21950000Y36840000D03*
X14720000Y6140000D03*
X27780000Y12860000D03*
X31930000Y18420000D03*
X13600000Y15620000D03*
X23530000Y27580000D03*
X13820000Y26860000D03*
X10230000Y21910000D03*
X11380000Y16670000D03*
X14280000Y12320000D03*
X25690000Y30760000D03*
X25690000Y34330000D03*
X30830000Y39540000D03*
X8680000Y4540000D03*
D26*
X18440000Y26860000D02*
X18440000Y29800000D01*
X18440000Y29800000D02*
X18470000Y29830000D01*
X15630000Y11270000D02*
X15730000Y11170000D01*
X15630000Y12880000D02*
X15630000Y11270000D01*
X61450000Y26210000D02*
X59750000Y26210000D01*
X59750000Y26210000D02*
X56120000Y29840000D01*
X34080000Y15890000D02*
X35100000Y15890000D01*
D27*
X38850000Y30350000D02*
X38850000Y29190000D01*
X36670000Y23840000D02*
X32950000Y20120000D01*
X38460000Y23840000D02*
X36670000Y23840000D01*
X39460000Y24840000D02*
X38460000Y23840000D01*
X39460000Y26350000D02*
X39460000Y24840000D01*
X39240000Y26570000D02*
X39460000Y26350000D01*
X39240000Y28800000D02*
X39240000Y26570000D01*
X38850000Y29190000D02*
X39240000Y28800000D01*
D26*
X35100000Y15890000D02*
X37040000Y13950000D01*
D27*
X35920000Y11520000D02*
X40580000Y16180000D01*
X40580000Y16180000D02*
X40580000Y16750000D01*
X29030000Y6170000D02*
X29090000Y6110000D01*
X27510000Y6170000D02*
X29030000Y6170000D01*
X24690000Y11605000D02*
X27225000Y11605000D01*
X28880000Y9950000D02*
X28880000Y9630000D01*
X27225000Y11605000D02*
X28880000Y9950000D01*
X33640000Y37080000D02*
X34000000Y36720000D01*
X34000000Y36720000D02*
X38350000Y36720000D01*
X38350000Y36720000D02*
X38360000Y36730000D01*
X33640000Y37080000D02*
X33640000Y38090000D01*
X41390000Y30350000D02*
X38850000Y30350000D01*
X41560000Y30180000D02*
X41390000Y30350000D01*
X24500000Y25690000D02*
X28280000Y25690000D01*
X28280000Y25690000D02*
X28740000Y25230000D01*
X16390000Y26860000D02*
X18440000Y26860000D01*
X28740000Y25230000D02*
X28740000Y25000000D01*
X13330000Y25730000D02*
X11390000Y25730000D01*
X28565000Y27510000D02*
X28740000Y27335000D01*
X28740000Y27335000D02*
X28740000Y26090000D01*
X28740000Y26090000D02*
X28740000Y25000000D01*
X27510000Y8370000D02*
X33870000Y8370000D01*
X33870000Y8370000D02*
X34960000Y9460000D01*
X24690000Y10335000D02*
X26735000Y10335000D01*
X27510000Y9560000D02*
X27510000Y8370000D01*
X26735000Y10335000D02*
X27510000Y9560000D01*
D26*
X23110000Y28710000D02*
X21580000Y27180000D01*
X21580000Y25970000D02*
X22770000Y24780000D01*
X21580000Y27180000D02*
X21580000Y25970000D01*
D27*
X23110000Y28710000D02*
X23110000Y28720000D01*
X23110000Y28720000D02*
X23110000Y28710000D01*
X23110000Y28710000D02*
X23110000Y28720000D01*
X35380000Y33860000D02*
X35380000Y34480000D01*
X39880000Y35390000D02*
X41620000Y35390000D01*
X39310000Y34820000D02*
X39880000Y35390000D01*
X35720000Y34820000D02*
X39310000Y34820000D01*
X35380000Y34480000D02*
X35720000Y34820000D01*
X43780000Y35390000D02*
X52070000Y35390000D01*
X52070000Y35390000D02*
X55180000Y32280000D01*
X24660000Y28720000D02*
X23110000Y28720000D01*
X26570000Y28720000D02*
X27070000Y29220000D01*
X27070000Y29220000D02*
X30050000Y29220000D01*
X25550000Y28720000D02*
X26290000Y28720000D01*
X24660000Y28720000D02*
X25550000Y28720000D01*
X26290000Y28720000D02*
X26570000Y28720000D01*
X41620000Y35390000D02*
X43780000Y35390000D01*
D26*
X22770000Y24780000D02*
X22770000Y24490000D01*
X22770000Y23040000D02*
X22770000Y24490000D01*
X21860000Y22130000D02*
X22770000Y23040000D01*
D27*
X33340000Y12660000D02*
X34960000Y11040000D01*
X34960000Y11040000D02*
X34960000Y9460000D01*
X34960000Y9460000D02*
X34000000Y8500000D01*
D26*
X22985000Y10335000D02*
X22970000Y10350000D01*
D27*
X22985000Y10335000D02*
X24690000Y10335000D01*
X28600000Y31830000D02*
X28600000Y34590000D01*
X28600000Y34590000D02*
X29240000Y35230000D01*
X15080000Y30585000D02*
X16325000Y31830000D01*
X16325000Y31830000D02*
X28600000Y31830000D01*
X19530000Y37670000D02*
X19980000Y38120000D01*
X19980000Y38120000D02*
X21420000Y38120000D01*
X12540000Y32980000D02*
X12540000Y30585000D01*
X13590000Y34030000D02*
X12540000Y32980000D01*
X15890000Y34030000D02*
X13590000Y34030000D01*
X19530000Y37670000D02*
X15890000Y34030000D01*
D28*
X11210000Y4930000D02*
X12420000Y6140000D01*
X11210000Y4930000D02*
X11210000Y2235000D01*
D26*
X13790000Y14610000D02*
X11970000Y12790000D01*
X11970000Y12790000D02*
X11970000Y12280000D01*
X11950000Y12260000D02*
X11970000Y12260000D01*
X11970000Y12280000D02*
X11950000Y12260000D01*
X13330000Y8850000D02*
X11970000Y10210000D01*
X11970000Y10210000D02*
X11970000Y12260000D01*
X11970000Y12260000D02*
X11970000Y12790000D01*
X13330000Y8850000D02*
X15560000Y6620000D01*
X42610000Y23000000D02*
X42610000Y25110000D01*
X42610000Y25110000D02*
X44100000Y26600000D01*
X44100000Y27640000D02*
X44100000Y26600000D01*
X15560000Y6620000D02*
X15560000Y4900000D01*
X30600000Y3250000D02*
X31340000Y3250000D01*
X30600000Y3250000D02*
X28520000Y3250000D01*
X16130000Y4330000D02*
X16130000Y3970000D01*
X13750000Y4340000D02*
X14310000Y4900000D01*
X14310000Y4900000D02*
X15560000Y4900000D01*
X13750000Y2235000D02*
X13750000Y4340000D01*
X15560000Y4900000D02*
X16130000Y4330000D01*
X41210000Y23030000D02*
X41550000Y23370000D01*
X41550000Y25410000D02*
X42830000Y26690000D01*
X41550000Y23370000D02*
X41550000Y25410000D01*
X42830000Y26870000D02*
X42830000Y26690000D01*
X42830000Y28910000D02*
X44100000Y30180000D01*
X42830000Y28910000D02*
X42830000Y26870000D01*
X40040000Y21860000D02*
X37200000Y21860000D01*
X41210000Y23030000D02*
X40040000Y21860000D01*
X30610000Y4300000D02*
X31350000Y4300000D01*
X30610000Y4300000D02*
X28520000Y4300000D01*
D28*
X10470000Y5130000D02*
X10470000Y3990000D01*
D26*
X9070000Y6530000D02*
X10060000Y5540000D01*
X9070000Y10550000D02*
X9070000Y6530000D01*
D28*
X10060000Y5540000D02*
X10470000Y5130000D01*
D26*
X15020000Y2235000D02*
X15020000Y3850000D01*
D28*
X33390000Y19200000D02*
X32590000Y19200000D01*
X27660000Y19370000D02*
X27490000Y19200000D01*
X32420000Y19370000D02*
X27660000Y19370000D01*
X32590000Y19200000D02*
X32420000Y19370000D01*
X36950000Y22760000D02*
X34365000Y20175000D01*
X40720000Y26480000D02*
X40720000Y24030000D01*
X40720000Y24030000D02*
X39450000Y22760000D01*
X37680000Y22760000D02*
X39450000Y22760000D01*
X40720000Y26480000D02*
X40190000Y27010000D01*
X40190000Y28550000D02*
X40190000Y27010000D01*
X40430000Y28790000D02*
X40190000Y28550000D01*
X37680000Y22760000D02*
X36950000Y22760000D01*
X34365000Y20175000D02*
X33390000Y19200000D01*
D26*
X21720000Y14340000D02*
X21720000Y14710000D01*
X24690000Y9065000D02*
X22305000Y9065000D01*
X21720000Y9650000D02*
X21720000Y14340000D01*
X22305000Y9065000D02*
X21720000Y9650000D01*
X37740000Y30920000D02*
X37740000Y28640000D01*
X38250000Y25620000D02*
X37510000Y24880000D01*
X38250000Y28130000D02*
X38250000Y25620000D01*
X37740000Y28640000D02*
X38250000Y28130000D01*
X41000000Y31590000D02*
X38380000Y31590000D01*
X37740000Y30950000D02*
X37740000Y30920000D01*
X38380000Y31590000D02*
X37740000Y30950000D01*
D28*
X20140000Y11930000D02*
X20130000Y11930000D01*
X20130000Y11930000D02*
X20140000Y11930000D01*
X20140000Y11930000D02*
X20130000Y11930000D01*
X30810000Y20150000D02*
X31460000Y20150000D01*
D26*
X45230000Y31590000D02*
X41710000Y31590000D01*
X45230000Y31590000D02*
X46640000Y30180000D01*
X41710000Y31590000D02*
X41000000Y31590000D01*
D28*
X36190000Y24880000D02*
X37510000Y24880000D01*
X31460000Y20150000D02*
X36190000Y24880000D01*
X20750000Y8490000D02*
X20130000Y9110000D01*
X20130000Y9110000D02*
X20130000Y11930000D01*
X24690000Y7795000D02*
X21445000Y7795000D01*
X21445000Y7795000D02*
X20750000Y8490000D01*
X33040000Y24030000D02*
X35720000Y26710000D01*
X35720000Y26710000D02*
X36620000Y26710000D01*
X28700000Y21460000D02*
X29030000Y21790000D01*
X30800000Y21790000D02*
X33040000Y24030000D01*
X29030000Y21790000D02*
X30800000Y21790000D01*
X19740000Y7150000D02*
X19740000Y7990000D01*
X18650000Y9080000D02*
X18650000Y13930000D01*
X19740000Y7990000D02*
X18650000Y9080000D01*
X24690000Y6525000D02*
X20335000Y6525000D01*
X19740000Y7120000D02*
X19740000Y7150000D01*
X20335000Y6525000D02*
X19740000Y7120000D01*
D26*
X37165000Y27965000D02*
X37425000Y27705000D01*
X37425000Y27705000D02*
X37425000Y26215000D01*
X40730000Y32400000D02*
X37290000Y32400000D01*
X36530000Y28600000D02*
X37165000Y27965000D01*
X36530000Y31640000D02*
X36530000Y28600000D01*
X37290000Y32400000D02*
X36530000Y31640000D01*
D28*
X29620000Y20950000D02*
X31040000Y20950000D01*
X36960000Y25750000D02*
X37425000Y26215000D01*
X35840000Y25750000D02*
X36960000Y25750000D01*
X31040000Y20950000D02*
X35840000Y25750000D01*
D26*
X46960000Y32400000D02*
X42330000Y32400000D01*
X46960000Y32400000D02*
X49180000Y30180000D01*
X42330000Y32400000D02*
X40730000Y32400000D01*
D28*
X29620000Y20950000D02*
X29630000Y20940000D01*
X18650000Y7490000D02*
X18650000Y7670000D01*
X19455000Y5255000D02*
X18650000Y6060000D01*
X18650000Y6060000D02*
X18650000Y7490000D01*
X24690000Y5255000D02*
X19455000Y5255000D01*
X18650000Y7670000D02*
X17050000Y9270000D01*
X17050000Y9270000D02*
X17050000Y13060000D01*
D26*
X33030000Y33420000D02*
X33030000Y29170000D01*
X33030000Y29170000D02*
X34000000Y28200000D01*
X31890000Y37290000D02*
X31890000Y34560000D01*
X31890000Y34560000D02*
X33030000Y33420000D01*
X31890000Y37290000D02*
X31890000Y39850000D01*
D28*
X34470000Y40690000D02*
X32730000Y40690000D01*
X32730000Y40690000D02*
X31890000Y39850000D01*
X35470000Y39690000D02*
X34470000Y40690000D01*
D26*
X24690000Y15415000D02*
X29300000Y15415000D01*
X29300000Y15415000D02*
X29300000Y15410000D01*
X29300000Y15410000D02*
X29300000Y15415000D01*
X29295000Y15415000D02*
X29300000Y15410000D01*
X30800000Y12660000D02*
X30800000Y13910000D01*
X30800000Y13910000D02*
X29295000Y15415000D01*
X29060000Y11860000D02*
X30800000Y10120000D01*
X29060000Y13590000D02*
X29060000Y11860000D01*
X34090000Y29550000D02*
X34090000Y29320000D01*
X37300000Y39690000D02*
X38340000Y39690000D01*
X38340000Y39690000D02*
X39310000Y38720000D01*
X34090000Y34280000D02*
X34090000Y29550000D01*
X34090000Y35130000D02*
X34740000Y35780000D01*
X34740000Y35780000D02*
X38750000Y35780000D01*
X38750000Y35780000D02*
X39310000Y36340000D01*
X39310000Y36340000D02*
X39310000Y38720000D01*
X34090000Y34280000D02*
X34090000Y35130000D01*
X34260000Y27400000D02*
X33270000Y27400000D01*
X34770000Y27910000D02*
X34260000Y27400000D01*
X34770000Y28640000D02*
X34770000Y27910000D01*
X34090000Y29320000D02*
X34770000Y28640000D01*
X24690000Y14145000D02*
X28505000Y14145000D01*
X28505000Y14145000D02*
X29060000Y13590000D01*
X14260000Y13660000D02*
X13120000Y12520000D01*
X13120000Y12520000D02*
X13120000Y12160000D01*
X15260000Y14660000D02*
X14260000Y13660000D01*
X13120000Y10540000D02*
X14380000Y9280000D01*
X13120000Y12520000D02*
X13120000Y12160000D01*
X13120000Y12160000D02*
X13120000Y10540000D01*
X14380000Y9280000D02*
X16530000Y7130000D01*
X16530000Y5250000D02*
X16530000Y7130000D01*
X17560000Y4220000D02*
X16530000Y5250000D01*
X17560000Y2235000D02*
X17560000Y4220000D01*
X20750000Y29860000D02*
X19900000Y29010000D01*
X19900000Y26700000D02*
X19460000Y26260000D01*
X19900000Y29010000D02*
X19900000Y26700000D01*
X17560000Y22280000D02*
X17560000Y18435000D01*
X19460000Y26260000D02*
X19440000Y26240000D01*
X18130000Y25860000D02*
X17390000Y25120000D01*
X19060000Y25860000D02*
X18130000Y25860000D01*
X19440000Y26240000D02*
X19060000Y25860000D01*
D28*
X17390000Y25120000D02*
X17390000Y24620000D01*
X17560000Y22280000D02*
X17390000Y22450000D01*
X17390000Y22450000D02*
X17390000Y24620000D01*
D26*
X26080000Y29860000D02*
X20750000Y29860000D01*
X26680000Y34330000D02*
X26680000Y35650000D01*
X26660000Y30440000D02*
X26660000Y30760000D01*
X26080000Y29860000D02*
X26660000Y30440000D01*
X26680000Y35650000D02*
X29990000Y38960000D01*
D28*
X29990000Y38960000D02*
X29990000Y38970000D01*
D27*
X30940000Y24310000D02*
X29940000Y23310000D01*
X29940000Y23310000D02*
X26360000Y23310000D01*
X30940000Y24310000D02*
X30940000Y25000000D01*
X31065000Y27510000D02*
X30940000Y27385000D01*
X30940000Y27385000D02*
X30940000Y25000000D01*
X31140000Y31830000D02*
X31140000Y27585000D01*
X31140000Y27585000D02*
X31065000Y27510000D01*
X24460000Y36840000D02*
X21950000Y36840000D01*
D28*
X12480000Y4830000D02*
X13790000Y6140000D01*
X13790000Y6140000D02*
X14720000Y6140000D01*
X12480000Y4830000D02*
X12480000Y2235000D01*
D26*
X54260000Y27640000D02*
X51490000Y24870000D01*
X51490000Y24870000D02*
X46530000Y24870000D01*
X35555000Y18395000D02*
X34730000Y17570000D01*
X27540000Y17570000D02*
X27070000Y18040000D01*
X34730000Y17570000D02*
X27540000Y17570000D01*
X37290000Y20130000D02*
X42290000Y20130000D01*
X35555000Y18395000D02*
X37290000Y20130000D01*
X44070000Y21910000D02*
X44840000Y22680000D01*
X42290000Y20130000D02*
X44070000Y21910000D01*
X44840000Y23180000D02*
X46530000Y24870000D01*
X44840000Y22680000D02*
X44840000Y23180000D01*
X27070000Y18040000D02*
X24310000Y20800000D01*
X23650000Y20800000D02*
X24310000Y20800000D01*
X18830000Y18435000D02*
X18830000Y19680000D01*
X19950000Y20800000D02*
X23650000Y20800000D01*
X18830000Y19680000D02*
X19950000Y20800000D01*
X52390000Y23920000D02*
X52680000Y23920000D01*
X55680000Y26920000D02*
X55680000Y27070000D01*
X52680000Y23920000D02*
X55680000Y26920000D01*
X54260000Y30180000D02*
X55680000Y28760000D01*
X52390000Y23920000D02*
X52380000Y23910000D01*
X55680000Y28760000D02*
X55680000Y27070000D01*
X26180000Y17700000D02*
X27080000Y16800000D01*
X35330000Y16800000D02*
X37730000Y19200000D01*
X27080000Y16800000D02*
X35330000Y16800000D01*
X42630000Y19200000D02*
X43220000Y19790000D01*
X46670000Y23910000D02*
X52380000Y23910000D01*
X45720000Y22960000D02*
X46670000Y23910000D01*
X43220000Y19790000D02*
X44950000Y21520000D01*
X45720000Y22290000D02*
X45720000Y22960000D01*
X44950000Y21520000D02*
X45720000Y22290000D01*
X37730000Y19200000D02*
X42630000Y19200000D01*
X23800000Y20080000D02*
X23660000Y20080000D01*
X26180000Y17700000D02*
X23800000Y20080000D01*
X20100000Y18435000D02*
X20100000Y19530000D01*
X20650000Y20080000D02*
X23660000Y20080000D01*
X20100000Y19530000D02*
X20650000Y20080000D01*
X33980000Y18420000D02*
X31930000Y18420000D01*
X27765000Y12875000D02*
X27780000Y12860000D01*
X24690000Y12875000D02*
X27765000Y12875000D01*
X36630000Y20920000D02*
X41830000Y20920000D01*
X43900000Y22990000D02*
X43900000Y23410000D01*
X50090000Y26010000D02*
X49970000Y25890000D01*
X50090000Y26010000D02*
X51720000Y27640000D01*
X49970000Y25890000D02*
X46380000Y25890000D01*
X46380000Y25890000D02*
X43900000Y23410000D01*
X41830000Y20920000D02*
X43900000Y22990000D01*
X33980000Y18420000D02*
X34130000Y18420000D01*
X34130000Y18420000D02*
X36630000Y20920000D01*
X23275000Y12875000D02*
X22920000Y13230000D01*
X22920000Y13230000D02*
X22920000Y15210000D01*
X22920000Y15210000D02*
X22510000Y15620000D01*
X22510000Y15620000D02*
X13600000Y15620000D01*
X23275000Y12875000D02*
X24690000Y12875000D01*
D28*
X32330000Y24280000D02*
X35490000Y27440000D01*
X35490000Y27440000D02*
X35490000Y27600000D01*
X25870000Y22470000D02*
X30370000Y22470000D01*
X30370000Y22470000D02*
X30520000Y22470000D01*
X30520000Y22470000D02*
X32330000Y24280000D01*
X25565000Y22775000D02*
X25870000Y22470000D01*
X51720000Y32900000D02*
X50140000Y34480000D01*
X51720000Y32900000D02*
X51720000Y30180000D01*
X35490000Y32770000D02*
X35490000Y27600000D01*
X36670000Y33950000D02*
X35490000Y32770000D01*
X39790000Y33950000D02*
X36670000Y33950000D01*
X40320000Y34480000D02*
X39790000Y33950000D01*
X50140000Y34480000D02*
X40320000Y34480000D01*
D26*
X23530000Y27580000D02*
X23570000Y27540000D01*
X9770000Y26000000D02*
X10630000Y26860000D01*
X10630000Y26860000D02*
X13820000Y26860000D01*
D28*
X10230000Y21910000D02*
X9770000Y22370000D01*
X9770000Y22370000D02*
X9770000Y24900000D01*
D26*
X9770000Y24900000D02*
X9770000Y26000000D01*
X23570000Y24770000D02*
X25565000Y22775000D01*
X25565000Y22775000D02*
X25570000Y22770000D01*
X23570000Y27540000D02*
X23570000Y24770000D01*
X24675000Y16670000D02*
X11380000Y16670000D01*
X24675000Y16670000D02*
X24690000Y16685000D01*
X15430000Y9610000D02*
X17510000Y7530000D01*
X14280000Y12200000D02*
X14280000Y10760000D01*
X14280000Y10760000D02*
X15430000Y9610000D01*
X14280000Y12320000D02*
X14280000Y12200000D01*
X18830000Y2235000D02*
X18830000Y4130000D01*
X18830000Y4130000D02*
X17510000Y5450000D01*
X17510000Y5450000D02*
X17510000Y7530000D01*
X17510000Y7530000D02*
X17510000Y7570000D01*
X25690000Y30760000D02*
X17900000Y30760000D01*
X14850000Y27710000D02*
X14850000Y25210000D01*
X17900000Y30760000D02*
X14850000Y27710000D01*
X27030000Y37470000D02*
X25690000Y36130000D01*
X25690000Y36130000D02*
X25690000Y34330000D01*
X28490000Y38930000D02*
X29430000Y39870000D01*
X29430000Y39870000D02*
X30500000Y39870000D01*
X30500000Y39870000D02*
X30830000Y39540000D01*
X27030000Y37470000D02*
X28490000Y38930000D01*
D28*
X14850000Y25210000D02*
X14850000Y25000000D01*
X15020000Y22300000D02*
X14850000Y22470000D01*
X14850000Y22470000D02*
X14850000Y25000000D01*
D26*
X15020000Y18435000D02*
X15020000Y22300000D01*
D27*
X8670000Y4530000D02*
X8680000Y4540000D01*
X8670000Y4530000D02*
X8670000Y2235000D01*
D28*
G36*
X32217201Y3483791D02*
X32103428Y3759143D01*
X32092784Y3769806D01*
X32112538Y3789525D01*
X32249843Y4120194D01*
X32250156Y4478236D01*
X32113428Y4809143D01*
X31860475Y5062538D01*
X31529806Y5199843D01*
X31171764Y5200156D01*
X31050377Y5150000D01*
X28819842Y5150000D01*
X28699806Y5199843D01*
X28341764Y5200156D01*
X28010857Y5063428D01*
X27757462Y4810475D01*
X27620157Y4479806D01*
X27619844Y4121764D01*
X27756572Y3790857D01*
X27772207Y3775194D01*
X27757462Y3760475D01*
X27620157Y3429806D01*
X27619844Y3071764D01*
X27756572Y2740857D01*
X28009525Y2487462D01*
X28340194Y2350157D01*
X28698236Y2349844D01*
X28819623Y2400000D01*
X31040158Y2400000D01*
X31160194Y2350157D01*
X31397922Y2349949D01*
X30645495Y1308628D01*
X30215452Y909018D01*
X29689887Y713569D01*
X29487806Y697400D01*
X23412568Y697400D01*
X23566558Y796490D01*
X23703556Y996993D01*
X23751754Y1235000D01*
X23751754Y2873246D01*
X25690000Y2873246D01*
X25912346Y2915083D01*
X26116558Y3046490D01*
X26253556Y3246993D01*
X26301754Y3485000D01*
X26301754Y4485000D01*
X26275419Y4624957D01*
X26301754Y4755000D01*
X26301754Y5755000D01*
X26275419Y5894957D01*
X26301754Y6025000D01*
X26301754Y7025000D01*
X26275419Y7164957D01*
X26301754Y7295000D01*
X26301754Y8295000D01*
X26275419Y8434957D01*
X26301754Y8565000D01*
X26301754Y9335000D01*
X26320786Y9335000D01*
X26488249Y9167538D01*
X26448246Y8970000D01*
X26448246Y7770000D01*
X26490083Y7547654D01*
X26621490Y7343442D01*
X26821993Y7206444D01*
X27060000Y7158246D01*
X27960000Y7158246D01*
X28182346Y7200083D01*
X28386558Y7331490D01*
X28412871Y7370000D01*
X33870000Y7370000D01*
X34252684Y7446120D01*
X34577107Y7662893D01*
X35667107Y8752893D01*
X35883880Y9077316D01*
X35960000Y9460000D01*
X35960000Y11040000D01*
X35928174Y11200000D01*
X35883880Y11422684D01*
X35667107Y11747107D01*
X34815354Y12598860D01*
X34815354Y13523600D01*
X34773517Y13745946D01*
X34642110Y13950158D01*
X34441607Y14087156D01*
X34203600Y14135354D01*
X32476400Y14135354D01*
X32254054Y14093517D01*
X32049842Y13962110D01*
X31912844Y13761607D01*
X31888813Y13642940D01*
X31834921Y13723595D01*
X31650000Y13847155D01*
X31650000Y13910000D01*
X31585298Y14235281D01*
X31401041Y14511041D01*
X31401038Y14511043D01*
X29962082Y15950000D01*
X35330000Y15950000D01*
X35655281Y16014702D01*
X35931041Y16198959D01*
X38082081Y18350000D01*
X42630000Y18350000D01*
X42955281Y18414702D01*
X43052995Y18479993D01*
X32217201Y3483791D01*
X32217201Y3483791D01*
G37*
X32217201Y3483791D02*
X32103428Y3759143D01*
X32092784Y3769806D01*
X32112538Y3789525D01*
X32249843Y4120194D01*
X32250156Y4478236D01*
X32113428Y4809143D01*
X31860475Y5062538D01*
X31529806Y5199843D01*
X31171764Y5200156D01*
X31050377Y5150000D01*
X28819842Y5150000D01*
X28699806Y5199843D01*
X28341764Y5200156D01*
X28010857Y5063428D01*
X27757462Y4810475D01*
X27620157Y4479806D01*
X27619844Y4121764D01*
X27756572Y3790857D01*
X27772207Y3775194D01*
X27757462Y3760475D01*
X27620157Y3429806D01*
X27619844Y3071764D01*
X27756572Y2740857D01*
X28009525Y2487462D01*
X28340194Y2350157D01*
X28698236Y2349844D01*
X28819623Y2400000D01*
X31040158Y2400000D01*
X31160194Y2350157D01*
X31397922Y2349949D01*
X30645495Y1308628D01*
X30215452Y909018D01*
X29689887Y713569D01*
X29487806Y697400D01*
X23412568Y697400D01*
X23566558Y796490D01*
X23703556Y996993D01*
X23751754Y1235000D01*
X23751754Y2873246D01*
X25690000Y2873246D01*
X25912346Y2915083D01*
X26116558Y3046490D01*
X26253556Y3246993D01*
X26301754Y3485000D01*
X26301754Y4485000D01*
X26275419Y4624957D01*
X26301754Y4755000D01*
X26301754Y5755000D01*
X26275419Y5894957D01*
X26301754Y6025000D01*
X26301754Y7025000D01*
X26275419Y7164957D01*
X26301754Y7295000D01*
X26301754Y8295000D01*
X26275419Y8434957D01*
X26301754Y8565000D01*
X26301754Y9335000D01*
X26320786Y9335000D01*
X26488249Y9167538D01*
X26448246Y8970000D01*
X26448246Y7770000D01*
X26490083Y7547654D01*
X26621490Y7343442D01*
X26821993Y7206444D01*
X27060000Y7158246D01*
X27960000Y7158246D01*
X28182346Y7200083D01*
X28386558Y7331490D01*
X28412871Y7370000D01*
X33870000Y7370000D01*
X34252684Y7446120D01*
X34577107Y7662893D01*
X35667107Y8752893D01*
X35883880Y9077316D01*
X35960000Y9460000D01*
X35960000Y11040000D01*
X35928174Y11200000D01*
X35883880Y11422684D01*
X35667107Y11747107D01*
X34815354Y12598860D01*
X34815354Y13523600D01*
X34773517Y13745946D01*
X34642110Y13950158D01*
X34441607Y14087156D01*
X34203600Y14135354D01*
X32476400Y14135354D01*
X32254054Y14093517D01*
X32049842Y13962110D01*
X31912844Y13761607D01*
X31888813Y13642940D01*
X31834921Y13723595D01*
X31650000Y13847155D01*
X31650000Y13910000D01*
X31585298Y14235281D01*
X31401041Y14511041D01*
X31401038Y14511043D01*
X29962082Y15950000D01*
X35330000Y15950000D01*
X35655281Y16014702D01*
X35931041Y16198959D01*
X38082081Y18350000D01*
X42630000Y18350000D01*
X42955281Y18414702D01*
X43052995Y18479993D01*
X32217201Y3483791D01*
G36*
X11832893Y33687107D02*
X11616120Y33362684D01*
X11549946Y33030000D01*
X11540000Y32980000D01*
X11540000Y32212754D01*
X11524000Y32212754D01*
X11301654Y32170917D01*
X11097442Y32039510D01*
X10960444Y31839007D01*
X10912246Y31601000D01*
X10912246Y29569000D01*
X10954083Y29346654D01*
X11085490Y29142442D01*
X11285993Y29005444D01*
X11524000Y28957246D01*
X13556000Y28957246D01*
X13778346Y28999083D01*
X13982558Y29130490D01*
X14104732Y29309297D01*
X14429925Y29092011D01*
X14930382Y28992464D01*
X14248959Y28311041D01*
X14064702Y28035281D01*
X14009143Y27755966D01*
X13999806Y27759843D01*
X13641764Y27760156D01*
X13520377Y27710000D01*
X10630005Y27710000D01*
X10630000Y27710001D01*
X10304719Y27645298D01*
X10028959Y27461041D01*
X9168959Y26601041D01*
X8984702Y26325281D01*
X8920000Y26000000D01*
X8920000Y25404116D01*
X8500000Y25487659D01*
X7939905Y25376249D01*
X7465079Y25058980D01*
X7147810Y24584154D01*
X7036400Y24024059D01*
X7036400Y23655941D01*
X7147810Y23095846D01*
X7465079Y22621020D01*
X7939905Y22303751D01*
X8500000Y22192341D01*
X8986105Y22289033D01*
X9014983Y22143853D01*
X9030896Y22063853D01*
X9204315Y21804315D01*
X9367148Y21641482D01*
X9466572Y21400857D01*
X9719525Y21147462D01*
X10050194Y21010157D01*
X10408236Y21009844D01*
X10739143Y21146572D01*
X10992538Y21399525D01*
X11129843Y21730194D01*
X11130156Y22088236D01*
X11083560Y22201006D01*
X11600095Y22303751D01*
X12074921Y22621020D01*
X12310000Y22972840D01*
X12545079Y22621020D01*
X13019905Y22303751D01*
X13580000Y22192341D01*
X14085239Y22292839D01*
X14105695Y22190000D01*
X14110896Y22163853D01*
X14170000Y22075398D01*
X14170000Y20046754D01*
X13250000Y20046754D01*
X13110043Y20020419D01*
X12980000Y20046754D01*
X11980000Y20046754D01*
X11840043Y20020419D01*
X11710000Y20046754D01*
X10710000Y20046754D01*
X10570043Y20020419D01*
X10440000Y20046754D01*
X9440000Y20046754D01*
X9300043Y20020419D01*
X9170000Y20046754D01*
X8170000Y20046754D01*
X7947654Y20004917D01*
X7743442Y19873510D01*
X7606444Y19673007D01*
X7558246Y19435000D01*
X7558246Y19110000D01*
X1470000Y19110000D01*
X1397417Y19096365D01*
X1330629Y19053443D01*
X1285803Y18987919D01*
X1270000Y18910117D01*
X1260000Y1760117D01*
X1273678Y1687309D01*
X1316638Y1620546D01*
X1382189Y1575757D01*
X1460000Y1560000D01*
X7558246Y1560000D01*
X7558246Y1235000D01*
X7600083Y1012654D01*
X7731490Y808442D01*
X7894005Y697400D01*
X2120121Y697400D01*
X1544351Y811927D01*
X1110509Y1101811D01*
X820627Y1535651D01*
X706100Y2111418D01*
X706100Y24856000D01*
X1944646Y24856000D01*
X1944646Y22824000D01*
X1986483Y22601654D01*
X2117890Y22397442D01*
X2318393Y22260444D01*
X2556400Y22212246D01*
X4283600Y22212246D01*
X4505946Y22254083D01*
X4710158Y22385490D01*
X4847156Y22585993D01*
X4895354Y22824000D01*
X4895354Y24856000D01*
X4853517Y25078346D01*
X4722110Y25282558D01*
X4521607Y25419556D01*
X4283600Y25467754D01*
X2556400Y25467754D01*
X2334054Y25425917D01*
X2129842Y25294510D01*
X1992844Y25094007D01*
X1944646Y24856000D01*
X706100Y24856000D01*
X706100Y31633398D01*
X4410100Y31633398D01*
X4581371Y30772360D01*
X5069110Y30042408D01*
X5799062Y29554669D01*
X6660100Y29383398D01*
X7521138Y29554669D01*
X8251090Y30042408D01*
X8738829Y30772360D01*
X8910100Y31633398D01*
X8738829Y32494436D01*
X8251090Y33224388D01*
X7521138Y33712127D01*
X6660100Y33883398D01*
X5799062Y33712127D01*
X5069110Y33224388D01*
X4581371Y32494436D01*
X4410100Y31633398D01*
X706100Y31633398D01*
X706100Y32781382D01*
X820627Y33357149D01*
X1110509Y33790989D01*
X1544351Y34080873D01*
X2120121Y34195400D01*
X12341186Y34195400D01*
X11832893Y33687107D01*
X11832893Y33687107D01*
G37*
X11832893Y33687107D02*
X11616120Y33362684D01*
X11549946Y33030000D01*
X11540000Y32980000D01*
X11540000Y32212754D01*
X11524000Y32212754D01*
X11301654Y32170917D01*
X11097442Y32039510D01*
X10960444Y31839007D01*
X10912246Y31601000D01*
X10912246Y29569000D01*
X10954083Y29346654D01*
X11085490Y29142442D01*
X11285993Y29005444D01*
X11524000Y28957246D01*
X13556000Y28957246D01*
X13778346Y28999083D01*
X13982558Y29130490D01*
X14104732Y29309297D01*
X14429925Y29092011D01*
X14930382Y28992464D01*
X14248959Y28311041D01*
X14064702Y28035281D01*
X14009143Y27755966D01*
X13999806Y27759843D01*
X13641764Y27760156D01*
X13520377Y27710000D01*
X10630005Y27710000D01*
X10630000Y27710001D01*
X10304719Y27645298D01*
X10028959Y27461041D01*
X9168959Y26601041D01*
X8984702Y26325281D01*
X8920000Y26000000D01*
X8920000Y25404116D01*
X8500000Y25487659D01*
X7939905Y25376249D01*
X7465079Y25058980D01*
X7147810Y24584154D01*
X7036400Y24024059D01*
X7036400Y23655941D01*
X7147810Y23095846D01*
X7465079Y22621020D01*
X7939905Y22303751D01*
X8500000Y22192341D01*
X8986105Y22289033D01*
X9014983Y22143853D01*
X9030896Y22063853D01*
X9204315Y21804315D01*
X9367148Y21641482D01*
X9466572Y21400857D01*
X9719525Y21147462D01*
X10050194Y21010157D01*
X10408236Y21009844D01*
X10739143Y21146572D01*
X10992538Y21399525D01*
X11129843Y21730194D01*
X11130156Y22088236D01*
X11083560Y22201006D01*
X11600095Y22303751D01*
X12074921Y22621020D01*
X12310000Y22972840D01*
X12545079Y22621020D01*
X13019905Y22303751D01*
X13580000Y22192341D01*
X14085239Y22292839D01*
X14105695Y22190000D01*
X14110896Y22163853D01*
X14170000Y22075398D01*
X14170000Y20046754D01*
X13250000Y20046754D01*
X13110043Y20020419D01*
X12980000Y20046754D01*
X11980000Y20046754D01*
X11840043Y20020419D01*
X11710000Y20046754D01*
X10710000Y20046754D01*
X10570043Y20020419D01*
X10440000Y20046754D01*
X9440000Y20046754D01*
X9300043Y20020419D01*
X9170000Y20046754D01*
X8170000Y20046754D01*
X7947654Y20004917D01*
X7743442Y19873510D01*
X7606444Y19673007D01*
X7558246Y19435000D01*
X7558246Y19110000D01*
X1470000Y19110000D01*
X1397417Y19096365D01*
X1330629Y19053443D01*
X1285803Y18987919D01*
X1270000Y18910117D01*
X1260000Y1760117D01*
X1273678Y1687309D01*
X1316638Y1620546D01*
X1382189Y1575757D01*
X1460000Y1560000D01*
X7558246Y1560000D01*
X7558246Y1235000D01*
X7600083Y1012654D01*
X7731490Y808442D01*
X7894005Y697400D01*
X2120121Y697400D01*
X1544351Y811927D01*
X1110509Y1101811D01*
X820627Y1535651D01*
X706100Y2111418D01*
X706100Y24856000D01*
X1944646Y24856000D01*
X1944646Y22824000D01*
X1986483Y22601654D01*
X2117890Y22397442D01*
X2318393Y22260444D01*
X2556400Y22212246D01*
X4283600Y22212246D01*
X4505946Y22254083D01*
X4710158Y22385490D01*
X4847156Y22585993D01*
X4895354Y22824000D01*
X4895354Y24856000D01*
X4853517Y25078346D01*
X4722110Y25282558D01*
X4521607Y25419556D01*
X4283600Y25467754D01*
X2556400Y25467754D01*
X2334054Y25425917D01*
X2129842Y25294510D01*
X1992844Y25094007D01*
X1944646Y24856000D01*
X706100Y24856000D01*
X706100Y31633398D01*
X4410100Y31633398D01*
X4581371Y30772360D01*
X5069110Y30042408D01*
X5799062Y29554669D01*
X6660100Y29383398D01*
X7521138Y29554669D01*
X8251090Y30042408D01*
X8738829Y30772360D01*
X8910100Y31633398D01*
X8738829Y32494436D01*
X8251090Y33224388D01*
X7521138Y33712127D01*
X6660100Y33883398D01*
X5799062Y33712127D01*
X5069110Y33224388D01*
X4581371Y32494436D01*
X4410100Y31633398D01*
X706100Y31633398D01*
X706100Y32781382D01*
X820627Y33357149D01*
X1110509Y33790989D01*
X1544351Y34080873D01*
X2120121Y34195400D01*
X12341186Y34195400D01*
X11832893Y33687107D01*
G36*
X7931993Y16871444D02*
X8170000Y16823246D01*
X9170000Y16823246D01*
X9309957Y16849581D01*
X9440000Y16823246D01*
X10440000Y16823246D01*
X10480140Y16830799D01*
X10479844Y16491764D01*
X10616572Y16160857D01*
X10869525Y15907462D01*
X11200194Y15770157D01*
X11558236Y15769844D01*
X11679623Y15820000D01*
X12708542Y15820000D01*
X12700157Y15799806D01*
X12699844Y15441764D01*
X12836572Y15110857D01*
X12962563Y14984645D01*
X11368959Y13391041D01*
X11184702Y13115281D01*
X11120000Y12790000D01*
X11120000Y12360547D01*
X11100000Y12260000D01*
X11120000Y12159453D01*
X11120000Y10210000D01*
X11184702Y9884719D01*
X11368959Y9608959D01*
X12728957Y8248962D01*
X12728959Y8248959D01*
X14037918Y6940000D01*
X13790000Y6940000D01*
X13483853Y6879104D01*
X13224315Y6705686D01*
X13175607Y6656978D01*
X12930475Y6902538D01*
X12599806Y7039843D01*
X12241764Y7040156D01*
X11910857Y6903428D01*
X11657462Y6650475D01*
X11556884Y6408255D01*
X10940000Y5791371D01*
X10803430Y5927940D01*
X10661040Y6141041D01*
X9920000Y6882082D01*
X9920000Y10250158D01*
X9969843Y10370194D01*
X9970156Y10728236D01*
X9833428Y11059143D01*
X9580475Y11312538D01*
X9249806Y11449843D01*
X8891764Y11450156D01*
X8560857Y11313428D01*
X8307462Y11060475D01*
X8170157Y10729806D01*
X8169844Y10371764D01*
X8220000Y10250377D01*
X8220000Y6530000D01*
X8284702Y6204719D01*
X8468959Y5928959D01*
X8902096Y5495822D01*
X8680000Y5540000D01*
X8297316Y5463879D01*
X7972893Y5247107D01*
X7962893Y5237107D01*
X7810000Y5008287D01*
X7810000Y16954798D01*
X7931993Y16871444D01*
X7931993Y16871444D01*
G37*
X7931993Y16871444D02*
X8170000Y16823246D01*
X9170000Y16823246D01*
X9309957Y16849581D01*
X9440000Y16823246D01*
X10440000Y16823246D01*
X10480140Y16830799D01*
X10479844Y16491764D01*
X10616572Y16160857D01*
X10869525Y15907462D01*
X11200194Y15770157D01*
X11558236Y15769844D01*
X11679623Y15820000D01*
X12708542Y15820000D01*
X12700157Y15799806D01*
X12699844Y15441764D01*
X12836572Y15110857D01*
X12962563Y14984645D01*
X11368959Y13391041D01*
X11184702Y13115281D01*
X11120000Y12790000D01*
X11120000Y12360547D01*
X11100000Y12260000D01*
X11120000Y12159453D01*
X11120000Y10210000D01*
X11184702Y9884719D01*
X11368959Y9608959D01*
X12728957Y8248962D01*
X12728959Y8248959D01*
X14037918Y6940000D01*
X13790000Y6940000D01*
X13483853Y6879104D01*
X13224315Y6705686D01*
X13175607Y6656978D01*
X12930475Y6902538D01*
X12599806Y7039843D01*
X12241764Y7040156D01*
X11910857Y6903428D01*
X11657462Y6650475D01*
X11556884Y6408255D01*
X10940000Y5791371D01*
X10803430Y5927940D01*
X10661040Y6141041D01*
X9920000Y6882082D01*
X9920000Y10250158D01*
X9969843Y10370194D01*
X9970156Y10728236D01*
X9833428Y11059143D01*
X9580475Y11312538D01*
X9249806Y11449843D01*
X8891764Y11450156D01*
X8560857Y11313428D01*
X8307462Y11060475D01*
X8170157Y10729806D01*
X8169844Y10371764D01*
X8220000Y10250377D01*
X8220000Y6530000D01*
X8284702Y6204719D01*
X8468959Y5928959D01*
X8902096Y5495822D01*
X8680000Y5540000D01*
X8297316Y5463879D01*
X7972893Y5247107D01*
X7962893Y5237107D01*
X7810000Y5008287D01*
X7810000Y16954798D01*
X7931993Y16871444D01*
G36*
X31906483Y11574054D02*
X32037890Y11369842D01*
X32238393Y11232844D01*
X32476400Y11184646D01*
X33401140Y11184646D01*
X33960000Y10625786D01*
X33960000Y9874214D01*
X33455786Y9370000D01*
X32044459Y9370000D01*
X32152190Y9531231D01*
X32263600Y10091326D01*
X32263600Y10148674D01*
X32152190Y10708769D01*
X31834921Y11183595D01*
X31526014Y11390000D01*
X31834921Y11596405D01*
X31887477Y11675061D01*
X31906483Y11574054D01*
X31906483Y11574054D01*
G37*
X31906483Y11574054D02*
X32037890Y11369842D01*
X32238393Y11232844D01*
X32476400Y11184646D01*
X33401140Y11184646D01*
X33960000Y10625786D01*
X33960000Y9874214D01*
X33455786Y9370000D01*
X32044459Y9370000D01*
X32152190Y9531231D01*
X32263600Y10091326D01*
X32263600Y10148674D01*
X32152190Y10708769D01*
X31834921Y11183595D01*
X31526014Y11390000D01*
X31834921Y11596405D01*
X31887477Y11675061D01*
X31906483Y11574054D01*
G36*
X22673959Y12273959D02*
X22949719Y12089702D01*
X23191544Y12041600D01*
X23251490Y11948442D01*
X23451993Y11811444D01*
X23690000Y11763246D01*
X25690000Y11763246D01*
X25912346Y11805083D01*
X26116558Y11936490D01*
X26177034Y12025000D01*
X27444034Y12025000D01*
X27600194Y11960157D01*
X27958236Y11959844D01*
X28210000Y12063871D01*
X28210000Y11860000D01*
X28274702Y11534719D01*
X28458959Y11258959D01*
X29375031Y10342887D01*
X29336400Y10148674D01*
X29336400Y10091326D01*
X29447810Y9531231D01*
X29555541Y9370000D01*
X28510000Y9370000D01*
X28510000Y9559995D01*
X28510001Y9560000D01*
X28433880Y9942684D01*
X28277479Y10176754D01*
X28217107Y10267107D01*
X28217104Y10267109D01*
X27442107Y11042107D01*
X27117684Y11258880D01*
X26735000Y11335000D01*
X26021024Y11335000D01*
X25928007Y11398556D01*
X25690000Y11446754D01*
X23690000Y11446754D01*
X23467654Y11404917D01*
X23359000Y11335000D01*
X22985000Y11335000D01*
X22602317Y11258880D01*
X22570000Y11237286D01*
X22570000Y12377918D01*
X22673959Y12273959D01*
X22673959Y12273959D01*
G37*
X22673959Y12273959D02*
X22949719Y12089702D01*
X23191544Y12041600D01*
X23251490Y11948442D01*
X23451993Y11811444D01*
X23690000Y11763246D01*
X25690000Y11763246D01*
X25912346Y11805083D01*
X26116558Y11936490D01*
X26177034Y12025000D01*
X27444034Y12025000D01*
X27600194Y11960157D01*
X27958236Y11959844D01*
X28210000Y12063871D01*
X28210000Y11860000D01*
X28274702Y11534719D01*
X28458959Y11258959D01*
X29375031Y10342887D01*
X29336400Y10148674D01*
X29336400Y10091326D01*
X29447810Y9531231D01*
X29555541Y9370000D01*
X28510000Y9370000D01*
X28510000Y9559995D01*
X28510001Y9560000D01*
X28433880Y9942684D01*
X28277479Y10176754D01*
X28217107Y10267107D01*
X28217104Y10267109D01*
X27442107Y11042107D01*
X27117684Y11258880D01*
X26735000Y11335000D01*
X26021024Y11335000D01*
X25928007Y11398556D01*
X25690000Y11446754D01*
X23690000Y11446754D01*
X23467654Y11404917D01*
X23359000Y11335000D01*
X22985000Y11335000D01*
X22602317Y11258880D01*
X22570000Y11237286D01*
X22570000Y12377918D01*
X22673959Y12273959D01*
G36*
X18140857Y14693428D02*
X17887462Y14440475D01*
X17750157Y14109806D01*
X17749844Y13751764D01*
X17850000Y13509368D01*
X17850000Y13480632D01*
X17813428Y13569143D01*
X17560475Y13822538D01*
X17229806Y13959843D01*
X16871764Y13960156D01*
X16540857Y13823428D01*
X16287462Y13570475D01*
X16150157Y13239806D01*
X16149844Y12881764D01*
X16250000Y12639368D01*
X16250000Y9992082D01*
X16031041Y10211041D01*
X16031038Y10211043D01*
X15130000Y11112082D01*
X15130000Y12020158D01*
X15179843Y12140194D01*
X15180156Y12498236D01*
X15043428Y12829143D01*
X14837506Y13035425D01*
X14861038Y13058957D01*
X14861041Y13058959D01*
X15649019Y13846938D01*
X15769143Y13896572D01*
X16022538Y14149525D01*
X16159843Y14480194D01*
X16160096Y14770000D01*
X18326175Y14770000D01*
X18140857Y14693428D01*
X18140857Y14693428D01*
G37*
X18140857Y14693428D02*
X17887462Y14440475D01*
X17750157Y14109806D01*
X17749844Y13751764D01*
X17850000Y13509368D01*
X17850000Y13480632D01*
X17813428Y13569143D01*
X17560475Y13822538D01*
X17229806Y13959843D01*
X16871764Y13960156D01*
X16540857Y13823428D01*
X16287462Y13570475D01*
X16150157Y13239806D01*
X16149844Y12881764D01*
X16250000Y12639368D01*
X16250000Y9992082D01*
X16031041Y10211041D01*
X16031038Y10211043D01*
X15130000Y11112082D01*
X15130000Y12020158D01*
X15179843Y12140194D01*
X15180156Y12498236D01*
X15043428Y12829143D01*
X14837506Y13035425D01*
X14861038Y13058957D01*
X14861041Y13058959D01*
X15649019Y13846938D01*
X15769143Y13896572D01*
X16022538Y14149525D01*
X16159843Y14480194D01*
X16160096Y14770000D01*
X18326175Y14770000D01*
X18140857Y14693428D01*
G36*
X24968959Y22168959D02*
X25182060Y22026569D01*
X25304314Y21904315D01*
X25558736Y21734315D01*
X25563853Y21730896D01*
X25870000Y21670000D01*
X27812695Y21670000D01*
X27800157Y21639806D01*
X27799844Y21281764D01*
X27936572Y20950857D01*
X28189525Y20697462D01*
X28520194Y20560157D01*
X28807382Y20559906D01*
X28856572Y20440857D01*
X29109525Y20187462D01*
X29151578Y20170000D01*
X27660000Y20170000D01*
X27353853Y20109104D01*
X27340424Y20100131D01*
X27311764Y20100156D01*
X26980857Y19963428D01*
X26727462Y19710475D01*
X26690536Y19621546D01*
X24911041Y21401041D01*
X24635281Y21585298D01*
X24310000Y21650000D01*
X22635192Y21650000D01*
X22672905Y21740823D01*
X23371041Y22438959D01*
X23555298Y22714719D01*
X23620000Y23040000D01*
X23620000Y23517918D01*
X24968959Y22168959D01*
X24968959Y22168959D01*
G37*
X24968959Y22168959D02*
X25182060Y22026569D01*
X25304314Y21904315D01*
X25558736Y21734315D01*
X25563853Y21730896D01*
X25870000Y21670000D01*
X27812695Y21670000D01*
X27800157Y21639806D01*
X27799844Y21281764D01*
X27936572Y20950857D01*
X28189525Y20697462D01*
X28520194Y20560157D01*
X28807382Y20559906D01*
X28856572Y20440857D01*
X29109525Y20187462D01*
X29151578Y20170000D01*
X27660000Y20170000D01*
X27353853Y20109104D01*
X27340424Y20100131D01*
X27311764Y20100156D01*
X26980857Y19963428D01*
X26727462Y19710475D01*
X26690536Y19621546D01*
X24911041Y21401041D01*
X24635281Y21585298D01*
X24310000Y21650000D01*
X22635192Y21650000D01*
X22672905Y21740823D01*
X23371041Y22438959D01*
X23555298Y22714719D01*
X23620000Y23040000D01*
X23620000Y23517918D01*
X24968959Y22168959D01*
G36*
X42747125Y30450331D02*
X42746758Y30028840D01*
X42228959Y29511041D01*
X42044702Y29235281D01*
X41983808Y28929146D01*
X41830331Y28992875D01*
X41319792Y28993320D01*
X41193428Y29299143D01*
X40940475Y29552538D01*
X40609806Y29689843D01*
X40251764Y29690156D01*
X39920857Y29553428D01*
X39667462Y29300475D01*
X39535600Y28982915D01*
X39450896Y28856147D01*
X39390000Y28550000D01*
X39390000Y27010000D01*
X39440663Y26755298D01*
X39450896Y26703853D01*
X39624315Y26444315D01*
X39920000Y26148629D01*
X39920000Y24361371D01*
X39118630Y23560000D01*
X36950000Y23560000D01*
X36643853Y23499104D01*
X36384315Y23325685D01*
X33799317Y20740687D01*
X33799314Y20740685D01*
X33058630Y20000000D01*
X32889431Y20000000D01*
X32726147Y20109104D01*
X32579620Y20138250D01*
X36521371Y24080000D01*
X37258631Y24080000D01*
X37510000Y24030000D01*
X37835281Y24094702D01*
X38111041Y24278959D01*
X38851041Y25018959D01*
X39035298Y25294719D01*
X39100000Y25620000D01*
X39100000Y28130000D01*
X39035298Y28455281D01*
X38851041Y28731041D01*
X38590000Y28992082D01*
X38590000Y30597918D01*
X38732082Y30740000D01*
X42867406Y30740000D01*
X42747125Y30450331D01*
X42747125Y30450331D01*
G37*
X42747125Y30450331D02*
X42746758Y30028840D01*
X42228959Y29511041D01*
X42044702Y29235281D01*
X41983808Y28929146D01*
X41830331Y28992875D01*
X41319792Y28993320D01*
X41193428Y29299143D01*
X40940475Y29552538D01*
X40609806Y29689843D01*
X40251764Y29690156D01*
X39920857Y29553428D01*
X39667462Y29300475D01*
X39535600Y28982915D01*
X39450896Y28856147D01*
X39390000Y28550000D01*
X39390000Y27010000D01*
X39440663Y26755298D01*
X39450896Y26703853D01*
X39624315Y26444315D01*
X39920000Y26148629D01*
X39920000Y24361371D01*
X39118630Y23560000D01*
X36950000Y23560000D01*
X36643853Y23499104D01*
X36384315Y23325685D01*
X33799317Y20740687D01*
X33799314Y20740685D01*
X33058630Y20000000D01*
X32889431Y20000000D01*
X32726147Y20109104D01*
X32579620Y20138250D01*
X36521371Y24080000D01*
X37258631Y24080000D01*
X37510000Y24030000D01*
X37835281Y24094702D01*
X38111041Y24278959D01*
X38851041Y25018959D01*
X39035298Y25294719D01*
X39100000Y25620000D01*
X39100000Y28130000D01*
X39035298Y28455281D01*
X38851041Y28731041D01*
X38590000Y28992082D01*
X38590000Y30597918D01*
X38732082Y30740000D01*
X42867406Y30740000D01*
X42747125Y30450331D01*
G36*
X50880908Y40430873D02*
X51314748Y40140991D01*
X51627089Y39673539D01*
X51693385Y39471651D01*
X51693385Y39471649D01*
X51991909Y38562567D01*
X52035252Y38485736D01*
X52069010Y38404239D01*
X53445517Y36344151D01*
X53624851Y36164817D01*
X55684939Y34788310D01*
X55684940Y34788309D01*
X55752908Y34760156D01*
X55919251Y34691254D01*
X55919256Y34691254D01*
X58349291Y34207890D01*
X58413309Y34207890D01*
X58476100Y34195400D01*
X69112082Y34195400D01*
X69687849Y34080873D01*
X70121689Y33790991D01*
X70411573Y33357149D01*
X70526100Y32781379D01*
X70526100Y24971421D01*
X70411573Y24395651D01*
X70121689Y23961809D01*
X69687849Y23671927D01*
X69112082Y23557400D01*
X53519482Y23557400D01*
X56281041Y26318959D01*
X56465298Y26594719D01*
X56530001Y26920000D01*
X56530000Y26920005D01*
X56530000Y28760000D01*
X56465298Y29085281D01*
X56281041Y29361041D01*
X55612979Y30029103D01*
X55613344Y30447969D01*
X55407780Y30945474D01*
X55153299Y31200400D01*
X62322100Y31200400D01*
X62493371Y30339362D01*
X62981110Y29609410D01*
X63711062Y29121671D01*
X64572100Y28950400D01*
X65433138Y29121671D01*
X66163090Y29609410D01*
X66650829Y30339362D01*
X66822100Y31200400D01*
X66650829Y32061438D01*
X66163090Y32791390D01*
X65433138Y33279129D01*
X64572100Y33450400D01*
X63711062Y33279129D01*
X62981110Y32791390D01*
X62493371Y32061438D01*
X62322100Y31200400D01*
X55153299Y31200400D01*
X55047534Y31306349D01*
X55180000Y31280000D01*
X55562684Y31356121D01*
X55887107Y31572893D01*
X56103879Y31897316D01*
X56180000Y32280000D01*
X56103879Y32662684D01*
X55887107Y32987107D01*
X52777107Y36097107D01*
X52452684Y36313880D01*
X52070000Y36390000D01*
X40160000Y36390000D01*
X40160000Y38720000D01*
X40095298Y39045281D01*
X39911041Y39321041D01*
X38941041Y40291041D01*
X38665281Y40475298D01*
X38380333Y40531977D01*
X38375956Y40538528D01*
X38365671Y40545400D01*
X50305141Y40545400D01*
X50880908Y40430873D01*
X50880908Y40430873D01*
G37*
X50880908Y40430873D02*
X51314748Y40140991D01*
X51627089Y39673539D01*
X51693385Y39471651D01*
X51693385Y39471649D01*
X51991909Y38562567D01*
X52035252Y38485736D01*
X52069010Y38404239D01*
X53445517Y36344151D01*
X53624851Y36164817D01*
X55684939Y34788310D01*
X55684940Y34788309D01*
X55752908Y34760156D01*
X55919251Y34691254D01*
X55919256Y34691254D01*
X58349291Y34207890D01*
X58413309Y34207890D01*
X58476100Y34195400D01*
X69112082Y34195400D01*
X69687849Y34080873D01*
X70121689Y33790991D01*
X70411573Y33357149D01*
X70526100Y32781379D01*
X70526100Y24971421D01*
X70411573Y24395651D01*
X70121689Y23961809D01*
X69687849Y23671927D01*
X69112082Y23557400D01*
X53519482Y23557400D01*
X56281041Y26318959D01*
X56465298Y26594719D01*
X56530001Y26920000D01*
X56530000Y26920005D01*
X56530000Y28760000D01*
X56465298Y29085281D01*
X56281041Y29361041D01*
X55612979Y30029103D01*
X55613344Y30447969D01*
X55407780Y30945474D01*
X55153299Y31200400D01*
X62322100Y31200400D01*
X62493371Y30339362D01*
X62981110Y29609410D01*
X63711062Y29121671D01*
X64572100Y28950400D01*
X65433138Y29121671D01*
X66163090Y29609410D01*
X66650829Y30339362D01*
X66822100Y31200400D01*
X66650829Y32061438D01*
X66163090Y32791390D01*
X65433138Y33279129D01*
X64572100Y33450400D01*
X63711062Y33279129D01*
X62981110Y32791390D01*
X62493371Y32061438D01*
X62322100Y31200400D01*
X55153299Y31200400D01*
X55047534Y31306349D01*
X55180000Y31280000D01*
X55562684Y31356121D01*
X55887107Y31572893D01*
X56103879Y31897316D01*
X56180000Y32280000D01*
X56103879Y32662684D01*
X55887107Y32987107D01*
X52777107Y36097107D01*
X52452684Y36313880D01*
X52070000Y36390000D01*
X40160000Y36390000D01*
X40160000Y38720000D01*
X40095298Y39045281D01*
X39911041Y39321041D01*
X38941041Y40291041D01*
X38665281Y40475298D01*
X38380333Y40531977D01*
X38375956Y40538528D01*
X38365671Y40545400D01*
X50305141Y40545400D01*
X50880908Y40430873D01*
G36*
X29703246Y28135000D02*
X29703246Y26885000D01*
X29745083Y26662654D01*
X29876490Y26458442D01*
X29940000Y26415047D01*
X29940000Y25905600D01*
X29913442Y25888510D01*
X29776444Y25688007D01*
X29728246Y25450000D01*
X29728246Y24550000D01*
X29734191Y24518405D01*
X29525786Y24310000D01*
X26360000Y24310000D01*
X25977317Y24233880D01*
X25652893Y24017107D01*
X25601656Y23940426D01*
X24420000Y25122082D01*
X24420000Y27376489D01*
X24429843Y27400194D01*
X24430123Y27720000D01*
X26570000Y27720000D01*
X26952684Y27796120D01*
X27277107Y28012893D01*
X27484214Y28220000D01*
X29720459Y28220000D01*
X29703246Y28135000D01*
X29703246Y28135000D01*
G37*
X29703246Y28135000D02*
X29703246Y26885000D01*
X29745083Y26662654D01*
X29876490Y26458442D01*
X29940000Y26415047D01*
X29940000Y25905600D01*
X29913442Y25888510D01*
X29776444Y25688007D01*
X29728246Y25450000D01*
X29728246Y24550000D01*
X29734191Y24518405D01*
X29525786Y24310000D01*
X26360000Y24310000D01*
X25977317Y24233880D01*
X25652893Y24017107D01*
X25601656Y23940426D01*
X24420000Y25122082D01*
X24420000Y27376489D01*
X24429843Y27400194D01*
X24430123Y27720000D01*
X26570000Y27720000D01*
X26952684Y27796120D01*
X27277107Y28012893D01*
X27484214Y28220000D01*
X29720459Y28220000D01*
X29703246Y28135000D01*
G36*
X13640194Y25960157D02*
X13998236Y25959844D01*
X14000000Y25960573D01*
X14000000Y25404116D01*
X13580000Y25487659D01*
X13019905Y25376249D01*
X12545079Y25058980D01*
X12310000Y24707160D01*
X12074921Y25058980D01*
X11600095Y25376249D01*
X11040000Y25487659D01*
X10620000Y25404116D01*
X10620000Y25647918D01*
X10982082Y26010000D01*
X13520158Y26010000D01*
X13640194Y25960157D01*
X13640194Y25960157D01*
G37*
X13640194Y25960157D02*
X13998236Y25959844D01*
X14000000Y25960573D01*
X14000000Y25404116D01*
X13580000Y25487659D01*
X13019905Y25376249D01*
X12545079Y25058980D01*
X12310000Y24707160D01*
X12074921Y25058980D01*
X11600095Y25376249D01*
X11040000Y25487659D01*
X10620000Y25404116D01*
X10620000Y25647918D01*
X10982082Y26010000D01*
X13520158Y26010000D01*
X13640194Y25960157D01*
G36*
X19298959Y29611041D02*
X19114702Y29335281D01*
X19050000Y29010000D01*
X19050000Y27052082D01*
X18707918Y26710000D01*
X18130000Y26710000D01*
X17804719Y26645298D01*
X17528959Y26461041D01*
X16788959Y25721041D01*
X16604702Y25445281D01*
X16594363Y25393302D01*
X16120000Y25487659D01*
X15700000Y25404116D01*
X15700000Y27357918D01*
X18252082Y29910000D01*
X19597918Y29910000D01*
X19298959Y29611041D01*
X19298959Y29611041D01*
G37*
X19298959Y29611041D02*
X19114702Y29335281D01*
X19050000Y29010000D01*
X19050000Y27052082D01*
X18707918Y26710000D01*
X18130000Y26710000D01*
X17804719Y26645298D01*
X17528959Y26461041D01*
X16788959Y25721041D01*
X16604702Y25445281D01*
X16594363Y25393302D01*
X16120000Y25487659D01*
X15700000Y25404116D01*
X15700000Y27357918D01*
X18252082Y29910000D01*
X19597918Y29910000D01*
X19298959Y29611041D01*
G36*
X50920000Y32568629D02*
X50920000Y31293314D01*
X50573558Y30947476D01*
X50449951Y30649797D01*
X50327780Y30945474D01*
X49947476Y31326442D01*
X49450331Y31532875D01*
X49028840Y31533242D01*
X47561041Y33001041D01*
X47285281Y33185298D01*
X46960000Y33250000D01*
X40154670Y33250000D01*
X40355685Y33384315D01*
X40651371Y33680000D01*
X49808630Y33680000D01*
X50920000Y32568629D01*
X50920000Y32568629D01*
G37*
X50920000Y32568629D02*
X50920000Y31293314D01*
X50573558Y30947476D01*
X50449951Y30649797D01*
X50327780Y30945474D01*
X49947476Y31326442D01*
X49450331Y31532875D01*
X49028840Y31533242D01*
X47561041Y33001041D01*
X47285281Y33185298D01*
X46960000Y33250000D01*
X40154670Y33250000D01*
X40355685Y33384315D01*
X40651371Y33680000D01*
X49808630Y33680000D01*
X50920000Y32568629D01*
G36*
X54472893Y31572893D02*
X54536812Y31530184D01*
X54530331Y31532875D01*
X53992031Y31533344D01*
X53494526Y31327780D01*
X53113558Y30947476D01*
X52989951Y30649797D01*
X52867780Y30945474D01*
X52520000Y31293861D01*
X52520000Y32900000D01*
X52459104Y33206147D01*
X52406743Y33284510D01*
X52285685Y33465686D01*
X51361370Y34390000D01*
X51655786Y34390000D01*
X54472893Y31572893D01*
X54472893Y31572893D01*
G37*
X54472893Y31572893D02*
X54536812Y31530184D01*
X54530331Y31532875D01*
X53992031Y31533344D01*
X53494526Y31327780D01*
X53113558Y30947476D01*
X52989951Y30649797D01*
X52867780Y30945474D01*
X52520000Y31293861D01*
X52520000Y32900000D01*
X52459104Y33206147D01*
X52406743Y33284510D01*
X52285685Y33465686D01*
X51361370Y34390000D01*
X51655786Y34390000D01*
X54472893Y31572893D01*
G36*
X31040000Y34560000D02*
X31104702Y34234719D01*
X31288959Y33958959D01*
X31790164Y33457754D01*
X30124000Y33457754D01*
X29901654Y33415917D01*
X29697442Y33284510D01*
X29600000Y33141899D01*
X29600000Y34175786D01*
X29947107Y34522893D01*
X30163880Y34847316D01*
X30240001Y35230000D01*
X30163880Y35612684D01*
X29947107Y35937107D01*
X29622684Y36153880D01*
X29240000Y36230001D01*
X28857316Y36153880D01*
X28532893Y35937107D01*
X27892893Y35297107D01*
X27676120Y34972684D01*
X27645743Y34819968D01*
X27600000Y34590000D01*
X27600000Y33089177D01*
X27425656Y32972685D01*
X27330317Y32830000D01*
X16325000Y32830000D01*
X15942316Y32753880D01*
X15617893Y32537107D01*
X15253560Y32172774D01*
X15111659Y32201000D01*
X15048341Y32201000D01*
X14429925Y32077989D01*
X14102736Y31859369D01*
X13994510Y32027558D01*
X13794007Y32164556D01*
X13556000Y32212754D01*
X13540000Y32212754D01*
X13540000Y32565786D01*
X14004214Y33030000D01*
X15890000Y33030000D01*
X16272684Y33106120D01*
X16597107Y33322893D01*
X20394214Y37120000D01*
X21005695Y37120000D01*
X20950000Y36840000D01*
X21026120Y36457317D01*
X21242893Y36132893D01*
X21567317Y35916120D01*
X21950000Y35840000D01*
X24460000Y35840000D01*
X24840000Y35915586D01*
X24840000Y34629842D01*
X24790157Y34509806D01*
X24789844Y34151764D01*
X24926572Y33820857D01*
X25179525Y33567462D01*
X25510194Y33430157D01*
X25868236Y33429844D01*
X26185372Y33560882D01*
X26500194Y33430157D01*
X26858236Y33429844D01*
X27189143Y33566572D01*
X27442538Y33819525D01*
X27579843Y34150194D01*
X27580156Y34508236D01*
X27530000Y34629623D01*
X27530000Y35297918D01*
X30379020Y38146938D01*
X30499143Y38196572D01*
X30752538Y38449525D01*
X30831629Y38639998D01*
X31008236Y38639844D01*
X31040000Y38652969D01*
X31040000Y34560000D01*
X31040000Y34560000D01*
G37*
X31040000Y34560000D02*
X31104702Y34234719D01*
X31288959Y33958959D01*
X31790164Y33457754D01*
X30124000Y33457754D01*
X29901654Y33415917D01*
X29697442Y33284510D01*
X29600000Y33141899D01*
X29600000Y34175786D01*
X29947107Y34522893D01*
X30163880Y34847316D01*
X30240001Y35230000D01*
X30163880Y35612684D01*
X29947107Y35937107D01*
X29622684Y36153880D01*
X29240000Y36230001D01*
X28857316Y36153880D01*
X28532893Y35937107D01*
X27892893Y35297107D01*
X27676120Y34972684D01*
X27645743Y34819968D01*
X27600000Y34590000D01*
X27600000Y33089177D01*
X27425656Y32972685D01*
X27330317Y32830000D01*
X16325000Y32830000D01*
X15942316Y32753880D01*
X15617893Y32537107D01*
X15253560Y32172774D01*
X15111659Y32201000D01*
X15048341Y32201000D01*
X14429925Y32077989D01*
X14102736Y31859369D01*
X13994510Y32027558D01*
X13794007Y32164556D01*
X13556000Y32212754D01*
X13540000Y32212754D01*
X13540000Y32565786D01*
X14004214Y33030000D01*
X15890000Y33030000D01*
X16272684Y33106120D01*
X16597107Y33322893D01*
X20394214Y37120000D01*
X21005695Y37120000D01*
X20950000Y36840000D01*
X21026120Y36457317D01*
X21242893Y36132893D01*
X21567317Y35916120D01*
X21950000Y35840000D01*
X24460000Y35840000D01*
X24840000Y35915586D01*
X24840000Y34629842D01*
X24790157Y34509806D01*
X24789844Y34151764D01*
X24926572Y33820857D01*
X25179525Y33567462D01*
X25510194Y33430157D01*
X25868236Y33429844D01*
X26185372Y33560882D01*
X26500194Y33430157D01*
X26858236Y33429844D01*
X27189143Y33566572D01*
X27442538Y33819525D01*
X27579843Y34150194D01*
X27580156Y34508236D01*
X27530000Y34629623D01*
X27530000Y35297918D01*
X30379020Y38146938D01*
X30499143Y38196572D01*
X30752538Y38449525D01*
X30831629Y38639998D01*
X31008236Y38639844D01*
X31040000Y38652969D01*
X31040000Y34560000D01*
G36*
X32953352Y38581345D02*
X33412572Y38490000D01*
X33867428Y38490000D01*
X34132630Y38542752D01*
X34042572Y38090000D01*
X34133917Y37630780D01*
X34394044Y37241472D01*
X34783352Y36981345D01*
X35242572Y36890000D01*
X35697428Y36890000D01*
X36156648Y36981345D01*
X36410490Y37150957D01*
X36664332Y36981345D01*
X37123552Y36890000D01*
X37476448Y36890000D01*
X37935668Y36981345D01*
X38324976Y37241472D01*
X38460000Y37443550D01*
X38460000Y36692081D01*
X38397918Y36630000D01*
X34740000Y36630000D01*
X34414719Y36565298D01*
X34138959Y36381041D01*
X33488959Y35731041D01*
X33304702Y35455281D01*
X33240000Y35130000D01*
X33240000Y34412081D01*
X32740000Y34912082D01*
X32740000Y38723902D01*
X32953352Y38581345D01*
X32953352Y38581345D01*
G37*
X32953352Y38581345D02*
X33412572Y38490000D01*
X33867428Y38490000D01*
X34132630Y38542752D01*
X34042572Y38090000D01*
X34133917Y37630780D01*
X34394044Y37241472D01*
X34783352Y36981345D01*
X35242572Y36890000D01*
X35697428Y36890000D01*
X36156648Y36981345D01*
X36410490Y37150957D01*
X36664332Y36981345D01*
X37123552Y36890000D01*
X37476448Y36890000D01*
X37935668Y36981345D01*
X38324976Y37241472D01*
X38460000Y37443550D01*
X38460000Y36692081D01*
X38397918Y36630000D01*
X34740000Y36630000D01*
X34414719Y36565298D01*
X34138959Y36381041D01*
X33488959Y35731041D01*
X33304702Y35455281D01*
X33240000Y35130000D01*
X33240000Y34412081D01*
X32740000Y34912082D01*
X32740000Y38723902D01*
X32953352Y38581345D01*
G36*
X28828959Y40471041D02*
X25416518Y37058600D01*
X25383880Y37222683D01*
X25167107Y37547107D01*
X24842683Y37763880D01*
X24460000Y37840000D01*
X22364305Y37840000D01*
X22420000Y38120000D01*
X22343880Y38502683D01*
X22127107Y38827107D01*
X21802683Y39043880D01*
X21420000Y39120000D01*
X19980000Y39120000D01*
X19597317Y39043880D01*
X19294392Y38841472D01*
X19272893Y38827107D01*
X19214792Y38769006D01*
X19509839Y39398628D01*
X19786108Y39988176D01*
X20171465Y40339953D01*
X20700122Y40531238D01*
X20887556Y40545400D01*
X28940245Y40545400D01*
X28828959Y40471041D01*
X28828959Y40471041D01*
G37*
X28828959Y40471041D02*
X25416518Y37058600D01*
X25383880Y37222683D01*
X25167107Y37547107D01*
X24842683Y37763880D01*
X24460000Y37840000D01*
X22364305Y37840000D01*
X22420000Y38120000D01*
X22343880Y38502683D01*
X22127107Y38827107D01*
X21802683Y39043880D01*
X21420000Y39120000D01*
X19980000Y39120000D01*
X19597317Y39043880D01*
X19294392Y38841472D01*
X19272893Y38827107D01*
X19214792Y38769006D01*
X19509839Y39398628D01*
X19786108Y39988176D01*
X20171465Y40339953D01*
X20700122Y40531238D01*
X20887556Y40545400D01*
X28940245Y40545400D01*
X28828959Y40471041D01*
M02*
