M48
;DRILL file {KiCad 4.0.0-rc1-stable} date 27.2.2017 11:51:34
;FORMAT={2:4/ absolute / inch / suppress leading zeros}
FMAT,2
INCH,TZ
T1C0.016
T2C0.024
T3C0.034
T4C0.039
T5C0.040
%
G90
G05
M72
T1
X721Y12772
X940Y11854
X3208Y3549
X3678Y5800
X3678Y3733
X4153Y6421
X4184Y3942
X4184Y1488
X4568Y13070
X4915Y10913
X4966Y1420
X5155Y6406
X5206Y3856
X5536Y5600
X5653Y6406
X5715Y9397
X5944Y3858
X6363Y10913
X6463Y5776
X6488Y13510
X7154Y1208
X7282Y3750
X7303Y11858
X7311Y14138
X7381Y6292
X7639Y9934
X7653Y1216
X7656Y9476
X7785Y3725
X7837Y6292
X7839Y12815
X7898Y15189
X7898Y13835
X8332Y6292
X8346Y11890
X8458Y1636
X8647Y3733
X8724Y14520
X8728Y5962
X8832Y10286
X8854Y12815
X9177Y7261
X9390Y12862
X9390Y11835
X9400Y6862
X9551Y15268
X9862Y12866
X9862Y11819
X10132Y7648
X10154Y3843
X10154Y3343
X10189Y15138
X10296Y6726
X10312Y7276
X10563Y4843
X10587Y14370
X10630Y9677
X10666Y2362
X10850Y8319
X10941Y5543
X10988Y13694
X11067Y884
X11346Y5984
X11453Y2193
X11531Y7543
X11795Y6094
X11881Y884
X11972Y10110
X12000Y2157
X12051Y8106
X12457Y8378
X13598Y11500
X14063Y5732
X14417Y10831
X14433Y6059
X14827Y7106
X14874Y11028
X15394Y12244
X15394Y11031
X15984Y8264
X16043Y7736
X16303Y11961
X16303Y11047
X17295Y8421
X17787Y12693
X19311Y14894
X21000Y14150
X22886Y12287
X23610Y10945
X25480Y10055
T2
X3323Y9949
X3815Y9949
X4307Y9949
X4799Y9949
X5292Y9949
X5784Y9949
X6276Y9949
X6768Y9949
T3
X13295Y14201
X13295Y13571
X14016Y14201
X14016Y13571
X14736Y14201
X14736Y13571
T4
X16945Y11402
X16945Y10402
X17945Y11402
X17945Y10402
X18945Y11402
X18945Y10402
X19945Y11402
X19945Y10402
X20945Y11402
X20945Y10402
X21945Y11402
X21945Y10402
T5
X1352Y8302
X2352Y8302
X3352Y8302
X4352Y8302
X4732Y11878
X5352Y8302
X5732Y11878
X6352Y8302
X7352Y8302
X8352Y8302
X11035Y12024
X11917Y4819
X11917Y3819
X12035Y12024
X12917Y4819
X12917Y3819
T0
M30
