M48
;DRILL file {KiCad 4.0.0-rc1-stable} date 25.1.2017 19:42:14
;FORMAT={2:4/ absolute / inch / suppress leading zeros}
FMAT,2
INCH,TZ
T1C0.016
T2C0.034
T3C0.039
T4C0.040
%
G90
G05
M72
T1
X807Y11925
X807Y11350
X3413Y3720
X3996Y6256
X4031Y4248
X4937Y13272
X5268Y3862
X5409Y6583
X5913Y1563
X5929Y5319
X6217Y3862
X6350Y5835
X6594Y6224
X6685Y11272
X6898Y10858
X6913Y1563
X7134Y11272
X7138Y10425
X7209Y13366
X7382Y4516
X7382Y4087
X7413Y1559
X7606Y6039
X7846Y9909
X7913Y1563
X7984Y10425
X8016Y10957
X8051Y15685
X8051Y14594
X8394Y5268
X8406Y15878
X8547Y13902
X8650Y13035
X8937Y14594
X8937Y6504
X9047Y4067
X9252Y10744
X9264Y11193
X9461Y13902
X9563Y945
X9976Y15358
X9976Y12827
X9980Y606
X10185Y9248
X10287Y3067
X10346Y4563
X10815Y6299
X10823Y9843
X10862Y2803
X11276Y6449
X11350Y5650
X11362Y14299
X11543Y8500
X11760Y15283
X11760Y2453
X11972Y6980
X12094Y7457
X12220Y15563
X12230Y10303
X12654Y6465
X13323Y12579
X13331Y12110
X13496Y12988
X13776Y13339
X14071Y14406
X14087Y8945
X14457Y10941
X14465Y11406
X14469Y11795
X14469Y10433
X14488Y9933
X14504Y12220
X14965Y10382
X15004Y9441
X15114Y7681
X15150Y7220
X15177Y6689
X15201Y14406
X15504Y10406
X15630Y6681
X15740Y10835
X16083Y6681
X16606Y14016
X16858Y11382
X17079Y12807
X17181Y14157
X17378Y13280
X18880Y15447
X20465Y13862
X21945Y10437
X22346Y12016
X24488Y10618
X25689Y10594
T2
X13244Y15626
X13244Y14996
X13965Y15626
X13965Y14996
X14685Y15626
X14685Y14996
T3
X16362Y11882
X16362Y10882
X17362Y11882
X17362Y10882
X18362Y11882
X18362Y10882
X19362Y11882
X19362Y10882
X20362Y11882
X20362Y10882
X21362Y11882
X21362Y10882
T4
X1346Y9386
X2346Y9386
X3346Y9386
X4346Y9386
X4937Y12041
X5346Y9386
X5937Y12041
X6346Y9386
X7346Y9386
X8346Y9386
X11260Y12531
X12126Y4984
X12126Y3984
X12260Y12531
X13126Y4984
X13126Y3984
T0
M30
