G04 #@! TF.FileFunction,Soldermask,Top*
%FSLAX46Y46*%
G04 Gerber Fmt 4.6, Leading zero omitted, Abs format (unit mm)*
G04 Created by KiCad (PCBNEW 4.0.0-rc1-stable) date 27.2.2017 11:51:31*
%MOMM*%
G01*
G04 APERTURE LIST*
%ADD10C,0.100000*%
%ADD11R,1.450000X1.000000*%
%ADD12R,0.750000X1.200000*%
%ADD13R,2.000000X0.800000*%
%ADD14R,1.970000X2.290000*%
%ADD15R,2.127200X2.432000*%
%ADD16O,2.127200X2.432000*%
%ADD17R,1.600000X2.200000*%
%ADD18R,1.000000X1.900000*%
%ADD19R,1.300000X1.600000*%
%ADD20R,2.432000X2.432000*%
%ADD21O,2.432000X2.432000*%
%ADD22C,1.906220*%
%ADD23R,1.900000X1.650000*%
%ADD24R,1.600000X1.300000*%
%ADD25R,2.127200X2.127200*%
%ADD26O,2.127200X2.127200*%
%ADD27O,1.900000X1.600000*%
%ADD28O,2.000000X1.600000*%
%ADD29O,1.400000X1.900000*%
G04 APERTURE END LIST*
D10*
D11*
X50660000Y37830000D03*
X50660000Y39730000D03*
X47960000Y39730000D03*
X47960000Y37830000D03*
X47960000Y38780000D03*
D12*
X35325000Y19265000D03*
X35975000Y19265000D03*
X36625000Y19265000D03*
X37275000Y19265000D03*
X37275000Y16915000D03*
X36625000Y16915000D03*
X35325000Y16915000D03*
X35975000Y16915000D03*
D13*
X24260000Y37855000D03*
X24260000Y37205000D03*
X24260000Y36555000D03*
X24260000Y35905000D03*
X20060000Y35905000D03*
X20060000Y36555000D03*
X20060000Y37855000D03*
X20060000Y37205000D03*
D14*
X22160000Y36880000D03*
D15*
X3434080Y21087080D03*
D16*
X5974080Y21087080D03*
X8514080Y21087080D03*
X11054080Y21087080D03*
X13594080Y21087080D03*
X16134080Y21087080D03*
X18674080Y21087080D03*
X21214080Y21087080D03*
D17*
X33080000Y25410000D03*
X25480000Y25410000D03*
D18*
X31780000Y22910000D03*
X30780000Y22910000D03*
X29780000Y22910000D03*
X28780000Y22910000D03*
X27780000Y22910000D03*
X26780000Y22910000D03*
D19*
X19900000Y31330000D03*
X19900000Y29130000D03*
X22490000Y31330000D03*
X22490000Y29130000D03*
X24958040Y12626160D03*
X24958040Y14826160D03*
X22428200Y13225960D03*
X22428200Y11025960D03*
X17612360Y11025960D03*
X17612360Y13225960D03*
X19974560Y13225960D03*
X19974560Y11025960D03*
X15250160Y11025960D03*
X15250160Y13225960D03*
X12872720Y11025960D03*
X12872720Y13225960D03*
X8128000Y11025960D03*
X8128000Y13225960D03*
X10541000Y11025960D03*
X10541000Y13225960D03*
X17612360Y7907200D03*
X17612360Y5707200D03*
X10556240Y7907200D03*
X10556240Y5707200D03*
X15257780Y5714820D03*
X15257780Y7914820D03*
X22428200Y5691960D03*
X22428200Y7891960D03*
X8148320Y7907200D03*
X8148320Y5707200D03*
D20*
X12020000Y30170000D03*
D21*
X14560000Y30170000D03*
D20*
X28030000Y30540000D03*
D21*
X30570000Y30540000D03*
D22*
X55740000Y26420000D03*
X55740000Y28960000D03*
X43040000Y26420000D03*
X43040000Y28960000D03*
X45580000Y26420000D03*
X45580000Y28960000D03*
X48120000Y26420000D03*
X48120000Y28960000D03*
X50660000Y26420000D03*
X50660000Y28960000D03*
X53200000Y26420000D03*
X53200000Y28960000D03*
D19*
X19989800Y5691960D03*
X19989800Y7891960D03*
X12887960Y5707200D03*
X12887960Y7907200D03*
D23*
X51750000Y33950000D03*
X54250000Y33950000D03*
X4948240Y26603960D03*
X2448240Y26603960D03*
D24*
X4554400Y24150320D03*
X2354400Y24150320D03*
D23*
X41300000Y33990000D03*
X43800000Y33990000D03*
D19*
X35930000Y31410000D03*
X35930000Y29210000D03*
D24*
X35330000Y21450000D03*
X37530000Y21450000D03*
X48670000Y33780000D03*
X46470000Y33780000D03*
D25*
X32810000Y12240000D03*
D26*
X30270000Y12240000D03*
X32810000Y9700000D03*
X30270000Y9700000D03*
D27*
X37430000Y34470000D03*
D28*
X37430000Y36070000D03*
X35600000Y36070000D03*
X33770000Y36070000D03*
X33770000Y34470000D03*
X35600000Y34470000D03*
D29*
X8440720Y25270460D03*
X9690720Y25270460D03*
X10940720Y25270460D03*
X12190720Y25270460D03*
X13440720Y25270460D03*
X14690720Y25270460D03*
X15940720Y25270460D03*
X17190720Y25270460D03*
M02*
