G04 #@! TF.FileFunction,Copper,L2,Bot,Signal*
%FSLAX46Y46*%
G04 Gerber Fmt 4.6, Leading zero omitted, Abs format (unit mm)*
G04 Created by KiCad (PCBNEW 4.0.0-rc1-stable) date 25.1.2017 19:41:52*
%MOMM*%
G01*
G04 APERTURE LIST*
%ADD10C,0.100000*%
%ADD11R,1.727200X2.032000*%
%ADD12O,1.727200X2.032000*%
%ADD13R,2.032000X2.032000*%
%ADD14O,2.032000X2.032000*%
%ADD15C,1.506220*%
%ADD16R,1.500000X1.250000*%
%ADD17R,1.200000X0.900000*%
%ADD18R,0.900000X1.200000*%
%ADD19R,1.727200X1.727200*%
%ADD20O,1.727200X1.727200*%
%ADD21O,1.500000X1.200000*%
%ADD22O,1.600000X1.200000*%
%ADD23R,2.000000X1.000000*%
%ADD24R,1.000000X2.000000*%
%ADD25C,0.800000*%
%ADD26C,0.500000*%
%ADD27C,0.800000*%
%ADD28C,0.400000*%
%ADD29C,0.300000*%
G04 APERTURE END LIST*
D10*
D11*
X3420000Y23840000D03*
D12*
X5960000Y23840000D03*
X8500000Y23840000D03*
X11040000Y23840000D03*
X13580000Y23840000D03*
X16120000Y23840000D03*
X18660000Y23840000D03*
X21200000Y23840000D03*
D13*
X12540000Y30585000D03*
D14*
X15080000Y30585000D03*
D13*
X31140000Y31830000D03*
D14*
X28600000Y31830000D03*
D15*
X54260000Y27640000D03*
X54260000Y30180000D03*
X41560000Y27640000D03*
X41560000Y30180000D03*
X44100000Y27640000D03*
X44100000Y30180000D03*
X46640000Y27640000D03*
X46640000Y30180000D03*
X49180000Y27640000D03*
X49180000Y30180000D03*
X51720000Y27640000D03*
X51720000Y30180000D03*
D16*
X28565000Y27510000D03*
X31065000Y27510000D03*
D17*
X28740000Y25000000D03*
X30940000Y25000000D03*
D18*
X27590000Y8140000D03*
X27590000Y10340000D03*
D19*
X33340000Y12660000D03*
D20*
X30800000Y12660000D03*
X33340000Y10120000D03*
X30800000Y10120000D03*
D21*
X37300000Y38090000D03*
D22*
X37300000Y39690000D03*
X35470000Y39690000D03*
X33640000Y39690000D03*
X33640000Y38090000D03*
X35470000Y38090000D03*
D23*
X24690000Y5255000D03*
X24690000Y6525000D03*
X24690000Y7795000D03*
X24690000Y9065000D03*
X24690000Y10335000D03*
X24690000Y11605000D03*
X24690000Y3985000D03*
X24690000Y12875000D03*
X24690000Y14145000D03*
X24690000Y15415000D03*
X24690000Y16685000D03*
D24*
X8670000Y2235000D03*
X9940000Y2235000D03*
X11210000Y2235000D03*
X12480000Y2235000D03*
X13750000Y2235000D03*
X15020000Y2235000D03*
X16290000Y2235000D03*
X17560000Y2235000D03*
X18830000Y2235000D03*
X20100000Y2235000D03*
X21370000Y2235000D03*
X22640000Y2235000D03*
X8670000Y18435000D03*
X9940000Y18435000D03*
X11210000Y18435000D03*
X12480000Y18435000D03*
X13750000Y18435000D03*
X15020000Y18435000D03*
X16290000Y18435000D03*
X17560000Y18435000D03*
X18830000Y18435000D03*
X20100000Y18435000D03*
X21370000Y18435000D03*
X22640000Y18435000D03*
D25*
X10240000Y10790000D03*
X19320000Y15340000D03*
X10150000Y15890000D03*
X56760000Y30520000D03*
X62200000Y26970000D03*
X65250000Y26910000D03*
X42180000Y35600000D03*
X43640000Y35960000D03*
X2050000Y30290000D03*
X2050000Y28830000D03*
X18310000Y33950000D03*
X25340000Y32580000D03*
X38110000Y23980000D03*
X31065000Y26170000D03*
X21320000Y13380000D03*
X38610000Y36590000D03*
X35740000Y36590000D03*
X27590000Y7120000D03*
X25340000Y39010000D03*
X18120000Y28630000D03*
X36800000Y25230000D03*
X21970000Y33110000D03*
X51980000Y35210000D03*
X47955000Y39235000D03*
X35780000Y22720000D03*
X28830000Y14350000D03*
X22980000Y10330000D03*
X22700000Y16520000D03*
X28860000Y36320000D03*
X12540000Y33710000D03*
X13380000Y9810000D03*
X20360000Y27830000D03*
X17520000Y27580000D03*
X30720000Y18940000D03*
X38390000Y19510000D03*
X13740000Y16720000D03*
X18750000Y10380000D03*
X20280000Y26480000D03*
X30410000Y17730000D03*
X18130000Y26480000D03*
X38480000Y18340000D03*
X15060000Y13510000D03*
X18750000Y11470000D03*
X26280000Y11590000D03*
X25870000Y23490000D03*
X23530000Y28430000D03*
X42820000Y28910000D03*
X36720000Y27790000D03*
X32140000Y16420000D03*
X43380000Y32530000D03*
X36750000Y29960000D03*
X33860000Y30760000D03*
X27470000Y16000000D03*
X29320000Y21590000D03*
X23500000Y27290000D03*
X39980000Y27520000D03*
X36750000Y26500000D03*
X44140000Y33730000D03*
X36840000Y31040000D03*
X33840000Y31950000D03*
X28640000Y16380000D03*
X29870000Y6230000D03*
X24030000Y35310000D03*
X38010000Y26370000D03*
X34280000Y32990000D03*
X24290000Y2400000D03*
X17560000Y3970000D03*
X29870000Y38820000D03*
X22700000Y37070000D03*
X20450000Y37070000D03*
X20450000Y39840000D03*
X27490000Y25000000D03*
X15790000Y9810000D03*
X18830000Y3960000D03*
X40850000Y16970000D03*
X55740000Y26510000D03*
X39700000Y16970000D03*
X20100000Y3970000D03*
X26130000Y7790000D03*
X38550000Y16990000D03*
X16750000Y15810000D03*
X36740000Y28970000D03*
X16130000Y14820000D03*
X16980000Y28630000D03*
X19930000Y25170000D03*
X21350000Y40330000D03*
X21710000Y35310000D03*
X39380000Y26430000D03*
X31040000Y39530000D03*
X34990000Y33880000D03*
X25350000Y1540000D03*
X15020000Y3970000D03*
X8670000Y9450000D03*
D26*
X10240000Y10790000D02*
X10240000Y15800000D01*
X10240000Y15800000D02*
X10150000Y15890000D01*
X62200000Y26970000D02*
X60310000Y26970000D01*
X60310000Y26970000D02*
X56760000Y30520000D01*
X62200000Y26970000D02*
X65190000Y26970000D01*
X65190000Y26970000D02*
X65250000Y26910000D01*
X42180000Y35600000D02*
X43280000Y35600000D01*
X43280000Y35600000D02*
X43640000Y35960000D01*
X2050000Y28830000D02*
X2050000Y30290000D01*
X25340000Y32580000D02*
X25350000Y32580000D01*
D27*
X35870000Y19610000D02*
X35870000Y21050000D01*
X35870000Y21050000D02*
X38110000Y23290000D01*
X35810000Y11780000D02*
X35870000Y11840000D01*
X35870000Y11840000D02*
X35870000Y19610000D01*
X35240000Y11210000D02*
X35810000Y11780000D01*
X34150000Y10120000D02*
X35240000Y11210000D01*
X38110000Y23290000D02*
X38110000Y23980000D01*
X30940000Y25000000D02*
X31065000Y25125000D01*
X31065000Y25125000D02*
X31065000Y26170000D01*
X31065000Y26170000D02*
X31065000Y27510000D01*
D26*
X21320000Y10140000D02*
X21320000Y13380000D01*
X22395000Y9065000D02*
X21320000Y10140000D01*
X24690000Y9065000D02*
X22395000Y9065000D01*
D27*
X33340000Y10120000D02*
X33980000Y10120000D01*
X33340000Y10120000D02*
X34150000Y10120000D01*
X38610000Y36590000D02*
X35740000Y36590000D01*
X27590000Y8140000D02*
X27590000Y7120000D01*
X24690000Y9065000D02*
X26665000Y9065000D01*
X26665000Y9065000D02*
X27590000Y8140000D01*
D26*
X18120000Y29260000D02*
X18120000Y28630000D01*
X20360000Y31500000D02*
X18120000Y29260000D01*
X21970000Y33110000D02*
X20360000Y31500000D01*
D27*
X34680000Y14000000D02*
X34830000Y14150000D01*
X33340000Y12660000D02*
X34680000Y14000000D01*
X34830000Y21770000D02*
X35780000Y22720000D01*
X34830000Y14150000D02*
X34830000Y21770000D01*
X35780000Y22720000D02*
X36800000Y23740000D01*
X36800000Y23740000D02*
X36800000Y25230000D01*
X51980000Y35210000D02*
X47955000Y39235000D01*
X33340000Y12660000D02*
X33810000Y13130000D01*
X35785000Y22725000D02*
X35785000Y22735000D01*
X35780000Y22720000D02*
X35785000Y22725000D01*
X28340000Y13860000D02*
X28830000Y14350000D01*
X28340000Y11090000D02*
X28340000Y13860000D01*
X27590000Y10340000D02*
X28340000Y11090000D01*
D26*
X22700000Y10610000D02*
X22980000Y10330000D01*
X22700000Y10610000D02*
X22700000Y15780000D01*
X22700000Y16520000D02*
X22700000Y15780000D01*
X22985000Y10335000D02*
X22980000Y10330000D01*
X22985000Y10335000D02*
X24690000Y10335000D01*
D27*
X24685000Y10340000D02*
X24690000Y10335000D01*
X24690000Y10335000D02*
X27585000Y10335000D01*
X27585000Y10335000D02*
X27590000Y10340000D01*
X28860000Y32090000D02*
X28860000Y36320000D01*
X28860000Y32090000D02*
X28600000Y31830000D01*
X12540000Y30585000D02*
X12540000Y33710000D01*
D26*
X11210000Y11980000D02*
X13380000Y9810000D01*
X11210000Y11980000D02*
X11210000Y18435000D01*
X20380000Y27830000D02*
X20360000Y27830000D01*
X24390000Y23820000D02*
X21743556Y26466444D01*
X24390000Y23390000D02*
X24390000Y23820000D01*
X21743556Y26466444D02*
X20380000Y27830000D01*
X15070000Y27580000D02*
X17520000Y27580000D01*
X15070000Y27580000D02*
X12325000Y24835000D01*
X13750000Y18435000D02*
X13750000Y21340000D01*
X13750000Y21340000D02*
X12310000Y22780000D01*
D28*
X12310000Y24800000D02*
X12310000Y22780000D01*
D26*
X24390000Y23770000D02*
X24390000Y23390000D01*
X24390000Y23390000D02*
X24390000Y23370000D01*
X24390000Y23370000D02*
X25330000Y22430000D01*
X25330000Y22430000D02*
X25600000Y22430000D01*
X27230000Y22430000D02*
X25600000Y22430000D01*
X30720000Y18940000D02*
X27230000Y22430000D01*
X38390000Y19510000D02*
X38840000Y19960000D01*
X44100000Y25990000D02*
X44100000Y27640000D01*
X44100000Y25770000D02*
X44100000Y25990000D01*
X38840000Y20510000D02*
X44100000Y25770000D01*
X38840000Y19960000D02*
X38840000Y20510000D01*
D28*
X38390000Y19510000D02*
X38390000Y19520000D01*
D26*
X13740000Y16720000D02*
X13750000Y16720000D01*
X13750000Y16720000D02*
X13740000Y16720000D01*
X13740000Y16720000D02*
X13750000Y16720000D01*
X18750000Y10380000D02*
X16700000Y10380000D01*
X13750000Y18435000D02*
X13750000Y16720000D01*
X13750000Y16720000D02*
X13750000Y15950000D01*
X13750000Y15950000D02*
X13750000Y14250000D01*
X13750000Y13330000D02*
X13750000Y14250000D01*
X16700000Y10380000D02*
X13750000Y13330000D01*
X20660000Y26480000D02*
X20280000Y26480000D01*
X23310000Y23830000D02*
X23310000Y23140000D01*
X25120000Y21330000D02*
X26810000Y21330000D01*
X23310000Y23140000D02*
X25120000Y21330000D01*
X30410000Y17730000D02*
X26810000Y21330000D01*
X23310000Y23830000D02*
X21630000Y25510000D01*
X21630000Y25510000D02*
X20660000Y26480000D01*
X16260000Y26480000D02*
X18130000Y26480000D01*
X14850000Y24700000D02*
X14850000Y25070000D01*
D28*
X14850000Y22890000D02*
X14850000Y24700000D01*
D26*
X15020000Y22220000D02*
X15020000Y22720000D01*
X15020000Y22220000D02*
X15020000Y18435000D01*
D28*
X15020000Y22720000D02*
X14850000Y22890000D01*
D26*
X14850000Y25070000D02*
X16260000Y26480000D01*
X38480000Y18340000D02*
X39770000Y19630000D01*
X39770000Y19630000D02*
X39770000Y20290000D01*
X45380000Y28900000D02*
X44100000Y30180000D01*
X45380000Y25900000D02*
X45380000Y28900000D01*
X39770000Y20290000D02*
X45380000Y25900000D01*
X15020000Y13510000D02*
X15020000Y13470000D01*
X15060000Y13510000D02*
X15020000Y13510000D01*
X16550000Y11950000D02*
X16545000Y11945000D01*
X16545000Y11945000D02*
X16550000Y11950000D01*
X16550000Y11950000D02*
X16550000Y11940000D01*
X15020000Y14730000D02*
X15020000Y13470000D01*
X15020000Y18435000D02*
X15020000Y14730000D01*
X17020000Y11470000D02*
X18750000Y11470000D01*
X15020000Y13470000D02*
X16550000Y11940000D01*
X16550000Y11940000D02*
X17020000Y11470000D01*
X23110000Y26250000D02*
X22310000Y27050000D01*
X22310000Y27050000D02*
X22310000Y27950000D01*
X23110000Y26250000D02*
X25870000Y23490000D01*
X26265000Y11605000D02*
X26280000Y11590000D01*
X24690000Y11605000D02*
X26265000Y11605000D01*
X22310000Y27950000D02*
X22790000Y28430000D01*
X22790000Y28430000D02*
X23530000Y28430000D01*
X36990000Y28060000D02*
X36720000Y27790000D01*
X37600000Y28060000D02*
X36990000Y28060000D01*
X37600000Y28060000D02*
X38460000Y28920000D01*
X38920000Y28920000D02*
X38460000Y28920000D01*
X42820000Y28910000D02*
X42810000Y28920000D01*
X42810000Y28920000D02*
X39500000Y28920000D01*
X39500000Y28920000D02*
X38920000Y28920000D01*
X29980000Y15380000D02*
X31100000Y15380000D01*
X29980000Y15380000D02*
X28330000Y15380000D01*
X24690000Y12875000D02*
X25825000Y12875000D01*
X25825000Y12875000D02*
X27950000Y15000000D01*
X27950000Y15000000D02*
X28330000Y15380000D01*
X31100000Y15380000D02*
X32140000Y16420000D01*
X32480000Y16760000D02*
X32140000Y16420000D01*
X32480000Y17880000D02*
X32480000Y16860000D01*
X32480000Y17880000D02*
X32480000Y23160000D01*
X36750000Y29960000D02*
X37170000Y29960000D01*
X37170000Y29960000D02*
X39740000Y32530000D01*
X39740000Y32530000D02*
X43380000Y32530000D01*
X33930000Y30690000D02*
X33860000Y30760000D01*
X32480000Y23160000D02*
X33930000Y24610000D01*
X33930000Y24610000D02*
X33930000Y29170000D01*
X33930000Y29170000D02*
X33930000Y30690000D01*
X32480000Y16860000D02*
X32480000Y16760000D01*
X23500000Y27290000D02*
X25700000Y27290000D01*
X26460000Y26530000D02*
X26460000Y24450000D01*
X25700000Y27290000D02*
X26460000Y26530000D01*
X27470000Y16000000D02*
X27470000Y15750000D01*
X27470000Y15750000D02*
X27090000Y15370000D01*
X26430000Y14710000D02*
X27090000Y15370000D01*
X25865000Y14145000D02*
X26430000Y14710000D01*
X24690000Y14145000D02*
X25865000Y14145000D01*
X26460000Y24450000D02*
X29320000Y21590000D01*
X39980000Y27520000D02*
X38300000Y27520000D01*
X37470000Y27220000D02*
X36750000Y26500000D01*
X38000000Y27220000D02*
X37470000Y27220000D01*
X38300000Y27520000D02*
X38000000Y27220000D01*
X31760000Y17900000D02*
X31760000Y17440000D01*
X31760000Y17440000D02*
X31740000Y17420000D01*
X30240000Y16380000D02*
X30700000Y16380000D01*
X30700000Y16380000D02*
X31740000Y17420000D01*
X36840000Y31040000D02*
X36850000Y31040000D01*
X36850000Y31040000D02*
X39540000Y33730000D01*
X40310000Y33730000D02*
X44140000Y33730000D01*
X39540000Y33730000D02*
X40310000Y33730000D01*
X32920000Y31680000D02*
X33190000Y31950000D01*
X33190000Y31950000D02*
X33840000Y31950000D01*
X32920000Y24780000D02*
X32920000Y29060000D01*
X31760000Y23620000D02*
X32920000Y24780000D01*
X32920000Y29060000D02*
X32920000Y31680000D01*
X31760000Y18800000D02*
X31760000Y23620000D01*
X31760000Y17900000D02*
X31760000Y18800000D01*
X28640000Y16380000D02*
X30240000Y16380000D01*
X28115000Y16965000D02*
X28640000Y16440000D01*
X28640000Y16440000D02*
X28640000Y16380000D01*
X28115000Y16965000D02*
X26905000Y16965000D01*
X26905000Y16965000D02*
X26380000Y16440000D01*
X24690000Y15415000D02*
X25805000Y15415000D01*
X25805000Y15415000D02*
X26380000Y15990000D01*
X26380000Y15990000D02*
X26380000Y16440000D01*
X25805000Y15415000D02*
X26320000Y15930000D01*
X33950000Y15810000D02*
X33950000Y14870000D01*
X33280000Y14200000D02*
X32340000Y14200000D01*
X33950000Y14870000D02*
X33280000Y14200000D01*
X30800000Y12660000D02*
X32340000Y14200000D01*
X38640000Y34630000D02*
X35670000Y31660000D01*
X35670000Y30150000D02*
X35670000Y24470000D01*
X35670000Y31660000D02*
X35670000Y30150000D01*
X35670000Y24470000D02*
X35670000Y24040000D01*
X40470000Y38370000D02*
X40470000Y35440000D01*
D29*
X37390000Y40630000D02*
X38210000Y40630000D01*
X38210000Y40630000D02*
X38700000Y40140000D01*
X36410000Y40630000D02*
X35470000Y39690000D01*
X36410000Y40630000D02*
X37390000Y40630000D01*
D26*
X38700000Y40140000D02*
X40470000Y38370000D01*
X40470000Y35440000D02*
X39660000Y34630000D01*
X39660000Y34630000D02*
X38640000Y34630000D01*
X33950000Y22320000D02*
X35670000Y24040000D01*
X33950000Y22230000D02*
X33950000Y22320000D01*
X33950000Y15810000D02*
X33950000Y22230000D01*
X29870000Y6230000D02*
X28895000Y5255000D01*
X28895000Y5255000D02*
X28525000Y5255000D01*
X28525000Y5255000D02*
X24690000Y5255000D01*
X31980000Y14960000D02*
X32430000Y14960000D01*
X32430000Y14960000D02*
X33220000Y15750000D01*
X33220000Y16200000D02*
X33220000Y15750000D01*
X33220000Y16200000D02*
X33220000Y22720000D01*
X39190000Y35510000D02*
X38180000Y35510000D01*
X34800000Y32130000D02*
X34800000Y30870000D01*
X38180000Y35510000D02*
X34800000Y32130000D01*
X34800000Y24850000D02*
X34800000Y24300000D01*
X34800000Y29960000D02*
X34800000Y24850000D01*
X39040000Y38330000D02*
X39540000Y37830000D01*
X39040000Y38330000D02*
X37680000Y39690000D01*
X39540000Y35860000D02*
X39190000Y35510000D01*
X39540000Y37830000D02*
X39540000Y35860000D01*
X34800000Y30870000D02*
X34800000Y29960000D01*
X33220000Y22720000D02*
X34800000Y24300000D01*
X30200000Y14180000D02*
X30245000Y14225000D01*
X30245000Y14225000D02*
X31245000Y14225000D01*
X31245000Y14225000D02*
X31980000Y14960000D01*
X29380000Y12540000D02*
X29380000Y13360000D01*
X29380000Y13360000D02*
X30200000Y14180000D01*
X29380000Y12110000D02*
X29380000Y12540000D01*
X29380000Y13360000D02*
X30200000Y14180000D01*
X28640000Y6780000D02*
X30800000Y8940000D01*
X30800000Y8940000D02*
X30800000Y10120000D01*
X30800000Y10120000D02*
X29380000Y11540000D01*
X29380000Y11540000D02*
X29380000Y12110000D01*
X37300000Y39690000D02*
X37680000Y39690000D01*
X26310000Y6140000D02*
X28000000Y6140000D01*
X28000000Y6140000D02*
X28640000Y6780000D01*
X24690000Y6525000D02*
X25925000Y6525000D01*
X25925000Y6525000D02*
X26310000Y6140000D01*
X17390000Y24950000D02*
X17950000Y25510000D01*
X19140000Y25890000D02*
X19140000Y26700000D01*
X18760000Y25510000D02*
X19140000Y25890000D01*
X17950000Y25510000D02*
X18760000Y25510000D01*
X21500000Y30900000D02*
X19140000Y28540000D01*
X19140000Y28540000D02*
X19140000Y26700000D01*
X21500000Y30900000D02*
X23080000Y32480000D01*
X23080000Y34360000D02*
X24030000Y35310000D01*
X23080000Y32480000D02*
X23080000Y34360000D01*
D28*
X17390000Y22710000D02*
X17390000Y24950000D01*
D26*
X17560000Y22180000D02*
X17560000Y22540000D01*
X17560000Y22180000D02*
X17560000Y18435000D01*
X17560000Y22540000D02*
X17390000Y22710000D01*
X36750000Y11430000D02*
X36750000Y20580000D01*
X36460000Y11140000D02*
X36750000Y11430000D01*
X39130000Y22960000D02*
X39130000Y24350000D01*
X39130000Y24350000D02*
X38010000Y25470000D01*
X38010000Y25470000D02*
X38010000Y26370000D01*
X38585000Y22415000D02*
X39130000Y22960000D01*
X33870000Y34630000D02*
X33870000Y33400000D01*
X33870000Y33400000D02*
X34280000Y32990000D01*
X32850000Y35650000D02*
X33870000Y34630000D01*
X31650000Y36850000D02*
X32850000Y35650000D01*
X28020000Y2700000D02*
X36460000Y11140000D01*
X24290000Y2400000D02*
X24590000Y2700000D01*
D27*
X17560000Y2235000D02*
X17560000Y3970000D01*
D26*
X24590000Y2700000D02*
X27490000Y2700000D01*
X27490000Y2700000D02*
X28020000Y2700000D01*
X36750000Y20580000D02*
X38585000Y22415000D01*
X38585000Y22415000D02*
X39120000Y22950000D01*
X29870000Y38820000D02*
X29870000Y38630000D01*
X29870000Y38630000D02*
X31650000Y36850000D01*
X31650000Y36850000D02*
X31920000Y36580000D01*
D27*
X28710000Y37390000D02*
X29660000Y37390000D01*
X29660000Y37390000D02*
X31140000Y35910000D01*
X24850000Y37390000D02*
X24530000Y37070000D01*
X24530000Y37070000D02*
X22700000Y37070000D01*
X24850000Y37390000D02*
X28710000Y37390000D01*
X31140000Y31830000D02*
X31140000Y35910000D01*
D26*
X20450000Y37070000D02*
X20450000Y39840000D01*
D27*
X28740000Y25000000D02*
X27490000Y25000000D01*
X28565000Y27510000D02*
X28740000Y27335000D01*
X28740000Y27335000D02*
X28740000Y25000000D01*
X31140000Y31830000D02*
X28565000Y29255000D01*
X28565000Y29255000D02*
X28565000Y27510000D01*
X31065000Y31755000D02*
X31140000Y31830000D01*
D26*
X12480000Y13120000D02*
X15790000Y9810000D01*
X12480000Y13120000D02*
X12480000Y18435000D01*
X54260000Y27640000D02*
X56300000Y27640000D01*
X42510000Y18630000D02*
X42510000Y19600000D01*
X42510000Y19600000D02*
X44340000Y21430000D01*
D27*
X18830000Y3960000D02*
X18830000Y2235000D01*
D26*
X40850000Y16970000D02*
X42510000Y18630000D01*
X46740000Y23830000D02*
X44340000Y21430000D01*
X54520000Y23830000D02*
X46740000Y23830000D01*
X56790000Y26100000D02*
X54520000Y23830000D01*
X56790000Y27150000D02*
X56790000Y26100000D01*
X56300000Y27640000D02*
X56790000Y27150000D01*
X41520000Y19000000D02*
X41520000Y19800000D01*
X46420000Y24700000D02*
X53930000Y24700000D01*
X41520000Y19800000D02*
X46420000Y24700000D01*
X53930000Y24700000D02*
X55740000Y26510000D01*
X39700000Y16970000D02*
X39700000Y17180000D01*
X39700000Y17180000D02*
X41520000Y19000000D01*
D27*
X20100000Y2235000D02*
X20100000Y3970000D01*
D26*
X38550000Y16990000D02*
X38550000Y17190000D01*
X40680000Y19320000D02*
X40680000Y20160000D01*
X38550000Y17190000D02*
X40680000Y19320000D01*
D27*
X26125000Y7795000D02*
X26130000Y7790000D01*
X24690000Y7795000D02*
X26125000Y7795000D01*
D26*
X51720000Y27640000D02*
X49800000Y25720000D01*
X49800000Y25720000D02*
X46230000Y25720000D01*
X46230000Y25720000D02*
X46230000Y25710000D01*
X46230000Y25710000D02*
X40680000Y20160000D01*
X17160000Y15400000D02*
X16750000Y15810000D01*
X20570000Y11970000D02*
X20570000Y12680000D01*
X22385000Y7795000D02*
X20570000Y9610000D01*
X20570000Y9610000D02*
X20570000Y11970000D01*
X22385000Y7795000D02*
X24690000Y7795000D01*
X17640000Y13500000D02*
X17160000Y13980000D01*
X19750000Y13500000D02*
X17640000Y13500000D01*
X20570000Y12680000D02*
X19750000Y13500000D01*
X17160000Y13980000D02*
X17160000Y15400000D01*
X39930000Y31570000D02*
X37330000Y28970000D01*
X37330000Y28970000D02*
X36740000Y28970000D01*
X40550000Y31570000D02*
X40930000Y31570000D01*
X51720000Y30180000D02*
X50330000Y31570000D01*
X50330000Y31570000D02*
X40930000Y31570000D01*
X40550000Y31570000D02*
X39930000Y31570000D01*
X19700000Y12170000D02*
X19260000Y12610000D01*
X19260000Y12610000D02*
X17220000Y12610000D01*
X17220000Y12610000D02*
X16130000Y13700000D01*
X16130000Y13700000D02*
X16130000Y14820000D01*
X23080000Y5960000D02*
X23080000Y5970000D01*
X23505000Y3985000D02*
X23080000Y4410000D01*
X23080000Y4410000D02*
X23080000Y5960000D01*
X23505000Y3985000D02*
X24690000Y3985000D01*
X19700000Y9350000D02*
X19700000Y11980000D01*
X23080000Y5970000D02*
X19700000Y9350000D01*
X19700000Y11980000D02*
X19700000Y12170000D01*
X16980000Y28630000D02*
X16980000Y29330000D01*
X20920000Y33270000D02*
X20920000Y34520000D01*
X16980000Y29330000D02*
X20920000Y33270000D01*
X20920000Y34520000D02*
X21710000Y35310000D01*
X19930000Y25170000D02*
X19930000Y24670000D01*
D28*
X19930000Y23020000D02*
X19930000Y24670000D01*
D26*
X19930000Y22810000D02*
X19930000Y23020000D01*
X18830000Y21710000D02*
X18830000Y18435000D01*
X18830000Y21710000D02*
X19930000Y22810000D01*
X21350000Y40330000D02*
X21710000Y39970000D01*
X21710000Y39970000D02*
X21710000Y35310000D01*
X37470000Y15580000D02*
X37470000Y11060000D01*
X37470000Y11060000D02*
X37210000Y10800000D01*
X37470000Y15580000D02*
X37470000Y20170000D01*
X39380000Y26430000D02*
X39380000Y25520000D01*
X40060000Y22760000D02*
X40105000Y22805000D01*
X40105000Y24795000D02*
X40105000Y22805000D01*
X31040000Y39530000D02*
X31040000Y38660000D01*
X31040000Y38660000D02*
X32590000Y37110000D01*
X32590000Y37110000D02*
X33910000Y35790000D01*
X33910000Y35790000D02*
X34990000Y34710000D01*
X34990000Y34710000D02*
X34990000Y33880000D01*
X39380000Y25520000D02*
X40105000Y24795000D01*
X40060000Y22760000D02*
X40060000Y22740000D01*
X40060000Y22740000D02*
X40060000Y22760000D01*
X39790000Y22490000D02*
X40060000Y22760000D01*
X37470000Y20170000D02*
X39790000Y22490000D01*
X27950000Y1540000D02*
X37210000Y10800000D01*
X25350000Y1540000D02*
X27700000Y1540000D01*
D27*
X15020000Y3970000D02*
X15020000Y2235000D01*
D26*
X27700000Y1540000D02*
X27950000Y1540000D01*
X8670000Y9450000D02*
X8670000Y18435000D01*
D28*
G36*
X11540174Y33909785D02*
X11539827Y33511960D01*
X11540000Y33511541D01*
X11540000Y32212754D01*
X11524000Y32212754D01*
X11301654Y32170917D01*
X11097442Y32039510D01*
X10960444Y31839007D01*
X10912246Y31601000D01*
X10912246Y29569000D01*
X10954083Y29346654D01*
X11085490Y29142442D01*
X11285993Y29005444D01*
X11524000Y28957246D01*
X13556000Y28957246D01*
X13778346Y28999083D01*
X13982558Y29130490D01*
X14104732Y29309297D01*
X14429925Y29092011D01*
X15048341Y28969000D01*
X15111659Y28969000D01*
X15730075Y29092011D01*
X16136706Y29363712D01*
X16130000Y29330000D01*
X16130000Y29190605D01*
X15980174Y28829785D01*
X15979827Y28431960D01*
X15980637Y28430000D01*
X15070000Y28430000D01*
X14744719Y28365298D01*
X14468959Y28181041D01*
X11723959Y25436041D01*
X11658107Y25337487D01*
X11600095Y25376249D01*
X11040000Y25487659D01*
X10479905Y25376249D01*
X10005079Y25058980D01*
X9770000Y24707160D01*
X9534921Y25058980D01*
X9060095Y25376249D01*
X8500000Y25487659D01*
X7939905Y25376249D01*
X7465079Y25058980D01*
X7147810Y24584154D01*
X7036400Y24024059D01*
X7036400Y23655941D01*
X7147810Y23095846D01*
X7465079Y22621020D01*
X7939905Y22303751D01*
X8500000Y22192341D01*
X9060095Y22303751D01*
X9534921Y22621020D01*
X9770000Y22972840D01*
X10005079Y22621020D01*
X10479905Y22303751D01*
X11040000Y22192341D01*
X11600095Y22303751D01*
X11617711Y22315522D01*
X11708959Y22178959D01*
X12900000Y20987919D01*
X12900000Y20046754D01*
X11980000Y20046754D01*
X11840043Y20020419D01*
X11710000Y20046754D01*
X10710000Y20046754D01*
X10570043Y20020419D01*
X10440000Y20046754D01*
X9440000Y20046754D01*
X9300043Y20020419D01*
X9170000Y20046754D01*
X8170000Y20046754D01*
X7947654Y20004917D01*
X7743442Y19873510D01*
X7606444Y19673007D01*
X7558246Y19435000D01*
X7558246Y19110000D01*
X1470000Y19110000D01*
X1397417Y19096365D01*
X1330629Y19053443D01*
X1285803Y18987919D01*
X1270000Y18910117D01*
X1260000Y1760117D01*
X1273678Y1687309D01*
X1316638Y1620546D01*
X1382189Y1575757D01*
X1460000Y1560000D01*
X7558246Y1560000D01*
X7558246Y1235000D01*
X7600083Y1012654D01*
X7731490Y808442D01*
X7894005Y697400D01*
X2120121Y697400D01*
X1544351Y811927D01*
X1110509Y1101811D01*
X820627Y1535651D01*
X706100Y2111418D01*
X706100Y24856000D01*
X1944646Y24856000D01*
X1944646Y22824000D01*
X1986483Y22601654D01*
X2117890Y22397442D01*
X2318393Y22260444D01*
X2556400Y22212246D01*
X4283600Y22212246D01*
X4505946Y22254083D01*
X4710158Y22385490D01*
X4847156Y22585993D01*
X4895354Y22824000D01*
X4895354Y24856000D01*
X4853517Y25078346D01*
X4722110Y25282558D01*
X4521607Y25419556D01*
X4283600Y25467754D01*
X2556400Y25467754D01*
X2334054Y25425917D01*
X2129842Y25294510D01*
X1992844Y25094007D01*
X1944646Y24856000D01*
X706100Y24856000D01*
X706100Y31633398D01*
X4410100Y31633398D01*
X4581371Y30772360D01*
X5069110Y30042408D01*
X5799062Y29554669D01*
X6660100Y29383398D01*
X7521138Y29554669D01*
X8251090Y30042408D01*
X8738829Y30772360D01*
X8910100Y31633398D01*
X8738829Y32494436D01*
X8251090Y33224388D01*
X7521138Y33712127D01*
X6660100Y33883398D01*
X5799062Y33712127D01*
X5069110Y33224388D01*
X4581371Y32494436D01*
X4410100Y31633398D01*
X706100Y31633398D01*
X706100Y32781382D01*
X820627Y33357149D01*
X1110509Y33790989D01*
X1544351Y34080873D01*
X2120121Y34195400D01*
X11658772Y34195400D01*
X11540174Y33909785D01*
X11540174Y33909785D01*
G37*
X11540174Y33909785D02*
X11539827Y33511960D01*
X11540000Y33511541D01*
X11540000Y32212754D01*
X11524000Y32212754D01*
X11301654Y32170917D01*
X11097442Y32039510D01*
X10960444Y31839007D01*
X10912246Y31601000D01*
X10912246Y29569000D01*
X10954083Y29346654D01*
X11085490Y29142442D01*
X11285993Y29005444D01*
X11524000Y28957246D01*
X13556000Y28957246D01*
X13778346Y28999083D01*
X13982558Y29130490D01*
X14104732Y29309297D01*
X14429925Y29092011D01*
X15048341Y28969000D01*
X15111659Y28969000D01*
X15730075Y29092011D01*
X16136706Y29363712D01*
X16130000Y29330000D01*
X16130000Y29190605D01*
X15980174Y28829785D01*
X15979827Y28431960D01*
X15980637Y28430000D01*
X15070000Y28430000D01*
X14744719Y28365298D01*
X14468959Y28181041D01*
X11723959Y25436041D01*
X11658107Y25337487D01*
X11600095Y25376249D01*
X11040000Y25487659D01*
X10479905Y25376249D01*
X10005079Y25058980D01*
X9770000Y24707160D01*
X9534921Y25058980D01*
X9060095Y25376249D01*
X8500000Y25487659D01*
X7939905Y25376249D01*
X7465079Y25058980D01*
X7147810Y24584154D01*
X7036400Y24024059D01*
X7036400Y23655941D01*
X7147810Y23095846D01*
X7465079Y22621020D01*
X7939905Y22303751D01*
X8500000Y22192341D01*
X9060095Y22303751D01*
X9534921Y22621020D01*
X9770000Y22972840D01*
X10005079Y22621020D01*
X10479905Y22303751D01*
X11040000Y22192341D01*
X11600095Y22303751D01*
X11617711Y22315522D01*
X11708959Y22178959D01*
X12900000Y20987919D01*
X12900000Y20046754D01*
X11980000Y20046754D01*
X11840043Y20020419D01*
X11710000Y20046754D01*
X10710000Y20046754D01*
X10570043Y20020419D01*
X10440000Y20046754D01*
X9440000Y20046754D01*
X9300043Y20020419D01*
X9170000Y20046754D01*
X8170000Y20046754D01*
X7947654Y20004917D01*
X7743442Y19873510D01*
X7606444Y19673007D01*
X7558246Y19435000D01*
X7558246Y19110000D01*
X1470000Y19110000D01*
X1397417Y19096365D01*
X1330629Y19053443D01*
X1285803Y18987919D01*
X1270000Y18910117D01*
X1260000Y1760117D01*
X1273678Y1687309D01*
X1316638Y1620546D01*
X1382189Y1575757D01*
X1460000Y1560000D01*
X7558246Y1560000D01*
X7558246Y1235000D01*
X7600083Y1012654D01*
X7731490Y808442D01*
X7894005Y697400D01*
X2120121Y697400D01*
X1544351Y811927D01*
X1110509Y1101811D01*
X820627Y1535651D01*
X706100Y2111418D01*
X706100Y24856000D01*
X1944646Y24856000D01*
X1944646Y22824000D01*
X1986483Y22601654D01*
X2117890Y22397442D01*
X2318393Y22260444D01*
X2556400Y22212246D01*
X4283600Y22212246D01*
X4505946Y22254083D01*
X4710158Y22385490D01*
X4847156Y22585993D01*
X4895354Y22824000D01*
X4895354Y24856000D01*
X4853517Y25078346D01*
X4722110Y25282558D01*
X4521607Y25419556D01*
X4283600Y25467754D01*
X2556400Y25467754D01*
X2334054Y25425917D01*
X2129842Y25294510D01*
X1992844Y25094007D01*
X1944646Y24856000D01*
X706100Y24856000D01*
X706100Y31633398D01*
X4410100Y31633398D01*
X4581371Y30772360D01*
X5069110Y30042408D01*
X5799062Y29554669D01*
X6660100Y29383398D01*
X7521138Y29554669D01*
X8251090Y30042408D01*
X8738829Y30772360D01*
X8910100Y31633398D01*
X8738829Y32494436D01*
X8251090Y33224388D01*
X7521138Y33712127D01*
X6660100Y33883398D01*
X5799062Y33712127D01*
X5069110Y33224388D01*
X4581371Y32494436D01*
X4410100Y31633398D01*
X706100Y31633398D01*
X706100Y32781382D01*
X820627Y33357149D01*
X1110509Y33790989D01*
X1544351Y34080873D01*
X2120121Y34195400D01*
X11658772Y34195400D01*
X11540174Y33909785D01*
G36*
X10360000Y11980000D02*
X10424702Y11654719D01*
X10608959Y11378959D01*
X12382551Y9605368D01*
X12531747Y9244286D01*
X12812806Y8962736D01*
X13180215Y8810174D01*
X13578040Y8809827D01*
X13945714Y8961747D01*
X14227264Y9242806D01*
X14379826Y9610215D01*
X14380173Y10008040D01*
X14373339Y10024579D01*
X14792551Y9605367D01*
X14941747Y9244286D01*
X15222806Y8962736D01*
X15590215Y8810174D01*
X15988040Y8809827D01*
X16355714Y8961747D01*
X16637264Y9242806D01*
X16756518Y9530000D01*
X18189395Y9530000D01*
X18550215Y9380174D01*
X18850000Y9379913D01*
X18850000Y9350000D01*
X18914702Y9024719D01*
X19098959Y8748959D01*
X22230000Y5617918D01*
X22230000Y4410000D01*
X22294702Y4084719D01*
X22453705Y3846754D01*
X22140000Y3846754D01*
X22000043Y3820419D01*
X21870000Y3846754D01*
X21100000Y3846754D01*
X21100000Y3970000D01*
X21100173Y4168040D01*
X20948253Y4535714D01*
X20667194Y4817264D01*
X20299785Y4969826D01*
X19901960Y4970173D01*
X19534286Y4818253D01*
X19460126Y4744222D01*
X19397194Y4807264D01*
X19029785Y4959826D01*
X18631960Y4960173D01*
X18264286Y4808253D01*
X18200126Y4744205D01*
X18127194Y4817264D01*
X17759785Y4969826D01*
X17361960Y4970173D01*
X16994286Y4818253D01*
X16712736Y4537194D01*
X16560174Y4169785D01*
X16559892Y3846754D01*
X16020000Y3846754D01*
X16020000Y3970000D01*
X16020173Y4168040D01*
X15868253Y4535714D01*
X15587194Y4817264D01*
X15219785Y4969826D01*
X14821960Y4970173D01*
X14454286Y4818253D01*
X14172736Y4537194D01*
X14020174Y4169785D01*
X14019892Y3846754D01*
X13250000Y3846754D01*
X13110043Y3820419D01*
X12980000Y3846754D01*
X11980000Y3846754D01*
X11840043Y3820419D01*
X11710000Y3846754D01*
X10710000Y3846754D01*
X10570043Y3820419D01*
X10440000Y3846754D01*
X9440000Y3846754D01*
X9300043Y3820419D01*
X9170000Y3846754D01*
X8170000Y3846754D01*
X7947654Y3804917D01*
X7810000Y3716339D01*
X7810000Y8912716D01*
X7821747Y8884286D01*
X8102806Y8602736D01*
X8470215Y8450174D01*
X8868040Y8449827D01*
X9235714Y8601747D01*
X9517264Y8882806D01*
X9669826Y9250215D01*
X9670173Y9648040D01*
X9520000Y10011486D01*
X9520000Y16823246D01*
X10360000Y16823246D01*
X10360000Y11980000D01*
X10360000Y11980000D01*
G37*
X10360000Y11980000D02*
X10424702Y11654719D01*
X10608959Y11378959D01*
X12382551Y9605368D01*
X12531747Y9244286D01*
X12812806Y8962736D01*
X13180215Y8810174D01*
X13578040Y8809827D01*
X13945714Y8961747D01*
X14227264Y9242806D01*
X14379826Y9610215D01*
X14380173Y10008040D01*
X14373339Y10024579D01*
X14792551Y9605367D01*
X14941747Y9244286D01*
X15222806Y8962736D01*
X15590215Y8810174D01*
X15988040Y8809827D01*
X16355714Y8961747D01*
X16637264Y9242806D01*
X16756518Y9530000D01*
X18189395Y9530000D01*
X18550215Y9380174D01*
X18850000Y9379913D01*
X18850000Y9350000D01*
X18914702Y9024719D01*
X19098959Y8748959D01*
X22230000Y5617918D01*
X22230000Y4410000D01*
X22294702Y4084719D01*
X22453705Y3846754D01*
X22140000Y3846754D01*
X22000043Y3820419D01*
X21870000Y3846754D01*
X21100000Y3846754D01*
X21100000Y3970000D01*
X21100173Y4168040D01*
X20948253Y4535714D01*
X20667194Y4817264D01*
X20299785Y4969826D01*
X19901960Y4970173D01*
X19534286Y4818253D01*
X19460126Y4744222D01*
X19397194Y4807264D01*
X19029785Y4959826D01*
X18631960Y4960173D01*
X18264286Y4808253D01*
X18200126Y4744205D01*
X18127194Y4817264D01*
X17759785Y4969826D01*
X17361960Y4970173D01*
X16994286Y4818253D01*
X16712736Y4537194D01*
X16560174Y4169785D01*
X16559892Y3846754D01*
X16020000Y3846754D01*
X16020000Y3970000D01*
X16020173Y4168040D01*
X15868253Y4535714D01*
X15587194Y4817264D01*
X15219785Y4969826D01*
X14821960Y4970173D01*
X14454286Y4818253D01*
X14172736Y4537194D01*
X14020174Y4169785D01*
X14019892Y3846754D01*
X13250000Y3846754D01*
X13110043Y3820419D01*
X12980000Y3846754D01*
X11980000Y3846754D01*
X11840043Y3820419D01*
X11710000Y3846754D01*
X10710000Y3846754D01*
X10570043Y3820419D01*
X10440000Y3846754D01*
X9440000Y3846754D01*
X9300043Y3820419D01*
X9170000Y3846754D01*
X8170000Y3846754D01*
X7947654Y3804917D01*
X7810000Y3716339D01*
X7810000Y8912716D01*
X7821747Y8884286D01*
X8102806Y8602736D01*
X8470215Y8450174D01*
X8868040Y8449827D01*
X9235714Y8601747D01*
X9517264Y8882806D01*
X9669826Y9250215D01*
X9670173Y9648040D01*
X9520000Y10011486D01*
X9520000Y16823246D01*
X10360000Y16823246D01*
X10360000Y11980000D01*
G36*
X38280000Y23997918D02*
X38280000Y23312082D01*
X36148959Y21181041D01*
X35964702Y20905281D01*
X35900000Y20580000D01*
X35900000Y11782082D01*
X35858959Y11741041D01*
X35858957Y11741038D01*
X30775378Y6657460D01*
X30718253Y6795714D01*
X30437194Y7077264D01*
X30226736Y7164654D01*
X31401041Y8338959D01*
X31585298Y8614719D01*
X31648359Y8931748D01*
X31834921Y9056405D01*
X32152190Y9531231D01*
X32263600Y10091326D01*
X32263600Y10148674D01*
X32152190Y10708769D01*
X31834921Y11183595D01*
X31526014Y11390000D01*
X31834921Y11596405D01*
X31887477Y11675061D01*
X31906483Y11574054D01*
X32037890Y11369842D01*
X32238393Y11232844D01*
X32476400Y11184646D01*
X34203600Y11184646D01*
X34425946Y11226483D01*
X34630158Y11357890D01*
X34767156Y11558393D01*
X34815354Y11796400D01*
X34815354Y12721140D01*
X35537107Y13442893D01*
X35753880Y13767316D01*
X35830000Y14150000D01*
X35830000Y21355786D01*
X36487108Y22012894D01*
X36627264Y22152806D01*
X36627437Y22153223D01*
X37507107Y23032893D01*
X37723880Y23357316D01*
X37800000Y23740000D01*
X37800000Y24477918D01*
X38280000Y23997918D01*
X38280000Y23997918D01*
G37*
X38280000Y23997918D02*
X38280000Y23312082D01*
X36148959Y21181041D01*
X35964702Y20905281D01*
X35900000Y20580000D01*
X35900000Y11782082D01*
X35858959Y11741041D01*
X35858957Y11741038D01*
X30775378Y6657460D01*
X30718253Y6795714D01*
X30437194Y7077264D01*
X30226736Y7164654D01*
X31401041Y8338959D01*
X31585298Y8614719D01*
X31648359Y8931748D01*
X31834921Y9056405D01*
X32152190Y9531231D01*
X32263600Y10091326D01*
X32263600Y10148674D01*
X32152190Y10708769D01*
X31834921Y11183595D01*
X31526014Y11390000D01*
X31834921Y11596405D01*
X31887477Y11675061D01*
X31906483Y11574054D01*
X32037890Y11369842D01*
X32238393Y11232844D01*
X32476400Y11184646D01*
X34203600Y11184646D01*
X34425946Y11226483D01*
X34630158Y11357890D01*
X34767156Y11558393D01*
X34815354Y11796400D01*
X34815354Y12721140D01*
X35537107Y13442893D01*
X35753880Y13767316D01*
X35830000Y14150000D01*
X35830000Y21355786D01*
X36487108Y22012894D01*
X36627264Y22152806D01*
X36627437Y22153223D01*
X37507107Y23032893D01*
X37723880Y23357316D01*
X37800000Y23740000D01*
X37800000Y24477918D01*
X38280000Y23997918D01*
G36*
X20870000Y16823246D02*
X21743135Y16823246D01*
X21700174Y16719785D01*
X21699827Y16321960D01*
X21850000Y15958514D01*
X21850000Y10610000D01*
X21914702Y10284719D01*
X21979875Y10187180D01*
X21979827Y10131960D01*
X22131747Y9764286D01*
X22412806Y9482736D01*
X22780215Y9330174D01*
X23178040Y9329827D01*
X23295510Y9378365D01*
X23451993Y9271444D01*
X23690000Y9223246D01*
X25690000Y9223246D01*
X25912346Y9265083D01*
X26021000Y9335000D01*
X26687618Y9335000D01*
X26701490Y9313442D01*
X26901993Y9176444D01*
X27140000Y9128246D01*
X28040000Y9128246D01*
X28262346Y9170083D01*
X28466558Y9301490D01*
X28603556Y9501993D01*
X28651754Y9740000D01*
X28651754Y9987540D01*
X29047107Y10382893D01*
X29162431Y10555487D01*
X29375031Y10342887D01*
X29336400Y10148674D01*
X29336400Y10091326D01*
X29447810Y9531231D01*
X29744749Y9086831D01*
X27647918Y6990000D01*
X26744051Y6990000D01*
X26977264Y7222806D01*
X27053879Y7407314D01*
X27053880Y7407316D01*
X27053880Y7407318D01*
X27129826Y7590215D01*
X27130173Y7988040D01*
X26978253Y8355714D01*
X26697194Y8637264D01*
X26519245Y8711155D01*
X26507684Y8718880D01*
X26494166Y8721569D01*
X26329785Y8789826D01*
X26150224Y8789983D01*
X26125000Y8795000D01*
X26021024Y8795000D01*
X25928007Y8858556D01*
X25690000Y8906754D01*
X23690000Y8906754D01*
X23467654Y8864917D01*
X23263442Y8733510D01*
X23202966Y8645000D01*
X22737081Y8645000D01*
X21420000Y9962082D01*
X21420000Y12680000D01*
X21355298Y13005281D01*
X21171041Y13281041D01*
X20351041Y14101041D01*
X20075281Y14285298D01*
X19750000Y14350000D01*
X18010000Y14350000D01*
X18010000Y15399995D01*
X18010001Y15400000D01*
X17945298Y15725281D01*
X17928781Y15750000D01*
X17761041Y16001041D01*
X17761038Y16001043D01*
X17747449Y16014632D01*
X17598253Y16375714D01*
X17317194Y16657264D01*
X16949785Y16809826D01*
X16551960Y16810173D01*
X16184286Y16658253D01*
X15902736Y16377194D01*
X15870000Y16298357D01*
X15870000Y16823246D01*
X16790000Y16823246D01*
X16929957Y16849581D01*
X17060000Y16823246D01*
X18060000Y16823246D01*
X18199957Y16849581D01*
X18330000Y16823246D01*
X19330000Y16823246D01*
X19469957Y16849581D01*
X19600000Y16823246D01*
X20600000Y16823246D01*
X20739957Y16849581D01*
X20870000Y16823246D01*
X20870000Y16823246D01*
G37*
X20870000Y16823246D02*
X21743135Y16823246D01*
X21700174Y16719785D01*
X21699827Y16321960D01*
X21850000Y15958514D01*
X21850000Y10610000D01*
X21914702Y10284719D01*
X21979875Y10187180D01*
X21979827Y10131960D01*
X22131747Y9764286D01*
X22412806Y9482736D01*
X22780215Y9330174D01*
X23178040Y9329827D01*
X23295510Y9378365D01*
X23451993Y9271444D01*
X23690000Y9223246D01*
X25690000Y9223246D01*
X25912346Y9265083D01*
X26021000Y9335000D01*
X26687618Y9335000D01*
X26701490Y9313442D01*
X26901993Y9176444D01*
X27140000Y9128246D01*
X28040000Y9128246D01*
X28262346Y9170083D01*
X28466558Y9301490D01*
X28603556Y9501993D01*
X28651754Y9740000D01*
X28651754Y9987540D01*
X29047107Y10382893D01*
X29162431Y10555487D01*
X29375031Y10342887D01*
X29336400Y10148674D01*
X29336400Y10091326D01*
X29447810Y9531231D01*
X29744749Y9086831D01*
X27647918Y6990000D01*
X26744051Y6990000D01*
X26977264Y7222806D01*
X27053879Y7407314D01*
X27053880Y7407316D01*
X27053880Y7407318D01*
X27129826Y7590215D01*
X27130173Y7988040D01*
X26978253Y8355714D01*
X26697194Y8637264D01*
X26519245Y8711155D01*
X26507684Y8718880D01*
X26494166Y8721569D01*
X26329785Y8789826D01*
X26150224Y8789983D01*
X26125000Y8795000D01*
X26021024Y8795000D01*
X25928007Y8858556D01*
X25690000Y8906754D01*
X23690000Y8906754D01*
X23467654Y8864917D01*
X23263442Y8733510D01*
X23202966Y8645000D01*
X22737081Y8645000D01*
X21420000Y9962082D01*
X21420000Y12680000D01*
X21355298Y13005281D01*
X21171041Y13281041D01*
X20351041Y14101041D01*
X20075281Y14285298D01*
X19750000Y14350000D01*
X18010000Y14350000D01*
X18010000Y15399995D01*
X18010001Y15400000D01*
X17945298Y15725281D01*
X17928781Y15750000D01*
X17761041Y16001041D01*
X17761038Y16001043D01*
X17747449Y16014632D01*
X17598253Y16375714D01*
X17317194Y16657264D01*
X16949785Y16809826D01*
X16551960Y16810173D01*
X16184286Y16658253D01*
X15902736Y16377194D01*
X15870000Y16298357D01*
X15870000Y16823246D01*
X16790000Y16823246D01*
X16929957Y16849581D01*
X17060000Y16823246D01*
X18060000Y16823246D01*
X18199957Y16849581D01*
X18330000Y16823246D01*
X19330000Y16823246D01*
X19469957Y16849581D01*
X19600000Y16823246D01*
X20600000Y16823246D01*
X20739957Y16849581D01*
X20870000Y16823246D01*
G36*
X32070000Y25132082D02*
X31158959Y24221041D01*
X30974702Y23945281D01*
X30910000Y23620000D01*
X30910000Y19952082D01*
X30003127Y20858955D01*
X30167264Y21022806D01*
X30319826Y21390215D01*
X30320173Y21788040D01*
X30168253Y22155714D01*
X29887194Y22437264D01*
X29524011Y22588071D01*
X28173836Y23938246D01*
X29340000Y23938246D01*
X29562346Y23980083D01*
X29766558Y24111490D01*
X29903556Y24311993D01*
X29951754Y24550000D01*
X29951754Y25450000D01*
X29909917Y25672346D01*
X29778510Y25876558D01*
X29740000Y25902871D01*
X29740000Y26445487D01*
X29741558Y26446490D01*
X29878556Y26646993D01*
X29926754Y26885000D01*
X29926754Y28135000D01*
X29884917Y28357346D01*
X29753510Y28561558D01*
X29565000Y28690362D01*
X29565000Y28840786D01*
X30926460Y30202246D01*
X32070000Y30202246D01*
X32070000Y25132082D01*
X32070000Y25132082D01*
G37*
X32070000Y25132082D02*
X31158959Y24221041D01*
X30974702Y23945281D01*
X30910000Y23620000D01*
X30910000Y19952082D01*
X30003127Y20858955D01*
X30167264Y21022806D01*
X30319826Y21390215D01*
X30320173Y21788040D01*
X30168253Y22155714D01*
X29887194Y22437264D01*
X29524011Y22588071D01*
X28173836Y23938246D01*
X29340000Y23938246D01*
X29562346Y23980083D01*
X29766558Y24111490D01*
X29903556Y24311993D01*
X29951754Y24550000D01*
X29951754Y25450000D01*
X29909917Y25672346D01*
X29778510Y25876558D01*
X29740000Y25902871D01*
X29740000Y26445487D01*
X29741558Y26446490D01*
X29878556Y26646993D01*
X29926754Y26885000D01*
X29926754Y28135000D01*
X29884917Y28357346D01*
X29753510Y28561558D01*
X29565000Y28690362D01*
X29565000Y28840786D01*
X30926460Y30202246D01*
X32070000Y30202246D01*
X32070000Y25132082D01*
G36*
X50880908Y40430873D02*
X51314748Y40140991D01*
X51627089Y39673539D01*
X51693385Y39471651D01*
X51693385Y39471649D01*
X51991909Y38562567D01*
X52035252Y38485736D01*
X52069010Y38404239D01*
X53445517Y36344151D01*
X53624851Y36164817D01*
X55684939Y34788310D01*
X55684940Y34788309D01*
X55771494Y34752458D01*
X55919251Y34691254D01*
X55919256Y34691254D01*
X58349291Y34207890D01*
X58413309Y34207890D01*
X58476100Y34195400D01*
X69112082Y34195400D01*
X69687849Y34080873D01*
X70121689Y33790991D01*
X70411573Y33357149D01*
X70526100Y32781379D01*
X70526100Y24971421D01*
X70411573Y24395651D01*
X70121689Y23961809D01*
X69687849Y23671927D01*
X69112082Y23557400D01*
X55449482Y23557400D01*
X57391041Y25498959D01*
X57575298Y25774719D01*
X57640000Y26100000D01*
X57640000Y27149995D01*
X57640001Y27150000D01*
X57575298Y27475281D01*
X57391041Y27751041D01*
X56901041Y28241041D01*
X56625281Y28425298D01*
X56300000Y28490000D01*
X55323401Y28490000D01*
X55027476Y28786442D01*
X54729797Y28910049D01*
X55025474Y29032220D01*
X55406442Y29412524D01*
X55612875Y29909669D01*
X55613344Y30447969D01*
X55407780Y30945474D01*
X55153299Y31200400D01*
X62322100Y31200400D01*
X62493371Y30339362D01*
X62981110Y29609410D01*
X63711062Y29121671D01*
X64572100Y28950400D01*
X65433138Y29121671D01*
X66163090Y29609410D01*
X66650829Y30339362D01*
X66822100Y31200400D01*
X66650829Y32061438D01*
X66163090Y32791390D01*
X65433138Y33279129D01*
X64572100Y33450400D01*
X63711062Y33279129D01*
X62981110Y32791390D01*
X62493371Y32061438D01*
X62322100Y31200400D01*
X55153299Y31200400D01*
X55027476Y31326442D01*
X54530331Y31532875D01*
X53992031Y31533344D01*
X53494526Y31327780D01*
X53113558Y30947476D01*
X52989951Y30649797D01*
X52867780Y30945474D01*
X52487476Y31326442D01*
X51990331Y31532875D01*
X51568840Y31533242D01*
X50931041Y32171041D01*
X50655281Y32355298D01*
X50330000Y32420000D01*
X44379904Y32420000D01*
X44380173Y32728040D01*
X44373398Y32744437D01*
X44705714Y32881747D01*
X44987264Y33162806D01*
X45139826Y33530215D01*
X45140173Y33928040D01*
X44988253Y34295714D01*
X44707194Y34577264D01*
X44339785Y34729826D01*
X43941960Y34730173D01*
X43578514Y34580000D01*
X40812082Y34580000D01*
X41071041Y34838959D01*
X41255298Y35114719D01*
X41320000Y35440000D01*
X41320000Y38370000D01*
X41255298Y38695281D01*
X41071041Y38971041D01*
X41005122Y39036960D01*
X46954827Y39036960D01*
X47106747Y38669286D01*
X47387806Y38387736D01*
X47388223Y38387563D01*
X51272563Y34503224D01*
X51412806Y34362736D01*
X51597314Y34286121D01*
X51597316Y34286120D01*
X51597318Y34286120D01*
X51780215Y34210174D01*
X51979996Y34210000D01*
X51980000Y34209999D01*
X51980004Y34210000D01*
X52178040Y34209827D01*
X52362682Y34286120D01*
X52362684Y34286120D01*
X52362686Y34286121D01*
X52545714Y34361747D01*
X52827264Y34642806D01*
X52903879Y34827314D01*
X52903880Y34827316D01*
X52903880Y34827318D01*
X52979826Y35010215D01*
X52980000Y35209996D01*
X52980001Y35210000D01*
X52980000Y35210004D01*
X52980173Y35408040D01*
X52828253Y35775714D01*
X52547194Y36057264D01*
X52546775Y36057438D01*
X48662107Y39942107D01*
X48662106Y39942108D01*
X48522194Y40082264D01*
X48337686Y40158879D01*
X48337684Y40158880D01*
X48337682Y40158880D01*
X48154785Y40234826D01*
X47756960Y40235173D01*
X47572318Y40158880D01*
X47572316Y40158880D01*
X47572314Y40158879D01*
X47389286Y40083253D01*
X47107736Y39802194D01*
X47031121Y39617686D01*
X47031120Y39617684D01*
X47031120Y39617682D01*
X46955174Y39434785D01*
X46954827Y39036960D01*
X41005122Y39036960D01*
X39496682Y40545400D01*
X50305141Y40545400D01*
X50880908Y40430873D01*
X50880908Y40430873D01*
G37*
X50880908Y40430873D02*
X51314748Y40140991D01*
X51627089Y39673539D01*
X51693385Y39471651D01*
X51693385Y39471649D01*
X51991909Y38562567D01*
X52035252Y38485736D01*
X52069010Y38404239D01*
X53445517Y36344151D01*
X53624851Y36164817D01*
X55684939Y34788310D01*
X55684940Y34788309D01*
X55771494Y34752458D01*
X55919251Y34691254D01*
X55919256Y34691254D01*
X58349291Y34207890D01*
X58413309Y34207890D01*
X58476100Y34195400D01*
X69112082Y34195400D01*
X69687849Y34080873D01*
X70121689Y33790991D01*
X70411573Y33357149D01*
X70526100Y32781379D01*
X70526100Y24971421D01*
X70411573Y24395651D01*
X70121689Y23961809D01*
X69687849Y23671927D01*
X69112082Y23557400D01*
X55449482Y23557400D01*
X57391041Y25498959D01*
X57575298Y25774719D01*
X57640000Y26100000D01*
X57640000Y27149995D01*
X57640001Y27150000D01*
X57575298Y27475281D01*
X57391041Y27751041D01*
X56901041Y28241041D01*
X56625281Y28425298D01*
X56300000Y28490000D01*
X55323401Y28490000D01*
X55027476Y28786442D01*
X54729797Y28910049D01*
X55025474Y29032220D01*
X55406442Y29412524D01*
X55612875Y29909669D01*
X55613344Y30447969D01*
X55407780Y30945474D01*
X55153299Y31200400D01*
X62322100Y31200400D01*
X62493371Y30339362D01*
X62981110Y29609410D01*
X63711062Y29121671D01*
X64572100Y28950400D01*
X65433138Y29121671D01*
X66163090Y29609410D01*
X66650829Y30339362D01*
X66822100Y31200400D01*
X66650829Y32061438D01*
X66163090Y32791390D01*
X65433138Y33279129D01*
X64572100Y33450400D01*
X63711062Y33279129D01*
X62981110Y32791390D01*
X62493371Y32061438D01*
X62322100Y31200400D01*
X55153299Y31200400D01*
X55027476Y31326442D01*
X54530331Y31532875D01*
X53992031Y31533344D01*
X53494526Y31327780D01*
X53113558Y30947476D01*
X52989951Y30649797D01*
X52867780Y30945474D01*
X52487476Y31326442D01*
X51990331Y31532875D01*
X51568840Y31533242D01*
X50931041Y32171041D01*
X50655281Y32355298D01*
X50330000Y32420000D01*
X44379904Y32420000D01*
X44380173Y32728040D01*
X44373398Y32744437D01*
X44705714Y32881747D01*
X44987264Y33162806D01*
X45139826Y33530215D01*
X45140173Y33928040D01*
X44988253Y34295714D01*
X44707194Y34577264D01*
X44339785Y34729826D01*
X43941960Y34730173D01*
X43578514Y34580000D01*
X40812082Y34580000D01*
X41071041Y34838959D01*
X41255298Y35114719D01*
X41320000Y35440000D01*
X41320000Y38370000D01*
X41255298Y38695281D01*
X41071041Y38971041D01*
X41005122Y39036960D01*
X46954827Y39036960D01*
X47106747Y38669286D01*
X47387806Y38387736D01*
X47388223Y38387563D01*
X51272563Y34503224D01*
X51412806Y34362736D01*
X51597314Y34286121D01*
X51597316Y34286120D01*
X51597318Y34286120D01*
X51780215Y34210174D01*
X51979996Y34210000D01*
X51980000Y34209999D01*
X51980004Y34210000D01*
X52178040Y34209827D01*
X52362682Y34286120D01*
X52362684Y34286120D01*
X52362686Y34286121D01*
X52545714Y34361747D01*
X52827264Y34642806D01*
X52903879Y34827314D01*
X52903880Y34827316D01*
X52903880Y34827318D01*
X52979826Y35010215D01*
X52980000Y35209996D01*
X52980001Y35210000D01*
X52980000Y35210004D01*
X52980173Y35408040D01*
X52828253Y35775714D01*
X52547194Y36057264D01*
X52546775Y36057438D01*
X48662107Y39942107D01*
X48662106Y39942108D01*
X48522194Y40082264D01*
X48337686Y40158879D01*
X48337684Y40158880D01*
X48337682Y40158880D01*
X48154785Y40234826D01*
X47756960Y40235173D01*
X47572318Y40158880D01*
X47572316Y40158880D01*
X47572314Y40158879D01*
X47389286Y40083253D01*
X47107736Y39802194D01*
X47031121Y39617686D01*
X47031120Y39617684D01*
X47031120Y39617682D01*
X46955174Y39434785D01*
X46954827Y39036960D01*
X41005122Y39036960D01*
X39496682Y40545400D01*
X50305141Y40545400D01*
X50880908Y40430873D01*
G36*
X27859827Y36121960D02*
X27860000Y36121541D01*
X27860000Y33262903D01*
X27425656Y32972685D01*
X27075352Y32448416D01*
X26952341Y31830000D01*
X27075352Y31211584D01*
X27425656Y30687315D01*
X27949925Y30337011D01*
X28185865Y30290079D01*
X27857893Y29962107D01*
X27641120Y29637684D01*
X27592411Y29392806D01*
X27565000Y29255000D01*
X27565000Y28687122D01*
X27388442Y28573510D01*
X27251444Y28373007D01*
X27203246Y28135000D01*
X27203246Y26918216D01*
X27061041Y27131041D01*
X26301041Y27891041D01*
X26025281Y28075298D01*
X25700000Y28140000D01*
X24492365Y28140000D01*
X24529826Y28230215D01*
X24530173Y28628040D01*
X24378253Y28995714D01*
X24097194Y29277264D01*
X23729785Y29429826D01*
X23331960Y29430173D01*
X22968514Y29280000D01*
X22790005Y29280000D01*
X22790000Y29280001D01*
X22464719Y29215298D01*
X22188959Y29031041D01*
X22188957Y29031038D01*
X21708959Y28551041D01*
X21524702Y28275281D01*
X21460345Y27951736D01*
X21343366Y28068716D01*
X21208253Y28395714D01*
X20927194Y28677264D01*
X20610747Y28808665D01*
X22101041Y30298959D01*
X23681038Y31878957D01*
X23681041Y31878959D01*
X23865298Y32154719D01*
X23930000Y32480000D01*
X23930000Y34007918D01*
X24234633Y34312551D01*
X24595714Y34461747D01*
X24877264Y34742806D01*
X25029826Y35110215D01*
X25030173Y35508040D01*
X24878253Y35875714D01*
X24658742Y36095608D01*
X24912684Y36146120D01*
X25237107Y36362893D01*
X25264214Y36390000D01*
X27860061Y36390000D01*
X27859827Y36121960D01*
X27859827Y36121960D01*
G37*
X27859827Y36121960D02*
X27860000Y36121541D01*
X27860000Y33262903D01*
X27425656Y32972685D01*
X27075352Y32448416D01*
X26952341Y31830000D01*
X27075352Y31211584D01*
X27425656Y30687315D01*
X27949925Y30337011D01*
X28185865Y30290079D01*
X27857893Y29962107D01*
X27641120Y29637684D01*
X27592411Y29392806D01*
X27565000Y29255000D01*
X27565000Y28687122D01*
X27388442Y28573510D01*
X27251444Y28373007D01*
X27203246Y28135000D01*
X27203246Y26918216D01*
X27061041Y27131041D01*
X26301041Y27891041D01*
X26025281Y28075298D01*
X25700000Y28140000D01*
X24492365Y28140000D01*
X24529826Y28230215D01*
X24530173Y28628040D01*
X24378253Y28995714D01*
X24097194Y29277264D01*
X23729785Y29429826D01*
X23331960Y29430173D01*
X22968514Y29280000D01*
X22790005Y29280000D01*
X22790000Y29280001D01*
X22464719Y29215298D01*
X22188959Y29031041D01*
X22188957Y29031038D01*
X21708959Y28551041D01*
X21524702Y28275281D01*
X21460345Y27951736D01*
X21343366Y28068716D01*
X21208253Y28395714D01*
X20927194Y28677264D01*
X20610747Y28808665D01*
X22101041Y30298959D01*
X23681038Y31878957D01*
X23681041Y31878959D01*
X23865298Y32154719D01*
X23930000Y32480000D01*
X23930000Y34007918D01*
X24234633Y34312551D01*
X24595714Y34461747D01*
X24877264Y34742806D01*
X25029826Y35110215D01*
X25030173Y35508040D01*
X24878253Y35875714D01*
X24658742Y36095608D01*
X24912684Y36146120D01*
X25237107Y36362893D01*
X25264214Y36390000D01*
X27860061Y36390000D01*
X27859827Y36121960D01*
G36*
X42747125Y30450331D02*
X42746656Y29912031D01*
X42747469Y29910064D01*
X42621960Y29910173D01*
X42282716Y29770000D01*
X39332082Y29770000D01*
X40282082Y30720000D01*
X42859102Y30720000D01*
X42747125Y30450331D01*
X42747125Y30450331D01*
G37*
X42747125Y30450331D02*
X42746656Y29912031D01*
X42747469Y29910064D01*
X42621960Y29910173D01*
X42282716Y29770000D01*
X39332082Y29770000D01*
X40282082Y30720000D01*
X42859102Y30720000D01*
X42747125Y30450331D01*
G36*
X19600000Y39278514D02*
X19600000Y37630605D01*
X19450174Y37269785D01*
X19449827Y36871960D01*
X19601747Y36504286D01*
X19882806Y36222736D01*
X20250215Y36070174D01*
X20648040Y36069827D01*
X20860000Y36157407D01*
X20860000Y35870605D01*
X20711929Y35514011D01*
X20318959Y35121041D01*
X20134702Y34845281D01*
X20070000Y34520000D01*
X20070000Y33622081D01*
X16651862Y30203944D01*
X16727659Y30585000D01*
X16604648Y31203416D01*
X16254344Y31727685D01*
X15730075Y32077989D01*
X15111659Y32201000D01*
X15048341Y32201000D01*
X14429925Y32077989D01*
X14102736Y31859369D01*
X13994510Y32027558D01*
X13794007Y32164556D01*
X13556000Y32212754D01*
X13540000Y32212754D01*
X13540000Y33710000D01*
X13540173Y33908040D01*
X13402038Y34242352D01*
X13759195Y34269337D01*
X13844172Y34293017D01*
X13931381Y34306271D01*
X16261205Y35149276D01*
X16478274Y35280436D01*
X16478276Y35280439D01*
X18308144Y36950853D01*
X18308147Y36950855D01*
X18458499Y37155099D01*
X19509839Y39398628D01*
X19531378Y39444591D01*
X19600000Y39278514D01*
X19600000Y39278514D01*
G37*
X19600000Y39278514D02*
X19600000Y37630605D01*
X19450174Y37269785D01*
X19449827Y36871960D01*
X19601747Y36504286D01*
X19882806Y36222736D01*
X20250215Y36070174D01*
X20648040Y36069827D01*
X20860000Y36157407D01*
X20860000Y35870605D01*
X20711929Y35514011D01*
X20318959Y35121041D01*
X20134702Y34845281D01*
X20070000Y34520000D01*
X20070000Y33622081D01*
X16651862Y30203944D01*
X16727659Y30585000D01*
X16604648Y31203416D01*
X16254344Y31727685D01*
X15730075Y32077989D01*
X15111659Y32201000D01*
X15048341Y32201000D01*
X14429925Y32077989D01*
X14102736Y31859369D01*
X13994510Y32027558D01*
X13794007Y32164556D01*
X13556000Y32212754D01*
X13540000Y32212754D01*
X13540000Y33710000D01*
X13540173Y33908040D01*
X13402038Y34242352D01*
X13759195Y34269337D01*
X13844172Y34293017D01*
X13931381Y34306271D01*
X16261205Y35149276D01*
X16478274Y35280436D01*
X16478276Y35280439D01*
X18308144Y36950853D01*
X18308147Y36950855D01*
X18458499Y37155099D01*
X19509839Y39398628D01*
X19531378Y39444591D01*
X19600000Y39278514D01*
G36*
X32564044Y40538528D02*
X32303917Y40149220D01*
X32212572Y39690000D01*
X32303917Y39230780D01*
X32564044Y38841472D01*
X32953352Y38581345D01*
X33412572Y38490000D01*
X33867428Y38490000D01*
X34132630Y38542752D01*
X34042572Y38090000D01*
X34133917Y37630780D01*
X34394044Y37241472D01*
X34783352Y36981345D01*
X35242572Y36890000D01*
X35697428Y36890000D01*
X36156648Y36981345D01*
X36410490Y37150957D01*
X36664332Y36981345D01*
X37123552Y36890000D01*
X37476448Y36890000D01*
X37935668Y36981345D01*
X38324976Y37241472D01*
X38565891Y37602027D01*
X38690000Y37477918D01*
X38690000Y36360000D01*
X38180000Y36360000D01*
X37854719Y36295298D01*
X37578959Y36111041D01*
X35860292Y34392374D01*
X35840000Y34441486D01*
X35840000Y34709995D01*
X35840001Y34710000D01*
X35775298Y35035281D01*
X35591041Y35311041D01*
X31902525Y38999557D01*
X32039826Y39330215D01*
X32040173Y39728040D01*
X31888253Y40095714D01*
X31607194Y40377264D01*
X31239785Y40529826D01*
X30841960Y40530173D01*
X30474286Y40378253D01*
X30192736Y40097194D01*
X30076419Y39817071D01*
X30069785Y39819826D01*
X29671960Y39820173D01*
X29304286Y39668253D01*
X29022736Y39387194D01*
X28870174Y39019785D01*
X28869827Y38621960D01*
X28965671Y38390000D01*
X24850000Y38390000D01*
X24467317Y38313880D01*
X24172975Y38117207D01*
X24142893Y38097107D01*
X24115786Y38070000D01*
X22700299Y38070000D01*
X22560000Y38070122D01*
X22560000Y39970000D01*
X22495298Y40295281D01*
X22350159Y40512496D01*
X22350173Y40528040D01*
X22343000Y40545400D01*
X32574329Y40545400D01*
X32564044Y40538528D01*
X32564044Y40538528D01*
G37*
X32564044Y40538528D02*
X32303917Y40149220D01*
X32212572Y39690000D01*
X32303917Y39230780D01*
X32564044Y38841472D01*
X32953352Y38581345D01*
X33412572Y38490000D01*
X33867428Y38490000D01*
X34132630Y38542752D01*
X34042572Y38090000D01*
X34133917Y37630780D01*
X34394044Y37241472D01*
X34783352Y36981345D01*
X35242572Y36890000D01*
X35697428Y36890000D01*
X36156648Y36981345D01*
X36410490Y37150957D01*
X36664332Y36981345D01*
X37123552Y36890000D01*
X37476448Y36890000D01*
X37935668Y36981345D01*
X38324976Y37241472D01*
X38565891Y37602027D01*
X38690000Y37477918D01*
X38690000Y36360000D01*
X38180000Y36360000D01*
X37854719Y36295298D01*
X37578959Y36111041D01*
X35860292Y34392374D01*
X35840000Y34441486D01*
X35840000Y34709995D01*
X35840001Y34710000D01*
X35775298Y35035281D01*
X35591041Y35311041D01*
X31902525Y38999557D01*
X32039826Y39330215D01*
X32040173Y39728040D01*
X31888253Y40095714D01*
X31607194Y40377264D01*
X31239785Y40529826D01*
X30841960Y40530173D01*
X30474286Y40378253D01*
X30192736Y40097194D01*
X30076419Y39817071D01*
X30069785Y39819826D01*
X29671960Y39820173D01*
X29304286Y39668253D01*
X29022736Y39387194D01*
X28870174Y39019785D01*
X28869827Y38621960D01*
X28965671Y38390000D01*
X24850000Y38390000D01*
X24467317Y38313880D01*
X24172975Y38117207D01*
X24142893Y38097107D01*
X24115786Y38070000D01*
X22700299Y38070000D01*
X22560000Y38070122D01*
X22560000Y39970000D01*
X22495298Y40295281D01*
X22350159Y40512496D01*
X22350173Y40528040D01*
X22343000Y40545400D01*
X32574329Y40545400D01*
X32564044Y40538528D01*
M02*
