G04 #@! TF.FileFunction,Copper,L1,Top,Signal*
%FSLAX46Y46*%
G04 Gerber Fmt 4.6, Leading zero omitted, Abs format (unit mm)*
G04 Created by KiCad (PCBNEW 4.0.0-rc1-stable) date 27.1.2017 15:04:52*
%MOMM*%
G01*
G04 APERTURE LIST*
%ADD10C,0.100000*%
%ADD11R,1.050000X0.600000*%
%ADD12R,0.350000X0.800000*%
%ADD13R,1.600000X0.400000*%
%ADD14R,1.570000X1.890000*%
%ADD15R,1.727200X2.032000*%
%ADD16O,1.727200X2.032000*%
%ADD17R,1.200000X1.800000*%
%ADD18R,0.600000X1.500000*%
%ADD19R,0.900000X1.200000*%
%ADD20R,2.032000X2.032000*%
%ADD21O,2.032000X2.032000*%
%ADD22C,1.506220*%
%ADD23R,1.500000X1.250000*%
%ADD24R,1.200000X0.900000*%
%ADD25R,1.727200X1.727200*%
%ADD26O,1.727200X1.727200*%
%ADD27O,1.500000X1.200000*%
%ADD28O,1.600000X1.200000*%
%ADD29C,0.800000*%
%ADD30C,0.500000*%
%ADD31C,0.400000*%
%ADD32C,0.800000*%
%ADD33C,0.600000*%
G04 APERTURE END LIST*
D10*
D11*
X50660000Y37830000D03*
X50660000Y39730000D03*
X47960000Y39730000D03*
X47960000Y37830000D03*
X47960000Y38780000D03*
D12*
X35325000Y19265000D03*
X35975000Y19265000D03*
X36625000Y19265000D03*
X37275000Y19265000D03*
X37275000Y16915000D03*
X36625000Y16915000D03*
X35325000Y16915000D03*
X35975000Y16915000D03*
D13*
X24260000Y37855000D03*
X24260000Y37205000D03*
X24260000Y36555000D03*
X24260000Y35905000D03*
X20060000Y35905000D03*
X20060000Y36555000D03*
X20060000Y37855000D03*
X20060000Y37205000D03*
D14*
X22160000Y36880000D03*
D15*
X2890000Y23420000D03*
D16*
X5430000Y23420000D03*
X7970000Y23420000D03*
X10510000Y23420000D03*
X13050000Y23420000D03*
X15590000Y23420000D03*
X18130000Y23420000D03*
X20670000Y23420000D03*
D17*
X33080000Y25410000D03*
X25480000Y25410000D03*
D18*
X31780000Y22910000D03*
X30780000Y22910000D03*
X29780000Y22910000D03*
X28780000Y22910000D03*
X27780000Y22910000D03*
X26780000Y22910000D03*
D19*
X19900000Y31330000D03*
X19900000Y29130000D03*
X22490000Y31330000D03*
X22490000Y29130000D03*
X24805000Y17980000D03*
X24805000Y20180000D03*
X22480000Y20180000D03*
X22480000Y17980000D03*
X17780000Y17980000D03*
X17780000Y20180000D03*
X20130000Y20180000D03*
X20130000Y17980000D03*
X15560000Y17970000D03*
X15560000Y20170000D03*
X13280000Y17970000D03*
X13280000Y20170000D03*
X8540000Y17970000D03*
X8540000Y20170000D03*
X10850000Y17970000D03*
X10850000Y20170000D03*
X19970000Y7900000D03*
X19970000Y5700000D03*
X22340000Y7900000D03*
X22340000Y5700000D03*
X10560000Y5730000D03*
X10560000Y7930000D03*
X17610000Y5700000D03*
X17610000Y7900000D03*
X8260000Y7930000D03*
X8260000Y5730000D03*
D20*
X12020000Y30170000D03*
D21*
X14560000Y30170000D03*
D20*
X28030000Y30540000D03*
D21*
X30570000Y30540000D03*
D22*
X55740000Y26420000D03*
X55740000Y28960000D03*
X43040000Y26420000D03*
X43040000Y28960000D03*
X45580000Y26420000D03*
X45580000Y28960000D03*
X48120000Y26420000D03*
X48120000Y28960000D03*
X50660000Y26420000D03*
X50660000Y28960000D03*
X53200000Y26420000D03*
X53200000Y28960000D03*
D19*
X15260000Y5710000D03*
X15260000Y7910000D03*
X12860000Y5710000D03*
X12860000Y7910000D03*
D23*
X51750000Y33950000D03*
X54250000Y33950000D03*
X4800000Y26680000D03*
X2300000Y26680000D03*
D24*
X2880000Y20400000D03*
X5080000Y20400000D03*
D23*
X41300000Y33990000D03*
X43800000Y33990000D03*
D19*
X35930000Y31410000D03*
X35930000Y29210000D03*
D24*
X35330000Y21450000D03*
X37530000Y21450000D03*
X48670000Y33780000D03*
X46470000Y33780000D03*
D25*
X32810000Y12240000D03*
D26*
X30270000Y12240000D03*
X32810000Y9700000D03*
X30270000Y9700000D03*
D27*
X37430000Y34470000D03*
D28*
X37430000Y36070000D03*
X35600000Y36070000D03*
X33770000Y36070000D03*
X33770000Y34470000D03*
X35600000Y34470000D03*
D29*
X11730000Y4420000D03*
X10010000Y10650000D03*
X15630000Y4280000D03*
X2150000Y29970000D03*
X2040000Y32590000D03*
X26010000Y17980000D03*
X59970000Y27800000D03*
X58130000Y31210000D03*
X64720000Y25540000D03*
X19240000Y14930000D03*
X19240000Y12470000D03*
X34540000Y29210000D03*
X37660000Y18050000D03*
X25790000Y8490000D03*
X53340000Y35940000D03*
X49050000Y37830000D03*
X22160000Y36880000D03*
X30410000Y25680000D03*
X25790000Y9760000D03*
X39100000Y31100000D03*
X28600000Y10560000D03*
X39100000Y28020000D03*
X45180000Y32240000D03*
X26890000Y36500000D03*
X41410000Y30380000D03*
X41410000Y28060000D03*
X18570000Y35910000D03*
X11860000Y7920000D03*
X13150000Y27840000D03*
X18970000Y27750000D03*
X36660000Y15390000D03*
X18920000Y7900000D03*
X13090000Y16190000D03*
X35720000Y14560000D03*
X17620000Y27700000D03*
X14780000Y27750000D03*
X15040000Y14690000D03*
X21480000Y7900000D03*
X27790000Y14080000D03*
X27560000Y21130000D03*
X40600000Y20990000D03*
X26830000Y12300000D03*
X31640000Y21280000D03*
X28820000Y15200000D03*
X40750000Y19650000D03*
X29290000Y19160000D03*
X29960000Y15480000D03*
X30610000Y20590000D03*
X37780000Y28010000D03*
X30480000Y5480000D03*
X36620000Y27510000D03*
X29090000Y5570000D03*
X18550000Y30120000D03*
X19910000Y32550000D03*
X20060000Y35140000D03*
X22920000Y26580000D03*
X14310000Y24680000D03*
X14420000Y20650000D03*
X13010000Y13430000D03*
X25050000Y30020000D03*
X25880000Y38450000D03*
X25050000Y32680000D03*
X27000000Y24580000D03*
X14210000Y7910000D03*
X18170000Y3190000D03*
X43930000Y21390000D03*
X19440000Y3190000D03*
X15560000Y15850000D03*
X9450000Y15700000D03*
X24030000Y2140000D03*
X9440000Y3450000D03*
X21200000Y30200000D03*
X20060000Y38580000D03*
X22490000Y32550000D03*
X21730000Y26580000D03*
X13010000Y12280000D03*
X23850000Y30060000D03*
X24260000Y38780000D03*
X23850000Y32670000D03*
X8000000Y9290000D03*
D30*
X11730000Y4420000D02*
X15490000Y4420000D01*
X9690000Y10500000D02*
X9860000Y10500000D01*
X9860000Y10500000D02*
X10010000Y10650000D01*
X15490000Y4420000D02*
X15630000Y4280000D01*
D31*
X10560000Y7930000D02*
X9690000Y8800000D01*
X9690000Y8800000D02*
X9690000Y10500000D01*
X9690000Y10500000D02*
X9690000Y11330000D01*
X2150000Y26830000D02*
X2150000Y29970000D01*
X2300000Y26680000D02*
X2150000Y26830000D01*
X59970000Y27800000D02*
X62230000Y25540000D01*
X54250000Y33950000D02*
X55390000Y33950000D01*
X55390000Y33950000D02*
X58130000Y31210000D01*
X62230000Y25540000D02*
X64720000Y25540000D01*
X17780000Y16390000D02*
X19240000Y14930000D01*
X17780000Y16390000D02*
X17780000Y17980000D01*
D32*
X22250000Y27720000D02*
X21100000Y27720000D01*
X6490000Y26530000D02*
X6480000Y26520000D01*
X19910000Y26530000D02*
X6490000Y26530000D01*
X21100000Y27720000D02*
X19910000Y26530000D01*
X25790000Y8490000D02*
X26820000Y8490000D01*
X27340000Y10070000D02*
X25640000Y11770000D01*
X27340000Y9010000D02*
X27340000Y10070000D01*
X26820000Y8490000D02*
X27340000Y9010000D01*
X24020000Y27720000D02*
X24020000Y23300000D01*
X26600000Y20500000D02*
X26190000Y20910000D01*
X26190000Y20910000D02*
X26190000Y21130000D01*
X26190000Y21130000D02*
X25550000Y21770000D01*
X26600000Y19790000D02*
X26600000Y17980000D01*
X26600000Y19790000D02*
X26600000Y20500000D01*
X24020000Y23300000D02*
X25550000Y21770000D01*
X24805000Y17980000D02*
X26010000Y17980000D01*
X26010000Y17980000D02*
X26600000Y17980000D01*
X26600000Y13760000D02*
X26600000Y17980000D01*
X25640000Y12800000D02*
X26600000Y13760000D01*
X25640000Y11770000D02*
X25640000Y12800000D01*
D31*
X17780000Y17980000D02*
X18290000Y17980000D01*
X23705000Y19080000D02*
X24805000Y17980000D01*
X19390000Y19080000D02*
X23705000Y19080000D01*
X18290000Y17980000D02*
X19390000Y19080000D01*
D32*
X31900000Y27630000D02*
X31900000Y27640000D01*
X35930000Y29210000D02*
X34540000Y29210000D01*
X34540000Y29210000D02*
X34060000Y29210000D01*
X31900000Y27630000D02*
X30410000Y27630000D01*
X33470000Y29210000D02*
X34060000Y29210000D01*
X31900000Y27640000D02*
X33470000Y29210000D01*
X30410000Y27630000D02*
X30320000Y27720000D01*
X30320000Y27720000D02*
X24020000Y27720000D01*
X24020000Y27720000D02*
X22250000Y27720000D01*
X6530000Y27720000D02*
X6480000Y27670000D01*
D30*
X23210000Y9120000D02*
X23840000Y8490000D01*
X17380000Y9120000D02*
X23210000Y9120000D01*
X23840000Y8490000D02*
X25790000Y8490000D01*
X10560000Y7930000D02*
X10560000Y8930000D01*
X17610000Y8890000D02*
X17610000Y7900000D01*
X17380000Y9120000D02*
X17610000Y8890000D01*
X10750000Y9120000D02*
X17380000Y9120000D01*
X10560000Y8930000D02*
X10750000Y9120000D01*
D31*
X37660000Y18050000D02*
X37380000Y18050000D01*
X37380000Y18050000D02*
X37275000Y17945000D01*
X37660000Y18050000D02*
X37660000Y18330000D01*
D32*
X32810000Y9700000D02*
X33200000Y9700000D01*
X37530000Y21450000D02*
X37530000Y22770000D01*
X37530000Y22770000D02*
X40220000Y25460000D01*
D31*
X37530000Y21450000D02*
X37530000Y20970000D01*
X37530000Y20970000D02*
X38010000Y20490000D01*
X38010000Y20490000D02*
X38010000Y18680000D01*
X38010000Y18680000D02*
X37660000Y18330000D01*
X37660000Y18330000D02*
X37275000Y17945000D01*
D32*
X40220000Y25460000D02*
X40220000Y29210000D01*
X30410000Y27630000D02*
X30410000Y25680000D01*
X22160000Y36880000D02*
X22160000Y35890000D01*
X22160000Y35890000D02*
X22850000Y35200000D01*
X22850000Y35200000D02*
X27490000Y35200000D01*
X27490000Y35200000D02*
X28220000Y34470000D01*
X28220000Y34470000D02*
X33770000Y34470000D01*
X40220000Y29210000D02*
X40220000Y29200000D01*
X40220000Y29200000D02*
X40220000Y29210000D01*
X53340000Y35940000D02*
X54250000Y35030000D01*
X47960000Y37830000D02*
X49050000Y37830000D01*
X54250000Y35030000D02*
X54250000Y33950000D01*
D31*
X36625000Y19115000D02*
X36625000Y18595000D01*
X36625000Y18595000D02*
X37275000Y17945000D01*
X37275000Y17945000D02*
X37275000Y17065000D01*
D32*
X41290000Y29210000D02*
X41290000Y29200000D01*
X41290000Y29200000D02*
X41290000Y29210000D01*
X5430000Y23420000D02*
X6480000Y24470000D01*
X6480000Y24470000D02*
X6480000Y26520000D01*
X6480000Y26520000D02*
X6480000Y27670000D01*
X2300000Y27730000D02*
X2300000Y26680000D01*
X6480000Y27670000D02*
X5890000Y28260000D01*
X5890000Y28260000D02*
X2830000Y28260000D01*
X2830000Y28260000D02*
X2300000Y27730000D01*
X5430000Y23420000D02*
X5080000Y23070000D01*
X5080000Y23070000D02*
X5080000Y20400000D01*
D30*
X22160000Y36880000D02*
X22160000Y36560000D01*
D31*
X22160000Y36560000D02*
X22815000Y35905000D01*
X22815000Y35905000D02*
X24260000Y35905000D01*
D33*
X30410000Y25680000D02*
X31780000Y24310000D01*
X31780000Y24310000D02*
X31780000Y22910000D01*
D32*
X43800000Y33990000D02*
X43800000Y32880000D01*
X43040000Y32120000D02*
X43040000Y28960000D01*
X43800000Y32880000D02*
X43040000Y32120000D01*
X35930000Y29210000D02*
X40220000Y29210000D01*
X40220000Y29210000D02*
X41290000Y29210000D01*
X41290000Y29210000D02*
X42790000Y29210000D01*
X42790000Y29210000D02*
X43040000Y28960000D01*
X47960000Y37830000D02*
X47960000Y35350000D01*
X47960000Y35350000D02*
X46470000Y33860000D01*
X46470000Y33860000D02*
X46470000Y33780000D01*
D33*
X47960000Y38780000D02*
X47960000Y37830000D01*
D32*
X43800000Y33990000D02*
X44010000Y33780000D01*
X44010000Y33780000D02*
X46470000Y33780000D01*
D31*
X37275000Y21175000D02*
X37280000Y21180000D01*
D30*
X8590000Y4500000D02*
X10050000Y4500000D01*
X16750000Y3380000D02*
X17870000Y4500000D01*
X11170000Y3380000D02*
X16750000Y3380000D01*
X10050000Y4500000D02*
X11170000Y3380000D01*
X22480000Y17980000D02*
X22480000Y13070000D01*
X22480000Y13070000D02*
X25790000Y9760000D01*
X22490000Y29130000D02*
X22770000Y28850000D01*
X22770000Y28850000D02*
X31420000Y28850000D01*
X38310000Y30310000D02*
X39100000Y31100000D01*
X32880000Y30310000D02*
X38310000Y30310000D01*
X31420000Y28850000D02*
X32880000Y30310000D01*
D32*
X32810000Y12240000D02*
X32810000Y13320000D01*
X32810000Y13320000D02*
X34240000Y14750000D01*
X20130000Y17980000D02*
X22480000Y17980000D01*
D30*
X24920000Y5700000D02*
X27430000Y5700000D01*
X28600000Y6870000D02*
X28600000Y10560000D01*
X27430000Y5700000D02*
X28600000Y6870000D01*
X17920000Y4500000D02*
X17870000Y4500000D01*
X18380000Y4500000D02*
X19580000Y5700000D01*
X17920000Y4500000D02*
X18380000Y4500000D01*
X8590000Y4500000D02*
X8260000Y4830000D01*
X22340000Y5700000D02*
X24920000Y5700000D01*
X8260000Y5730000D02*
X8260000Y4830000D01*
X19580000Y5700000D02*
X19970000Y5700000D01*
X19730000Y5700000D02*
X19970000Y5700000D01*
D32*
X19970000Y5700000D02*
X22340000Y5700000D01*
X34640000Y21450000D02*
X35330000Y21450000D01*
X34240000Y21050000D02*
X34640000Y21450000D01*
X34240000Y14750000D02*
X34240000Y21050000D01*
X35330000Y21450000D02*
X35330000Y22380000D01*
X39100000Y26150000D02*
X39100000Y28020000D01*
X35330000Y22380000D02*
X39100000Y26150000D01*
X35325000Y19115000D02*
X35325000Y19165000D01*
X35325000Y19165000D02*
X35770000Y19610000D01*
X35330000Y21450000D02*
X35330000Y19120000D01*
X35330000Y19120000D02*
X35325000Y19115000D01*
D31*
X35975000Y19115000D02*
X35975000Y18285000D01*
X36625000Y17635000D02*
X36625000Y17065000D01*
X35975000Y18285000D02*
X36625000Y17635000D01*
X35975000Y19115000D02*
X35975000Y19885000D01*
X35975000Y19885000D02*
X36280000Y20190000D01*
X36280000Y20190000D02*
X37275000Y20190000D01*
X35325000Y19115000D02*
X35975000Y19115000D01*
X37275000Y19115000D02*
X37275000Y20190000D01*
D32*
X51460000Y32240000D02*
X45180000Y32240000D01*
X51750000Y33950000D02*
X51750000Y32530000D01*
X51750000Y32530000D02*
X51460000Y32240000D01*
X39090000Y28010000D02*
X39100000Y28020000D01*
X19900000Y29130000D02*
X22490000Y29130000D01*
X50660000Y39730000D02*
X51940000Y38450000D01*
X51750000Y36960000D02*
X51750000Y33950000D01*
X51940000Y37150000D02*
X51750000Y36960000D01*
X51940000Y38450000D02*
X51940000Y37150000D01*
X30570000Y30540000D02*
X31450000Y30540000D01*
X31450000Y30540000D02*
X32320000Y31410000D01*
X32320000Y31410000D02*
X35930000Y31410000D01*
X35930000Y31410000D02*
X36990000Y31410000D01*
X37430000Y31850000D02*
X37430000Y34470000D01*
X36990000Y31410000D02*
X37430000Y31850000D01*
X37430000Y34470000D02*
X39670000Y34470000D01*
X40150000Y33990000D02*
X41300000Y33990000D01*
X39670000Y34470000D02*
X40150000Y33990000D01*
X37430000Y34180000D02*
X37430000Y34470000D01*
D31*
X25415000Y36555000D02*
X25470000Y36500000D01*
X25470000Y36500000D02*
X26890000Y36500000D01*
X25415000Y36555000D02*
X24260000Y36555000D01*
D32*
X41410000Y33880000D02*
X41410000Y30380000D01*
X41410000Y28050000D02*
X43040000Y26420000D01*
X41410000Y28050000D02*
X41410000Y28060000D01*
X41410000Y33880000D02*
X41300000Y33990000D01*
X46860000Y39730000D02*
X45660000Y38530000D01*
D33*
X47960000Y39730000D02*
X46860000Y39730000D01*
D32*
X41300000Y35930000D02*
X41300000Y33990000D01*
X42030000Y36660000D02*
X41300000Y35930000D01*
X44990000Y36660000D02*
X42030000Y36660000D01*
X45660000Y37330000D02*
X44990000Y36660000D01*
X45660000Y38530000D02*
X45660000Y37330000D01*
D31*
X19105000Y36555000D02*
X18570000Y36020000D01*
X18570000Y36020000D02*
X18570000Y35910000D01*
X20060000Y36555000D02*
X19105000Y36555000D01*
D32*
X2890000Y23420000D02*
X2880000Y23410000D01*
X2880000Y23410000D02*
X2880000Y20400000D01*
X2890000Y23420000D02*
X2890000Y23540000D01*
X2890000Y23540000D02*
X4800000Y25450000D01*
X4800000Y25450000D02*
X4800000Y26680000D01*
X50240000Y35350000D02*
X50240000Y37410000D01*
X49790000Y33780000D02*
X50240000Y34230000D01*
X50240000Y34230000D02*
X50240000Y35350000D01*
X48670000Y33780000D02*
X49790000Y33780000D01*
X50240000Y37410000D02*
X50660000Y37830000D01*
X12860000Y5710000D02*
X10580000Y5710000D01*
X10580000Y5710000D02*
X10560000Y5730000D01*
D30*
X12850000Y7920000D02*
X11860000Y7920000D01*
X12850000Y7920000D02*
X12860000Y7910000D01*
D31*
X18100000Y28620000D02*
X13930000Y28620000D01*
X13930000Y28620000D02*
X13150000Y27840000D01*
X18970000Y27750000D02*
X18100000Y28620000D01*
X19970000Y7900000D02*
X18920000Y7900000D01*
D30*
X13280000Y17970000D02*
X13280000Y16380000D01*
X13280000Y16380000D02*
X13090000Y16190000D01*
D31*
X37790000Y15910000D02*
X37270000Y15390000D01*
X37790000Y15910000D02*
X38080000Y16200000D01*
X38750000Y16870000D02*
X38080000Y16200000D01*
X44870000Y26420000D02*
X43540000Y25090000D01*
X41960000Y25090000D02*
X38750000Y21880000D01*
X43540000Y25090000D02*
X41960000Y25090000D01*
X38750000Y19090000D02*
X39180000Y18660000D01*
X39180000Y18660000D02*
X39180000Y17300000D01*
X39180000Y17300000D02*
X38750000Y16870000D01*
X38750000Y21880000D02*
X38750000Y19090000D01*
X35975000Y16075000D02*
X36660000Y15390000D01*
X35975000Y16075000D02*
X35975000Y17065000D01*
X37270000Y15390000D02*
X36660000Y15390000D01*
X45580000Y26420000D02*
X44870000Y26420000D01*
X35975000Y17065000D02*
X35975000Y16205000D01*
X45580000Y26420000D02*
X45520000Y26420000D01*
X8540000Y17970000D02*
X8540000Y14920000D01*
X8540000Y14920000D02*
X12390000Y11070000D01*
X17620000Y27700000D02*
X17320000Y27400000D01*
X15130000Y27400000D02*
X14780000Y27750000D01*
X17320000Y27400000D02*
X15130000Y27400000D01*
X15040000Y14690000D02*
X14360000Y14010000D01*
X12390000Y11070000D02*
X13490000Y11070000D01*
X13490000Y11070000D02*
X14360000Y11940000D01*
X14360000Y14010000D02*
X14360000Y11940000D01*
X22340000Y7900000D02*
X21480000Y7900000D01*
X35720000Y14560000D02*
X35870000Y14410000D01*
X38660000Y15800000D02*
X38660000Y15280000D01*
X39155000Y16295000D02*
X38660000Y15800000D01*
X35870000Y14410000D02*
X37790000Y14410000D01*
X37790000Y14410000D02*
X38660000Y15280000D01*
X35325000Y14955000D02*
X35720000Y14560000D01*
X35325000Y15895000D02*
X35325000Y14955000D01*
X35325000Y17065000D02*
X35325000Y15895000D01*
X39480000Y16620000D02*
X39930000Y17070000D01*
X39930000Y19040000D02*
X39480000Y19490000D01*
X39930000Y17560000D02*
X39930000Y19040000D01*
X39930000Y17070000D02*
X39930000Y17560000D01*
X43720000Y24270000D02*
X42380000Y24270000D01*
X42380000Y24270000D02*
X39480000Y21370000D01*
X44510000Y25060000D02*
X44710000Y25260000D01*
X39480000Y19490000D02*
X39480000Y21370000D01*
X38760000Y15900000D02*
X39155000Y16295000D01*
X39155000Y16295000D02*
X39480000Y16620000D01*
X44510000Y25060000D02*
X43720000Y24270000D01*
X46080000Y25260000D02*
X46830000Y26010000D01*
X44710000Y25260000D02*
X46080000Y25260000D01*
X46830000Y27710000D02*
X45580000Y28960000D01*
X46830000Y26010000D02*
X46830000Y27710000D01*
X27790000Y14080000D02*
X27790000Y16860000D01*
X28360000Y20330000D02*
X27560000Y21130000D01*
X28360000Y17430000D02*
X28360000Y20330000D01*
X27790000Y16860000D02*
X28360000Y17430000D01*
X27790000Y14080000D02*
X27790000Y16080000D01*
X27790000Y16090000D02*
X27790000Y16080000D01*
X27560000Y21130000D02*
X27790000Y20900000D01*
X44020000Y23530000D02*
X43810000Y23320000D01*
X45100000Y24610000D02*
X44020000Y23530000D01*
X46990000Y24610000D02*
X45100000Y24610000D01*
X48120000Y25740000D02*
X46990000Y24610000D01*
X42930000Y23320000D02*
X40600000Y20990000D01*
X43810000Y23320000D02*
X42930000Y23320000D01*
X27780000Y21350000D02*
X27560000Y21130000D01*
X27780000Y21350000D02*
X27780000Y22910000D01*
X48120000Y26420000D02*
X48120000Y25740000D01*
X26830000Y12300000D02*
X27370000Y12300000D01*
X27370000Y12300000D02*
X29420000Y14350000D01*
X29420000Y14350000D02*
X30200000Y14350000D01*
X30200000Y14350000D02*
X30630000Y14780000D01*
X31640000Y15790000D02*
X30630000Y14780000D01*
X31640000Y21280000D02*
X31640000Y15790000D01*
X30780000Y22910000D02*
X30780000Y21790000D01*
X31290000Y21280000D02*
X31640000Y21280000D01*
X30780000Y21790000D02*
X31290000Y21280000D01*
X28780000Y22910000D02*
X28780000Y21160000D01*
X29290000Y20650000D02*
X29290000Y19160000D01*
X28780000Y21160000D02*
X29290000Y20650000D01*
X29290000Y16910000D02*
X29290000Y19160000D01*
X28820000Y16440000D02*
X28820000Y15200000D01*
X29290000Y16910000D02*
X28820000Y16440000D01*
X41480000Y20390000D02*
X40750000Y19660000D01*
X44100000Y22500000D02*
X43590000Y22500000D01*
X43590000Y22500000D02*
X41480000Y20390000D01*
X46110000Y23970000D02*
X45570000Y23970000D01*
X45570000Y23970000D02*
X44380000Y22780000D01*
X50660000Y26420000D02*
X48210000Y23970000D01*
X48210000Y23970000D02*
X46110000Y23970000D01*
X44380000Y22780000D02*
X44100000Y22500000D01*
X40750000Y19660000D02*
X40750000Y19650000D01*
X30610000Y16130000D02*
X29960000Y15480000D01*
X30610000Y16130000D02*
X30610000Y20590000D01*
X29780000Y21420000D02*
X29780000Y22910000D01*
X29780000Y21420000D02*
X30610000Y20590000D01*
X31680000Y13650000D02*
X33270000Y15240000D01*
X30270000Y12240000D02*
X31680000Y13650000D01*
X33270000Y15240000D02*
X33270000Y21500000D01*
X33270000Y21500000D02*
X37780000Y26010000D01*
X37780000Y26010000D02*
X37780000Y28010000D01*
X30480000Y5480000D02*
X30850000Y5850000D01*
X31540000Y10970000D02*
X30270000Y12240000D01*
X31540000Y7340000D02*
X31540000Y10970000D01*
X30850000Y6650000D02*
X31540000Y7340000D01*
X30850000Y5850000D02*
X30850000Y6650000D01*
X36620000Y27510000D02*
X36620000Y25760000D01*
X28850000Y11650000D02*
X30270000Y10230000D01*
X28850000Y12840000D02*
X28850000Y11650000D01*
X29700000Y13690000D02*
X28850000Y12840000D01*
X30700000Y13690000D02*
X29700000Y13690000D01*
X32600000Y15590000D02*
X30700000Y13690000D01*
X32600000Y21740000D02*
X32600000Y15590000D01*
X36620000Y25760000D02*
X32600000Y21740000D01*
X30270000Y10230000D02*
X30270000Y9700000D01*
X30270000Y9700000D02*
X30270000Y7330000D01*
X29960000Y6440000D02*
X29090000Y5570000D01*
X29960000Y7020000D02*
X29960000Y6440000D01*
X30270000Y7330000D02*
X29960000Y7020000D01*
X30270000Y9700000D02*
X30280000Y9690000D01*
D32*
X10510000Y23420000D02*
X10510000Y20510000D01*
X10510000Y20510000D02*
X10850000Y20170000D01*
X8540000Y20170000D02*
X10850000Y20170000D01*
X15560000Y20170000D02*
X15560000Y21280000D01*
X15050000Y21790000D02*
X13280000Y21790000D01*
X15560000Y21280000D02*
X15050000Y21790000D01*
X13050000Y23420000D02*
X13280000Y23190000D01*
X13280000Y23190000D02*
X13280000Y21790000D01*
X13280000Y21790000D02*
X13280000Y20170000D01*
X18130000Y23420000D02*
X18130000Y20530000D01*
X18130000Y20530000D02*
X17780000Y20180000D01*
X17780000Y20180000D02*
X20130000Y20180000D01*
X22480000Y20180000D02*
X24805000Y20180000D01*
X20670000Y23420000D02*
X20670000Y21990000D01*
X20670000Y21990000D02*
X22480000Y20180000D01*
D31*
X18550000Y30950000D02*
X18930000Y31330000D01*
X18930000Y31330000D02*
X19900000Y31330000D01*
X18550000Y30120000D02*
X18550000Y30950000D01*
D32*
X19900000Y32540000D02*
X19900000Y31330000D01*
X19900000Y32540000D02*
X19910000Y32550000D01*
D31*
X20060000Y35905000D02*
X20060000Y35140000D01*
X22920000Y26580000D02*
X22920000Y26060000D01*
X22920000Y26060000D02*
X21850000Y24990000D01*
X20530000Y24990000D02*
X21850000Y24990000D01*
X14310000Y24680000D02*
X14620000Y24990000D01*
X14620000Y24990000D02*
X20530000Y24990000D01*
X13400000Y15180000D02*
X14420000Y16200000D01*
X14420000Y20650000D02*
X14420000Y19340000D01*
X13010000Y14790000D02*
X13400000Y15180000D01*
X13010000Y13430000D02*
X13010000Y14790000D01*
X14420000Y16200000D02*
X14420000Y19340000D01*
X25880000Y37700000D02*
X25385000Y37205000D01*
X24260000Y37205000D02*
X25385000Y37205000D01*
X25880000Y38450000D02*
X25880000Y37700000D01*
X25050000Y30020000D02*
X25050000Y32680000D01*
D32*
X23370000Y34010000D02*
X26940000Y34010000D01*
X28030000Y32920000D02*
X28030000Y30540000D01*
X26940000Y34010000D02*
X28030000Y32920000D01*
D31*
X18525000Y37205000D02*
X20060000Y37205000D01*
X17580000Y35480000D02*
X18140000Y34920000D01*
X17580000Y36260000D02*
X17580000Y35480000D01*
X18525000Y37205000D02*
X17580000Y36260000D01*
D32*
X19050000Y34010000D02*
X18140000Y34920000D01*
X23370000Y34010000D02*
X19050000Y34010000D01*
D33*
X26780000Y24360000D02*
X27000000Y24580000D01*
X26780000Y24360000D02*
X26780000Y22910000D01*
D32*
X15260000Y5710000D02*
X17600000Y5710000D01*
X17600000Y5710000D02*
X17610000Y5700000D01*
D30*
X15260000Y7910000D02*
X14210000Y7910000D01*
D31*
X19990000Y4130000D02*
X30570000Y4130000D01*
X30570000Y4130000D02*
X31600000Y5160000D01*
X41970000Y18610000D02*
X41970000Y19430000D01*
X40740000Y16730000D02*
X40740000Y17380000D01*
X40740000Y17380000D02*
X41970000Y18610000D01*
X35690000Y11180000D02*
X39480000Y14970000D01*
X39480000Y14970000D02*
X39480000Y15470000D01*
X31600000Y5160000D02*
X31600000Y5480000D01*
X18170000Y3190000D02*
X19110000Y4130000D01*
X31600000Y5480000D02*
X31600000Y6330000D01*
X31600000Y6330000D02*
X35690000Y10420000D01*
X19110000Y4130000D02*
X19990000Y4130000D01*
X35690000Y10420000D02*
X35690000Y11180000D01*
X39480000Y15470000D02*
X40740000Y16730000D01*
X41970000Y19430000D02*
X43930000Y21390000D01*
X19440000Y3190000D02*
X30910000Y3190000D01*
X30910000Y3190000D02*
X32470000Y4750000D01*
X44440000Y20570000D02*
X44920000Y21050000D01*
X44920000Y21050000D02*
X44920000Y21630000D01*
X44920000Y21630000D02*
X46600000Y23310000D01*
X46600000Y23310000D02*
X47390000Y23310000D01*
X41580000Y17060000D02*
X42790000Y18270000D01*
X42790000Y18270000D02*
X42790000Y18920000D01*
X42790000Y18920000D02*
X44440000Y20570000D01*
X40350000Y14720000D02*
X40350000Y15290000D01*
X41580000Y16520000D02*
X41580000Y17060000D01*
X40350000Y15290000D02*
X41580000Y16520000D01*
X39410000Y13780000D02*
X40350000Y14720000D01*
X32470000Y5100000D02*
X32470000Y6030000D01*
X32470000Y6030000D02*
X36510000Y10070000D01*
X36510000Y10070000D02*
X36510000Y10880000D01*
X36510000Y10880000D02*
X39410000Y13780000D01*
X55490000Y23550000D02*
X55250000Y23310000D01*
X55490000Y23550000D02*
X57080000Y25140000D01*
X57080000Y25140000D02*
X57080000Y27620000D01*
X57080000Y27620000D02*
X55740000Y28960000D01*
X55250000Y23310000D02*
X47390000Y23310000D01*
X32470000Y4750000D02*
X32470000Y5100000D01*
X15560000Y17970000D02*
X15560000Y15850000D01*
D30*
X10850000Y17970000D02*
X10850000Y17100000D01*
X10850000Y17100000D02*
X9450000Y15700000D01*
D31*
X10750000Y2140000D02*
X24030000Y2140000D01*
X9440000Y3450000D02*
X10750000Y2140000D01*
X22330000Y31330000D02*
X21200000Y30200000D01*
X22490000Y31330000D02*
X22330000Y31330000D01*
X20060000Y37855000D02*
X20060000Y38580000D01*
D32*
X22490000Y32550000D02*
X22490000Y31330000D01*
D31*
X21730000Y26580000D02*
X21730000Y25960000D01*
X12600000Y25630000D02*
X11780000Y24810000D01*
X21400000Y25630000D02*
X12600000Y25630000D01*
X21730000Y25960000D02*
X21400000Y25630000D01*
X21730000Y26580000D02*
X21740000Y26580000D01*
X12060000Y14290000D02*
X12060000Y12820000D01*
X11780000Y24810000D02*
X11780000Y21260000D01*
X11780000Y21260000D02*
X12060000Y20980000D01*
X12060000Y20980000D02*
X12060000Y14550000D01*
X12600000Y12280000D02*
X13010000Y12280000D01*
X12060000Y14550000D02*
X12060000Y14290000D01*
X12060000Y12820000D02*
X12600000Y12280000D01*
X24260000Y37855000D02*
X24260000Y38780000D01*
X23850000Y30060000D02*
X23850000Y32670000D01*
D30*
X8000000Y9290000D02*
X8260000Y9030000D01*
X8260000Y9030000D02*
X8260000Y7930000D01*
D31*
G36*
X14010215Y6910174D02*
X14354482Y6909874D01*
X14371490Y6883442D01*
X14478988Y6809992D01*
X14383442Y6748510D01*
X14246444Y6548007D01*
X14198246Y6310000D01*
X14198246Y5110000D01*
X14240083Y4887654D01*
X14371490Y4683442D01*
X14571993Y4546444D01*
X14810000Y4498246D01*
X15710000Y4498246D01*
X15932346Y4540083D01*
X16136558Y4671490D01*
X16162871Y4710000D01*
X16697966Y4710000D01*
X16721490Y4673442D01*
X16792703Y4624785D01*
X16397918Y4230000D01*
X11522082Y4230000D01*
X11198389Y4553693D01*
X11232346Y4560083D01*
X11436558Y4691490D01*
X11449205Y4710000D01*
X11954400Y4710000D01*
X11971490Y4683442D01*
X12171993Y4546444D01*
X12410000Y4498246D01*
X13310000Y4498246D01*
X13532346Y4540083D01*
X13736558Y4671490D01*
X13873556Y4871993D01*
X13921754Y5110000D01*
X13921754Y6310000D01*
X13879917Y6532346D01*
X13748510Y6736558D01*
X13641012Y6810008D01*
X13736558Y6871490D01*
X13817630Y6990143D01*
X14010215Y6910174D01*
X14010215Y6910174D01*
G37*
X14010215Y6910174D02*
X14354482Y6909874D01*
X14371490Y6883442D01*
X14478988Y6809992D01*
X14383442Y6748510D01*
X14246444Y6548007D01*
X14198246Y6310000D01*
X14198246Y5110000D01*
X14240083Y4887654D01*
X14371490Y4683442D01*
X14571993Y4546444D01*
X14810000Y4498246D01*
X15710000Y4498246D01*
X15932346Y4540083D01*
X16136558Y4671490D01*
X16162871Y4710000D01*
X16697966Y4710000D01*
X16721490Y4673442D01*
X16792703Y4624785D01*
X16397918Y4230000D01*
X11522082Y4230000D01*
X11198389Y4553693D01*
X11232346Y4560083D01*
X11436558Y4691490D01*
X11449205Y4710000D01*
X11954400Y4710000D01*
X11971490Y4683442D01*
X12171993Y4546444D01*
X12410000Y4498246D01*
X13310000Y4498246D01*
X13532346Y4540083D01*
X13736558Y4671490D01*
X13873556Y4871993D01*
X13921754Y5110000D01*
X13921754Y6310000D01*
X13879917Y6532346D01*
X13748510Y6736558D01*
X13641012Y6810008D01*
X13736558Y6871490D01*
X13817630Y6990143D01*
X14010215Y6910174D01*
G36*
X49708442Y40468510D02*
X49571444Y40268007D01*
X49523246Y40030000D01*
X49523246Y39430000D01*
X49565083Y39207654D01*
X49696490Y39003442D01*
X49896993Y38866444D01*
X50135000Y38818246D01*
X50157540Y38818246D01*
X50234032Y38741754D01*
X50135000Y38741754D01*
X49912654Y38699917D01*
X49708442Y38568510D01*
X49571444Y38368007D01*
X49523246Y38130000D01*
X49523246Y38102669D01*
X49316120Y37792684D01*
X49267619Y37548853D01*
X49240000Y37410000D01*
X49240000Y34841754D01*
X48070000Y34841754D01*
X47847654Y34799917D01*
X47643442Y34668510D01*
X47506444Y34468007D01*
X47458246Y34230000D01*
X47458246Y33330000D01*
X47475181Y33240000D01*
X45180299Y33240000D01*
X44981960Y33240173D01*
X44614286Y33088253D01*
X44332736Y32807194D01*
X44180174Y32439785D01*
X44179827Y32041960D01*
X44331747Y31674286D01*
X44612806Y31392736D01*
X44980215Y31240174D01*
X45378040Y31239827D01*
X45378459Y31240000D01*
X51460000Y31240000D01*
X51842684Y31316120D01*
X52167107Y31532893D01*
X52457107Y31822893D01*
X52673880Y32147316D01*
X52750000Y32530000D01*
X52750000Y32772878D01*
X52926558Y32886490D01*
X53063556Y33086993D01*
X53111754Y33325000D01*
X53111754Y34575000D01*
X53069917Y34797346D01*
X52938510Y35001558D01*
X52750000Y35130362D01*
X52750000Y36596883D01*
X52797890Y36668556D01*
X52863880Y36767316D01*
X52933212Y37115870D01*
X53445517Y36349151D01*
X53624851Y36169817D01*
X55684939Y34793310D01*
X55684940Y34793309D01*
X55771494Y34757458D01*
X55919251Y34696254D01*
X55919256Y34696254D01*
X58349291Y34212890D01*
X58413309Y34212890D01*
X58476100Y34200400D01*
X70526100Y34200400D01*
X70526100Y23562400D01*
X56633770Y23562400D01*
X57645686Y24574315D01*
X57819104Y24833853D01*
X57880000Y25140000D01*
X57880000Y27620000D01*
X57819104Y27926147D01*
X57645685Y28185686D01*
X57092918Y28738453D01*
X57093344Y29227969D01*
X56887780Y29725474D01*
X56507476Y30106442D01*
X56010331Y30312875D01*
X55472031Y30313344D01*
X54974526Y30107780D01*
X54593558Y29727476D01*
X54469951Y29429797D01*
X54347780Y29725474D01*
X53967476Y30106442D01*
X53470331Y30312875D01*
X52932031Y30313344D01*
X52434526Y30107780D01*
X52053558Y29727476D01*
X51929951Y29429797D01*
X51807780Y29725474D01*
X51427476Y30106442D01*
X50930331Y30312875D01*
X50392031Y30313344D01*
X49894526Y30107780D01*
X49513558Y29727476D01*
X49389951Y29429797D01*
X49267780Y29725474D01*
X48887476Y30106442D01*
X48390331Y30312875D01*
X47852031Y30313344D01*
X47354526Y30107780D01*
X46973558Y29727476D01*
X46849951Y29429797D01*
X46727780Y29725474D01*
X46347476Y30106442D01*
X45850331Y30312875D01*
X45312031Y30313344D01*
X44814526Y30107780D01*
X44433558Y29727476D01*
X44227125Y29230331D01*
X44226656Y28692031D01*
X44432220Y28194526D01*
X44812524Y27813558D01*
X45110203Y27689951D01*
X44814526Y27567780D01*
X44433558Y27187476D01*
X44367220Y27027717D01*
X44304315Y26985685D01*
X44280267Y26961637D01*
X44187780Y27185474D01*
X43807476Y27566442D01*
X43310331Y27772875D01*
X43101157Y27773057D01*
X42265120Y28609094D01*
X42258253Y28625714D01*
X41977194Y28907264D01*
X41609785Y29059826D01*
X41211960Y29060173D01*
X40844286Y28908253D01*
X40562736Y28627194D01*
X40410174Y28259785D01*
X40409827Y27861960D01*
X40482284Y27686601D01*
X40486120Y27667316D01*
X40496949Y27651110D01*
X40561747Y27494286D01*
X40682684Y27373138D01*
X40702893Y27342893D01*
X41686836Y26358950D01*
X41686656Y26152031D01*
X41807461Y25859658D01*
X41653853Y25829104D01*
X41394315Y25655686D01*
X38184315Y22445685D01*
X38010896Y22186147D01*
X37950000Y21880000D01*
X37950000Y20592085D01*
X37840685Y20755685D01*
X37581147Y20929104D01*
X37275000Y20990000D01*
X36539729Y20990000D01*
X36541754Y21000000D01*
X36541754Y21900000D01*
X36499917Y22122346D01*
X36494687Y22130473D01*
X39807107Y25442893D01*
X39882472Y25555685D01*
X40023880Y25767317D01*
X40100000Y26150000D01*
X40100000Y28020000D01*
X40100173Y28218040D01*
X39948253Y28585714D01*
X39667194Y28867264D01*
X39299785Y29019826D01*
X38901960Y29020173D01*
X38534286Y28868253D01*
X38435082Y28769222D01*
X38347194Y28857264D01*
X37979785Y29009826D01*
X37581960Y29010173D01*
X37214286Y28858253D01*
X36932736Y28577194D01*
X36892265Y28479730D01*
X36819785Y28509826D01*
X36421960Y28510173D01*
X36054286Y28358253D01*
X35772736Y28077194D01*
X35620174Y27709785D01*
X35619827Y27311960D01*
X35771747Y26944286D01*
X35820000Y26895949D01*
X35820000Y26091371D01*
X34291754Y24563125D01*
X34291754Y26310000D01*
X34249917Y26532346D01*
X34118510Y26736558D01*
X33918007Y26873556D01*
X33680000Y26921754D01*
X32480000Y26921754D01*
X32257654Y26879917D01*
X32053442Y26748510D01*
X31916444Y26548007D01*
X31868246Y26310000D01*
X31868246Y24510000D01*
X31910083Y24287654D01*
X32041490Y24083442D01*
X32241993Y23946444D01*
X32480000Y23898246D01*
X33626876Y23898246D01*
X32034315Y22305685D01*
X31978539Y22222210D01*
X31839785Y22279826D01*
X31691754Y22279955D01*
X31691754Y23660000D01*
X31649917Y23882346D01*
X31518510Y24086558D01*
X31318007Y24223556D01*
X31080000Y24271754D01*
X30480000Y24271754D01*
X30272656Y24232740D01*
X30080000Y24271754D01*
X29480000Y24271754D01*
X29272656Y24232740D01*
X29080000Y24271754D01*
X28480000Y24271754D01*
X28272656Y24232740D01*
X28080000Y24271754D01*
X27954789Y24271754D01*
X27999826Y24380215D01*
X28000173Y24778040D01*
X27848253Y25145714D01*
X27567194Y25427264D01*
X27199785Y25579826D01*
X26801960Y25580173D01*
X26691754Y25534637D01*
X26691754Y26310000D01*
X26649917Y26532346D01*
X26518510Y26736558D01*
X26318007Y26873556D01*
X26080000Y26921754D01*
X24880000Y26921754D01*
X24657654Y26879917D01*
X24453442Y26748510D01*
X24316444Y26548007D01*
X24268246Y26310000D01*
X24268246Y24510000D01*
X24310083Y24287654D01*
X24441490Y24083442D01*
X24641993Y23946444D01*
X24880000Y23898246D01*
X25880000Y23898246D01*
X25880000Y23718043D01*
X25868246Y23660000D01*
X25868246Y22160000D01*
X25910083Y21937654D01*
X26041490Y21733442D01*
X26241993Y21596444D01*
X26480000Y21548246D01*
X26650887Y21548246D01*
X26560174Y21329785D01*
X26559827Y20931960D01*
X26711747Y20564286D01*
X26992806Y20282736D01*
X27360215Y20130174D01*
X27428515Y20130114D01*
X27560000Y19998629D01*
X27560000Y17761371D01*
X27224315Y17425685D01*
X27050896Y17166147D01*
X26990000Y16860000D01*
X26990000Y14694376D01*
X26942736Y14647194D01*
X26790174Y14279785D01*
X26789827Y13881960D01*
X26941747Y13514286D01*
X27197108Y13258479D01*
X27177231Y13238601D01*
X27029785Y13299826D01*
X26631960Y13300173D01*
X26264286Y13148253D01*
X25982736Y12867194D01*
X25830174Y12499785D01*
X25829827Y12101960D01*
X25981747Y11734286D01*
X26262806Y11452736D01*
X26630215Y11300174D01*
X27028040Y11299827D01*
X27395714Y11451747D01*
X27462478Y11518395D01*
X27676147Y11560896D01*
X27935685Y11734315D01*
X28050000Y11848630D01*
X28050000Y11650000D01*
X28091771Y11440001D01*
X28093241Y11432613D01*
X28034286Y11408253D01*
X27752736Y11127194D01*
X27600174Y10759785D01*
X27599827Y10361960D01*
X27750000Y9998514D01*
X27750000Y7222082D01*
X27077918Y6550000D01*
X23342122Y6550000D01*
X23228510Y6726558D01*
X23121012Y6800008D01*
X23216558Y6861490D01*
X23353556Y7061993D01*
X23401754Y7300000D01*
X23401754Y8500000D01*
X23359917Y8722346D01*
X23228510Y8926558D01*
X23028007Y9063556D01*
X22790000Y9111754D01*
X21890000Y9111754D01*
X21667654Y9069917D01*
X21463442Y8938510D01*
X21437155Y8900038D01*
X21281960Y8900173D01*
X20960862Y8767498D01*
X20858510Y8926558D01*
X20658007Y9063556D01*
X20420000Y9111754D01*
X19520000Y9111754D01*
X19297654Y9069917D01*
X19093442Y8938510D01*
X19067042Y8899872D01*
X18721960Y8900173D01*
X18354286Y8748253D01*
X18072736Y8467194D01*
X17920174Y8099785D01*
X17919827Y7701960D01*
X18071747Y7334286D01*
X18352806Y7052736D01*
X18720215Y6900174D01*
X19064482Y6899874D01*
X19081490Y6873442D01*
X19188988Y6799992D01*
X19093442Y6738510D01*
X18956444Y6538007D01*
X18908246Y6300000D01*
X18908246Y6230328D01*
X18671754Y5993836D01*
X18671754Y6300000D01*
X18629917Y6522346D01*
X18498510Y6726558D01*
X18298007Y6863556D01*
X18060000Y6911754D01*
X17160000Y6911754D01*
X16937654Y6869917D01*
X16733442Y6738510D01*
X16713962Y6710000D01*
X16165600Y6710000D01*
X16148510Y6736558D01*
X16041012Y6810008D01*
X16136558Y6871490D01*
X16273556Y7071993D01*
X16321754Y7310000D01*
X16321754Y8510000D01*
X16279917Y8732346D01*
X16148510Y8936558D01*
X15948007Y9073556D01*
X15710000Y9121754D01*
X14810000Y9121754D01*
X14587654Y9079917D01*
X14383442Y8948510D01*
X14357042Y8909872D01*
X14011960Y8910173D01*
X13817257Y8829723D01*
X13748510Y8936558D01*
X13548007Y9073556D01*
X13310000Y9121754D01*
X12410000Y9121754D01*
X12187654Y9079917D01*
X11983442Y8948510D01*
X11963900Y8919910D01*
X11661960Y8920173D01*
X11294286Y8768253D01*
X11012736Y8487194D01*
X10860174Y8119785D01*
X10859827Y7721960D01*
X11011747Y7354286D01*
X11292806Y7072736D01*
X11660215Y6920174D01*
X11948015Y6919923D01*
X11971490Y6883442D01*
X12078988Y6809992D01*
X11983442Y6748510D01*
X11957129Y6710000D01*
X11478469Y6710000D01*
X11448510Y6756558D01*
X11248007Y6893556D01*
X11010000Y6941754D01*
X10110000Y6941754D01*
X9887654Y6899917D01*
X9683442Y6768510D01*
X9546444Y6568007D01*
X9498246Y6330000D01*
X9498246Y5350000D01*
X9321754Y5350000D01*
X9321754Y6330000D01*
X9279917Y6552346D01*
X9148510Y6756558D01*
X9041012Y6830008D01*
X9136558Y6891490D01*
X9273556Y7091993D01*
X9321754Y7330000D01*
X9321754Y8530000D01*
X9279917Y8752346D01*
X9148510Y8956558D01*
X9110000Y8982871D01*
X9110000Y9029995D01*
X9110001Y9030000D01*
X9045298Y9355281D01*
X9019525Y9393853D01*
X9000116Y9422900D01*
X9000173Y9488040D01*
X8848253Y9855714D01*
X8567194Y10137264D01*
X8199785Y10289826D01*
X7801960Y10290173D01*
X7434286Y10138253D01*
X7152736Y9857194D01*
X7080000Y9682027D01*
X7080000Y18260000D01*
X7066322Y18332691D01*
X7023362Y18399454D01*
X6957811Y18444243D01*
X6880000Y18460000D01*
X870000Y18460000D01*
X797199Y18446279D01*
X730462Y18403279D01*
X706100Y18367580D01*
X706100Y24436000D01*
X1414646Y24436000D01*
X1414646Y22404000D01*
X1456483Y22181654D01*
X1587890Y21977442D01*
X1788393Y21840444D01*
X1880000Y21821893D01*
X1880000Y21305600D01*
X1853442Y21288510D01*
X1716444Y21088007D01*
X1668246Y20850000D01*
X1668246Y19950000D01*
X1710083Y19727654D01*
X1841490Y19523442D01*
X2041993Y19386444D01*
X2280000Y19338246D01*
X3480000Y19338246D01*
X3702346Y19380083D01*
X3906558Y19511490D01*
X4043556Y19711993D01*
X4091754Y19950000D01*
X4091754Y20850000D01*
X4049917Y21072346D01*
X3918510Y21276558D01*
X3880000Y21302871D01*
X3880000Y21816030D01*
X3975946Y21834083D01*
X4180158Y21965490D01*
X4317156Y22165993D01*
X4365354Y22404000D01*
X4365354Y23601140D01*
X4368273Y23604059D01*
X6506400Y23604059D01*
X6506400Y23235941D01*
X6617810Y22675846D01*
X6935079Y22201020D01*
X7409905Y21883751D01*
X7970000Y21772341D01*
X8530095Y21883751D01*
X9004921Y22201020D01*
X9240000Y22552840D01*
X9475079Y22201020D01*
X9510000Y22177687D01*
X9510000Y21170000D01*
X9445600Y21170000D01*
X9428510Y21196558D01*
X9228007Y21333556D01*
X8990000Y21381754D01*
X8090000Y21381754D01*
X7867654Y21339917D01*
X7663442Y21208510D01*
X7526444Y21008007D01*
X7478246Y20770000D01*
X7478246Y19570000D01*
X7520083Y19347654D01*
X7651490Y19143442D01*
X7758988Y19069992D01*
X7663442Y19008510D01*
X7526444Y18808007D01*
X7478246Y18570000D01*
X7478246Y17370000D01*
X7520083Y17147654D01*
X7651490Y16943442D01*
X7740000Y16882966D01*
X7740000Y14920000D01*
X7796826Y14634315D01*
X7800896Y14613853D01*
X7974315Y14354315D01*
X11824314Y10504315D01*
X12037363Y10361960D01*
X12083853Y10330896D01*
X12390000Y10270000D01*
X13490000Y10270000D01*
X13796147Y10330896D01*
X14055685Y10504315D01*
X14925686Y11374315D01*
X15099104Y11633853D01*
X15160000Y11940000D01*
X15160000Y13678630D01*
X15171256Y13689885D01*
X15238040Y13689827D01*
X15605714Y13841747D01*
X15887264Y14122806D01*
X16039826Y14490215D01*
X16040173Y14888040D01*
X16012516Y14954975D01*
X16125714Y15001747D01*
X16407264Y15282806D01*
X16559826Y15650215D01*
X16560173Y16048040D01*
X16408253Y16415714D01*
X16360000Y16464051D01*
X16360000Y16882226D01*
X16436558Y16931490D01*
X16573556Y17131993D01*
X16621754Y17370000D01*
X16621754Y18570000D01*
X16579917Y18792346D01*
X16448510Y18996558D01*
X16341012Y19070008D01*
X16436558Y19131490D01*
X16573556Y19331993D01*
X16621754Y19570000D01*
X16621754Y20770000D01*
X16579917Y20992346D01*
X16560000Y21023298D01*
X16560000Y21280000D01*
X16546076Y21350000D01*
X16483880Y21662684D01*
X16278734Y21969705D01*
X16624921Y22201020D01*
X16860000Y22552840D01*
X17095079Y22201020D01*
X17130000Y22177687D01*
X17130000Y21354122D01*
X17107654Y21349917D01*
X16903442Y21218510D01*
X16766444Y21018007D01*
X16718246Y20780000D01*
X16718246Y19580000D01*
X16760083Y19357654D01*
X16891490Y19153442D01*
X17091993Y19016444D01*
X17330000Y18968246D01*
X18230000Y18968246D01*
X18452346Y19010083D01*
X18656558Y19141490D01*
X18682871Y19180000D01*
X19224400Y19180000D01*
X19241490Y19153442D01*
X19348988Y19079992D01*
X19253442Y19018510D01*
X19116444Y18818007D01*
X19068246Y18580000D01*
X19068246Y17380000D01*
X19110083Y17157654D01*
X19241490Y16953442D01*
X19441993Y16816444D01*
X19680000Y16768246D01*
X20580000Y16768246D01*
X20802346Y16810083D01*
X21006558Y16941490D01*
X21032871Y16980000D01*
X21574400Y16980000D01*
X21591490Y16953442D01*
X21630000Y16927129D01*
X21630000Y13070000D01*
X21694702Y12744719D01*
X21878959Y12468959D01*
X24792551Y9555367D01*
X24941747Y9194286D01*
X25222806Y8912736D01*
X25590215Y8760174D01*
X25988040Y8759827D01*
X26355714Y8911747D01*
X26637264Y9192806D01*
X26789826Y9560215D01*
X26790173Y9958040D01*
X26638253Y10325714D01*
X26357194Y10607264D01*
X25994011Y10758071D01*
X23330000Y13422082D01*
X23330000Y16924400D01*
X23356558Y16941490D01*
X23493556Y17141993D01*
X23541754Y17380000D01*
X23541754Y18580000D01*
X23499917Y18802346D01*
X23368510Y19006558D01*
X23261012Y19080008D01*
X23356558Y19141490D01*
X23382871Y19180000D01*
X23899400Y19180000D01*
X23916490Y19153442D01*
X24116993Y19016444D01*
X24355000Y18968246D01*
X25255000Y18968246D01*
X25477346Y19010083D01*
X25681558Y19141490D01*
X25818556Y19341993D01*
X25866754Y19580000D01*
X25866754Y20780000D01*
X25824917Y21002346D01*
X25693510Y21206558D01*
X25493007Y21343556D01*
X25255000Y21391754D01*
X24355000Y21391754D01*
X24132654Y21349917D01*
X23928442Y21218510D01*
X23902129Y21180000D01*
X23385600Y21180000D01*
X23368510Y21206558D01*
X23168007Y21343556D01*
X22930000Y21391754D01*
X22682459Y21391754D01*
X21772322Y22301892D01*
X22022190Y22675846D01*
X22133600Y23235941D01*
X22133600Y23604059D01*
X22022190Y24164154D01*
X21986746Y24217200D01*
X22156147Y24250896D01*
X22415685Y24424315D01*
X23485686Y25494315D01*
X23610355Y25680896D01*
X23659104Y25753853D01*
X23696577Y25942242D01*
X23767264Y26012806D01*
X23919826Y26380215D01*
X23920173Y26778040D01*
X23768253Y27145714D01*
X23487194Y27427264D01*
X23119785Y27579826D01*
X22721960Y27580173D01*
X22354286Y27428253D01*
X22325196Y27399213D01*
X22297194Y27427264D01*
X21929785Y27579826D01*
X21531960Y27580173D01*
X21164286Y27428253D01*
X20882736Y27147194D01*
X20730174Y26779785D01*
X20729869Y26430000D01*
X12600000Y26430000D01*
X12317864Y26373880D01*
X12293853Y26369104D01*
X12034314Y26195685D01*
X11214315Y25375685D01*
X11040896Y25116147D01*
X11011412Y24967922D01*
X10510000Y25067659D01*
X9949905Y24956249D01*
X9475079Y24638980D01*
X9240000Y24287160D01*
X9004921Y24638980D01*
X8530095Y24956249D01*
X7970000Y25067659D01*
X7409905Y24956249D01*
X6935079Y24638980D01*
X6617810Y24164154D01*
X6506400Y23604059D01*
X4368273Y23604059D01*
X5507107Y24742893D01*
X5723880Y25067316D01*
X5800000Y25450000D01*
X5800000Y25502878D01*
X5976558Y25616490D01*
X6113556Y25816993D01*
X6161754Y26055000D01*
X6161754Y27305000D01*
X6119917Y27527346D01*
X5988510Y27731558D01*
X5788007Y27868556D01*
X5550000Y27916754D01*
X4050000Y27916754D01*
X3827654Y27874917D01*
X3623442Y27743510D01*
X3486444Y27543007D01*
X3438246Y27305000D01*
X3438246Y26055000D01*
X3480083Y25832654D01*
X3592985Y25657199D01*
X2983540Y25047754D01*
X2026400Y25047754D01*
X1804054Y25005917D01*
X1599842Y24874510D01*
X1462844Y24674007D01*
X1414646Y24436000D01*
X706100Y24436000D01*
X706100Y31638398D01*
X4410100Y31638398D01*
X4581371Y30777360D01*
X5069110Y30047408D01*
X5799062Y29559669D01*
X6660100Y29388398D01*
X7521138Y29559669D01*
X8251090Y30047408D01*
X8738829Y30777360D01*
X8910100Y31638398D01*
X8738829Y32499436D01*
X8251090Y33229388D01*
X7521138Y33717127D01*
X6660100Y33888398D01*
X5799062Y33717127D01*
X5069110Y33229388D01*
X4581371Y32499436D01*
X4410100Y31638398D01*
X706100Y31638398D01*
X706100Y34200400D01*
X12756100Y34200400D01*
X12818891Y34212890D01*
X12882909Y34212890D01*
X15312943Y34696254D01*
X15312949Y34696254D01*
X15478632Y34764883D01*
X15547260Y34793309D01*
X15547261Y34793310D01*
X16780000Y35617000D01*
X16780000Y35480000D01*
X16838330Y35186754D01*
X16840896Y35173853D01*
X17014315Y34914315D01*
X17172619Y34756010D01*
X17216120Y34537316D01*
X17432893Y34212893D01*
X18342893Y33302893D01*
X18667317Y33086120D01*
X19020649Y33015838D01*
X18991569Y32945804D01*
X18976120Y32922684D01*
X18970743Y32895650D01*
X18910174Y32749785D01*
X18910035Y32590450D01*
X18900000Y32540000D01*
X18900000Y32187847D01*
X18886444Y32168007D01*
X18876596Y32119377D01*
X18623853Y32069104D01*
X18364314Y31895685D01*
X17984315Y31515685D01*
X17810896Y31256147D01*
X17750000Y30950000D01*
X17750000Y30734376D01*
X17702736Y30687194D01*
X17550174Y30319785D01*
X17549827Y29921960D01*
X17701747Y29554286D01*
X17835799Y29420000D01*
X15996727Y29420000D01*
X16084648Y29551584D01*
X16207659Y30170000D01*
X16084648Y30788416D01*
X15734344Y31312685D01*
X15210075Y31662989D01*
X14591659Y31786000D01*
X14528341Y31786000D01*
X13909925Y31662989D01*
X13582736Y31444369D01*
X13474510Y31612558D01*
X13274007Y31749556D01*
X13036000Y31797754D01*
X11004000Y31797754D01*
X10781654Y31755917D01*
X10577442Y31624510D01*
X10440444Y31424007D01*
X10392246Y31186000D01*
X10392246Y29154000D01*
X10434083Y28931654D01*
X10565490Y28727442D01*
X10765993Y28590444D01*
X11004000Y28542246D01*
X12438024Y28542246D01*
X12302736Y28407194D01*
X12150174Y28039785D01*
X12149827Y27641960D01*
X12301747Y27274286D01*
X12582806Y26992736D01*
X12950215Y26840174D01*
X13348040Y26839827D01*
X13715714Y26991747D01*
X13924984Y27200653D01*
X13931747Y27184286D01*
X14212806Y26902736D01*
X14580215Y26750174D01*
X14690383Y26750078D01*
X14823853Y26660896D01*
X15130000Y26600000D01*
X17320000Y26600000D01*
X17626147Y26660896D01*
X17684585Y26699943D01*
X17818040Y26699827D01*
X18185714Y26851747D01*
X18319944Y26985743D01*
X18402806Y26902736D01*
X18770215Y26750174D01*
X19168040Y26749827D01*
X19535714Y26901747D01*
X19817264Y27182806D01*
X19969826Y27550215D01*
X19970147Y27918246D01*
X20350000Y27918246D01*
X20572346Y27960083D01*
X20776558Y28091490D01*
X20802871Y28130000D01*
X21584400Y28130000D01*
X21601490Y28103442D01*
X21801993Y27966444D01*
X22040000Y27918246D01*
X22940000Y27918246D01*
X23162346Y27960083D01*
X23224379Y28000000D01*
X31420000Y28000000D01*
X31745281Y28064702D01*
X32021041Y28248959D01*
X33232082Y29460000D01*
X38310000Y29460000D01*
X38635281Y29524702D01*
X38911041Y29708959D01*
X39304633Y30102551D01*
X39665714Y30251747D01*
X39947264Y30532806D01*
X40099826Y30900215D01*
X40100173Y31298040D01*
X39948253Y31665714D01*
X39667194Y31947264D01*
X39299785Y32099826D01*
X38901960Y32100173D01*
X38534286Y31948253D01*
X38428548Y31842699D01*
X38430000Y31850000D01*
X38430000Y33470000D01*
X39255787Y33470000D01*
X39442891Y33282896D01*
X39442893Y33282893D01*
X39522969Y33229388D01*
X39767316Y33066120D01*
X40067791Y33006351D01*
X40111490Y32938442D01*
X40311993Y32801444D01*
X40410000Y32781597D01*
X40410000Y30380299D01*
X40409827Y30181960D01*
X40561747Y29814286D01*
X40842806Y29532736D01*
X41210215Y29380174D01*
X41608040Y29379827D01*
X41975714Y29531747D01*
X42257264Y29812806D01*
X42409826Y30180215D01*
X42410173Y30578040D01*
X42410000Y30578459D01*
X42410000Y31205400D01*
X62322100Y31205400D01*
X62493371Y30344362D01*
X62981110Y29614410D01*
X63711062Y29126671D01*
X64572100Y28955400D01*
X65433138Y29126671D01*
X66163090Y29614410D01*
X66650829Y30344362D01*
X66822100Y31205400D01*
X66650829Y32066438D01*
X66163090Y32796390D01*
X65433138Y33284129D01*
X64572100Y33455400D01*
X63711062Y33284129D01*
X62981110Y32796390D01*
X62493371Y32066438D01*
X62322100Y31205400D01*
X42410000Y31205400D01*
X42410000Y32883661D01*
X42476558Y32926490D01*
X42613556Y33126993D01*
X42661754Y33365000D01*
X42661754Y34615000D01*
X42619917Y34837346D01*
X42488510Y35041558D01*
X42300000Y35170362D01*
X42300000Y35515786D01*
X42444214Y35660000D01*
X44990000Y35660000D01*
X45372684Y35736120D01*
X45697107Y35952893D01*
X46367107Y36622893D01*
X46417319Y36698040D01*
X46583880Y36947317D01*
X46660000Y37330000D01*
X46660000Y38115786D01*
X47374214Y38830000D01*
X47376957Y38830000D01*
X47435000Y38818246D01*
X48485000Y38818246D01*
X48707346Y38860083D01*
X48911558Y38991490D01*
X49048556Y39191993D01*
X49096754Y39430000D01*
X49096754Y40030000D01*
X49054917Y40252346D01*
X48923510Y40456558D01*
X48786168Y40550400D01*
X49835703Y40550400D01*
X49708442Y40468510D01*
X49708442Y40468510D01*
G37*
X49708442Y40468510D02*
X49571444Y40268007D01*
X49523246Y40030000D01*
X49523246Y39430000D01*
X49565083Y39207654D01*
X49696490Y39003442D01*
X49896993Y38866444D01*
X50135000Y38818246D01*
X50157540Y38818246D01*
X50234032Y38741754D01*
X50135000Y38741754D01*
X49912654Y38699917D01*
X49708442Y38568510D01*
X49571444Y38368007D01*
X49523246Y38130000D01*
X49523246Y38102669D01*
X49316120Y37792684D01*
X49267619Y37548853D01*
X49240000Y37410000D01*
X49240000Y34841754D01*
X48070000Y34841754D01*
X47847654Y34799917D01*
X47643442Y34668510D01*
X47506444Y34468007D01*
X47458246Y34230000D01*
X47458246Y33330000D01*
X47475181Y33240000D01*
X45180299Y33240000D01*
X44981960Y33240173D01*
X44614286Y33088253D01*
X44332736Y32807194D01*
X44180174Y32439785D01*
X44179827Y32041960D01*
X44331747Y31674286D01*
X44612806Y31392736D01*
X44980215Y31240174D01*
X45378040Y31239827D01*
X45378459Y31240000D01*
X51460000Y31240000D01*
X51842684Y31316120D01*
X52167107Y31532893D01*
X52457107Y31822893D01*
X52673880Y32147316D01*
X52750000Y32530000D01*
X52750000Y32772878D01*
X52926558Y32886490D01*
X53063556Y33086993D01*
X53111754Y33325000D01*
X53111754Y34575000D01*
X53069917Y34797346D01*
X52938510Y35001558D01*
X52750000Y35130362D01*
X52750000Y36596883D01*
X52797890Y36668556D01*
X52863880Y36767316D01*
X52933212Y37115870D01*
X53445517Y36349151D01*
X53624851Y36169817D01*
X55684939Y34793310D01*
X55684940Y34793309D01*
X55771494Y34757458D01*
X55919251Y34696254D01*
X55919256Y34696254D01*
X58349291Y34212890D01*
X58413309Y34212890D01*
X58476100Y34200400D01*
X70526100Y34200400D01*
X70526100Y23562400D01*
X56633770Y23562400D01*
X57645686Y24574315D01*
X57819104Y24833853D01*
X57880000Y25140000D01*
X57880000Y27620000D01*
X57819104Y27926147D01*
X57645685Y28185686D01*
X57092918Y28738453D01*
X57093344Y29227969D01*
X56887780Y29725474D01*
X56507476Y30106442D01*
X56010331Y30312875D01*
X55472031Y30313344D01*
X54974526Y30107780D01*
X54593558Y29727476D01*
X54469951Y29429797D01*
X54347780Y29725474D01*
X53967476Y30106442D01*
X53470331Y30312875D01*
X52932031Y30313344D01*
X52434526Y30107780D01*
X52053558Y29727476D01*
X51929951Y29429797D01*
X51807780Y29725474D01*
X51427476Y30106442D01*
X50930331Y30312875D01*
X50392031Y30313344D01*
X49894526Y30107780D01*
X49513558Y29727476D01*
X49389951Y29429797D01*
X49267780Y29725474D01*
X48887476Y30106442D01*
X48390331Y30312875D01*
X47852031Y30313344D01*
X47354526Y30107780D01*
X46973558Y29727476D01*
X46849951Y29429797D01*
X46727780Y29725474D01*
X46347476Y30106442D01*
X45850331Y30312875D01*
X45312031Y30313344D01*
X44814526Y30107780D01*
X44433558Y29727476D01*
X44227125Y29230331D01*
X44226656Y28692031D01*
X44432220Y28194526D01*
X44812524Y27813558D01*
X45110203Y27689951D01*
X44814526Y27567780D01*
X44433558Y27187476D01*
X44367220Y27027717D01*
X44304315Y26985685D01*
X44280267Y26961637D01*
X44187780Y27185474D01*
X43807476Y27566442D01*
X43310331Y27772875D01*
X43101157Y27773057D01*
X42265120Y28609094D01*
X42258253Y28625714D01*
X41977194Y28907264D01*
X41609785Y29059826D01*
X41211960Y29060173D01*
X40844286Y28908253D01*
X40562736Y28627194D01*
X40410174Y28259785D01*
X40409827Y27861960D01*
X40482284Y27686601D01*
X40486120Y27667316D01*
X40496949Y27651110D01*
X40561747Y27494286D01*
X40682684Y27373138D01*
X40702893Y27342893D01*
X41686836Y26358950D01*
X41686656Y26152031D01*
X41807461Y25859658D01*
X41653853Y25829104D01*
X41394315Y25655686D01*
X38184315Y22445685D01*
X38010896Y22186147D01*
X37950000Y21880000D01*
X37950000Y20592085D01*
X37840685Y20755685D01*
X37581147Y20929104D01*
X37275000Y20990000D01*
X36539729Y20990000D01*
X36541754Y21000000D01*
X36541754Y21900000D01*
X36499917Y22122346D01*
X36494687Y22130473D01*
X39807107Y25442893D01*
X39882472Y25555685D01*
X40023880Y25767317D01*
X40100000Y26150000D01*
X40100000Y28020000D01*
X40100173Y28218040D01*
X39948253Y28585714D01*
X39667194Y28867264D01*
X39299785Y29019826D01*
X38901960Y29020173D01*
X38534286Y28868253D01*
X38435082Y28769222D01*
X38347194Y28857264D01*
X37979785Y29009826D01*
X37581960Y29010173D01*
X37214286Y28858253D01*
X36932736Y28577194D01*
X36892265Y28479730D01*
X36819785Y28509826D01*
X36421960Y28510173D01*
X36054286Y28358253D01*
X35772736Y28077194D01*
X35620174Y27709785D01*
X35619827Y27311960D01*
X35771747Y26944286D01*
X35820000Y26895949D01*
X35820000Y26091371D01*
X34291754Y24563125D01*
X34291754Y26310000D01*
X34249917Y26532346D01*
X34118510Y26736558D01*
X33918007Y26873556D01*
X33680000Y26921754D01*
X32480000Y26921754D01*
X32257654Y26879917D01*
X32053442Y26748510D01*
X31916444Y26548007D01*
X31868246Y26310000D01*
X31868246Y24510000D01*
X31910083Y24287654D01*
X32041490Y24083442D01*
X32241993Y23946444D01*
X32480000Y23898246D01*
X33626876Y23898246D01*
X32034315Y22305685D01*
X31978539Y22222210D01*
X31839785Y22279826D01*
X31691754Y22279955D01*
X31691754Y23660000D01*
X31649917Y23882346D01*
X31518510Y24086558D01*
X31318007Y24223556D01*
X31080000Y24271754D01*
X30480000Y24271754D01*
X30272656Y24232740D01*
X30080000Y24271754D01*
X29480000Y24271754D01*
X29272656Y24232740D01*
X29080000Y24271754D01*
X28480000Y24271754D01*
X28272656Y24232740D01*
X28080000Y24271754D01*
X27954789Y24271754D01*
X27999826Y24380215D01*
X28000173Y24778040D01*
X27848253Y25145714D01*
X27567194Y25427264D01*
X27199785Y25579826D01*
X26801960Y25580173D01*
X26691754Y25534637D01*
X26691754Y26310000D01*
X26649917Y26532346D01*
X26518510Y26736558D01*
X26318007Y26873556D01*
X26080000Y26921754D01*
X24880000Y26921754D01*
X24657654Y26879917D01*
X24453442Y26748510D01*
X24316444Y26548007D01*
X24268246Y26310000D01*
X24268246Y24510000D01*
X24310083Y24287654D01*
X24441490Y24083442D01*
X24641993Y23946444D01*
X24880000Y23898246D01*
X25880000Y23898246D01*
X25880000Y23718043D01*
X25868246Y23660000D01*
X25868246Y22160000D01*
X25910083Y21937654D01*
X26041490Y21733442D01*
X26241993Y21596444D01*
X26480000Y21548246D01*
X26650887Y21548246D01*
X26560174Y21329785D01*
X26559827Y20931960D01*
X26711747Y20564286D01*
X26992806Y20282736D01*
X27360215Y20130174D01*
X27428515Y20130114D01*
X27560000Y19998629D01*
X27560000Y17761371D01*
X27224315Y17425685D01*
X27050896Y17166147D01*
X26990000Y16860000D01*
X26990000Y14694376D01*
X26942736Y14647194D01*
X26790174Y14279785D01*
X26789827Y13881960D01*
X26941747Y13514286D01*
X27197108Y13258479D01*
X27177231Y13238601D01*
X27029785Y13299826D01*
X26631960Y13300173D01*
X26264286Y13148253D01*
X25982736Y12867194D01*
X25830174Y12499785D01*
X25829827Y12101960D01*
X25981747Y11734286D01*
X26262806Y11452736D01*
X26630215Y11300174D01*
X27028040Y11299827D01*
X27395714Y11451747D01*
X27462478Y11518395D01*
X27676147Y11560896D01*
X27935685Y11734315D01*
X28050000Y11848630D01*
X28050000Y11650000D01*
X28091771Y11440001D01*
X28093241Y11432613D01*
X28034286Y11408253D01*
X27752736Y11127194D01*
X27600174Y10759785D01*
X27599827Y10361960D01*
X27750000Y9998514D01*
X27750000Y7222082D01*
X27077918Y6550000D01*
X23342122Y6550000D01*
X23228510Y6726558D01*
X23121012Y6800008D01*
X23216558Y6861490D01*
X23353556Y7061993D01*
X23401754Y7300000D01*
X23401754Y8500000D01*
X23359917Y8722346D01*
X23228510Y8926558D01*
X23028007Y9063556D01*
X22790000Y9111754D01*
X21890000Y9111754D01*
X21667654Y9069917D01*
X21463442Y8938510D01*
X21437155Y8900038D01*
X21281960Y8900173D01*
X20960862Y8767498D01*
X20858510Y8926558D01*
X20658007Y9063556D01*
X20420000Y9111754D01*
X19520000Y9111754D01*
X19297654Y9069917D01*
X19093442Y8938510D01*
X19067042Y8899872D01*
X18721960Y8900173D01*
X18354286Y8748253D01*
X18072736Y8467194D01*
X17920174Y8099785D01*
X17919827Y7701960D01*
X18071747Y7334286D01*
X18352806Y7052736D01*
X18720215Y6900174D01*
X19064482Y6899874D01*
X19081490Y6873442D01*
X19188988Y6799992D01*
X19093442Y6738510D01*
X18956444Y6538007D01*
X18908246Y6300000D01*
X18908246Y6230328D01*
X18671754Y5993836D01*
X18671754Y6300000D01*
X18629917Y6522346D01*
X18498510Y6726558D01*
X18298007Y6863556D01*
X18060000Y6911754D01*
X17160000Y6911754D01*
X16937654Y6869917D01*
X16733442Y6738510D01*
X16713962Y6710000D01*
X16165600Y6710000D01*
X16148510Y6736558D01*
X16041012Y6810008D01*
X16136558Y6871490D01*
X16273556Y7071993D01*
X16321754Y7310000D01*
X16321754Y8510000D01*
X16279917Y8732346D01*
X16148510Y8936558D01*
X15948007Y9073556D01*
X15710000Y9121754D01*
X14810000Y9121754D01*
X14587654Y9079917D01*
X14383442Y8948510D01*
X14357042Y8909872D01*
X14011960Y8910173D01*
X13817257Y8829723D01*
X13748510Y8936558D01*
X13548007Y9073556D01*
X13310000Y9121754D01*
X12410000Y9121754D01*
X12187654Y9079917D01*
X11983442Y8948510D01*
X11963900Y8919910D01*
X11661960Y8920173D01*
X11294286Y8768253D01*
X11012736Y8487194D01*
X10860174Y8119785D01*
X10859827Y7721960D01*
X11011747Y7354286D01*
X11292806Y7072736D01*
X11660215Y6920174D01*
X11948015Y6919923D01*
X11971490Y6883442D01*
X12078988Y6809992D01*
X11983442Y6748510D01*
X11957129Y6710000D01*
X11478469Y6710000D01*
X11448510Y6756558D01*
X11248007Y6893556D01*
X11010000Y6941754D01*
X10110000Y6941754D01*
X9887654Y6899917D01*
X9683442Y6768510D01*
X9546444Y6568007D01*
X9498246Y6330000D01*
X9498246Y5350000D01*
X9321754Y5350000D01*
X9321754Y6330000D01*
X9279917Y6552346D01*
X9148510Y6756558D01*
X9041012Y6830008D01*
X9136558Y6891490D01*
X9273556Y7091993D01*
X9321754Y7330000D01*
X9321754Y8530000D01*
X9279917Y8752346D01*
X9148510Y8956558D01*
X9110000Y8982871D01*
X9110000Y9029995D01*
X9110001Y9030000D01*
X9045298Y9355281D01*
X9019525Y9393853D01*
X9000116Y9422900D01*
X9000173Y9488040D01*
X8848253Y9855714D01*
X8567194Y10137264D01*
X8199785Y10289826D01*
X7801960Y10290173D01*
X7434286Y10138253D01*
X7152736Y9857194D01*
X7080000Y9682027D01*
X7080000Y18260000D01*
X7066322Y18332691D01*
X7023362Y18399454D01*
X6957811Y18444243D01*
X6880000Y18460000D01*
X870000Y18460000D01*
X797199Y18446279D01*
X730462Y18403279D01*
X706100Y18367580D01*
X706100Y24436000D01*
X1414646Y24436000D01*
X1414646Y22404000D01*
X1456483Y22181654D01*
X1587890Y21977442D01*
X1788393Y21840444D01*
X1880000Y21821893D01*
X1880000Y21305600D01*
X1853442Y21288510D01*
X1716444Y21088007D01*
X1668246Y20850000D01*
X1668246Y19950000D01*
X1710083Y19727654D01*
X1841490Y19523442D01*
X2041993Y19386444D01*
X2280000Y19338246D01*
X3480000Y19338246D01*
X3702346Y19380083D01*
X3906558Y19511490D01*
X4043556Y19711993D01*
X4091754Y19950000D01*
X4091754Y20850000D01*
X4049917Y21072346D01*
X3918510Y21276558D01*
X3880000Y21302871D01*
X3880000Y21816030D01*
X3975946Y21834083D01*
X4180158Y21965490D01*
X4317156Y22165993D01*
X4365354Y22404000D01*
X4365354Y23601140D01*
X4368273Y23604059D01*
X6506400Y23604059D01*
X6506400Y23235941D01*
X6617810Y22675846D01*
X6935079Y22201020D01*
X7409905Y21883751D01*
X7970000Y21772341D01*
X8530095Y21883751D01*
X9004921Y22201020D01*
X9240000Y22552840D01*
X9475079Y22201020D01*
X9510000Y22177687D01*
X9510000Y21170000D01*
X9445600Y21170000D01*
X9428510Y21196558D01*
X9228007Y21333556D01*
X8990000Y21381754D01*
X8090000Y21381754D01*
X7867654Y21339917D01*
X7663442Y21208510D01*
X7526444Y21008007D01*
X7478246Y20770000D01*
X7478246Y19570000D01*
X7520083Y19347654D01*
X7651490Y19143442D01*
X7758988Y19069992D01*
X7663442Y19008510D01*
X7526444Y18808007D01*
X7478246Y18570000D01*
X7478246Y17370000D01*
X7520083Y17147654D01*
X7651490Y16943442D01*
X7740000Y16882966D01*
X7740000Y14920000D01*
X7796826Y14634315D01*
X7800896Y14613853D01*
X7974315Y14354315D01*
X11824314Y10504315D01*
X12037363Y10361960D01*
X12083853Y10330896D01*
X12390000Y10270000D01*
X13490000Y10270000D01*
X13796147Y10330896D01*
X14055685Y10504315D01*
X14925686Y11374315D01*
X15099104Y11633853D01*
X15160000Y11940000D01*
X15160000Y13678630D01*
X15171256Y13689885D01*
X15238040Y13689827D01*
X15605714Y13841747D01*
X15887264Y14122806D01*
X16039826Y14490215D01*
X16040173Y14888040D01*
X16012516Y14954975D01*
X16125714Y15001747D01*
X16407264Y15282806D01*
X16559826Y15650215D01*
X16560173Y16048040D01*
X16408253Y16415714D01*
X16360000Y16464051D01*
X16360000Y16882226D01*
X16436558Y16931490D01*
X16573556Y17131993D01*
X16621754Y17370000D01*
X16621754Y18570000D01*
X16579917Y18792346D01*
X16448510Y18996558D01*
X16341012Y19070008D01*
X16436558Y19131490D01*
X16573556Y19331993D01*
X16621754Y19570000D01*
X16621754Y20770000D01*
X16579917Y20992346D01*
X16560000Y21023298D01*
X16560000Y21280000D01*
X16546076Y21350000D01*
X16483880Y21662684D01*
X16278734Y21969705D01*
X16624921Y22201020D01*
X16860000Y22552840D01*
X17095079Y22201020D01*
X17130000Y22177687D01*
X17130000Y21354122D01*
X17107654Y21349917D01*
X16903442Y21218510D01*
X16766444Y21018007D01*
X16718246Y20780000D01*
X16718246Y19580000D01*
X16760083Y19357654D01*
X16891490Y19153442D01*
X17091993Y19016444D01*
X17330000Y18968246D01*
X18230000Y18968246D01*
X18452346Y19010083D01*
X18656558Y19141490D01*
X18682871Y19180000D01*
X19224400Y19180000D01*
X19241490Y19153442D01*
X19348988Y19079992D01*
X19253442Y19018510D01*
X19116444Y18818007D01*
X19068246Y18580000D01*
X19068246Y17380000D01*
X19110083Y17157654D01*
X19241490Y16953442D01*
X19441993Y16816444D01*
X19680000Y16768246D01*
X20580000Y16768246D01*
X20802346Y16810083D01*
X21006558Y16941490D01*
X21032871Y16980000D01*
X21574400Y16980000D01*
X21591490Y16953442D01*
X21630000Y16927129D01*
X21630000Y13070000D01*
X21694702Y12744719D01*
X21878959Y12468959D01*
X24792551Y9555367D01*
X24941747Y9194286D01*
X25222806Y8912736D01*
X25590215Y8760174D01*
X25988040Y8759827D01*
X26355714Y8911747D01*
X26637264Y9192806D01*
X26789826Y9560215D01*
X26790173Y9958040D01*
X26638253Y10325714D01*
X26357194Y10607264D01*
X25994011Y10758071D01*
X23330000Y13422082D01*
X23330000Y16924400D01*
X23356558Y16941490D01*
X23493556Y17141993D01*
X23541754Y17380000D01*
X23541754Y18580000D01*
X23499917Y18802346D01*
X23368510Y19006558D01*
X23261012Y19080008D01*
X23356558Y19141490D01*
X23382871Y19180000D01*
X23899400Y19180000D01*
X23916490Y19153442D01*
X24116993Y19016444D01*
X24355000Y18968246D01*
X25255000Y18968246D01*
X25477346Y19010083D01*
X25681558Y19141490D01*
X25818556Y19341993D01*
X25866754Y19580000D01*
X25866754Y20780000D01*
X25824917Y21002346D01*
X25693510Y21206558D01*
X25493007Y21343556D01*
X25255000Y21391754D01*
X24355000Y21391754D01*
X24132654Y21349917D01*
X23928442Y21218510D01*
X23902129Y21180000D01*
X23385600Y21180000D01*
X23368510Y21206558D01*
X23168007Y21343556D01*
X22930000Y21391754D01*
X22682459Y21391754D01*
X21772322Y22301892D01*
X22022190Y22675846D01*
X22133600Y23235941D01*
X22133600Y23604059D01*
X22022190Y24164154D01*
X21986746Y24217200D01*
X22156147Y24250896D01*
X22415685Y24424315D01*
X23485686Y25494315D01*
X23610355Y25680896D01*
X23659104Y25753853D01*
X23696577Y25942242D01*
X23767264Y26012806D01*
X23919826Y26380215D01*
X23920173Y26778040D01*
X23768253Y27145714D01*
X23487194Y27427264D01*
X23119785Y27579826D01*
X22721960Y27580173D01*
X22354286Y27428253D01*
X22325196Y27399213D01*
X22297194Y27427264D01*
X21929785Y27579826D01*
X21531960Y27580173D01*
X21164286Y27428253D01*
X20882736Y27147194D01*
X20730174Y26779785D01*
X20729869Y26430000D01*
X12600000Y26430000D01*
X12317864Y26373880D01*
X12293853Y26369104D01*
X12034314Y26195685D01*
X11214315Y25375685D01*
X11040896Y25116147D01*
X11011412Y24967922D01*
X10510000Y25067659D01*
X9949905Y24956249D01*
X9475079Y24638980D01*
X9240000Y24287160D01*
X9004921Y24638980D01*
X8530095Y24956249D01*
X7970000Y25067659D01*
X7409905Y24956249D01*
X6935079Y24638980D01*
X6617810Y24164154D01*
X6506400Y23604059D01*
X4368273Y23604059D01*
X5507107Y24742893D01*
X5723880Y25067316D01*
X5800000Y25450000D01*
X5800000Y25502878D01*
X5976558Y25616490D01*
X6113556Y25816993D01*
X6161754Y26055000D01*
X6161754Y27305000D01*
X6119917Y27527346D01*
X5988510Y27731558D01*
X5788007Y27868556D01*
X5550000Y27916754D01*
X4050000Y27916754D01*
X3827654Y27874917D01*
X3623442Y27743510D01*
X3486444Y27543007D01*
X3438246Y27305000D01*
X3438246Y26055000D01*
X3480083Y25832654D01*
X3592985Y25657199D01*
X2983540Y25047754D01*
X2026400Y25047754D01*
X1804054Y25005917D01*
X1599842Y24874510D01*
X1462844Y24674007D01*
X1414646Y24436000D01*
X706100Y24436000D01*
X706100Y31638398D01*
X4410100Y31638398D01*
X4581371Y30777360D01*
X5069110Y30047408D01*
X5799062Y29559669D01*
X6660100Y29388398D01*
X7521138Y29559669D01*
X8251090Y30047408D01*
X8738829Y30777360D01*
X8910100Y31638398D01*
X8738829Y32499436D01*
X8251090Y33229388D01*
X7521138Y33717127D01*
X6660100Y33888398D01*
X5799062Y33717127D01*
X5069110Y33229388D01*
X4581371Y32499436D01*
X4410100Y31638398D01*
X706100Y31638398D01*
X706100Y34200400D01*
X12756100Y34200400D01*
X12818891Y34212890D01*
X12882909Y34212890D01*
X15312943Y34696254D01*
X15312949Y34696254D01*
X15478632Y34764883D01*
X15547260Y34793309D01*
X15547261Y34793310D01*
X16780000Y35617000D01*
X16780000Y35480000D01*
X16838330Y35186754D01*
X16840896Y35173853D01*
X17014315Y34914315D01*
X17172619Y34756010D01*
X17216120Y34537316D01*
X17432893Y34212893D01*
X18342893Y33302893D01*
X18667317Y33086120D01*
X19020649Y33015838D01*
X18991569Y32945804D01*
X18976120Y32922684D01*
X18970743Y32895650D01*
X18910174Y32749785D01*
X18910035Y32590450D01*
X18900000Y32540000D01*
X18900000Y32187847D01*
X18886444Y32168007D01*
X18876596Y32119377D01*
X18623853Y32069104D01*
X18364314Y31895685D01*
X17984315Y31515685D01*
X17810896Y31256147D01*
X17750000Y30950000D01*
X17750000Y30734376D01*
X17702736Y30687194D01*
X17550174Y30319785D01*
X17549827Y29921960D01*
X17701747Y29554286D01*
X17835799Y29420000D01*
X15996727Y29420000D01*
X16084648Y29551584D01*
X16207659Y30170000D01*
X16084648Y30788416D01*
X15734344Y31312685D01*
X15210075Y31662989D01*
X14591659Y31786000D01*
X14528341Y31786000D01*
X13909925Y31662989D01*
X13582736Y31444369D01*
X13474510Y31612558D01*
X13274007Y31749556D01*
X13036000Y31797754D01*
X11004000Y31797754D01*
X10781654Y31755917D01*
X10577442Y31624510D01*
X10440444Y31424007D01*
X10392246Y31186000D01*
X10392246Y29154000D01*
X10434083Y28931654D01*
X10565490Y28727442D01*
X10765993Y28590444D01*
X11004000Y28542246D01*
X12438024Y28542246D01*
X12302736Y28407194D01*
X12150174Y28039785D01*
X12149827Y27641960D01*
X12301747Y27274286D01*
X12582806Y26992736D01*
X12950215Y26840174D01*
X13348040Y26839827D01*
X13715714Y26991747D01*
X13924984Y27200653D01*
X13931747Y27184286D01*
X14212806Y26902736D01*
X14580215Y26750174D01*
X14690383Y26750078D01*
X14823853Y26660896D01*
X15130000Y26600000D01*
X17320000Y26600000D01*
X17626147Y26660896D01*
X17684585Y26699943D01*
X17818040Y26699827D01*
X18185714Y26851747D01*
X18319944Y26985743D01*
X18402806Y26902736D01*
X18770215Y26750174D01*
X19168040Y26749827D01*
X19535714Y26901747D01*
X19817264Y27182806D01*
X19969826Y27550215D01*
X19970147Y27918246D01*
X20350000Y27918246D01*
X20572346Y27960083D01*
X20776558Y28091490D01*
X20802871Y28130000D01*
X21584400Y28130000D01*
X21601490Y28103442D01*
X21801993Y27966444D01*
X22040000Y27918246D01*
X22940000Y27918246D01*
X23162346Y27960083D01*
X23224379Y28000000D01*
X31420000Y28000000D01*
X31745281Y28064702D01*
X32021041Y28248959D01*
X33232082Y29460000D01*
X38310000Y29460000D01*
X38635281Y29524702D01*
X38911041Y29708959D01*
X39304633Y30102551D01*
X39665714Y30251747D01*
X39947264Y30532806D01*
X40099826Y30900215D01*
X40100173Y31298040D01*
X39948253Y31665714D01*
X39667194Y31947264D01*
X39299785Y32099826D01*
X38901960Y32100173D01*
X38534286Y31948253D01*
X38428548Y31842699D01*
X38430000Y31850000D01*
X38430000Y33470000D01*
X39255787Y33470000D01*
X39442891Y33282896D01*
X39442893Y33282893D01*
X39522969Y33229388D01*
X39767316Y33066120D01*
X40067791Y33006351D01*
X40111490Y32938442D01*
X40311993Y32801444D01*
X40410000Y32781597D01*
X40410000Y30380299D01*
X40409827Y30181960D01*
X40561747Y29814286D01*
X40842806Y29532736D01*
X41210215Y29380174D01*
X41608040Y29379827D01*
X41975714Y29531747D01*
X42257264Y29812806D01*
X42409826Y30180215D01*
X42410173Y30578040D01*
X42410000Y30578459D01*
X42410000Y31205400D01*
X62322100Y31205400D01*
X62493371Y30344362D01*
X62981110Y29614410D01*
X63711062Y29126671D01*
X64572100Y28955400D01*
X65433138Y29126671D01*
X66163090Y29614410D01*
X66650829Y30344362D01*
X66822100Y31205400D01*
X66650829Y32066438D01*
X66163090Y32796390D01*
X65433138Y33284129D01*
X64572100Y33455400D01*
X63711062Y33284129D01*
X62981110Y32796390D01*
X62493371Y32066438D01*
X62322100Y31205400D01*
X42410000Y31205400D01*
X42410000Y32883661D01*
X42476558Y32926490D01*
X42613556Y33126993D01*
X42661754Y33365000D01*
X42661754Y34615000D01*
X42619917Y34837346D01*
X42488510Y35041558D01*
X42300000Y35170362D01*
X42300000Y35515786D01*
X42444214Y35660000D01*
X44990000Y35660000D01*
X45372684Y35736120D01*
X45697107Y35952893D01*
X46367107Y36622893D01*
X46417319Y36698040D01*
X46583880Y36947317D01*
X46660000Y37330000D01*
X46660000Y38115786D01*
X47374214Y38830000D01*
X47376957Y38830000D01*
X47435000Y38818246D01*
X48485000Y38818246D01*
X48707346Y38860083D01*
X48911558Y38991490D01*
X49048556Y39191993D01*
X49096754Y39430000D01*
X49096754Y40030000D01*
X49054917Y40252346D01*
X48923510Y40456558D01*
X48786168Y40550400D01*
X49835703Y40550400D01*
X49708442Y40468510D01*
G36*
X35152806Y13712736D02*
X35520215Y13560174D01*
X35918040Y13559827D01*
X36039468Y13610000D01*
X36988630Y13610000D01*
X35124315Y11745685D01*
X34950896Y11486147D01*
X34890000Y11180000D01*
X34890000Y10751371D01*
X32340000Y8201370D01*
X32340000Y10764646D01*
X33673600Y10764646D01*
X33895946Y10806483D01*
X34100158Y10937890D01*
X34237156Y11138393D01*
X34285354Y11376400D01*
X34285354Y13103600D01*
X34243517Y13325946D01*
X34238287Y13334073D01*
X34885112Y13980898D01*
X35152806Y13712736D01*
X35152806Y13712736D01*
G37*
X35152806Y13712736D02*
X35520215Y13560174D01*
X35918040Y13559827D01*
X36039468Y13610000D01*
X36988630Y13610000D01*
X35124315Y11745685D01*
X34950896Y11486147D01*
X34890000Y11180000D01*
X34890000Y10751371D01*
X32340000Y8201370D01*
X32340000Y10764646D01*
X33673600Y10764646D01*
X33895946Y10806483D01*
X34100158Y10937890D01*
X34237156Y11138393D01*
X34285354Y11376400D01*
X34285354Y13103600D01*
X34243517Y13325946D01*
X34238287Y13334073D01*
X34885112Y13980898D01*
X35152806Y13712736D01*
G36*
X38184315Y18524315D02*
X38380000Y18328630D01*
X38380000Y17631370D01*
X37411754Y16663124D01*
X37411754Y16998407D01*
X37425000Y17065000D01*
X37425000Y17635000D01*
X37364104Y17941147D01*
X37344825Y17970000D01*
X37190686Y18200685D01*
X37138125Y18253246D01*
X37450000Y18253246D01*
X37672346Y18295083D01*
X37876558Y18426490D01*
X38013556Y18626993D01*
X38037315Y18744315D01*
X38184315Y18524315D01*
X38184315Y18524315D01*
G37*
X38184315Y18524315D02*
X38380000Y18328630D01*
X38380000Y17631370D01*
X37411754Y16663124D01*
X37411754Y16998407D01*
X37425000Y17065000D01*
X37425000Y17635000D01*
X37364104Y17941147D01*
X37344825Y17970000D01*
X37190686Y18200685D01*
X37138125Y18253246D01*
X37450000Y18253246D01*
X37672346Y18295083D01*
X37876558Y18426490D01*
X38013556Y18626993D01*
X38037315Y18744315D01*
X38184315Y18524315D01*
G36*
X25966100Y39449925D02*
X25681960Y39450173D01*
X25314286Y39298253D01*
X25182303Y39166500D01*
X25108253Y39345714D01*
X24827194Y39627264D01*
X24459785Y39779826D01*
X24061960Y39780173D01*
X23694286Y39628253D01*
X23412736Y39347194D01*
X23260174Y38979785D01*
X23259868Y38629097D01*
X23237654Y38624917D01*
X23033442Y38493510D01*
X22896444Y38293007D01*
X22848246Y38055000D01*
X22848246Y37655000D01*
X22872630Y37525410D01*
X22848246Y37405000D01*
X22848246Y37005000D01*
X22872630Y36875410D01*
X22848246Y36755000D01*
X22848246Y36355000D01*
X22890083Y36132654D01*
X23021490Y35928442D01*
X23221993Y35791444D01*
X23460000Y35743246D01*
X25060000Y35743246D01*
X25122468Y35755000D01*
X25193494Y35755000D01*
X25470000Y35700000D01*
X26275624Y35700000D01*
X26322806Y35652736D01*
X26690215Y35500174D01*
X27088040Y35499827D01*
X27455714Y35651747D01*
X27737264Y35932806D01*
X27889826Y36300215D01*
X27890173Y36698040D01*
X27823087Y36860400D01*
X32655204Y36860400D01*
X32433917Y36529220D01*
X32342572Y36070000D01*
X32433917Y35610780D01*
X32694044Y35221472D01*
X33083352Y34961345D01*
X33542572Y34870000D01*
X33997428Y34870000D01*
X34262630Y34922752D01*
X34172572Y34470000D01*
X34263917Y34010780D01*
X34524044Y33621472D01*
X34913352Y33361345D01*
X35372572Y33270000D01*
X35827428Y33270000D01*
X36286648Y33361345D01*
X36430000Y33457130D01*
X36430000Y32611629D01*
X36380000Y32621754D01*
X35480000Y32621754D01*
X35257654Y32579917D01*
X35053442Y32448510D01*
X35027129Y32410000D01*
X32320000Y32410000D01*
X31937316Y32333880D01*
X31612893Y32117107D01*
X31405127Y31909341D01*
X31220075Y32032989D01*
X30601659Y32156000D01*
X30538341Y32156000D01*
X29919925Y32032989D01*
X29592736Y31814369D01*
X29484510Y31982558D01*
X29284007Y32119556D01*
X29046000Y32167754D01*
X29030000Y32167754D01*
X29030000Y32920000D01*
X28993668Y33102654D01*
X28953880Y33302684D01*
X28737107Y33627107D01*
X27647107Y34717107D01*
X27322684Y34933880D01*
X26940000Y35010000D01*
X21059887Y35010000D01*
X21059992Y35130877D01*
X21082346Y35135083D01*
X21286558Y35266490D01*
X21423556Y35466993D01*
X21471754Y35705000D01*
X21471754Y36105000D01*
X21447370Y36234590D01*
X21471754Y36355000D01*
X21471754Y36755000D01*
X21447370Y36884590D01*
X21471754Y37005000D01*
X21471754Y37405000D01*
X21447370Y37534590D01*
X21471754Y37655000D01*
X21471754Y38055000D01*
X21429917Y38277346D01*
X21298510Y38481558D01*
X21098007Y38618556D01*
X21060041Y38626244D01*
X21060173Y38778040D01*
X20908253Y39145714D01*
X20627194Y39427264D01*
X20259785Y39579826D01*
X19861960Y39580173D01*
X19494286Y39428253D01*
X19397018Y39331154D01*
X19639541Y40550400D01*
X25966100Y40550400D01*
X25966100Y39449925D01*
X25966100Y39449925D01*
G37*
X25966100Y39449925D02*
X25681960Y39450173D01*
X25314286Y39298253D01*
X25182303Y39166500D01*
X25108253Y39345714D01*
X24827194Y39627264D01*
X24459785Y39779826D01*
X24061960Y39780173D01*
X23694286Y39628253D01*
X23412736Y39347194D01*
X23260174Y38979785D01*
X23259868Y38629097D01*
X23237654Y38624917D01*
X23033442Y38493510D01*
X22896444Y38293007D01*
X22848246Y38055000D01*
X22848246Y37655000D01*
X22872630Y37525410D01*
X22848246Y37405000D01*
X22848246Y37005000D01*
X22872630Y36875410D01*
X22848246Y36755000D01*
X22848246Y36355000D01*
X22890083Y36132654D01*
X23021490Y35928442D01*
X23221993Y35791444D01*
X23460000Y35743246D01*
X25060000Y35743246D01*
X25122468Y35755000D01*
X25193494Y35755000D01*
X25470000Y35700000D01*
X26275624Y35700000D01*
X26322806Y35652736D01*
X26690215Y35500174D01*
X27088040Y35499827D01*
X27455714Y35651747D01*
X27737264Y35932806D01*
X27889826Y36300215D01*
X27890173Y36698040D01*
X27823087Y36860400D01*
X32655204Y36860400D01*
X32433917Y36529220D01*
X32342572Y36070000D01*
X32433917Y35610780D01*
X32694044Y35221472D01*
X33083352Y34961345D01*
X33542572Y34870000D01*
X33997428Y34870000D01*
X34262630Y34922752D01*
X34172572Y34470000D01*
X34263917Y34010780D01*
X34524044Y33621472D01*
X34913352Y33361345D01*
X35372572Y33270000D01*
X35827428Y33270000D01*
X36286648Y33361345D01*
X36430000Y33457130D01*
X36430000Y32611629D01*
X36380000Y32621754D01*
X35480000Y32621754D01*
X35257654Y32579917D01*
X35053442Y32448510D01*
X35027129Y32410000D01*
X32320000Y32410000D01*
X31937316Y32333880D01*
X31612893Y32117107D01*
X31405127Y31909341D01*
X31220075Y32032989D01*
X30601659Y32156000D01*
X30538341Y32156000D01*
X29919925Y32032989D01*
X29592736Y31814369D01*
X29484510Y31982558D01*
X29284007Y32119556D01*
X29046000Y32167754D01*
X29030000Y32167754D01*
X29030000Y32920000D01*
X28993668Y33102654D01*
X28953880Y33302684D01*
X28737107Y33627107D01*
X27647107Y34717107D01*
X27322684Y34933880D01*
X26940000Y35010000D01*
X21059887Y35010000D01*
X21059992Y35130877D01*
X21082346Y35135083D01*
X21286558Y35266490D01*
X21423556Y35466993D01*
X21471754Y35705000D01*
X21471754Y36105000D01*
X21447370Y36234590D01*
X21471754Y36355000D01*
X21471754Y36755000D01*
X21447370Y36884590D01*
X21471754Y37005000D01*
X21471754Y37405000D01*
X21447370Y37534590D01*
X21471754Y37655000D01*
X21471754Y38055000D01*
X21429917Y38277346D01*
X21298510Y38481558D01*
X21098007Y38618556D01*
X21060041Y38626244D01*
X21060173Y38778040D01*
X20908253Y39145714D01*
X20627194Y39427264D01*
X20259785Y39579826D01*
X19861960Y39580173D01*
X19494286Y39428253D01*
X19397018Y39331154D01*
X19639541Y40550400D01*
X25966100Y40550400D01*
X25966100Y39449925D01*
M02*
