M48
;DRILL file {KiCad 4.0.0-rc1-stable} date 27.1.2017 14:57:44
;FORMAT={2:4/ absolute / inch / suppress leading zeros}
FMAT,2
INCH,TZ
T1C0.016
T2C0.034
T3C0.039
T4C0.040
%
G90
G05
M72
T1
X803Y12831
X846Y11799
X3150Y3657
X3717Y1358
X3720Y6181
X3941Y4193
X4618Y1740
X4669Y3118
X5122Y5287
X5122Y4835
X5154Y6374
X5177Y10961
X5594Y3114
X5634Y9717
X5677Y8130
X5819Y10925
X5921Y5783
X6126Y6240
X6154Y1685
X6937Y10906
X7154Y1256
X7303Y11858
X7311Y14138
X7449Y3110
X7469Y10925
X7575Y5878
X7575Y4909
X7654Y1256
X7839Y12815
X7898Y15189
X7898Y13835
X8346Y11890
X8457Y3110
X8555Y10465
X8724Y14520
X8854Y12815
X9024Y10465
X9390Y12862
X9390Y11835
X9461Y843
X9551Y15268
X9862Y12866
X9862Y11819
X10154Y3843
X10154Y3343
X10189Y15138
X10240Y7079
X10563Y4843
X10587Y14370
X10630Y9677
X10850Y8319
X10941Y5543
X11260Y4157
X11346Y5984
X11453Y2193
X11531Y7543
X11795Y6094
X11972Y10110
X12000Y2157
X12051Y8106
X12457Y8378
X13598Y11500
X14063Y5732
X14417Y10831
X14433Y6059
X14827Y7106
X14874Y11028
X15394Y12244
X15394Y11031
X15984Y8264
X16043Y7736
X16303Y11961
X16303Y11047
X17295Y8421
X17787Y12693
X19311Y14894
X21000Y14150
X22886Y12287
X23610Y10945
X25480Y10055
T2
X13295Y14201
X13295Y13571
X14016Y14201
X14016Y13571
X14736Y14201
X14736Y13571
T3
X16945Y11402
X16945Y10402
X17945Y11402
X17945Y10402
X18945Y11402
X18945Y10402
X19945Y11402
X19945Y10402
X20945Y11402
X20945Y10402
X21945Y11402
X21945Y10402
T4
X1138Y9220
X2138Y9220
X3138Y9220
X4138Y9220
X4732Y11878
X5138Y9220
X5732Y11878
X6138Y9220
X7138Y9220
X8138Y9220
X11035Y12024
X11917Y4819
X11917Y3819
X12035Y12024
X12917Y4819
X12917Y3819
T0
M30
