G04 #@! TF.FileFunction,Legend,Top*
%FSLAX46Y46*%
G04 Gerber Fmt 4.6, Leading zero omitted, Abs format (unit mm)*
G04 Created by KiCad (PCBNEW 4.0.0-rc1-stable) date 24.1.2017 20:57:19*
%MOMM*%
G01*
G04 APERTURE LIST*
%ADD10C,0.100000*%
%ADD11C,0.300000*%
%ADD12C,0.200000*%
%ADD13C,0.150000*%
G04 APERTURE END LIST*
D10*
D11*
X26917143Y20481429D02*
X26917143Y21981429D01*
X27488571Y21981429D01*
X27631429Y21910000D01*
X27702857Y21838571D01*
X27774286Y21695714D01*
X27774286Y21481429D01*
X27702857Y21338571D01*
X27631429Y21267143D01*
X27488571Y21195714D01*
X26917143Y21195714D01*
X28631429Y20481429D02*
X28488571Y20552857D01*
X28417143Y20695714D01*
X28417143Y21981429D01*
X29845714Y20481429D02*
X29845714Y21267143D01*
X29774285Y21410000D01*
X29631428Y21481429D01*
X29345714Y21481429D01*
X29202857Y21410000D01*
X29845714Y20552857D02*
X29702857Y20481429D01*
X29345714Y20481429D01*
X29202857Y20552857D01*
X29131428Y20695714D01*
X29131428Y20838571D01*
X29202857Y20981429D01*
X29345714Y21052857D01*
X29702857Y21052857D01*
X29845714Y21124286D01*
X30560000Y21481429D02*
X30560000Y20481429D01*
X30560000Y21338571D02*
X30631428Y21410000D01*
X30774286Y21481429D01*
X30988571Y21481429D01*
X31131428Y21410000D01*
X31202857Y21267143D01*
X31202857Y20481429D01*
X31702857Y21481429D02*
X32274286Y21481429D01*
X31917143Y21981429D02*
X31917143Y20695714D01*
X31988571Y20552857D01*
X32131429Y20481429D01*
X32274286Y20481429D01*
X32988572Y20481429D02*
X32845714Y20552857D01*
X32774286Y20624286D01*
X32702857Y20767143D01*
X32702857Y21195714D01*
X32774286Y21338571D01*
X32845714Y21410000D01*
X32988572Y21481429D01*
X33202857Y21481429D01*
X33345714Y21410000D01*
X33417143Y21338571D01*
X33488572Y21195714D01*
X33488572Y20767143D01*
X33417143Y20624286D01*
X33345714Y20552857D01*
X33202857Y20481429D01*
X32988572Y20481429D01*
X33988572Y21481429D02*
X34274286Y20481429D01*
X34560000Y21195714D01*
X34845715Y20481429D01*
X35131429Y21481429D01*
X36274286Y20552857D02*
X36131429Y20481429D01*
X35845715Y20481429D01*
X35702858Y20552857D01*
X35631429Y20695714D01*
X35631429Y21267143D01*
X35702858Y21410000D01*
X35845715Y21481429D01*
X36131429Y21481429D01*
X36274286Y21410000D01*
X36345715Y21267143D01*
X36345715Y21124286D01*
X35631429Y20981429D01*
X36988572Y20481429D02*
X36988572Y21481429D01*
X36988572Y21195714D02*
X37060000Y21338571D01*
X37131429Y21410000D01*
X37274286Y21481429D01*
X37417143Y21481429D01*
X7375714Y27000000D02*
X8090000Y27000000D01*
X7232857Y26571429D02*
X7732857Y28071429D01*
X8232857Y26571429D01*
X8947143Y26571429D02*
X8804285Y26642857D01*
X8732857Y26785714D01*
X8732857Y28071429D01*
X9518571Y27571429D02*
X9518571Y26071429D01*
X9518571Y27500000D02*
X9661428Y27571429D01*
X9947142Y27571429D01*
X10089999Y27500000D01*
X10161428Y27428571D01*
X10232857Y27285714D01*
X10232857Y26857143D01*
X10161428Y26714286D01*
X10089999Y26642857D01*
X9947142Y26571429D01*
X9661428Y26571429D01*
X9518571Y26642857D01*
X10875714Y26571429D02*
X10875714Y28071429D01*
X11518571Y26571429D02*
X11518571Y27357143D01*
X11447142Y27500000D01*
X11304285Y27571429D01*
X11090000Y27571429D01*
X10947142Y27500000D01*
X10875714Y27428571D01*
X12875714Y26571429D02*
X12875714Y27357143D01*
X12804285Y27500000D01*
X12661428Y27571429D01*
X12375714Y27571429D01*
X12232857Y27500000D01*
X12875714Y26642857D02*
X12732857Y26571429D01*
X12375714Y26571429D01*
X12232857Y26642857D01*
X12161428Y26785714D01*
X12161428Y26928571D01*
X12232857Y27071429D01*
X12375714Y27142857D01*
X12732857Y27142857D01*
X12875714Y27214286D01*
X13518571Y26642857D02*
X13661428Y26571429D01*
X13947143Y26571429D01*
X14090000Y26642857D01*
X14161428Y26785714D01*
X14161428Y26857143D01*
X14090000Y27000000D01*
X13947143Y27071429D01*
X13732857Y27071429D01*
X13590000Y27142857D01*
X13518571Y27285714D01*
X13518571Y27357143D01*
X13590000Y27500000D01*
X13732857Y27571429D01*
X13947143Y27571429D01*
X14090000Y27500000D01*
X15375714Y26642857D02*
X15232857Y26571429D01*
X14947143Y26571429D01*
X14804286Y26642857D01*
X14732857Y26785714D01*
X14732857Y27357143D01*
X14804286Y27500000D01*
X14947143Y27571429D01*
X15232857Y27571429D01*
X15375714Y27500000D01*
X15447143Y27357143D01*
X15447143Y27214286D01*
X14732857Y27071429D01*
X16090000Y27571429D02*
X16090000Y26571429D01*
X16090000Y27428571D02*
X16161428Y27500000D01*
X16304286Y27571429D01*
X16518571Y27571429D01*
X16661428Y27500000D01*
X16732857Y27357143D01*
X16732857Y26571429D01*
X17375714Y26642857D02*
X17518571Y26571429D01*
X17804286Y26571429D01*
X17947143Y26642857D01*
X18018571Y26785714D01*
X18018571Y26857143D01*
X17947143Y27000000D01*
X17804286Y27071429D01*
X17590000Y27071429D01*
X17447143Y27142857D01*
X17375714Y27285714D01*
X17375714Y27357143D01*
X17447143Y27500000D01*
X17590000Y27571429D01*
X17804286Y27571429D01*
X17947143Y27500000D01*
X19232857Y26642857D02*
X19090000Y26571429D01*
X18804286Y26571429D01*
X18661429Y26642857D01*
X18590000Y26785714D01*
X18590000Y27357143D01*
X18661429Y27500000D01*
X18804286Y27571429D01*
X19090000Y27571429D01*
X19232857Y27500000D01*
X19304286Y27357143D01*
X19304286Y27214286D01*
X18590000Y27071429D01*
D12*
X1654500Y23840000D02*
G75*
G03X1654500Y23840000I-324500J0D01*
G01*
D11*
X36937143Y9784286D02*
X37008571Y9998572D01*
X37008571Y10355715D01*
X36937143Y10498572D01*
X36865714Y10570001D01*
X36722857Y10641429D01*
X36580000Y10641429D01*
X36437143Y10570001D01*
X36365714Y10498572D01*
X36294286Y10355715D01*
X36222857Y10070001D01*
X36151429Y9927143D01*
X36080000Y9855715D01*
X35937143Y9784286D01*
X35794286Y9784286D01*
X35651429Y9855715D01*
X35580000Y9927143D01*
X35508571Y10070001D01*
X35508571Y10427143D01*
X35580000Y10641429D01*
X35508571Y11141429D02*
X37008571Y11498572D01*
X35937143Y11784286D01*
X37008571Y12070000D01*
X35508571Y12427143D01*
X37008571Y12998572D02*
X35508571Y12998572D01*
X35508571Y13355715D01*
X35580000Y13570000D01*
X35722857Y13712858D01*
X35865714Y13784286D01*
X36151429Y13855715D01*
X36365714Y13855715D01*
X36651429Y13784286D01*
X36794286Y13712858D01*
X36937143Y13570000D01*
X37008571Y13355715D01*
X37008571Y12998572D01*
X32490000Y5469524D02*
X32428095Y5345715D01*
X32428095Y5160000D01*
X32490000Y4974286D01*
X32613810Y4850477D01*
X32737619Y4788572D01*
X32985238Y4726667D01*
X33170952Y4726667D01*
X33418571Y4788572D01*
X33542381Y4850477D01*
X33666190Y4974286D01*
X33728095Y5160000D01*
X33728095Y5283810D01*
X33666190Y5469524D01*
X33604286Y5531429D01*
X33170952Y5531429D01*
X33170952Y5283810D01*
X33728095Y6088572D02*
X32428095Y6088572D01*
X33728095Y6831429D01*
X32428095Y6831429D01*
X33728095Y7450477D02*
X32428095Y7450477D01*
X32428095Y7760001D01*
X32490000Y7945715D01*
X32613810Y8069524D01*
X32737619Y8131429D01*
X32985238Y8193334D01*
X33170952Y8193334D01*
X33418571Y8131429D01*
X33542381Y8069524D01*
X33666190Y7945715D01*
X33728095Y7760001D01*
X33728095Y7450477D01*
X31254286Y5761191D02*
X31316190Y5699286D01*
X31378095Y5513572D01*
X31378095Y5389762D01*
X31316190Y5204048D01*
X31192381Y5080239D01*
X31068571Y5018334D01*
X30820952Y4956429D01*
X30635238Y4956429D01*
X30387619Y5018334D01*
X30263810Y5080239D01*
X30140000Y5204048D01*
X30078095Y5389762D01*
X30078095Y5513572D01*
X30140000Y5699286D01*
X30201905Y5761191D01*
X31378095Y6937381D02*
X31378095Y6318334D01*
X30078095Y6318334D01*
X31378095Y7370715D02*
X30078095Y7370715D01*
X31378095Y8113572D02*
X30635238Y7556429D01*
X30078095Y8113572D02*
X30820952Y7370715D01*
X32990476Y16221905D02*
X33795238Y16221905D01*
X33361905Y15726667D01*
X33547619Y15726667D01*
X33671429Y15664762D01*
X33733333Y15602857D01*
X33795238Y15479048D01*
X33795238Y15169524D01*
X33733333Y15045714D01*
X33671429Y14983810D01*
X33547619Y14921905D01*
X33176191Y14921905D01*
X33052381Y14983810D01*
X32990476Y15045714D01*
X34166667Y16221905D02*
X34600000Y14921905D01*
X35033333Y16221905D01*
X35342857Y16221905D02*
X36147619Y16221905D01*
X35714286Y15726667D01*
X35900000Y15726667D01*
X36023810Y15664762D01*
X36085714Y15602857D01*
X36147619Y15479048D01*
X36147619Y15169524D01*
X36085714Y15045714D01*
X36023810Y14983810D01*
X35900000Y14921905D01*
X35528572Y14921905D01*
X35404762Y14983810D01*
X35342857Y15045714D01*
X28377143Y14841905D02*
X28377143Y16141905D01*
X28686667Y16141905D01*
X28872381Y16080000D01*
X28996190Y15956190D01*
X29058095Y15832381D01*
X29120000Y15584762D01*
X29120000Y15399048D01*
X29058095Y15151429D01*
X28996190Y15027619D01*
X28872381Y14903810D01*
X28686667Y14841905D01*
X28377143Y14841905D01*
X29615238Y15213333D02*
X30234286Y15213333D01*
X29491429Y14841905D02*
X29924762Y16141905D01*
X30358095Y14841905D01*
X30605715Y16141905D02*
X31348572Y16141905D01*
X30977143Y14841905D02*
X30977143Y16141905D01*
X42988607Y40185000D02*
G75*
G03X42988607Y40185000I-223607J0D01*
G01*
X45140000Y38685000D02*
X45140000Y38285000D01*
X45140000Y38285000D02*
X45140000Y37885000D01*
X45140000Y39810000D02*
X43390000Y39810000D01*
X45140000Y36760000D02*
X43390000Y36760000D01*
X41704222Y17750000D02*
G75*
G03X41704222Y17750000I-144222J0D01*
G01*
X38540000Y20810000D02*
X38540000Y18310000D01*
X41540000Y20810000D02*
X41540000Y18310000D01*
X27731421Y37260000D02*
G75*
G03X27731421Y37260000I-141421J0D01*
G01*
X23790000Y37460000D02*
X26890000Y37460000D01*
X23790000Y40560000D02*
X26890000Y40560000D01*
D13*
X4690000Y22570000D02*
X22470000Y22570000D01*
X22470000Y22570000D02*
X22470000Y25110000D01*
X22470000Y25110000D02*
X4690000Y25110000D01*
X1870000Y22290000D02*
X3420000Y22290000D01*
X4690000Y22570000D02*
X4690000Y25110000D01*
X3420000Y25390000D02*
X1870000Y25390000D01*
X1870000Y25390000D02*
X1870000Y22290000D01*
D11*
X27310000Y26730000D02*
X26860000Y26730000D01*
X32310000Y26730000D02*
X32760000Y26730000D01*
X32310000Y26730000D02*
X32310000Y28730000D01*
X32310000Y28730000D02*
X27310000Y28730000D01*
X27310000Y28730000D02*
X27310000Y26730000D01*
X27310000Y26730000D02*
X29810000Y26730000D01*
X29810000Y26730000D02*
X32310000Y26730000D01*
X25760000Y23730000D02*
X25760000Y24630000D01*
X26810000Y23730000D02*
X25760000Y23730000D01*
X33860000Y24730000D02*
X33860000Y23730000D01*
X33860000Y23730000D02*
X32810000Y23730000D01*
X22440000Y33710000D02*
X22440000Y34710000D01*
X23790000Y34710000D02*
X23790000Y33710000D01*
X20165000Y33710000D02*
X20165000Y34710000D01*
X21515000Y34710000D02*
X21515000Y33710000D01*
X26010000Y20000000D02*
X26010000Y19000000D01*
X24660000Y19000000D02*
X24660000Y20000000D01*
X22335000Y19000000D02*
X22335000Y20000000D01*
X23685000Y20000000D02*
X23685000Y19000000D01*
X18985000Y20000000D02*
X18985000Y19000000D01*
X17635000Y19000000D02*
X17635000Y20000000D01*
X19985000Y19000000D02*
X19985000Y20000000D01*
X21335000Y20000000D02*
X21335000Y19000000D01*
X14285000Y19990000D02*
X14285000Y18990000D01*
X12935000Y18990000D02*
X12935000Y19990000D01*
X16645000Y20000000D02*
X16645000Y19000000D01*
X15295000Y19000000D02*
X15295000Y20000000D01*
X9745000Y19990000D02*
X9745000Y18990000D01*
X8395000Y18990000D02*
X8395000Y19990000D01*
X12055000Y19990000D02*
X12055000Y18990000D01*
X10705000Y18990000D02*
X10705000Y19990000D01*
X21175000Y7720000D02*
X21175000Y6720000D01*
X19825000Y6720000D02*
X19825000Y7720000D01*
X23545000Y7720000D02*
X23545000Y6720000D01*
X22195000Y6720000D02*
X22195000Y7720000D01*
X10415000Y6750000D02*
X10415000Y7750000D01*
X11765000Y7750000D02*
X11765000Y6750000D01*
X17465000Y6720000D02*
X17465000Y7720000D01*
X18815000Y7720000D02*
X18815000Y6720000D01*
X9465000Y7750000D02*
X9465000Y6750000D01*
X8115000Y6750000D02*
X8115000Y7750000D01*
D13*
X10990000Y29035000D02*
X12540000Y29035000D01*
X16350000Y29315000D02*
X13810000Y29315000D01*
X13810000Y29315000D02*
X13810000Y31855000D01*
X12540000Y32135000D02*
X10990000Y32135000D01*
X10990000Y32135000D02*
X10990000Y29035000D01*
X13810000Y31855000D02*
X16350000Y31855000D01*
X16350000Y31855000D02*
X16350000Y29315000D01*
X32690000Y33380000D02*
X31140000Y33380000D01*
X27330000Y33100000D02*
X29870000Y33100000D01*
X29870000Y33100000D02*
X29870000Y30560000D01*
X31140000Y30280000D02*
X32690000Y30280000D01*
X32690000Y30280000D02*
X32690000Y33380000D01*
X29870000Y30560000D02*
X27330000Y30560000D01*
X27330000Y30560000D02*
X27330000Y33100000D01*
D11*
X56800000Y24465000D02*
X59340000Y24465000D01*
X56165000Y25100000D02*
X58705000Y25100000D01*
X56165000Y32720000D02*
X58705000Y32720000D01*
X56800000Y33355000D02*
X59340000Y33355000D01*
X37115000Y32720000D02*
X36480000Y33355000D01*
X37115000Y25100000D02*
X36480000Y24465000D01*
X58705000Y25100000D02*
X59340000Y24465000D01*
X58705000Y32720000D02*
X59340000Y33355000D01*
X51085000Y24465000D02*
X51085000Y25100000D01*
X51085000Y25100000D02*
X56165000Y25100000D01*
X58705000Y25100000D02*
X58705000Y32720000D01*
X56165000Y32720000D02*
X37115000Y32720000D01*
X37115000Y32720000D02*
X37115000Y25100000D01*
X37115000Y25100000D02*
X44735000Y25100000D01*
X44735000Y25100000D02*
X44735000Y24465000D01*
X36480000Y24465000D02*
X56800000Y24465000D01*
X56800000Y33355000D02*
X36480000Y33355000D01*
X36480000Y33355000D02*
X36480000Y24465000D01*
X59340000Y33355000D02*
X59340000Y24465000D01*
X39141920Y26941500D02*
X39840420Y25872160D01*
X39840420Y25872160D02*
X40541460Y26941500D01*
X40541460Y26941500D02*
X39141920Y26941500D01*
X16590000Y9230000D02*
X15000000Y9230000D01*
X15115000Y6730000D02*
X15115000Y7730000D01*
X16465000Y7730000D02*
X16465000Y6730000D01*
X14190000Y9230000D02*
X12600000Y9230000D01*
X12715000Y6730000D02*
X12715000Y7730000D01*
X14065000Y7730000D02*
X14065000Y6730000D01*
X50115000Y38485000D02*
X49115000Y38485000D01*
X49115000Y36785000D02*
X50115000Y36785000D01*
X3580000Y26250000D02*
X4580000Y26250000D01*
X4580000Y27950000D02*
X3580000Y27950000D01*
X5010000Y20145000D02*
X4010000Y20145000D01*
X4010000Y21495000D02*
X5010000Y21495000D01*
X38740000Y35980000D02*
X37740000Y35980000D01*
X37740000Y34280000D02*
X38740000Y34280000D01*
X32260000Y35805000D02*
X33260000Y35805000D01*
X33260000Y34455000D02*
X32260000Y34455000D01*
X40565000Y22060000D02*
X39565000Y22060000D01*
X39565000Y23410000D02*
X40565000Y23410000D01*
X49415000Y34360000D02*
X48415000Y34360000D01*
X48415000Y35710000D02*
X49415000Y35710000D01*
D13*
X34890000Y14210000D02*
X33340000Y14210000D01*
X34890000Y12660000D02*
X34890000Y14210000D01*
X34890000Y12660000D02*
X34890000Y14210000D01*
X34610000Y11390000D02*
X32070000Y11390000D01*
X32070000Y11390000D02*
X32070000Y13930000D01*
X32070000Y13930000D02*
X29530000Y13930000D01*
X29530000Y13930000D02*
X29530000Y8850000D01*
X29530000Y8850000D02*
X34610000Y8850000D01*
X34610000Y8850000D02*
X34610000Y11390000D01*
D11*
X38900000Y36935000D02*
X38900000Y40390000D01*
X32040000Y40390000D02*
X32040000Y36935000D01*
X32040000Y36935000D02*
X38900000Y36935000D01*
X39968571Y37207143D02*
X41182857Y37207143D01*
X41325714Y37278571D01*
X41397143Y37350000D01*
X41468571Y37492857D01*
X41468571Y37778571D01*
X41397143Y37921429D01*
X41325714Y37992857D01*
X41182857Y38064286D01*
X39968571Y38064286D01*
X39968571Y39421429D02*
X39968571Y39135715D01*
X40040000Y38992858D01*
X40111429Y38921429D01*
X40325714Y38778572D01*
X40611429Y38707143D01*
X41182857Y38707143D01*
X41325714Y38778572D01*
X41397143Y38850000D01*
X41468571Y38992858D01*
X41468571Y39278572D01*
X41397143Y39421429D01*
X41325714Y39492858D01*
X41182857Y39564286D01*
X40825714Y39564286D01*
X40682857Y39492858D01*
X40611429Y39421429D01*
X40540000Y39278572D01*
X40540000Y38992858D01*
X40611429Y38850000D01*
X40682857Y38778572D01*
X40825714Y38707143D01*
X38672143Y17431429D02*
X38672143Y16217143D01*
X38743571Y16074286D01*
X38815000Y16002857D01*
X38957857Y15931429D01*
X39243571Y15931429D01*
X39386429Y16002857D01*
X39457857Y16074286D01*
X39529286Y16217143D01*
X39529286Y17431429D01*
X40957858Y17431429D02*
X40243572Y17431429D01*
X40172143Y16717143D01*
X40243572Y16788571D01*
X40386429Y16860000D01*
X40743572Y16860000D01*
X40886429Y16788571D01*
X40957858Y16717143D01*
X41029286Y16574286D01*
X41029286Y16217143D01*
X40957858Y16074286D01*
X40886429Y16002857D01*
X40743572Y15931429D01*
X40386429Y15931429D01*
X40243572Y16002857D01*
X40172143Y16074286D01*
X20068571Y37842143D02*
X21282857Y37842143D01*
X21425714Y37913571D01*
X21497143Y37985000D01*
X21568571Y38127857D01*
X21568571Y38413571D01*
X21497143Y38556429D01*
X21425714Y38627857D01*
X21282857Y38699286D01*
X20068571Y38699286D01*
X20568571Y40056429D02*
X21568571Y40056429D01*
X19997143Y39699286D02*
X21068571Y39342143D01*
X21068571Y40270715D01*
X20517143Y27561429D02*
X20517143Y26347143D01*
X20588571Y26204286D01*
X20660000Y26132857D01*
X20802857Y26061429D01*
X21088571Y26061429D01*
X21231429Y26132857D01*
X21302857Y26204286D01*
X21374286Y26347143D01*
X21374286Y27561429D01*
X21945715Y27561429D02*
X22874286Y27561429D01*
X22374286Y26990000D01*
X22588572Y26990000D01*
X22731429Y26918571D01*
X22802858Y26847143D01*
X22874286Y26704286D01*
X22874286Y26347143D01*
X22802858Y26204286D01*
X22731429Y26132857D01*
X22588572Y26061429D01*
X22160000Y26061429D01*
X22017143Y26132857D01*
X21945715Y26204286D01*
X24227143Y29001429D02*
X24227143Y27787143D01*
X24298571Y27644286D01*
X24370000Y27572857D01*
X24512857Y27501429D01*
X24798571Y27501429D01*
X24941429Y27572857D01*
X25012857Y27644286D01*
X25084286Y27787143D01*
X25084286Y29001429D01*
X26584286Y27501429D02*
X25727143Y27501429D01*
X26155715Y27501429D02*
X26155715Y29001429D01*
X26012858Y28787143D01*
X25870000Y28644286D01*
X25727143Y28572857D01*
X25793571Y33395715D02*
X25079286Y32895715D01*
X25793571Y32538572D02*
X24293571Y32538572D01*
X24293571Y33110000D01*
X24365000Y33252858D01*
X24436429Y33324286D01*
X24579286Y33395715D01*
X24793571Y33395715D01*
X24936429Y33324286D01*
X25007857Y33252858D01*
X25079286Y33110000D01*
X25079286Y32538572D01*
X25793571Y34824286D02*
X25793571Y33967143D01*
X25793571Y34395715D02*
X24293571Y34395715D01*
X24507857Y34252858D01*
X24650714Y34110000D01*
X24722143Y33967143D01*
X24293571Y36110000D02*
X24293571Y35824286D01*
X24365000Y35681429D01*
X24436429Y35610000D01*
X24650714Y35467143D01*
X24936429Y35395714D01*
X25507857Y35395714D01*
X25650714Y35467143D01*
X25722143Y35538571D01*
X25793571Y35681429D01*
X25793571Y35967143D01*
X25722143Y36110000D01*
X25650714Y36181429D01*
X25507857Y36252857D01*
X25150714Y36252857D01*
X25007857Y36181429D01*
X24936429Y36110000D01*
X24865000Y35967143D01*
X24865000Y35681429D01*
X24936429Y35538571D01*
X25007857Y35467143D01*
X25150714Y35395714D01*
X19643571Y33445715D02*
X18929286Y32945715D01*
X19643571Y32588572D02*
X18143571Y32588572D01*
X18143571Y33160000D01*
X18215000Y33302858D01*
X18286429Y33374286D01*
X18429286Y33445715D01*
X18643571Y33445715D01*
X18786429Y33374286D01*
X18857857Y33302858D01*
X18929286Y33160000D01*
X18929286Y32588572D01*
X19643571Y34874286D02*
X19643571Y34017143D01*
X19643571Y34445715D02*
X18143571Y34445715D01*
X18357857Y34302858D01*
X18500714Y34160000D01*
X18572143Y34017143D01*
X18143571Y36231429D02*
X18143571Y35517143D01*
X18857857Y35445714D01*
X18786429Y35517143D01*
X18715000Y35660000D01*
X18715000Y36017143D01*
X18786429Y36160000D01*
X18857857Y36231429D01*
X19000714Y36302857D01*
X19357857Y36302857D01*
X19500714Y36231429D01*
X19572143Y36160000D01*
X19643571Y36017143D01*
X19643571Y35660000D01*
X19572143Y35517143D01*
X19500714Y35445714D01*
X26013571Y14335715D02*
X25299286Y13835715D01*
X26013571Y13478572D02*
X24513571Y13478572D01*
X24513571Y14050000D01*
X24585000Y14192858D01*
X24656429Y14264286D01*
X24799286Y14335715D01*
X25013571Y14335715D01*
X25156429Y14264286D01*
X25227857Y14192858D01*
X25299286Y14050000D01*
X25299286Y13478572D01*
X26013571Y15764286D02*
X26013571Y14907143D01*
X26013571Y15335715D02*
X24513571Y15335715D01*
X24727857Y15192858D01*
X24870714Y15050000D01*
X24942143Y14907143D01*
X25013571Y17050000D02*
X26013571Y17050000D01*
X24442143Y16692857D02*
X25513571Y16335714D01*
X25513571Y17264286D01*
X23688571Y14360715D02*
X22974286Y13860715D01*
X23688571Y13503572D02*
X22188571Y13503572D01*
X22188571Y14075000D01*
X22260000Y14217858D01*
X22331429Y14289286D01*
X22474286Y14360715D01*
X22688571Y14360715D01*
X22831429Y14289286D01*
X22902857Y14217858D01*
X22974286Y14075000D01*
X22974286Y13503572D01*
X23688571Y15789286D02*
X23688571Y14932143D01*
X23688571Y15360715D02*
X22188571Y15360715D01*
X22402857Y15217858D01*
X22545714Y15075000D01*
X22617143Y14932143D01*
X22188571Y16289286D02*
X22188571Y17217857D01*
X22760000Y16717857D01*
X22760000Y16932143D01*
X22831429Y17075000D01*
X22902857Y17146429D01*
X23045714Y17217857D01*
X23402857Y17217857D01*
X23545714Y17146429D01*
X23617143Y17075000D01*
X23688571Y16932143D01*
X23688571Y16503571D01*
X23617143Y16360714D01*
X23545714Y16289286D01*
X18988571Y14360715D02*
X18274286Y13860715D01*
X18988571Y13503572D02*
X17488571Y13503572D01*
X17488571Y14075000D01*
X17560000Y14217858D01*
X17631429Y14289286D01*
X17774286Y14360715D01*
X17988571Y14360715D01*
X18131429Y14289286D01*
X18202857Y14217858D01*
X18274286Y14075000D01*
X18274286Y13503572D01*
X18988571Y15789286D02*
X18988571Y14932143D01*
X18988571Y15360715D02*
X17488571Y15360715D01*
X17702857Y15217858D01*
X17845714Y15075000D01*
X17917143Y14932143D01*
X17631429Y16360714D02*
X17560000Y16432143D01*
X17488571Y16575000D01*
X17488571Y16932143D01*
X17560000Y17075000D01*
X17631429Y17146429D01*
X17774286Y17217857D01*
X17917143Y17217857D01*
X18131429Y17146429D01*
X18988571Y16289286D01*
X18988571Y17217857D01*
X21338571Y14410715D02*
X20624286Y13910715D01*
X21338571Y13553572D02*
X19838571Y13553572D01*
X19838571Y14125000D01*
X19910000Y14267858D01*
X19981429Y14339286D01*
X20124286Y14410715D01*
X20338571Y14410715D01*
X20481429Y14339286D01*
X20552857Y14267858D01*
X20624286Y14125000D01*
X20624286Y13553572D01*
X21338571Y15839286D02*
X21338571Y14982143D01*
X21338571Y15410715D02*
X19838571Y15410715D01*
X20052857Y15267858D01*
X20195714Y15125000D01*
X20267143Y14982143D01*
X21338571Y17267857D02*
X21338571Y16410714D01*
X21338571Y16839286D02*
X19838571Y16839286D01*
X20052857Y16696429D01*
X20195714Y16553571D01*
X20267143Y16410714D01*
X14288571Y14400715D02*
X13574286Y13900715D01*
X14288571Y13543572D02*
X12788571Y13543572D01*
X12788571Y14115000D01*
X12860000Y14257858D01*
X12931429Y14329286D01*
X13074286Y14400715D01*
X13288571Y14400715D01*
X13431429Y14329286D01*
X13502857Y14257858D01*
X13574286Y14115000D01*
X13574286Y13543572D01*
X14288571Y15829286D02*
X14288571Y14972143D01*
X14288571Y15400715D02*
X12788571Y15400715D01*
X13002857Y15257858D01*
X13145714Y15115000D01*
X13217143Y14972143D01*
X12788571Y16757857D02*
X12788571Y16900714D01*
X12860000Y17043571D01*
X12931429Y17115000D01*
X13074286Y17186429D01*
X13360000Y17257857D01*
X13717143Y17257857D01*
X14002857Y17186429D01*
X14145714Y17115000D01*
X14217143Y17043571D01*
X14288571Y16900714D01*
X14288571Y16757857D01*
X14217143Y16615000D01*
X14145714Y16543571D01*
X14002857Y16472143D01*
X13717143Y16400714D01*
X13360000Y16400714D01*
X13074286Y16472143D01*
X12931429Y16543571D01*
X12860000Y16615000D01*
X12788571Y16757857D01*
X16648571Y15825001D02*
X15934286Y15325001D01*
X16648571Y14967858D02*
X15148571Y14967858D01*
X15148571Y15539286D01*
X15220000Y15682144D01*
X15291429Y15753572D01*
X15434286Y15825001D01*
X15648571Y15825001D01*
X15791429Y15753572D01*
X15862857Y15682144D01*
X15934286Y15539286D01*
X15934286Y14967858D01*
X16648571Y16539286D02*
X16648571Y16825001D01*
X16577143Y16967858D01*
X16505714Y17039286D01*
X16291429Y17182144D01*
X16005714Y17253572D01*
X15434286Y17253572D01*
X15291429Y17182144D01*
X15220000Y17110715D01*
X15148571Y16967858D01*
X15148571Y16682144D01*
X15220000Y16539286D01*
X15291429Y16467858D01*
X15434286Y16396429D01*
X15791429Y16396429D01*
X15934286Y16467858D01*
X16005714Y16539286D01*
X16077143Y16682144D01*
X16077143Y16967858D01*
X16005714Y17110715D01*
X15934286Y17182144D01*
X15791429Y17253572D01*
X9748571Y15815001D02*
X9034286Y15315001D01*
X9748571Y14957858D02*
X8248571Y14957858D01*
X8248571Y15529286D01*
X8320000Y15672144D01*
X8391429Y15743572D01*
X8534286Y15815001D01*
X8748571Y15815001D01*
X8891429Y15743572D01*
X8962857Y15672144D01*
X9034286Y15529286D01*
X9034286Y14957858D01*
X8891429Y16672144D02*
X8820000Y16529286D01*
X8748571Y16457858D01*
X8605714Y16386429D01*
X8534286Y16386429D01*
X8391429Y16457858D01*
X8320000Y16529286D01*
X8248571Y16672144D01*
X8248571Y16957858D01*
X8320000Y17100715D01*
X8391429Y17172144D01*
X8534286Y17243572D01*
X8605714Y17243572D01*
X8748571Y17172144D01*
X8820000Y17100715D01*
X8891429Y16957858D01*
X8891429Y16672144D01*
X8962857Y16529286D01*
X9034286Y16457858D01*
X9177143Y16386429D01*
X9462857Y16386429D01*
X9605714Y16457858D01*
X9677143Y16529286D01*
X9748571Y16672144D01*
X9748571Y16957858D01*
X9677143Y17100715D01*
X9605714Y17172144D01*
X9462857Y17243572D01*
X9177143Y17243572D01*
X9034286Y17172144D01*
X8962857Y17100715D01*
X8891429Y16957858D01*
X12058571Y15690001D02*
X11344286Y15190001D01*
X12058571Y14832858D02*
X10558571Y14832858D01*
X10558571Y15404286D01*
X10630000Y15547144D01*
X10701429Y15618572D01*
X10844286Y15690001D01*
X11058571Y15690001D01*
X11201429Y15618572D01*
X11272857Y15547144D01*
X11344286Y15404286D01*
X11344286Y14832858D01*
X10558571Y16190001D02*
X10558571Y17190001D01*
X12058571Y16547144D01*
X21203571Y3520001D02*
X20489286Y3020001D01*
X21203571Y2662858D02*
X19703571Y2662858D01*
X19703571Y3234286D01*
X19775000Y3377144D01*
X19846429Y3448572D01*
X19989286Y3520001D01*
X20203571Y3520001D01*
X20346429Y3448572D01*
X20417857Y3377144D01*
X20489286Y3234286D01*
X20489286Y2662858D01*
X19703571Y4877144D02*
X19703571Y4162858D01*
X20417857Y4091429D01*
X20346429Y4162858D01*
X20275000Y4305715D01*
X20275000Y4662858D01*
X20346429Y4805715D01*
X20417857Y4877144D01*
X20560714Y4948572D01*
X20917857Y4948572D01*
X21060714Y4877144D01*
X21132143Y4805715D01*
X21203571Y4662858D01*
X21203571Y4305715D01*
X21132143Y4162858D01*
X21060714Y4091429D01*
X23548571Y3470001D02*
X22834286Y2970001D01*
X23548571Y2612858D02*
X22048571Y2612858D01*
X22048571Y3184286D01*
X22120000Y3327144D01*
X22191429Y3398572D01*
X22334286Y3470001D01*
X22548571Y3470001D01*
X22691429Y3398572D01*
X22762857Y3327144D01*
X22834286Y3184286D01*
X22834286Y2612858D01*
X22548571Y4755715D02*
X23548571Y4755715D01*
X21977143Y4398572D02*
X23048571Y4041429D01*
X23048571Y4970001D01*
X11768571Y3500001D02*
X11054286Y3000001D01*
X11768571Y2642858D02*
X10268571Y2642858D01*
X10268571Y3214286D01*
X10340000Y3357144D01*
X10411429Y3428572D01*
X10554286Y3500001D01*
X10768571Y3500001D01*
X10911429Y3428572D01*
X10982857Y3357144D01*
X11054286Y3214286D01*
X11054286Y2642858D01*
X10268571Y4000001D02*
X10268571Y4928572D01*
X10840000Y4428572D01*
X10840000Y4642858D01*
X10911429Y4785715D01*
X10982857Y4857144D01*
X11125714Y4928572D01*
X11482857Y4928572D01*
X11625714Y4857144D01*
X11697143Y4785715D01*
X11768571Y4642858D01*
X11768571Y4214286D01*
X11697143Y4071429D01*
X11625714Y4000001D01*
X18818571Y3470001D02*
X18104286Y2970001D01*
X18818571Y2612858D02*
X17318571Y2612858D01*
X17318571Y3184286D01*
X17390000Y3327144D01*
X17461429Y3398572D01*
X17604286Y3470001D01*
X17818571Y3470001D01*
X17961429Y3398572D01*
X18032857Y3327144D01*
X18104286Y3184286D01*
X18104286Y2612858D01*
X17461429Y4041429D02*
X17390000Y4112858D01*
X17318571Y4255715D01*
X17318571Y4612858D01*
X17390000Y4755715D01*
X17461429Y4827144D01*
X17604286Y4898572D01*
X17747143Y4898572D01*
X17961429Y4827144D01*
X18818571Y3970001D01*
X18818571Y4898572D01*
X9468571Y3575001D02*
X8754286Y3075001D01*
X9468571Y2717858D02*
X7968571Y2717858D01*
X7968571Y3289286D01*
X8040000Y3432144D01*
X8111429Y3503572D01*
X8254286Y3575001D01*
X8468571Y3575001D01*
X8611429Y3503572D01*
X8682857Y3432144D01*
X8754286Y3289286D01*
X8754286Y2717858D01*
X9468571Y5003572D02*
X9468571Y4146429D01*
X9468571Y4575001D02*
X7968571Y4575001D01*
X8182857Y4432144D01*
X8325714Y4289286D01*
X8397143Y4146429D01*
X12540000Y34306429D02*
X12540000Y33235000D01*
X12468572Y33020714D01*
X12325715Y32877857D01*
X12111429Y32806429D01*
X11968572Y32806429D01*
X13254286Y32806429D02*
X13254286Y34306429D01*
X13825714Y34306429D01*
X13968572Y34235000D01*
X14040000Y34163571D01*
X14111429Y34020714D01*
X14111429Y33806429D01*
X14040000Y33663571D01*
X13968572Y33592143D01*
X13825714Y33520714D01*
X13254286Y33520714D01*
X14682857Y34163571D02*
X14754286Y34235000D01*
X14897143Y34306429D01*
X15254286Y34306429D01*
X15397143Y34235000D01*
X15468572Y34163571D01*
X15540000Y34020714D01*
X15540000Y33877857D01*
X15468572Y33663571D01*
X14611429Y32806429D01*
X15540000Y32806429D01*
X33418571Y30550000D02*
X34490000Y30550000D01*
X34704286Y30478572D01*
X34847143Y30335715D01*
X34918571Y30121429D01*
X34918571Y29978572D01*
X34918571Y31264286D02*
X33418571Y31264286D01*
X33418571Y31835714D01*
X33490000Y31978572D01*
X33561429Y32050000D01*
X33704286Y32121429D01*
X33918571Y32121429D01*
X34061429Y32050000D01*
X34132857Y31978572D01*
X34204286Y31835714D01*
X34204286Y31264286D01*
X34918571Y33550000D02*
X34918571Y32692857D01*
X34918571Y33121429D02*
X33418571Y33121429D01*
X33632857Y32978572D01*
X33775714Y32835714D01*
X33847143Y32692857D01*
X60700000Y26451429D02*
X60700000Y25380000D01*
X60628572Y25165714D01*
X60485715Y25022857D01*
X60271429Y24951429D01*
X60128572Y24951429D01*
X62200000Y24951429D02*
X61342857Y24951429D01*
X61771429Y24951429D02*
X61771429Y26451429D01*
X61628572Y26237143D01*
X61485714Y26094286D01*
X61342857Y26022857D01*
X16468571Y2647858D02*
X14968571Y2647858D01*
X14968571Y3005001D01*
X15040000Y3219286D01*
X15182857Y3362144D01*
X15325714Y3433572D01*
X15611429Y3505001D01*
X15825714Y3505001D01*
X16111429Y3433572D01*
X16254286Y3362144D01*
X16397143Y3219286D01*
X16468571Y3005001D01*
X16468571Y2647858D01*
X15111429Y4076429D02*
X15040000Y4147858D01*
X14968571Y4290715D01*
X14968571Y4647858D01*
X15040000Y4790715D01*
X15111429Y4862144D01*
X15254286Y4933572D01*
X15397143Y4933572D01*
X15611429Y4862144D01*
X16468571Y4005001D01*
X16468571Y4933572D01*
X14068571Y2622858D02*
X12568571Y2622858D01*
X12568571Y2980001D01*
X12640000Y3194286D01*
X12782857Y3337144D01*
X12925714Y3408572D01*
X13211429Y3480001D01*
X13425714Y3480001D01*
X13711429Y3408572D01*
X13854286Y3337144D01*
X13997143Y3194286D01*
X14068571Y2980001D01*
X14068571Y2622858D01*
X14068571Y4908572D02*
X14068571Y4051429D01*
X14068571Y4480001D02*
X12568571Y4480001D01*
X12782857Y4337144D01*
X12925714Y4194286D01*
X12997143Y4051429D01*
X49170001Y39154286D02*
X49098572Y39082857D01*
X48884286Y39011429D01*
X48741429Y39011429D01*
X48527144Y39082857D01*
X48384286Y39225714D01*
X48312858Y39368571D01*
X48241429Y39654286D01*
X48241429Y39868571D01*
X48312858Y40154286D01*
X48384286Y40297143D01*
X48527144Y40440000D01*
X48741429Y40511429D01*
X48884286Y40511429D01*
X49098572Y40440000D01*
X49170001Y40368571D01*
X50027144Y39868571D02*
X49884286Y39940000D01*
X49812858Y40011429D01*
X49741429Y40154286D01*
X49741429Y40225714D01*
X49812858Y40368571D01*
X49884286Y40440000D01*
X50027144Y40511429D01*
X50312858Y40511429D01*
X50455715Y40440000D01*
X50527144Y40368571D01*
X50598572Y40225714D01*
X50598572Y40154286D01*
X50527144Y40011429D01*
X50455715Y39940000D01*
X50312858Y39868571D01*
X50027144Y39868571D01*
X49884286Y39797143D01*
X49812858Y39725714D01*
X49741429Y39582857D01*
X49741429Y39297143D01*
X49812858Y39154286D01*
X49884286Y39082857D01*
X50027144Y39011429D01*
X50312858Y39011429D01*
X50455715Y39082857D01*
X50527144Y39154286D01*
X50598572Y39297143D01*
X50598572Y39582857D01*
X50527144Y39725714D01*
X50455715Y39797143D01*
X50312858Y39868571D01*
X1900001Y28654286D02*
X1828572Y28582857D01*
X1614286Y28511429D01*
X1471429Y28511429D01*
X1257144Y28582857D01*
X1114286Y28725714D01*
X1042858Y28868571D01*
X971429Y29154286D01*
X971429Y29368571D01*
X1042858Y29654286D01*
X1114286Y29797143D01*
X1257144Y29940000D01*
X1471429Y30011429D01*
X1614286Y30011429D01*
X1828572Y29940000D01*
X1900001Y29868571D01*
X2400001Y30011429D02*
X3400001Y30011429D01*
X2757144Y28511429D01*
X4240001Y18284286D02*
X4168572Y18212857D01*
X3954286Y18141429D01*
X3811429Y18141429D01*
X3597144Y18212857D01*
X3454286Y18355714D01*
X3382858Y18498571D01*
X3311429Y18784286D01*
X3311429Y18998571D01*
X3382858Y19284286D01*
X3454286Y19427143D01*
X3597144Y19570000D01*
X3811429Y19641429D01*
X3954286Y19641429D01*
X4168572Y19570000D01*
X4240001Y19498571D01*
X5525715Y19641429D02*
X5240001Y19641429D01*
X5097144Y19570000D01*
X5025715Y19498571D01*
X4882858Y19284286D01*
X4811429Y18998571D01*
X4811429Y18427143D01*
X4882858Y18284286D01*
X4954286Y18212857D01*
X5097144Y18141429D01*
X5382858Y18141429D01*
X5525715Y18212857D01*
X5597144Y18284286D01*
X5668572Y18427143D01*
X5668572Y18784286D01*
X5597144Y18927143D01*
X5525715Y18998571D01*
X5382858Y19070000D01*
X5097144Y19070000D01*
X4954286Y18998571D01*
X4882858Y18927143D01*
X4811429Y18784286D01*
X41930001Y34554286D02*
X41858572Y34482857D01*
X41644286Y34411429D01*
X41501429Y34411429D01*
X41287144Y34482857D01*
X41144286Y34625714D01*
X41072858Y34768571D01*
X41001429Y35054286D01*
X41001429Y35268571D01*
X41072858Y35554286D01*
X41144286Y35697143D01*
X41287144Y35840000D01*
X41501429Y35911429D01*
X41644286Y35911429D01*
X41858572Y35840000D01*
X41930001Y35768571D01*
X43287144Y35911429D02*
X42572858Y35911429D01*
X42501429Y35197143D01*
X42572858Y35268571D01*
X42715715Y35340000D01*
X43072858Y35340000D01*
X43215715Y35268571D01*
X43287144Y35197143D01*
X43358572Y35054286D01*
X43358572Y34697143D01*
X43287144Y34554286D01*
X43215715Y34482857D01*
X43072858Y34411429D01*
X42715715Y34411429D01*
X42572858Y34482857D01*
X42501429Y34554286D01*
X28960001Y34514286D02*
X28888572Y34442857D01*
X28674286Y34371429D01*
X28531429Y34371429D01*
X28317144Y34442857D01*
X28174286Y34585714D01*
X28102858Y34728571D01*
X28031429Y35014286D01*
X28031429Y35228571D01*
X28102858Y35514286D01*
X28174286Y35657143D01*
X28317144Y35800000D01*
X28531429Y35871429D01*
X28674286Y35871429D01*
X28888572Y35800000D01*
X28960001Y35728571D01*
X29460001Y35871429D02*
X30388572Y35871429D01*
X29888572Y35300000D01*
X30102858Y35300000D01*
X30245715Y35228571D01*
X30317144Y35157143D01*
X30388572Y35014286D01*
X30388572Y34657143D01*
X30317144Y34514286D01*
X30245715Y34442857D01*
X30102858Y34371429D01*
X29674286Y34371429D01*
X29531429Y34442857D01*
X29460001Y34514286D01*
X43465001Y22099286D02*
X43393572Y22027857D01*
X43179286Y21956429D01*
X43036429Y21956429D01*
X42822144Y22027857D01*
X42679286Y22170714D01*
X42607858Y22313571D01*
X42536429Y22599286D01*
X42536429Y22813571D01*
X42607858Y23099286D01*
X42679286Y23242143D01*
X42822144Y23385000D01*
X43036429Y23456429D01*
X43179286Y23456429D01*
X43393572Y23385000D01*
X43465001Y23313571D01*
X44036429Y23313571D02*
X44107858Y23385000D01*
X44250715Y23456429D01*
X44607858Y23456429D01*
X44750715Y23385000D01*
X44822144Y23313571D01*
X44893572Y23170714D01*
X44893572Y23027857D01*
X44822144Y22813571D01*
X43965001Y21956429D01*
X44893572Y21956429D01*
X52235715Y34124286D02*
X52164286Y34052857D01*
X51950000Y33981429D01*
X51807143Y33981429D01*
X51592858Y34052857D01*
X51450000Y34195714D01*
X51378572Y34338571D01*
X51307143Y34624286D01*
X51307143Y34838571D01*
X51378572Y35124286D01*
X51450000Y35267143D01*
X51592858Y35410000D01*
X51807143Y35481429D01*
X51950000Y35481429D01*
X52164286Y35410000D01*
X52235715Y35338571D01*
X53664286Y33981429D02*
X52807143Y33981429D01*
X53235715Y33981429D02*
X53235715Y35481429D01*
X53092858Y35267143D01*
X52950000Y35124286D01*
X52807143Y35052857D01*
X55092857Y33981429D02*
X54235714Y33981429D01*
X54664286Y33981429D02*
X54664286Y35481429D01*
X54521429Y35267143D01*
X54378571Y35124286D01*
X54235714Y35052857D01*
X27188571Y10820000D02*
X28260000Y10820000D01*
X28474286Y10748572D01*
X28617143Y10605715D01*
X28688571Y10391429D01*
X28688571Y10248572D01*
X27331429Y11462857D02*
X27260000Y11534286D01*
X27188571Y11677143D01*
X27188571Y12034286D01*
X27260000Y12177143D01*
X27331429Y12248572D01*
X27474286Y12320000D01*
X27617143Y12320000D01*
X27831429Y12248572D01*
X28688571Y11391429D01*
X28688571Y12320000D01*
X31338571Y37662858D02*
X29838571Y37662858D01*
X29838571Y38234286D01*
X29910000Y38377144D01*
X29981429Y38448572D01*
X30124286Y38520001D01*
X30338571Y38520001D01*
X30481429Y38448572D01*
X30552857Y38377144D01*
X30624286Y38234286D01*
X30624286Y37662858D01*
X31338571Y39948572D02*
X31338571Y39091429D01*
X31338571Y39520001D02*
X29838571Y39520001D01*
X30052857Y39377144D01*
X30195714Y39234286D01*
X30267143Y39091429D01*
M02*
