G04 #@! TF.FileFunction,Copper,L2,Bot,Signal*
%FSLAX46Y46*%
G04 Gerber Fmt 4.6, Leading zero omitted, Abs format (unit mm)*
G04 Created by KiCad (PCBNEW 4.0.0-rc1-stable) date 27.2.2017 11:51:30*
%MOMM*%
G01*
G04 APERTURE LIST*
%ADD10C,0.100000*%
%ADD11R,1.727200X2.032000*%
%ADD12O,1.727200X2.032000*%
%ADD13R,2.032000X2.032000*%
%ADD14O,2.032000X2.032000*%
%ADD15C,1.506220*%
%ADD16R,1.500000X1.250000*%
%ADD17R,1.200000X0.900000*%
%ADD18R,0.900000X1.200000*%
%ADD19R,1.727200X1.727200*%
%ADD20O,1.727200X1.727200*%
%ADD21O,1.500000X1.200000*%
%ADD22O,1.600000X1.200000*%
%ADD23R,2.000000X1.000000*%
%ADD24R,1.000000X2.000000*%
%ADD25O,1.000000X1.500000*%
%ADD26C,0.800000*%
%ADD27C,0.400000*%
%ADD28C,0.500000*%
%ADD29C,0.600000*%
%ADD30C,0.800000*%
%ADD31C,0.300000*%
G04 APERTURE END LIST*
D10*
D11*
X3434080Y21087080D03*
D12*
X5974080Y21087080D03*
X8514080Y21087080D03*
X11054080Y21087080D03*
X13594080Y21087080D03*
X16134080Y21087080D03*
X18674080Y21087080D03*
X21214080Y21087080D03*
D13*
X12020000Y30170000D03*
D14*
X14560000Y30170000D03*
D13*
X28030000Y30540000D03*
D14*
X30570000Y30540000D03*
D15*
X55740000Y26420000D03*
X55740000Y28960000D03*
X43040000Y26420000D03*
X43040000Y28960000D03*
X45580000Y26420000D03*
X45580000Y28960000D03*
X48120000Y26420000D03*
X48120000Y28960000D03*
X50660000Y26420000D03*
X50660000Y28960000D03*
X53200000Y26420000D03*
X53200000Y28960000D03*
D16*
X28035000Y27090000D03*
X30535000Y27090000D03*
D17*
X28210000Y24580000D03*
X30410000Y24580000D03*
D18*
X27060000Y7720000D03*
X27060000Y9920000D03*
D19*
X32810000Y12240000D03*
D20*
X30270000Y12240000D03*
X32810000Y9700000D03*
X30270000Y9700000D03*
D21*
X37430000Y34470000D03*
D22*
X37430000Y36070000D03*
X35600000Y36070000D03*
X33770000Y36070000D03*
X33770000Y34470000D03*
X35600000Y34470000D03*
D23*
X24030000Y4680000D03*
X24030000Y5950000D03*
X24030000Y7220000D03*
X24030000Y8490000D03*
X24030000Y9760000D03*
X24030000Y11030000D03*
X24030000Y3410000D03*
X24030000Y12300000D03*
X24030000Y13570000D03*
X24030000Y14840000D03*
X24030000Y16110000D03*
D24*
X8010000Y1660000D03*
X9280000Y1660000D03*
X10550000Y1660000D03*
X11820000Y1660000D03*
X13090000Y1660000D03*
X14360000Y1660000D03*
X15630000Y1660000D03*
X16900000Y1660000D03*
X18170000Y1660000D03*
X19440000Y1660000D03*
X20710000Y1660000D03*
X21980000Y1660000D03*
X8010000Y17860000D03*
X9280000Y17860000D03*
X10550000Y17860000D03*
X11820000Y17860000D03*
X13090000Y17860000D03*
X14360000Y17860000D03*
X15630000Y17860000D03*
X16900000Y17860000D03*
X18170000Y17860000D03*
X19440000Y17860000D03*
X20710000Y17860000D03*
X21980000Y17860000D03*
D25*
X8440720Y25270460D03*
X9690720Y25270460D03*
X10940720Y25270460D03*
X12190720Y25270460D03*
X13440720Y25270460D03*
X14690720Y25270460D03*
X15940720Y25270460D03*
X17190720Y25270460D03*
D26*
X27908380Y34781620D03*
X26151840Y17084040D03*
X14516100Y23868380D03*
X16416020Y14671040D03*
X12484100Y27720000D03*
X16479520Y34315400D03*
X1831340Y32440880D03*
X2387600Y30109160D03*
X11602720Y33197800D03*
X16163000Y27720000D03*
X22433280Y26126440D03*
X18496280Y9525000D03*
X21963380Y9481820D03*
X59970000Y27800000D03*
X58130000Y31210000D03*
X64720000Y25540000D03*
X34540000Y29210000D03*
X37660000Y18050000D03*
X25790000Y8490000D03*
X53340000Y35940000D03*
X49050000Y37830000D03*
X22160000Y36880000D03*
X30410000Y25680000D03*
X25790000Y9760000D03*
X39100000Y31100000D03*
X39100000Y28020000D03*
X45180000Y32240000D03*
X26890000Y36500000D03*
X41410000Y30380000D03*
X41410000Y28060000D03*
X18570000Y35910000D03*
X10548620Y16309340D03*
X19403060Y25232360D03*
X36660000Y15390000D03*
X25735280Y19425920D03*
X13093700Y16271240D03*
X14061440Y14224000D03*
X13223240Y9794240D03*
X19446240Y24069040D03*
X26192480Y18481040D03*
X35720000Y14560000D03*
X9342120Y14732000D03*
X9342120Y9481820D03*
X14358620Y16271240D03*
X27790000Y14080000D03*
X27560000Y21130000D03*
X40600000Y20990000D03*
X26830000Y12300000D03*
X31640000Y21280000D03*
X28820000Y15200000D03*
X40750000Y19650000D03*
X29290000Y19160000D03*
X29960000Y15480000D03*
X30610000Y20590000D03*
X37780000Y28010000D03*
X30480000Y5480000D03*
X36620000Y27510000D03*
X29090000Y5570000D03*
X18550000Y30120000D03*
X19910000Y32550000D03*
X20060000Y35140000D03*
X23876000Y17429480D03*
X21163280Y15981680D03*
X25050000Y30020000D03*
X25880000Y38450000D03*
X25050000Y32680000D03*
X27000000Y24580000D03*
X19773900Y9461500D03*
X22169120Y15143480D03*
X18747740Y15981680D03*
X43930000Y21390000D03*
X18171160Y3068320D03*
X19438620Y3088640D03*
X28110180Y2245360D03*
X30177740Y2245360D03*
X27091640Y5999480D03*
X10627360Y10012680D03*
X10627360Y3779520D03*
X12613640Y3606800D03*
X21483320Y4155440D03*
X15097760Y9799320D03*
X21200000Y30200000D03*
X20060000Y38580000D03*
X22490000Y32550000D03*
X23309580Y18442940D03*
X23850000Y32670000D03*
X24260000Y38780000D03*
X23850000Y30060000D03*
X19905980Y15981680D03*
X8148320Y9014460D03*
D27*
X27908380Y34781620D02*
X27914600Y34787840D01*
X9690720Y25270460D02*
X9690720Y23966820D01*
X9789160Y23868380D02*
X14516100Y23868380D01*
X9690720Y23966820D02*
X9789160Y23868380D01*
D28*
X12484100Y27720000D02*
X12484100Y27724100D01*
X12821920Y33197800D02*
X13431520Y33807400D01*
X13431520Y33807400D02*
X14914880Y33807400D01*
X14914880Y33807400D02*
X15422880Y34315400D01*
X15422880Y34315400D02*
X16479520Y34315400D01*
X2387600Y31884620D02*
X1831340Y32440880D01*
X2387600Y30109160D02*
X2387600Y31884620D01*
X11602720Y33197800D02*
X12821920Y33197800D01*
X16163000Y27720000D02*
X16154400Y27711400D01*
D27*
X20647660Y8166100D02*
X19227800Y8166100D01*
X19227800Y8166100D02*
X18496280Y8897620D01*
X18496280Y8897620D02*
X18496280Y9525000D01*
X21963380Y9481820D02*
X20647660Y8166100D01*
D29*
X22955200Y8490000D02*
X24030000Y8490000D01*
X22955200Y8490000D02*
X21963380Y9481820D01*
D27*
X59970000Y29370000D02*
X59970000Y27800000D01*
X58130000Y31210000D02*
X59970000Y29370000D01*
D30*
X34540000Y29210000D02*
X34540000Y33070000D01*
X33770000Y33840000D02*
X33770000Y34470000D01*
X34540000Y33070000D02*
X33770000Y33840000D01*
X36530000Y12810000D02*
X36530000Y13480000D01*
X38520000Y17190000D02*
X37660000Y18050000D01*
X38520000Y15470000D02*
X38520000Y17190000D01*
X36530000Y13480000D02*
X38520000Y15470000D01*
X36530000Y12810000D02*
X33420000Y9700000D01*
X33420000Y9700000D02*
X32810000Y9700000D01*
X24030000Y8490000D02*
X25790000Y8490000D01*
X25790000Y8490000D02*
X26290000Y8490000D01*
X26290000Y8490000D02*
X27060000Y7720000D01*
X27060000Y7720000D02*
X30830000Y7720000D01*
X30830000Y7720000D02*
X32810000Y9700000D01*
X51450000Y37830000D02*
X53340000Y35940000D01*
X49050000Y37830000D02*
X51450000Y37830000D01*
X30535000Y27090000D02*
X30410000Y26965000D01*
X30410000Y26965000D02*
X30410000Y25680000D01*
X30410000Y25680000D02*
X30410000Y24580000D01*
D28*
X39100000Y31100000D02*
X39100000Y31130000D01*
X28640000Y10600000D02*
X28650000Y10600000D01*
X28600000Y10560000D02*
X28640000Y10600000D01*
D30*
X24030000Y9760000D02*
X25790000Y9760000D01*
X25790000Y9760000D02*
X26900000Y9760000D01*
X26900000Y9760000D02*
X27060000Y9920000D01*
X27060000Y9920000D02*
X27970000Y9920000D01*
X27970000Y9920000D02*
X28650000Y10600000D01*
X31200000Y13850000D02*
X32810000Y12240000D01*
X28650000Y10600000D02*
X28650000Y12940000D01*
X28650000Y12940000D02*
X29560000Y13850000D01*
X29560000Y13850000D02*
X31200000Y13850000D01*
X39100000Y28020000D02*
X39100000Y31130000D01*
X39100000Y31130000D02*
X40210000Y32240000D01*
X40210000Y32240000D02*
X45180000Y32240000D01*
X14560000Y30170000D02*
X15120000Y30170000D01*
X15120000Y30170000D02*
X16220000Y31270000D01*
X16220000Y31270000D02*
X25320000Y31270000D01*
X29490000Y32320000D02*
X29490000Y35790000D01*
X28780000Y36500000D02*
X26890000Y36500000D01*
X29490000Y35790000D02*
X28780000Y36500000D01*
X41410000Y30380000D02*
X41410000Y28060000D01*
X25320000Y31270000D02*
X26370000Y32320000D01*
X29490000Y32320000D02*
X26370000Y32320000D01*
X30570000Y31240000D02*
X29490000Y32320000D01*
X30570000Y30540000D02*
X30570000Y31240000D01*
X17910000Y32650000D02*
X15580000Y32650000D01*
X18570000Y33310000D02*
X17910000Y32650000D01*
X18570000Y35910000D02*
X18570000Y33310000D01*
X14200000Y32380000D02*
X15310000Y32380000D01*
X14200000Y32380000D02*
X12020000Y30200000D01*
X15580000Y32650000D02*
X15310000Y32380000D01*
X12020000Y30170000D02*
X12020000Y30200000D01*
D28*
X10548620Y17858620D02*
X10548620Y16309340D01*
X10548620Y17858620D02*
X10550000Y17860000D01*
D27*
X13007340Y22702520D02*
X14676120Y22702520D01*
X15430500Y23456900D02*
X16652240Y23456900D01*
X14676120Y22702520D02*
X15430500Y23456900D01*
X17907000Y24061420D02*
X17256760Y24061420D01*
X17256760Y24061420D02*
X16652240Y23456900D01*
X19077940Y25232360D02*
X19403060Y25232360D01*
X12324080Y22019260D02*
X13007340Y22702520D01*
X13090000Y17860000D02*
X13090000Y19422000D01*
X12324080Y20187920D02*
X12324080Y21645880D01*
X13090000Y19422000D02*
X12324080Y20187920D01*
X12324080Y21645880D02*
X12324080Y22019260D01*
X17907000Y24061420D02*
X18392140Y24546560D01*
X18392140Y24546560D02*
X19077940Y25232360D01*
X29150000Y17980000D02*
X27704080Y19425920D01*
X34070000Y17980000D02*
X36660000Y15390000D01*
X34070000Y17980000D02*
X29150000Y17980000D01*
X27704080Y19425920D02*
X25735280Y19425920D01*
D28*
X13090000Y16274940D02*
X13093700Y16271240D01*
X13090000Y17860000D02*
X13090000Y16274940D01*
X13223240Y13385800D02*
X14061440Y14224000D01*
X13223240Y9794240D02*
X13223240Y13385800D01*
D27*
X14861540Y21330920D02*
X14861540Y21912580D01*
X15722600Y22773640D02*
X17094200Y22773640D01*
X14861540Y21912580D02*
X15722600Y22773640D01*
X18765520Y23388320D02*
X17708880Y23388320D01*
X17708880Y23388320D02*
X17094200Y22773640D01*
X27478960Y18481040D02*
X27712640Y18247360D01*
X14360000Y17860000D02*
X14360000Y19709240D01*
X14861540Y20210780D02*
X14861540Y21330920D01*
X14360000Y19709240D02*
X14861540Y20210780D01*
X18765520Y23388320D02*
X19446240Y24069040D01*
X28820000Y17140000D02*
X27712640Y18247360D01*
X30110000Y17140000D02*
X28820000Y17140000D01*
X33140000Y17140000D02*
X30110000Y17140000D01*
X33140000Y17140000D02*
X35720000Y14560000D01*
X26192480Y18481040D02*
X27478960Y18481040D01*
D28*
X9342120Y13848080D02*
X9342120Y9481820D01*
X9342120Y14732000D02*
X9342120Y13848080D01*
X14360000Y17860000D02*
X14360000Y16272620D01*
X14360000Y16272620D02*
X14358620Y16271240D01*
D27*
X25830000Y11030000D02*
X27120000Y11030000D01*
X27790000Y13430000D02*
X27790000Y14080000D01*
X27690000Y13330000D02*
X27790000Y13430000D01*
X27690000Y11600000D02*
X27690000Y13330000D01*
X27120000Y11030000D02*
X27690000Y11600000D01*
X24030000Y11030000D02*
X25830000Y11030000D01*
X27560000Y21130000D02*
X28680000Y21130000D01*
X28680000Y21130000D02*
X29620000Y20190000D01*
X32470000Y19580000D02*
X30230000Y19580000D01*
X39740000Y21850000D02*
X34740000Y21850000D01*
X34740000Y21850000D02*
X32470000Y19580000D01*
X40600000Y20990000D02*
X39740000Y21850000D01*
X30230000Y19580000D02*
X29620000Y20190000D01*
X25630000Y12300000D02*
X24030000Y12300000D01*
X26830000Y12300000D02*
X25630000Y12300000D01*
X31640000Y21280000D02*
X33730000Y23370000D01*
X41720000Y24320000D02*
X41720000Y26960000D01*
X40770000Y23370000D02*
X41720000Y24320000D01*
X33730000Y23370000D02*
X40770000Y23370000D01*
X41790000Y27030000D02*
X41720000Y26960000D01*
X47440000Y28960000D02*
X46120000Y30280000D01*
X46120000Y30280000D02*
X45040000Y30280000D01*
X45040000Y30280000D02*
X44310000Y29550000D01*
X44310000Y29550000D02*
X44310000Y28120000D01*
X44310000Y28120000D02*
X43880000Y27690000D01*
X43880000Y27690000D02*
X42450000Y27690000D01*
X42450000Y27690000D02*
X41790000Y27030000D01*
X48120000Y28960000D02*
X47440000Y28960000D01*
X24030000Y13570000D02*
X25740000Y13570000D01*
X25740000Y13570000D02*
X27370000Y15200000D01*
X27370000Y15200000D02*
X28820000Y15200000D01*
X29290000Y19160000D02*
X29640000Y18810000D01*
X40490000Y19650000D02*
X39130000Y21010000D01*
X39130000Y21010000D02*
X35050000Y21010000D01*
X35050000Y21010000D02*
X33510000Y19470000D01*
X40750000Y19650000D02*
X40490000Y19650000D01*
X32850000Y18810000D02*
X33510000Y19470000D01*
X29640000Y18810000D02*
X32850000Y18810000D01*
X24030000Y14840000D02*
X25450000Y14840000D01*
X29000000Y16440000D02*
X29960000Y15480000D01*
X27050000Y16440000D02*
X29000000Y16440000D01*
X25450000Y14840000D02*
X27050000Y16440000D01*
X33825000Y22045000D02*
X34390000Y22610000D01*
X30920000Y20280000D02*
X32060000Y20280000D01*
X32060000Y20280000D02*
X32720000Y20940000D01*
X49390000Y27690000D02*
X45080000Y27690000D01*
X45080000Y27690000D02*
X44310000Y26920000D01*
X44310000Y26920000D02*
X44310000Y25720000D01*
X44310000Y25720000D02*
X43690000Y25100000D01*
X50660000Y28960000D02*
X49390000Y27690000D01*
X30610000Y20590000D02*
X30920000Y20280000D01*
X32720000Y20940000D02*
X33825000Y22045000D01*
X41300000Y22710000D02*
X43690000Y25100000D01*
X41200000Y22610000D02*
X41300000Y22710000D01*
X34390000Y22610000D02*
X41200000Y22610000D01*
X24030000Y4680000D02*
X25218340Y4680000D01*
X29142740Y4142740D02*
X29680000Y4680000D01*
X25755600Y4142740D02*
X29142740Y4142740D01*
X25218340Y4680000D02*
X25755600Y4142740D01*
X37780000Y31770000D02*
X37780000Y28010000D01*
X38100000Y32090000D02*
X37780000Y31770000D01*
X39600000Y35770000D02*
X39600000Y33590000D01*
X39600000Y33590000D02*
X38100000Y32090000D01*
D31*
X36550000Y37020000D02*
X35600000Y36070000D01*
X36550000Y37020000D02*
X38350000Y37020000D01*
X38350000Y37020000D02*
X38840000Y36530000D01*
D27*
X38840000Y36530000D02*
X39600000Y35770000D01*
X29680000Y4680000D02*
X30480000Y5480000D01*
X24140000Y4790000D02*
X24030000Y4680000D01*
X24030000Y5950000D02*
X25022760Y5950000D01*
X25022760Y5950000D02*
X26093420Y4879340D01*
X28399340Y4879340D02*
X29090000Y5570000D01*
X26093420Y4879340D02*
X28399340Y4879340D01*
X36620000Y31890000D02*
X36620000Y27510000D01*
X37580000Y36070000D02*
X38720000Y34930000D01*
X38720000Y34930000D02*
X38720000Y33990000D01*
X38720000Y33990000D02*
X37810000Y33080000D01*
X37810000Y33080000D02*
X36620000Y31890000D01*
X37430000Y36070000D02*
X37580000Y36070000D01*
X28950000Y5710000D02*
X29090000Y5570000D01*
X24030000Y5950000D02*
X24270000Y5710000D01*
X24030000Y5950000D02*
X24160000Y5820000D01*
X18816320Y22743160D02*
X19507200Y22743160D01*
X20477480Y23713440D02*
X20477480Y24404320D01*
X19507200Y22743160D02*
X20477480Y23713440D01*
X19182080Y29487920D02*
X20477480Y28192520D01*
X20477480Y28192520D02*
X20477480Y24404320D01*
X17399000Y21978620D02*
X18163540Y22743160D01*
X18163540Y22743160D02*
X18816320Y22743160D01*
X17399000Y21125180D02*
X17399000Y21978620D01*
X19182080Y29487920D02*
X18550000Y30120000D01*
X16900000Y19627960D02*
X17399000Y20126960D01*
X17399000Y20126960D02*
X17399000Y21125180D01*
X16900000Y19627960D02*
X16900000Y17860000D01*
D28*
X20060000Y35140000D02*
X19910000Y34990000D01*
X19910000Y34990000D02*
X19910000Y32550000D01*
D27*
X16900000Y8832960D02*
X15321280Y7254240D01*
X15321280Y4505960D02*
X16900000Y2927240D01*
X15321280Y7254240D02*
X15321280Y4505960D01*
X19819620Y14097000D02*
X17414240Y11691620D01*
X17414240Y11691620D02*
X17414240Y9347200D01*
X20873720Y15692120D02*
X21163280Y15981680D01*
X20873720Y15151100D02*
X20873720Y15692120D01*
X19819620Y14097000D02*
X20873720Y15151100D01*
X24612600Y18166080D02*
X23876000Y17429480D01*
X24612600Y19240500D02*
X24612600Y29108400D01*
X25050000Y29545800D02*
X24612600Y29108400D01*
X25050000Y30020000D02*
X25050000Y29545800D01*
X24612600Y19240500D02*
X24612600Y18166080D01*
X17251680Y9184640D02*
X17414240Y9347200D01*
X16900000Y2927240D02*
X16900000Y1660000D01*
X17251680Y9184640D02*
X16900000Y8832960D01*
X25050000Y30020000D02*
X25050000Y29820000D01*
X25880000Y38450000D02*
X25880000Y33510000D01*
X25880000Y33510000D02*
X25050000Y32680000D01*
D30*
X28210000Y24580000D02*
X27000000Y24580000D01*
X28030000Y30540000D02*
X28035000Y30535000D01*
X28035000Y30535000D02*
X28035000Y27090000D01*
X28035000Y27090000D02*
X28210000Y26915000D01*
X28210000Y26915000D02*
X28210000Y24580000D01*
D28*
X17200880Y15981680D02*
X15681960Y15981680D01*
X15681960Y15981680D02*
X14952980Y15252700D01*
D27*
X22169120Y15143480D02*
X19773900Y12748260D01*
D28*
X14856460Y15252700D02*
X14952980Y15252700D01*
X14546580Y15252700D02*
X14856460Y15252700D01*
X14305280Y15252700D02*
X14546580Y15252700D01*
X12486640Y15252700D02*
X14305280Y15252700D01*
X11820000Y15919340D02*
X11820000Y17860000D01*
X11820000Y15919340D02*
X12486640Y15252700D01*
X18747740Y15981680D02*
X17200880Y15981680D01*
D27*
X19773900Y12748260D02*
X19773900Y9461500D01*
D28*
X11821160Y16383000D02*
X11821160Y17858840D01*
X11821160Y17858840D02*
X11820000Y17860000D01*
D30*
X18170000Y1660000D02*
X18170000Y3067160D01*
X18170000Y3067160D02*
X18171160Y3068320D01*
D27*
X43930000Y21390000D02*
X46080000Y23540000D01*
X46080000Y23540000D02*
X46720000Y23540000D01*
X46720000Y23540000D02*
X46730000Y23550000D01*
X55740000Y24970000D02*
X54320000Y23550000D01*
X46730000Y23550000D02*
X46950000Y23550000D01*
X55740000Y26420000D02*
X55740000Y24970000D01*
X54320000Y23550000D02*
X46950000Y23550000D01*
X43930000Y21390000D02*
X43950000Y21390000D01*
D30*
X19440000Y3087260D02*
X19438620Y3088640D01*
X19440000Y1660000D02*
X19440000Y3087260D01*
D27*
X28110180Y2245360D02*
X30177740Y2245360D01*
X30177740Y2245360D02*
X30177740Y2258060D01*
D29*
X10627360Y3779520D02*
X10627360Y10012680D01*
D27*
X24030000Y7220000D02*
X25177700Y7220000D01*
X28021280Y5999480D02*
X27091640Y5999480D01*
X29270960Y6570000D02*
X28591800Y6570000D01*
X37485000Y12365000D02*
X37485000Y12975000D01*
X39480000Y14970000D02*
X39480000Y16130000D01*
X37485000Y12975000D02*
X39480000Y14970000D01*
X42010000Y20710000D02*
X42010000Y18660000D01*
X46350000Y25050000D02*
X51830000Y25050000D01*
X51830000Y25050000D02*
X53200000Y26420000D01*
X46350000Y25050000D02*
X44810000Y25050000D01*
X42010000Y20710000D02*
X42010000Y22250000D01*
X42010000Y22250000D02*
X44810000Y25050000D01*
X42010000Y18660000D02*
X39480000Y16130000D01*
X36610000Y11490000D02*
X37485000Y12365000D01*
X35090000Y9970000D02*
X36610000Y11490000D01*
X31690000Y6570000D02*
X35090000Y9970000D01*
X29270960Y6570000D02*
X31690000Y6570000D01*
X28591800Y6570000D02*
X28021280Y5999480D01*
X26398220Y5999480D02*
X27091640Y5999480D01*
X25177700Y7220000D02*
X26398220Y5999480D01*
X25010060Y7220000D02*
X24030000Y7220000D01*
D29*
X22228760Y3410000D02*
X21483320Y4155440D01*
X24030000Y3410000D02*
X22228760Y3410000D01*
D27*
X12613640Y7315200D02*
X12613640Y3606800D01*
X15097760Y9799320D02*
X12613640Y7315200D01*
X38450000Y12270000D02*
X38450000Y12840000D01*
X40270000Y14660000D02*
X40270000Y15740000D01*
X38450000Y12840000D02*
X40270000Y14660000D01*
X28270000Y3410000D02*
X30120000Y3410000D01*
X30120000Y3410000D02*
X31840000Y5130000D01*
X42850000Y20440000D02*
X42850000Y18320000D01*
X54470000Y27690000D02*
X54470000Y25850000D01*
X53200000Y28960000D02*
X54470000Y27690000D01*
X46720000Y24310000D02*
X52930000Y24310000D01*
X52930000Y24310000D02*
X54470000Y25850000D01*
X46720000Y24310000D02*
X45330000Y24310000D01*
X42850000Y20440000D02*
X42850000Y21830000D01*
X42850000Y21830000D02*
X45330000Y24310000D01*
X42850000Y18320000D02*
X40270000Y15740000D01*
X37390000Y11210000D02*
X38450000Y12270000D01*
X31840000Y5130000D02*
X31840000Y5660000D01*
X35630000Y9450000D02*
X37390000Y11210000D01*
X31840000Y5660000D02*
X35630000Y9450000D01*
X24030000Y3410000D02*
X28270000Y3410000D01*
X21200000Y30200000D02*
X21200000Y23425040D01*
X21200000Y23425040D02*
X19939000Y22164040D01*
X19433540Y19481800D02*
X18511520Y19481800D01*
X18511520Y19481800D02*
X18170000Y19140280D01*
X18170000Y19140280D02*
X18170000Y17860000D01*
X19939000Y21158200D02*
X19939000Y19987260D01*
X19939000Y19987260D02*
X19433540Y19481800D01*
X19939000Y22164040D02*
X19939000Y21158200D01*
D28*
X20060000Y38580000D02*
X21090000Y37550000D01*
X21730000Y32550000D02*
X22490000Y32550000D01*
X21090000Y33190000D02*
X21730000Y32550000D01*
X21090000Y37550000D02*
X21090000Y33190000D01*
D27*
X19537680Y14970760D02*
X16438880Y11871960D01*
X16438880Y11871960D02*
X16438880Y9839960D01*
X19905980Y15339060D02*
X19905980Y15981680D01*
X19537680Y14970760D02*
X19905980Y15339060D01*
X23850000Y30060000D02*
X23652480Y29862480D01*
X23850000Y38370000D02*
X23850000Y32670000D01*
X24260000Y38780000D02*
X23850000Y38370000D01*
X23652480Y29862480D02*
X23652480Y21323300D01*
X23652480Y21323300D02*
X23652480Y18785840D01*
X23652480Y18785840D02*
X23309580Y18442940D01*
X14360000Y7761080D02*
X14360000Y1660000D01*
X14360000Y7761080D02*
X16438880Y9839960D01*
D29*
X8010000Y17860000D02*
X8010000Y9152780D01*
X8010000Y9152780D02*
X8148320Y9014460D01*
D27*
G36*
X39885836Y19122793D02*
X39901747Y19084286D01*
X40182806Y18802736D01*
X40550215Y18650174D01*
X40868526Y18649896D01*
X38914315Y16695685D01*
X38740896Y16436147D01*
X38680000Y16130000D01*
X38680000Y15301370D01*
X36919315Y13540685D01*
X36745896Y13281147D01*
X36685000Y12975000D01*
X36685000Y12696371D01*
X36044318Y12055688D01*
X36044315Y12055686D01*
X34524317Y10535687D01*
X34524314Y10535685D01*
X31358630Y7370000D01*
X28591800Y7370000D01*
X28316300Y7315200D01*
X28285653Y7309104D01*
X28026114Y7135685D01*
X27697970Y6807540D01*
X27658834Y6846744D01*
X27291425Y6999306D01*
X26893600Y6999653D01*
X26635898Y6893172D01*
X25743385Y7785685D01*
X25613002Y7872805D01*
X25599917Y7942346D01*
X25468510Y8146558D01*
X25268007Y8283556D01*
X25030000Y8331754D01*
X23030000Y8331754D01*
X22807654Y8289917D01*
X22603442Y8158510D01*
X22466444Y7958007D01*
X22418246Y7720000D01*
X22418246Y6720000D01*
X22444581Y6580043D01*
X22418246Y6450000D01*
X22418246Y5450000D01*
X22444581Y5310043D01*
X22418246Y5180000D01*
X22418246Y4511390D01*
X22331573Y4721154D01*
X22050514Y5002704D01*
X21683105Y5155266D01*
X21285280Y5155613D01*
X20917606Y5003693D01*
X20636056Y4722634D01*
X20483494Y4355225D01*
X20483147Y3957400D01*
X20635067Y3589726D01*
X20916126Y3308176D01*
X21003840Y3271754D01*
X20438780Y3271754D01*
X20438793Y3286680D01*
X20364632Y3466163D01*
X20363880Y3469944D01*
X20361757Y3473122D01*
X20286873Y3654354D01*
X20147113Y3794358D01*
X20147107Y3794367D01*
X20145726Y3795748D01*
X20005814Y3935904D01*
X19821306Y4012519D01*
X19821304Y4012520D01*
X19821302Y4012520D01*
X19638405Y4088466D01*
X19240580Y4088813D01*
X19055938Y4012520D01*
X19055936Y4012520D01*
X19055934Y4012519D01*
X18872906Y3936893D01*
X18794858Y3858981D01*
X18738354Y3915584D01*
X18370945Y4068146D01*
X17973120Y4068493D01*
X17605446Y3916573D01*
X17323896Y3635514D01*
X17323662Y3634949D01*
X16121280Y4837330D01*
X16121280Y6922870D01*
X17465685Y8267274D01*
X17465687Y8267277D01*
X17817366Y8618955D01*
X17817368Y8618958D01*
X17979926Y8781515D01*
X18153344Y9041053D01*
X18214240Y9347200D01*
X18214240Y11360250D01*
X18973900Y12119910D01*
X18973900Y10075876D01*
X18926636Y10028694D01*
X18774074Y9661285D01*
X18773727Y9263460D01*
X18925647Y8895786D01*
X19206706Y8614236D01*
X19574115Y8461674D01*
X19971940Y8461327D01*
X20339614Y8613247D01*
X20621164Y8894306D01*
X20773726Y9261715D01*
X20774073Y9659540D01*
X20622153Y10027214D01*
X20573900Y10075551D01*
X20573900Y12416890D01*
X22300376Y14143365D01*
X22367160Y14143307D01*
X22439112Y14173037D01*
X22418246Y14070000D01*
X22418246Y13070000D01*
X22444581Y12930043D01*
X22418246Y12800000D01*
X22418246Y11800000D01*
X22444581Y11660043D01*
X22418246Y11530000D01*
X22418246Y10530000D01*
X22444581Y10390043D01*
X22418246Y10260000D01*
X22418246Y9260000D01*
X22460083Y9037654D01*
X22591490Y8833442D01*
X22791993Y8696444D01*
X23030000Y8648246D01*
X25030000Y8648246D01*
X25252346Y8690083D01*
X25361000Y8760000D01*
X25789701Y8760000D01*
X25988040Y8759827D01*
X25988459Y8760000D01*
X26366789Y8760000D01*
X26371993Y8756444D01*
X26610000Y8708246D01*
X27510000Y8708246D01*
X27732346Y8750083D01*
X27936558Y8881490D01*
X27962871Y8920000D01*
X27970000Y8920000D01*
X28352684Y8996120D01*
X28677107Y9212893D01*
X28861008Y9396794D01*
X28917810Y9111231D01*
X29235079Y8636405D01*
X29709905Y8319136D01*
X30270000Y8207726D01*
X30830095Y8319136D01*
X31304921Y8636405D01*
X31622190Y9111231D01*
X31733600Y9671326D01*
X31733600Y9728674D01*
X31622190Y10288769D01*
X31304921Y10763595D01*
X30996014Y10970000D01*
X31304921Y11176405D01*
X31357477Y11255061D01*
X31376483Y11154054D01*
X31507890Y10949842D01*
X31708393Y10812844D01*
X31946400Y10764646D01*
X33673600Y10764646D01*
X33895946Y10806483D01*
X34100158Y10937890D01*
X34237156Y11138393D01*
X34285354Y11376400D01*
X34285354Y13103600D01*
X34243517Y13325946D01*
X34112110Y13530158D01*
X33911607Y13667156D01*
X33673600Y13715354D01*
X32748860Y13715354D01*
X31907107Y14557107D01*
X31582684Y14773880D01*
X31200000Y14850000D01*
X30744348Y14850000D01*
X30807264Y14912806D01*
X30959826Y15280215D01*
X30960173Y15678040D01*
X30808253Y16045714D01*
X30527194Y16327264D01*
X30496522Y16340000D01*
X32808630Y16340000D01*
X34719885Y14428745D01*
X34719827Y14361960D01*
X34871747Y13994286D01*
X35152806Y13712736D01*
X35520215Y13560174D01*
X35918040Y13559827D01*
X36285714Y13711747D01*
X36567264Y13992806D01*
X36719826Y14360215D01*
X36719852Y14389948D01*
X36858040Y14389827D01*
X37225714Y14541747D01*
X37507264Y14822806D01*
X37659826Y15190215D01*
X37660173Y15588040D01*
X37508253Y15955714D01*
X37227194Y16237264D01*
X36859785Y16389826D01*
X36791485Y16389886D01*
X34635685Y18545685D01*
X34376147Y18719104D01*
X34070000Y18780000D01*
X33951370Y18780000D01*
X34075685Y18904315D01*
X35381371Y20210000D01*
X38798630Y20210000D01*
X39885836Y19122793D01*
X39885836Y19122793D01*
G37*
X39885836Y19122793D02*
X39901747Y19084286D01*
X40182806Y18802736D01*
X40550215Y18650174D01*
X40868526Y18649896D01*
X38914315Y16695685D01*
X38740896Y16436147D01*
X38680000Y16130000D01*
X38680000Y15301370D01*
X36919315Y13540685D01*
X36745896Y13281147D01*
X36685000Y12975000D01*
X36685000Y12696371D01*
X36044318Y12055688D01*
X36044315Y12055686D01*
X34524317Y10535687D01*
X34524314Y10535685D01*
X31358630Y7370000D01*
X28591800Y7370000D01*
X28316300Y7315200D01*
X28285653Y7309104D01*
X28026114Y7135685D01*
X27697970Y6807540D01*
X27658834Y6846744D01*
X27291425Y6999306D01*
X26893600Y6999653D01*
X26635898Y6893172D01*
X25743385Y7785685D01*
X25613002Y7872805D01*
X25599917Y7942346D01*
X25468510Y8146558D01*
X25268007Y8283556D01*
X25030000Y8331754D01*
X23030000Y8331754D01*
X22807654Y8289917D01*
X22603442Y8158510D01*
X22466444Y7958007D01*
X22418246Y7720000D01*
X22418246Y6720000D01*
X22444581Y6580043D01*
X22418246Y6450000D01*
X22418246Y5450000D01*
X22444581Y5310043D01*
X22418246Y5180000D01*
X22418246Y4511390D01*
X22331573Y4721154D01*
X22050514Y5002704D01*
X21683105Y5155266D01*
X21285280Y5155613D01*
X20917606Y5003693D01*
X20636056Y4722634D01*
X20483494Y4355225D01*
X20483147Y3957400D01*
X20635067Y3589726D01*
X20916126Y3308176D01*
X21003840Y3271754D01*
X20438780Y3271754D01*
X20438793Y3286680D01*
X20364632Y3466163D01*
X20363880Y3469944D01*
X20361757Y3473122D01*
X20286873Y3654354D01*
X20147113Y3794358D01*
X20147107Y3794367D01*
X20145726Y3795748D01*
X20005814Y3935904D01*
X19821306Y4012519D01*
X19821304Y4012520D01*
X19821302Y4012520D01*
X19638405Y4088466D01*
X19240580Y4088813D01*
X19055938Y4012520D01*
X19055936Y4012520D01*
X19055934Y4012519D01*
X18872906Y3936893D01*
X18794858Y3858981D01*
X18738354Y3915584D01*
X18370945Y4068146D01*
X17973120Y4068493D01*
X17605446Y3916573D01*
X17323896Y3635514D01*
X17323662Y3634949D01*
X16121280Y4837330D01*
X16121280Y6922870D01*
X17465685Y8267274D01*
X17465687Y8267277D01*
X17817366Y8618955D01*
X17817368Y8618958D01*
X17979926Y8781515D01*
X18153344Y9041053D01*
X18214240Y9347200D01*
X18214240Y11360250D01*
X18973900Y12119910D01*
X18973900Y10075876D01*
X18926636Y10028694D01*
X18774074Y9661285D01*
X18773727Y9263460D01*
X18925647Y8895786D01*
X19206706Y8614236D01*
X19574115Y8461674D01*
X19971940Y8461327D01*
X20339614Y8613247D01*
X20621164Y8894306D01*
X20773726Y9261715D01*
X20774073Y9659540D01*
X20622153Y10027214D01*
X20573900Y10075551D01*
X20573900Y12416890D01*
X22300376Y14143365D01*
X22367160Y14143307D01*
X22439112Y14173037D01*
X22418246Y14070000D01*
X22418246Y13070000D01*
X22444581Y12930043D01*
X22418246Y12800000D01*
X22418246Y11800000D01*
X22444581Y11660043D01*
X22418246Y11530000D01*
X22418246Y10530000D01*
X22444581Y10390043D01*
X22418246Y10260000D01*
X22418246Y9260000D01*
X22460083Y9037654D01*
X22591490Y8833442D01*
X22791993Y8696444D01*
X23030000Y8648246D01*
X25030000Y8648246D01*
X25252346Y8690083D01*
X25361000Y8760000D01*
X25789701Y8760000D01*
X25988040Y8759827D01*
X25988459Y8760000D01*
X26366789Y8760000D01*
X26371993Y8756444D01*
X26610000Y8708246D01*
X27510000Y8708246D01*
X27732346Y8750083D01*
X27936558Y8881490D01*
X27962871Y8920000D01*
X27970000Y8920000D01*
X28352684Y8996120D01*
X28677107Y9212893D01*
X28861008Y9396794D01*
X28917810Y9111231D01*
X29235079Y8636405D01*
X29709905Y8319136D01*
X30270000Y8207726D01*
X30830095Y8319136D01*
X31304921Y8636405D01*
X31622190Y9111231D01*
X31733600Y9671326D01*
X31733600Y9728674D01*
X31622190Y10288769D01*
X31304921Y10763595D01*
X30996014Y10970000D01*
X31304921Y11176405D01*
X31357477Y11255061D01*
X31376483Y11154054D01*
X31507890Y10949842D01*
X31708393Y10812844D01*
X31946400Y10764646D01*
X33673600Y10764646D01*
X33895946Y10806483D01*
X34100158Y10937890D01*
X34237156Y11138393D01*
X34285354Y11376400D01*
X34285354Y13103600D01*
X34243517Y13325946D01*
X34112110Y13530158D01*
X33911607Y13667156D01*
X33673600Y13715354D01*
X32748860Y13715354D01*
X31907107Y14557107D01*
X31582684Y14773880D01*
X31200000Y14850000D01*
X30744348Y14850000D01*
X30807264Y14912806D01*
X30959826Y15280215D01*
X30960173Y15678040D01*
X30808253Y16045714D01*
X30527194Y16327264D01*
X30496522Y16340000D01*
X32808630Y16340000D01*
X34719885Y14428745D01*
X34719827Y14361960D01*
X34871747Y13994286D01*
X35152806Y13712736D01*
X35520215Y13560174D01*
X35918040Y13559827D01*
X36285714Y13711747D01*
X36567264Y13992806D01*
X36719826Y14360215D01*
X36719852Y14389948D01*
X36858040Y14389827D01*
X37225714Y14541747D01*
X37507264Y14822806D01*
X37659826Y15190215D01*
X37660173Y15588040D01*
X37508253Y15955714D01*
X37227194Y16237264D01*
X36859785Y16389826D01*
X36791485Y16389886D01*
X34635685Y18545685D01*
X34376147Y18719104D01*
X34070000Y18780000D01*
X33951370Y18780000D01*
X34075685Y18904315D01*
X35381371Y20210000D01*
X38798630Y20210000D01*
X39885836Y19122793D01*
G36*
X18455708Y15020158D02*
X15873195Y12437645D01*
X15699776Y12178107D01*
X15638880Y11871960D01*
X15638880Y10657411D01*
X15297545Y10799146D01*
X14899720Y10799493D01*
X14532046Y10647573D01*
X14250496Y10366514D01*
X14159415Y10147167D01*
X14073240Y10355726D01*
X14073240Y13033718D01*
X14266073Y13226551D01*
X14627154Y13375747D01*
X14908704Y13656806D01*
X15061266Y14024215D01*
X15061613Y14422040D01*
X15060747Y14424136D01*
X15278261Y14467402D01*
X15554021Y14651659D01*
X16034041Y15131680D01*
X18187135Y15131680D01*
X18455708Y15020158D01*
X18455708Y15020158D01*
G37*
X18455708Y15020158D02*
X15873195Y12437645D01*
X15699776Y12178107D01*
X15638880Y11871960D01*
X15638880Y10657411D01*
X15297545Y10799146D01*
X14899720Y10799493D01*
X14532046Y10647573D01*
X14250496Y10366514D01*
X14159415Y10147167D01*
X14073240Y10355726D01*
X14073240Y13033718D01*
X14266073Y13226551D01*
X14627154Y13375747D01*
X14908704Y13656806D01*
X15061266Y14024215D01*
X15061613Y14422040D01*
X15060747Y14424136D01*
X15278261Y14467402D01*
X15554021Y14651659D01*
X16034041Y15131680D01*
X18187135Y15131680D01*
X18455708Y15020158D01*
G36*
X25625286Y17633776D02*
X25992695Y17481214D01*
X26390520Y17480867D01*
X26758194Y17632787D01*
X26806531Y17681040D01*
X27147590Y17681040D01*
X27588630Y17240000D01*
X27050000Y17240000D01*
X26743853Y17179104D01*
X26484315Y17005686D01*
X25641754Y16163124D01*
X25641754Y16610000D01*
X25599917Y16832346D01*
X25468510Y17036558D01*
X25268007Y17173556D01*
X25030000Y17221754D01*
X24872529Y17221754D01*
X24875826Y17229695D01*
X24875886Y17297995D01*
X25178286Y17600395D01*
X25351704Y17859933D01*
X25359649Y17899877D01*
X25625286Y17633776D01*
X25625286Y17633776D01*
G37*
X25625286Y17633776D02*
X25992695Y17481214D01*
X26390520Y17480867D01*
X26758194Y17632787D01*
X26806531Y17681040D01*
X27147590Y17681040D01*
X27588630Y17240000D01*
X27050000Y17240000D01*
X26743853Y17179104D01*
X26484315Y17005686D01*
X25641754Y16163124D01*
X25641754Y16610000D01*
X25599917Y16832346D01*
X25468510Y17036558D01*
X25268007Y17173556D01*
X25030000Y17221754D01*
X24872529Y17221754D01*
X24875826Y17229695D01*
X24875886Y17297995D01*
X25178286Y17600395D01*
X25351704Y17859933D01*
X25359649Y17899877D01*
X25625286Y17633776D01*
G36*
X17570174Y36109785D02*
X17569827Y35711960D01*
X17570000Y35711541D01*
X17570000Y33724214D01*
X17495786Y33650000D01*
X15580005Y33650000D01*
X15580000Y33650001D01*
X15197316Y33573880D01*
X14907155Y33380000D01*
X14200005Y33380000D01*
X14200000Y33380001D01*
X13817316Y33303880D01*
X13667616Y33203853D01*
X13492893Y33087107D01*
X13492891Y33087104D01*
X12203540Y31797754D01*
X11004000Y31797754D01*
X10781654Y31755917D01*
X10577442Y31624510D01*
X10440444Y31424007D01*
X10392246Y31186000D01*
X10392246Y29154000D01*
X10434083Y28931654D01*
X10565490Y28727442D01*
X10765993Y28590444D01*
X11004000Y28542246D01*
X13036000Y28542246D01*
X13258346Y28584083D01*
X13462558Y28715490D01*
X13584732Y28894297D01*
X13909925Y28677011D01*
X14528341Y28554000D01*
X14591659Y28554000D01*
X15210075Y28677011D01*
X15734344Y29027315D01*
X16084648Y29551584D01*
X16126574Y29762360D01*
X16634214Y30270000D01*
X17550131Y30270000D01*
X17549827Y29921960D01*
X17701747Y29554286D01*
X17982806Y29272736D01*
X18350215Y29120174D01*
X18418515Y29120114D01*
X18616394Y28922235D01*
X18616397Y28922233D01*
X19677480Y27861149D01*
X19677480Y26201195D01*
X19602845Y26232186D01*
X19205020Y26232533D01*
X18837346Y26080613D01*
X18639368Y25882980D01*
X18512255Y25798046D01*
X18285809Y25571599D01*
X18206987Y25967860D01*
X17968537Y26324725D01*
X17611672Y26563175D01*
X17190720Y26646908D01*
X16769768Y26563175D01*
X16565720Y26426834D01*
X16361672Y26563175D01*
X15940720Y26646908D01*
X15519768Y26563175D01*
X15315720Y26426834D01*
X15111672Y26563175D01*
X14690720Y26646908D01*
X14269768Y26563175D01*
X14065720Y26426834D01*
X13861672Y26563175D01*
X13440720Y26646908D01*
X13019768Y26563175D01*
X12815720Y26426834D01*
X12611672Y26563175D01*
X12190720Y26646908D01*
X11769768Y26563175D01*
X11565720Y26426834D01*
X11361672Y26563175D01*
X10940720Y26646908D01*
X10519768Y26563175D01*
X10162903Y26324725D01*
X9924453Y25967860D01*
X9840720Y25546908D01*
X9840720Y24994012D01*
X9924453Y24573060D01*
X10162903Y24216195D01*
X10519768Y23977745D01*
X10940720Y23894012D01*
X11361672Y23977745D01*
X11565720Y24114086D01*
X11769768Y23977745D01*
X12190720Y23894012D01*
X12611672Y23977745D01*
X12815720Y24114086D01*
X13019768Y23977745D01*
X13440720Y23894012D01*
X13861672Y23977745D01*
X14065720Y24114086D01*
X14269768Y23977745D01*
X14690720Y23894012D01*
X14747544Y23905315D01*
X14344750Y23502520D01*
X13007340Y23502520D01*
X12701193Y23441624D01*
X12441655Y23268206D01*
X11758395Y22584945D01*
X11731611Y22544861D01*
X11614175Y22623329D01*
X11054080Y22734739D01*
X10493985Y22623329D01*
X10019159Y22306060D01*
X9784080Y21954240D01*
X9549001Y22306060D01*
X9074175Y22623329D01*
X8514080Y22734739D01*
X7953985Y22623329D01*
X7479159Y22306060D01*
X7161890Y21831234D01*
X7050480Y21271139D01*
X7050480Y20903021D01*
X7161890Y20342926D01*
X7479159Y19868100D01*
X7953985Y19550831D01*
X8351531Y19471754D01*
X7510000Y19471754D01*
X7287654Y19429917D01*
X7083442Y19298510D01*
X6946444Y19098007D01*
X6898246Y18860000D01*
X6898246Y18456305D01*
X6880000Y18460000D01*
X870000Y18460000D01*
X797199Y18446279D01*
X730462Y18403279D01*
X706100Y18367580D01*
X706100Y22103080D01*
X1958726Y22103080D01*
X1958726Y20071080D01*
X2000563Y19848734D01*
X2131970Y19644522D01*
X2332473Y19507524D01*
X2570480Y19459326D01*
X4297680Y19459326D01*
X4520026Y19501163D01*
X4724238Y19632570D01*
X4861236Y19833073D01*
X4909434Y20071080D01*
X4909434Y22103080D01*
X4867597Y22325426D01*
X4736190Y22529638D01*
X4535687Y22666636D01*
X4297680Y22714834D01*
X2570480Y22714834D01*
X2348134Y22672997D01*
X2143922Y22541590D01*
X2006924Y22341087D01*
X1958726Y22103080D01*
X706100Y22103080D01*
X706100Y25546908D01*
X7340720Y25546908D01*
X7340720Y24994012D01*
X7424453Y24573060D01*
X7662903Y24216195D01*
X8019768Y23977745D01*
X8440720Y23894012D01*
X8861672Y23977745D01*
X9218537Y24216195D01*
X9456987Y24573060D01*
X9540720Y24994012D01*
X9540720Y25546908D01*
X9456987Y25967860D01*
X9218537Y26324725D01*
X8861672Y26563175D01*
X8440720Y26646908D01*
X8019768Y26563175D01*
X7662903Y26324725D01*
X7424453Y25967860D01*
X7340720Y25546908D01*
X706100Y25546908D01*
X706100Y31638398D01*
X4410100Y31638398D01*
X4581371Y30777360D01*
X5069110Y30047408D01*
X5799062Y29559669D01*
X6660100Y29388398D01*
X7521138Y29559669D01*
X8251090Y30047408D01*
X8738829Y30777360D01*
X8910100Y31638398D01*
X8738829Y32499436D01*
X8251090Y33229388D01*
X7521138Y33717127D01*
X6660100Y33888398D01*
X5799062Y33717127D01*
X5069110Y33229388D01*
X4581371Y32499436D01*
X4410100Y31638398D01*
X706100Y31638398D01*
X706100Y34200400D01*
X12756100Y34200400D01*
X12818891Y34212890D01*
X12882909Y34212890D01*
X15312943Y34696254D01*
X15312949Y34696254D01*
X15478632Y34764883D01*
X15547260Y34793309D01*
X15547261Y34793310D01*
X17590399Y36158491D01*
X17570174Y36109785D01*
X17570174Y36109785D01*
G37*
X17570174Y36109785D02*
X17569827Y35711960D01*
X17570000Y35711541D01*
X17570000Y33724214D01*
X17495786Y33650000D01*
X15580005Y33650000D01*
X15580000Y33650001D01*
X15197316Y33573880D01*
X14907155Y33380000D01*
X14200005Y33380000D01*
X14200000Y33380001D01*
X13817316Y33303880D01*
X13667616Y33203853D01*
X13492893Y33087107D01*
X13492891Y33087104D01*
X12203540Y31797754D01*
X11004000Y31797754D01*
X10781654Y31755917D01*
X10577442Y31624510D01*
X10440444Y31424007D01*
X10392246Y31186000D01*
X10392246Y29154000D01*
X10434083Y28931654D01*
X10565490Y28727442D01*
X10765993Y28590444D01*
X11004000Y28542246D01*
X13036000Y28542246D01*
X13258346Y28584083D01*
X13462558Y28715490D01*
X13584732Y28894297D01*
X13909925Y28677011D01*
X14528341Y28554000D01*
X14591659Y28554000D01*
X15210075Y28677011D01*
X15734344Y29027315D01*
X16084648Y29551584D01*
X16126574Y29762360D01*
X16634214Y30270000D01*
X17550131Y30270000D01*
X17549827Y29921960D01*
X17701747Y29554286D01*
X17982806Y29272736D01*
X18350215Y29120174D01*
X18418515Y29120114D01*
X18616394Y28922235D01*
X18616397Y28922233D01*
X19677480Y27861149D01*
X19677480Y26201195D01*
X19602845Y26232186D01*
X19205020Y26232533D01*
X18837346Y26080613D01*
X18639368Y25882980D01*
X18512255Y25798046D01*
X18285809Y25571599D01*
X18206987Y25967860D01*
X17968537Y26324725D01*
X17611672Y26563175D01*
X17190720Y26646908D01*
X16769768Y26563175D01*
X16565720Y26426834D01*
X16361672Y26563175D01*
X15940720Y26646908D01*
X15519768Y26563175D01*
X15315720Y26426834D01*
X15111672Y26563175D01*
X14690720Y26646908D01*
X14269768Y26563175D01*
X14065720Y26426834D01*
X13861672Y26563175D01*
X13440720Y26646908D01*
X13019768Y26563175D01*
X12815720Y26426834D01*
X12611672Y26563175D01*
X12190720Y26646908D01*
X11769768Y26563175D01*
X11565720Y26426834D01*
X11361672Y26563175D01*
X10940720Y26646908D01*
X10519768Y26563175D01*
X10162903Y26324725D01*
X9924453Y25967860D01*
X9840720Y25546908D01*
X9840720Y24994012D01*
X9924453Y24573060D01*
X10162903Y24216195D01*
X10519768Y23977745D01*
X10940720Y23894012D01*
X11361672Y23977745D01*
X11565720Y24114086D01*
X11769768Y23977745D01*
X12190720Y23894012D01*
X12611672Y23977745D01*
X12815720Y24114086D01*
X13019768Y23977745D01*
X13440720Y23894012D01*
X13861672Y23977745D01*
X14065720Y24114086D01*
X14269768Y23977745D01*
X14690720Y23894012D01*
X14747544Y23905315D01*
X14344750Y23502520D01*
X13007340Y23502520D01*
X12701193Y23441624D01*
X12441655Y23268206D01*
X11758395Y22584945D01*
X11731611Y22544861D01*
X11614175Y22623329D01*
X11054080Y22734739D01*
X10493985Y22623329D01*
X10019159Y22306060D01*
X9784080Y21954240D01*
X9549001Y22306060D01*
X9074175Y22623329D01*
X8514080Y22734739D01*
X7953985Y22623329D01*
X7479159Y22306060D01*
X7161890Y21831234D01*
X7050480Y21271139D01*
X7050480Y20903021D01*
X7161890Y20342926D01*
X7479159Y19868100D01*
X7953985Y19550831D01*
X8351531Y19471754D01*
X7510000Y19471754D01*
X7287654Y19429917D01*
X7083442Y19298510D01*
X6946444Y19098007D01*
X6898246Y18860000D01*
X6898246Y18456305D01*
X6880000Y18460000D01*
X870000Y18460000D01*
X797199Y18446279D01*
X730462Y18403279D01*
X706100Y18367580D01*
X706100Y22103080D01*
X1958726Y22103080D01*
X1958726Y20071080D01*
X2000563Y19848734D01*
X2131970Y19644522D01*
X2332473Y19507524D01*
X2570480Y19459326D01*
X4297680Y19459326D01*
X4520026Y19501163D01*
X4724238Y19632570D01*
X4861236Y19833073D01*
X4909434Y20071080D01*
X4909434Y22103080D01*
X4867597Y22325426D01*
X4736190Y22529638D01*
X4535687Y22666636D01*
X4297680Y22714834D01*
X2570480Y22714834D01*
X2348134Y22672997D01*
X2143922Y22541590D01*
X2006924Y22341087D01*
X1958726Y22103080D01*
X706100Y22103080D01*
X706100Y25546908D01*
X7340720Y25546908D01*
X7340720Y24994012D01*
X7424453Y24573060D01*
X7662903Y24216195D01*
X8019768Y23977745D01*
X8440720Y23894012D01*
X8861672Y23977745D01*
X9218537Y24216195D01*
X9456987Y24573060D01*
X9540720Y24994012D01*
X9540720Y25546908D01*
X9456987Y25967860D01*
X9218537Y26324725D01*
X8861672Y26563175D01*
X8440720Y26646908D01*
X8019768Y26563175D01*
X7662903Y26324725D01*
X7424453Y25967860D01*
X7340720Y25546908D01*
X706100Y25546908D01*
X706100Y31638398D01*
X4410100Y31638398D01*
X4581371Y30777360D01*
X5069110Y30047408D01*
X5799062Y29559669D01*
X6660100Y29388398D01*
X7521138Y29559669D01*
X8251090Y30047408D01*
X8738829Y30777360D01*
X8910100Y31638398D01*
X8738829Y32499436D01*
X8251090Y33229388D01*
X7521138Y33717127D01*
X6660100Y33888398D01*
X5799062Y33717127D01*
X5069110Y33229388D01*
X4581371Y32499436D01*
X4410100Y31638398D01*
X706100Y31638398D01*
X706100Y34200400D01*
X12756100Y34200400D01*
X12818891Y34212890D01*
X12882909Y34212890D01*
X15312943Y34696254D01*
X15312949Y34696254D01*
X15478632Y34764883D01*
X15547260Y34793309D01*
X15547261Y34793310D01*
X17590399Y36158491D01*
X17570174Y36109785D01*
G36*
X22850174Y30259785D02*
X22849827Y29861960D01*
X22852480Y29855539D01*
X22852480Y19336071D01*
X22848470Y19334414D01*
X22718007Y19423556D01*
X22480000Y19471754D01*
X21480000Y19471754D01*
X21340043Y19445419D01*
X21292568Y19455033D01*
X21774175Y19550831D01*
X22249001Y19868100D01*
X22566270Y20342926D01*
X22677680Y20903021D01*
X22677680Y21271139D01*
X22566270Y21831234D01*
X22249001Y22306060D01*
X21774175Y22623329D01*
X21570228Y22663897D01*
X21765685Y22859354D01*
X21939104Y23118893D01*
X21947508Y23161144D01*
X22000000Y23425040D01*
X22000000Y29585624D01*
X22047264Y29632806D01*
X22199826Y30000215D01*
X22200061Y30270000D01*
X22854416Y30270000D01*
X22850174Y30259785D01*
X22850174Y30259785D01*
G37*
X22850174Y30259785D02*
X22849827Y29861960D01*
X22852480Y29855539D01*
X22852480Y19336071D01*
X22848470Y19334414D01*
X22718007Y19423556D01*
X22480000Y19471754D01*
X21480000Y19471754D01*
X21340043Y19445419D01*
X21292568Y19455033D01*
X21774175Y19550831D01*
X22249001Y19868100D01*
X22566270Y20342926D01*
X22677680Y20903021D01*
X22677680Y21271139D01*
X22566270Y21831234D01*
X22249001Y22306060D01*
X21774175Y22623329D01*
X21570228Y22663897D01*
X21765685Y22859354D01*
X21939104Y23118893D01*
X21947508Y23161144D01*
X22000000Y23425040D01*
X22000000Y29585624D01*
X22047264Y29632806D01*
X22199826Y30000215D01*
X22200061Y30270000D01*
X22854416Y30270000D01*
X22850174Y30259785D01*
G36*
X32433917Y36529220D02*
X32342572Y36070000D01*
X32433917Y35610780D01*
X32694044Y35221472D01*
X33083352Y34961345D01*
X33542572Y34870000D01*
X33997428Y34870000D01*
X34262630Y34922752D01*
X34172572Y34470000D01*
X34263917Y34010780D01*
X34524044Y33621472D01*
X34913352Y33361345D01*
X35372572Y33270000D01*
X35827428Y33270000D01*
X36286648Y33361345D01*
X36540490Y33530957D01*
X36794332Y33361345D01*
X36932492Y33333863D01*
X36054315Y32455685D01*
X35880896Y32196147D01*
X35820000Y31890000D01*
X35820000Y28124376D01*
X35772736Y28077194D01*
X35620174Y27709785D01*
X35619827Y27311960D01*
X35771747Y26944286D01*
X36052806Y26662736D01*
X36420215Y26510174D01*
X36818040Y26509827D01*
X37185714Y26661747D01*
X37467264Y26942806D01*
X37507735Y27040270D01*
X37580215Y27010174D01*
X37978040Y27009827D01*
X38345714Y27161747D01*
X38444918Y27260778D01*
X38532806Y27172736D01*
X38900215Y27020174D01*
X39298040Y27019827D01*
X39665714Y27171747D01*
X39947264Y27452806D01*
X40099826Y27820215D01*
X40100173Y28218040D01*
X40100000Y28218459D01*
X40100000Y30715786D01*
X40624214Y31240000D01*
X40872716Y31240000D01*
X40844286Y31228253D01*
X40562736Y30947194D01*
X40410174Y30579785D01*
X40409827Y30181960D01*
X40410000Y30181541D01*
X40410000Y28060299D01*
X40409827Y27861960D01*
X40561747Y27494286D01*
X40842806Y27212736D01*
X40960547Y27163845D01*
X40920000Y26960000D01*
X40920000Y24651371D01*
X40438630Y24170000D01*
X33730000Y24170000D01*
X33423853Y24109104D01*
X33164314Y23935685D01*
X31508745Y22280115D01*
X31441960Y22280173D01*
X31074286Y22128253D01*
X30792736Y21847194D01*
X30685912Y21589934D01*
X30411960Y21590173D01*
X30044286Y21438253D01*
X29773466Y21167905D01*
X29245685Y21695685D01*
X28986147Y21869104D01*
X28977138Y21870896D01*
X28680000Y21930000D01*
X28174376Y21930000D01*
X28127194Y21977264D01*
X27759785Y22129826D01*
X27361960Y22130173D01*
X26994286Y21978253D01*
X26712736Y21697194D01*
X26560174Y21329785D01*
X26559827Y20931960D01*
X26711747Y20564286D01*
X26992806Y20282736D01*
X27129634Y20225920D01*
X26349656Y20225920D01*
X26302474Y20273184D01*
X25935065Y20425746D01*
X25537240Y20426093D01*
X25412600Y20374593D01*
X25412600Y28777030D01*
X25615685Y28980115D01*
X25789104Y29239653D01*
X25795488Y29271747D01*
X25815209Y29370894D01*
X25897264Y29452806D01*
X26049826Y29820215D01*
X26050173Y30218040D01*
X25933520Y30500360D01*
X26027107Y30562893D01*
X26402246Y30938032D01*
X26402246Y29524000D01*
X26444083Y29301654D01*
X26575490Y29097442D01*
X26775993Y28960444D01*
X27014000Y28912246D01*
X27035000Y28912246D01*
X27035000Y28267122D01*
X26858442Y28153510D01*
X26721444Y27953007D01*
X26673246Y27715000D01*
X26673246Y26465000D01*
X26715083Y26242654D01*
X26846490Y26038442D01*
X27046993Y25901444D01*
X27210000Y25868434D01*
X27210000Y25580000D01*
X27000299Y25580000D01*
X26801960Y25580173D01*
X26434286Y25428253D01*
X26152736Y25147194D01*
X26000174Y24779785D01*
X25999827Y24381960D01*
X26151747Y24014286D01*
X26432806Y23732736D01*
X26800215Y23580174D01*
X27198040Y23579827D01*
X27198459Y23580000D01*
X27352153Y23580000D01*
X27371993Y23566444D01*
X27610000Y23518246D01*
X28810000Y23518246D01*
X29032346Y23560083D01*
X29236558Y23691490D01*
X29373556Y23891993D01*
X29421754Y24130000D01*
X29421754Y25030000D01*
X29379917Y25252346D01*
X29248510Y25456558D01*
X29210000Y25482871D01*
X29210000Y26025487D01*
X29211558Y26026490D01*
X29348556Y26226993D01*
X29396754Y26465000D01*
X29396754Y27715000D01*
X29354917Y27937346D01*
X29223510Y28141558D01*
X29035000Y28270362D01*
X29035000Y28912246D01*
X29046000Y28912246D01*
X29268346Y28954083D01*
X29472558Y29085490D01*
X29594732Y29264297D01*
X29919925Y29047011D01*
X30538341Y28924000D01*
X30601659Y28924000D01*
X31220075Y29047011D01*
X31744344Y29397315D01*
X32094648Y29921584D01*
X32217659Y30540000D01*
X32094648Y31158416D01*
X31744344Y31682685D01*
X31220075Y32032989D01*
X31184061Y32040153D01*
X30490000Y32734214D01*
X30490000Y35789995D01*
X30490001Y35790000D01*
X30413880Y36172684D01*
X30197107Y36497107D01*
X29833814Y36860400D01*
X32655204Y36860400D01*
X32433917Y36529220D01*
X32433917Y36529220D01*
G37*
X32433917Y36529220D02*
X32342572Y36070000D01*
X32433917Y35610780D01*
X32694044Y35221472D01*
X33083352Y34961345D01*
X33542572Y34870000D01*
X33997428Y34870000D01*
X34262630Y34922752D01*
X34172572Y34470000D01*
X34263917Y34010780D01*
X34524044Y33621472D01*
X34913352Y33361345D01*
X35372572Y33270000D01*
X35827428Y33270000D01*
X36286648Y33361345D01*
X36540490Y33530957D01*
X36794332Y33361345D01*
X36932492Y33333863D01*
X36054315Y32455685D01*
X35880896Y32196147D01*
X35820000Y31890000D01*
X35820000Y28124376D01*
X35772736Y28077194D01*
X35620174Y27709785D01*
X35619827Y27311960D01*
X35771747Y26944286D01*
X36052806Y26662736D01*
X36420215Y26510174D01*
X36818040Y26509827D01*
X37185714Y26661747D01*
X37467264Y26942806D01*
X37507735Y27040270D01*
X37580215Y27010174D01*
X37978040Y27009827D01*
X38345714Y27161747D01*
X38444918Y27260778D01*
X38532806Y27172736D01*
X38900215Y27020174D01*
X39298040Y27019827D01*
X39665714Y27171747D01*
X39947264Y27452806D01*
X40099826Y27820215D01*
X40100173Y28218040D01*
X40100000Y28218459D01*
X40100000Y30715786D01*
X40624214Y31240000D01*
X40872716Y31240000D01*
X40844286Y31228253D01*
X40562736Y30947194D01*
X40410174Y30579785D01*
X40409827Y30181960D01*
X40410000Y30181541D01*
X40410000Y28060299D01*
X40409827Y27861960D01*
X40561747Y27494286D01*
X40842806Y27212736D01*
X40960547Y27163845D01*
X40920000Y26960000D01*
X40920000Y24651371D01*
X40438630Y24170000D01*
X33730000Y24170000D01*
X33423853Y24109104D01*
X33164314Y23935685D01*
X31508745Y22280115D01*
X31441960Y22280173D01*
X31074286Y22128253D01*
X30792736Y21847194D01*
X30685912Y21589934D01*
X30411960Y21590173D01*
X30044286Y21438253D01*
X29773466Y21167905D01*
X29245685Y21695685D01*
X28986147Y21869104D01*
X28977138Y21870896D01*
X28680000Y21930000D01*
X28174376Y21930000D01*
X28127194Y21977264D01*
X27759785Y22129826D01*
X27361960Y22130173D01*
X26994286Y21978253D01*
X26712736Y21697194D01*
X26560174Y21329785D01*
X26559827Y20931960D01*
X26711747Y20564286D01*
X26992806Y20282736D01*
X27129634Y20225920D01*
X26349656Y20225920D01*
X26302474Y20273184D01*
X25935065Y20425746D01*
X25537240Y20426093D01*
X25412600Y20374593D01*
X25412600Y28777030D01*
X25615685Y28980115D01*
X25789104Y29239653D01*
X25795488Y29271747D01*
X25815209Y29370894D01*
X25897264Y29452806D01*
X26049826Y29820215D01*
X26050173Y30218040D01*
X25933520Y30500360D01*
X26027107Y30562893D01*
X26402246Y30938032D01*
X26402246Y29524000D01*
X26444083Y29301654D01*
X26575490Y29097442D01*
X26775993Y28960444D01*
X27014000Y28912246D01*
X27035000Y28912246D01*
X27035000Y28267122D01*
X26858442Y28153510D01*
X26721444Y27953007D01*
X26673246Y27715000D01*
X26673246Y26465000D01*
X26715083Y26242654D01*
X26846490Y26038442D01*
X27046993Y25901444D01*
X27210000Y25868434D01*
X27210000Y25580000D01*
X27000299Y25580000D01*
X26801960Y25580173D01*
X26434286Y25428253D01*
X26152736Y25147194D01*
X26000174Y24779785D01*
X25999827Y24381960D01*
X26151747Y24014286D01*
X26432806Y23732736D01*
X26800215Y23580174D01*
X27198040Y23579827D01*
X27198459Y23580000D01*
X27352153Y23580000D01*
X27371993Y23566444D01*
X27610000Y23518246D01*
X28810000Y23518246D01*
X29032346Y23560083D01*
X29236558Y23691490D01*
X29373556Y23891993D01*
X29421754Y24130000D01*
X29421754Y25030000D01*
X29379917Y25252346D01*
X29248510Y25456558D01*
X29210000Y25482871D01*
X29210000Y26025487D01*
X29211558Y26026490D01*
X29348556Y26226993D01*
X29396754Y26465000D01*
X29396754Y27715000D01*
X29354917Y27937346D01*
X29223510Y28141558D01*
X29035000Y28270362D01*
X29035000Y28912246D01*
X29046000Y28912246D01*
X29268346Y28954083D01*
X29472558Y29085490D01*
X29594732Y29264297D01*
X29919925Y29047011D01*
X30538341Y28924000D01*
X30601659Y28924000D01*
X31220075Y29047011D01*
X31744344Y29397315D01*
X32094648Y29921584D01*
X32217659Y30540000D01*
X32094648Y31158416D01*
X31744344Y31682685D01*
X31220075Y32032989D01*
X31184061Y32040153D01*
X30490000Y32734214D01*
X30490000Y35789995D01*
X30490001Y35790000D01*
X30413880Y36172684D01*
X30197107Y36497107D01*
X29833814Y36860400D01*
X32655204Y36860400D01*
X32433917Y36529220D01*
G36*
X51971954Y38643557D02*
X51971954Y38643551D01*
X52040583Y38477868D01*
X52069009Y38409240D01*
X52069010Y38409239D01*
X53445517Y36349151D01*
X53624851Y36169817D01*
X55684939Y34793310D01*
X55684940Y34793309D01*
X55771494Y34757458D01*
X55919251Y34696254D01*
X55919256Y34696254D01*
X58349291Y34212890D01*
X58413309Y34212890D01*
X58476100Y34200400D01*
X70526100Y34200400D01*
X70526100Y23562400D01*
X55463770Y23562400D01*
X56305685Y24404314D01*
X56479104Y24663853D01*
X56516669Y24852707D01*
X56540000Y24970000D01*
X56540000Y25306686D01*
X56886442Y25652524D01*
X57092875Y26149669D01*
X57093344Y26687969D01*
X56887780Y27185474D01*
X56507476Y27566442D01*
X56209797Y27690049D01*
X56505474Y27812220D01*
X56886442Y28192524D01*
X57092875Y28689669D01*
X57093344Y29227969D01*
X56887780Y29725474D01*
X56507476Y30106442D01*
X56010331Y30312875D01*
X55472031Y30313344D01*
X54974526Y30107780D01*
X54593558Y29727476D01*
X54469951Y29429797D01*
X54347780Y29725474D01*
X53967476Y30106442D01*
X53470331Y30312875D01*
X52932031Y30313344D01*
X52434526Y30107780D01*
X52053558Y29727476D01*
X51929951Y29429797D01*
X51807780Y29725474D01*
X51427476Y30106442D01*
X50930331Y30312875D01*
X50392031Y30313344D01*
X49894526Y30107780D01*
X49513558Y29727476D01*
X49389951Y29429797D01*
X49267780Y29725474D01*
X48887476Y30106442D01*
X48390331Y30312875D01*
X47852031Y30313344D01*
X47403397Y30127973D01*
X46685685Y30845685D01*
X46426147Y31019104D01*
X46420773Y31020173D01*
X46120000Y31080000D01*
X45040000Y31080000D01*
X44739227Y31020173D01*
X44733853Y31019104D01*
X44474315Y30845685D01*
X43744315Y30115685D01*
X43570896Y29856147D01*
X43510000Y29550000D01*
X43510000Y28490000D01*
X42450000Y28490000D01*
X42410000Y28482044D01*
X42410000Y30380000D01*
X42410173Y30578040D01*
X42258253Y30945714D01*
X41999020Y31205400D01*
X62322100Y31205400D01*
X62493371Y30344362D01*
X62981110Y29614410D01*
X63711062Y29126671D01*
X64572100Y28955400D01*
X65433138Y29126671D01*
X66163090Y29614410D01*
X66650829Y30344362D01*
X66822100Y31205400D01*
X66650829Y32066438D01*
X66163090Y32796390D01*
X65433138Y33284129D01*
X64572100Y33455400D01*
X63711062Y33284129D01*
X62981110Y32796390D01*
X62493371Y32066438D01*
X62322100Y31205400D01*
X41999020Y31205400D01*
X41977194Y31227264D01*
X41946522Y31240000D01*
X45179701Y31240000D01*
X45378040Y31239827D01*
X45745714Y31391747D01*
X46027264Y31672806D01*
X46179826Y32040215D01*
X46180173Y32438040D01*
X46028253Y32805714D01*
X45747194Y33087264D01*
X45379785Y33239826D01*
X44981960Y33240173D01*
X44981541Y33240000D01*
X40309802Y33240000D01*
X40339104Y33283853D01*
X40354518Y33361345D01*
X40400000Y33590000D01*
X40400000Y35770000D01*
X40339104Y36076147D01*
X40274600Y36172684D01*
X40165685Y36335686D01*
X39640970Y36860400D01*
X44616100Y36860400D01*
X44864844Y36909878D01*
X45075719Y37050781D01*
X45216622Y37261656D01*
X45266100Y37510400D01*
X45266100Y40550400D01*
X51592659Y40550400D01*
X51971954Y38643557D01*
X51971954Y38643557D01*
G37*
X51971954Y38643557D02*
X51971954Y38643551D01*
X52040583Y38477868D01*
X52069009Y38409240D01*
X52069010Y38409239D01*
X53445517Y36349151D01*
X53624851Y36169817D01*
X55684939Y34793310D01*
X55684940Y34793309D01*
X55771494Y34757458D01*
X55919251Y34696254D01*
X55919256Y34696254D01*
X58349291Y34212890D01*
X58413309Y34212890D01*
X58476100Y34200400D01*
X70526100Y34200400D01*
X70526100Y23562400D01*
X55463770Y23562400D01*
X56305685Y24404314D01*
X56479104Y24663853D01*
X56516669Y24852707D01*
X56540000Y24970000D01*
X56540000Y25306686D01*
X56886442Y25652524D01*
X57092875Y26149669D01*
X57093344Y26687969D01*
X56887780Y27185474D01*
X56507476Y27566442D01*
X56209797Y27690049D01*
X56505474Y27812220D01*
X56886442Y28192524D01*
X57092875Y28689669D01*
X57093344Y29227969D01*
X56887780Y29725474D01*
X56507476Y30106442D01*
X56010331Y30312875D01*
X55472031Y30313344D01*
X54974526Y30107780D01*
X54593558Y29727476D01*
X54469951Y29429797D01*
X54347780Y29725474D01*
X53967476Y30106442D01*
X53470331Y30312875D01*
X52932031Y30313344D01*
X52434526Y30107780D01*
X52053558Y29727476D01*
X51929951Y29429797D01*
X51807780Y29725474D01*
X51427476Y30106442D01*
X50930331Y30312875D01*
X50392031Y30313344D01*
X49894526Y30107780D01*
X49513558Y29727476D01*
X49389951Y29429797D01*
X49267780Y29725474D01*
X48887476Y30106442D01*
X48390331Y30312875D01*
X47852031Y30313344D01*
X47403397Y30127973D01*
X46685685Y30845685D01*
X46426147Y31019104D01*
X46420773Y31020173D01*
X46120000Y31080000D01*
X45040000Y31080000D01*
X44739227Y31020173D01*
X44733853Y31019104D01*
X44474315Y30845685D01*
X43744315Y30115685D01*
X43570896Y29856147D01*
X43510000Y29550000D01*
X43510000Y28490000D01*
X42450000Y28490000D01*
X42410000Y28482044D01*
X42410000Y30380000D01*
X42410173Y30578040D01*
X42258253Y30945714D01*
X41999020Y31205400D01*
X62322100Y31205400D01*
X62493371Y30344362D01*
X62981110Y29614410D01*
X63711062Y29126671D01*
X64572100Y28955400D01*
X65433138Y29126671D01*
X66163090Y29614410D01*
X66650829Y30344362D01*
X66822100Y31205400D01*
X66650829Y32066438D01*
X66163090Y32796390D01*
X65433138Y33284129D01*
X64572100Y33455400D01*
X63711062Y33284129D01*
X62981110Y32796390D01*
X62493371Y32066438D01*
X62322100Y31205400D01*
X41999020Y31205400D01*
X41977194Y31227264D01*
X41946522Y31240000D01*
X45179701Y31240000D01*
X45378040Y31239827D01*
X45745714Y31391747D01*
X46027264Y31672806D01*
X46179826Y32040215D01*
X46180173Y32438040D01*
X46028253Y32805714D01*
X45747194Y33087264D01*
X45379785Y33239826D01*
X44981960Y33240173D01*
X44981541Y33240000D01*
X40309802Y33240000D01*
X40339104Y33283853D01*
X40354518Y33361345D01*
X40400000Y33590000D01*
X40400000Y35770000D01*
X40339104Y36076147D01*
X40274600Y36172684D01*
X40165685Y36335686D01*
X39640970Y36860400D01*
X44616100Y36860400D01*
X44864844Y36909878D01*
X45075719Y37050781D01*
X45216622Y37261656D01*
X45266100Y37510400D01*
X45266100Y40550400D01*
X51592659Y40550400D01*
X51971954Y38643557D01*
G36*
X26690215Y35500174D02*
X27088040Y35499827D01*
X27088459Y35500000D01*
X28365786Y35500000D01*
X28490000Y35375786D01*
X28490000Y33320000D01*
X26642207Y33320000D01*
X26680000Y33510000D01*
X26680000Y35504416D01*
X26690215Y35500174D01*
X26690215Y35500174D01*
G37*
X26690215Y35500174D02*
X27088040Y35499827D01*
X27088459Y35500000D01*
X28365786Y35500000D01*
X28490000Y35375786D01*
X28490000Y33320000D01*
X26642207Y33320000D01*
X26680000Y33510000D01*
X26680000Y35504416D01*
X26690215Y35500174D01*
G36*
X25966100Y39449925D02*
X25681960Y39450173D01*
X25314286Y39298253D01*
X25182303Y39166500D01*
X25108253Y39345714D01*
X24827194Y39627264D01*
X24459785Y39779826D01*
X24061960Y39780173D01*
X23694286Y39628253D01*
X23412736Y39347194D01*
X23260174Y38979785D01*
X23260104Y38899451D01*
X23110896Y38676147D01*
X23050000Y38370000D01*
X23050000Y33400251D01*
X22689785Y33549826D01*
X22291960Y33550173D01*
X22037181Y33444901D01*
X21940000Y33542082D01*
X21940000Y37550000D01*
X21875298Y37875281D01*
X21691041Y38151041D01*
X21057449Y38784633D01*
X20908253Y39145714D01*
X20627194Y39427264D01*
X20259785Y39579826D01*
X19861960Y39580173D01*
X19494286Y39428253D01*
X19397018Y39331154D01*
X19639541Y40550400D01*
X25966100Y40550400D01*
X25966100Y39449925D01*
X25966100Y39449925D01*
G37*
X25966100Y39449925D02*
X25681960Y39450173D01*
X25314286Y39298253D01*
X25182303Y39166500D01*
X25108253Y39345714D01*
X24827194Y39627264D01*
X24459785Y39779826D01*
X24061960Y39780173D01*
X23694286Y39628253D01*
X23412736Y39347194D01*
X23260174Y38979785D01*
X23260104Y38899451D01*
X23110896Y38676147D01*
X23050000Y38370000D01*
X23050000Y33400251D01*
X22689785Y33549826D01*
X22291960Y33550173D01*
X22037181Y33444901D01*
X21940000Y33542082D01*
X21940000Y37550000D01*
X21875298Y37875281D01*
X21691041Y38151041D01*
X21057449Y38784633D01*
X20908253Y39145714D01*
X20627194Y39427264D01*
X20259785Y39579826D01*
X19861960Y39580173D01*
X19494286Y39428253D01*
X19397018Y39331154D01*
X19639541Y40550400D01*
X25966100Y40550400D01*
X25966100Y39449925D01*
M02*
