G04 #@! TF.FileFunction,Copper,L2,Bot,Signal*
%FSLAX46Y46*%
G04 Gerber Fmt 4.6, Leading zero omitted, Abs format (unit mm)*
G04 Created by KiCad (PCBNEW 4.0.0-rc1-stable) date 30.1.2017 12:24:40*
%MOMM*%
G01*
G04 APERTURE LIST*
%ADD10C,0.100000*%
%ADD11R,1.727200X1.727200*%
%ADD12O,1.727200X1.727200*%
%ADD13R,0.800000X0.350000*%
%ADD14C,1.500000*%
%ADD15R,1.000000X2.000000*%
%ADD16R,2.000000X1.000000*%
%ADD17R,0.600000X1.050000*%
%ADD18R,1.200000X0.900000*%
%ADD19R,0.900000X1.200000*%
%ADD20R,0.800100X1.250000*%
%ADD21O,1.400000X1.600000*%
%ADD22R,2.032000X2.032000*%
%ADD23O,2.032000X2.032000*%
%ADD24R,0.600000X1.000000*%
%ADD25C,0.800000*%
%ADD26C,0.800000*%
%ADD27C,0.350000*%
%ADD28C,0.400000*%
%ADD29C,0.600000*%
%ADD30C,0.500000*%
G04 APERTURE END LIST*
D10*
D11*
X79530000Y43760000D03*
D12*
X79530000Y46300000D03*
X82070000Y43760000D03*
X82070000Y46300000D03*
D13*
X59015000Y29415000D03*
X59015000Y28765000D03*
X59015000Y28115000D03*
X59015000Y27465000D03*
X61365000Y27465000D03*
X61365000Y28115000D03*
X61365000Y29415000D03*
X61365000Y28765000D03*
D14*
X47620000Y18170000D03*
X47620000Y16170000D03*
X47620000Y14170000D03*
D15*
X55640000Y41380000D03*
X56910000Y41380000D03*
X58180000Y41380000D03*
X59450000Y41380000D03*
X60720000Y41380000D03*
X61990000Y41380000D03*
X54370000Y41380000D03*
X63260000Y41380000D03*
X64530000Y41380000D03*
X65800000Y41380000D03*
X67070000Y41380000D03*
D16*
X52620000Y57400000D03*
X52620000Y56130000D03*
X52620000Y54860000D03*
X52620000Y53590000D03*
X52620000Y52320000D03*
X52620000Y51050000D03*
X52620000Y49780000D03*
X52620000Y48510000D03*
X52620000Y47240000D03*
X52620000Y45970000D03*
X52620000Y44700000D03*
X52620000Y43430000D03*
X68820000Y57400000D03*
X68820000Y56130000D03*
X68820000Y54860000D03*
X68820000Y53590000D03*
X68820000Y52320000D03*
X68820000Y51050000D03*
X68820000Y49780000D03*
X68820000Y48510000D03*
X68820000Y47240000D03*
X68820000Y45970000D03*
X68820000Y44700000D03*
X68820000Y43430000D03*
D17*
X88340000Y19000000D03*
X86440000Y19000000D03*
X86440000Y21700000D03*
X88340000Y21700000D03*
X87390000Y21700000D03*
D14*
X47620000Y30470000D03*
X47620000Y28470000D03*
X47620000Y26470000D03*
D18*
X64840000Y29590000D03*
X67040000Y29590000D03*
X67040000Y27180000D03*
X64840000Y27180000D03*
D19*
X65310000Y6060000D03*
X65310000Y8260000D03*
X65310000Y11490000D03*
X65310000Y13690000D03*
X75050000Y6040000D03*
X75050000Y8240000D03*
X75050000Y11500000D03*
X75050000Y13700000D03*
X57020000Y6060000D03*
X57020000Y8260000D03*
X57010000Y11500000D03*
X57010000Y13700000D03*
X73440000Y55860000D03*
X73440000Y53660000D03*
X78770000Y53620000D03*
X78770000Y55820000D03*
D20*
X67900000Y8390000D03*
X69800000Y8390000D03*
X68850000Y5890000D03*
X67880000Y13880000D03*
X69780000Y13880000D03*
X68830000Y11380000D03*
D21*
X88970000Y34330000D03*
X90570000Y34330000D03*
X90570000Y32500000D03*
X90570000Y30670000D03*
X88970000Y30670000D03*
X88970000Y32500000D03*
D22*
X78420000Y25240000D03*
D23*
X75880000Y25240000D03*
D22*
X78430000Y20400000D03*
D23*
X75890000Y20400000D03*
D22*
X75850000Y34960000D03*
D23*
X78390000Y34960000D03*
D22*
X75850000Y30130000D03*
D23*
X78390000Y30130000D03*
D19*
X72380000Y6040000D03*
X72380000Y8240000D03*
X72400000Y11490000D03*
X72400000Y13690000D03*
D24*
X59870000Y5910000D03*
X59870000Y8410000D03*
X59850000Y11350000D03*
X59850000Y13850000D03*
D19*
X76100000Y53660000D03*
X76100000Y55860000D03*
D18*
X59090000Y24790000D03*
X61290000Y24790000D03*
X59120000Y32130000D03*
X61320000Y32130000D03*
D19*
X62730000Y6060000D03*
X62730000Y8260000D03*
X62700000Y11500000D03*
X62700000Y13700000D03*
D18*
X86450000Y13970000D03*
X88650000Y13970000D03*
X86450000Y11470000D03*
X88650000Y11470000D03*
X88660000Y16450000D03*
X86460000Y16450000D03*
X61180000Y37870000D03*
X58980000Y37870000D03*
D19*
X51450000Y15060000D03*
X51450000Y17260000D03*
D18*
X86420000Y24080000D03*
X88620000Y24080000D03*
X86410000Y26920000D03*
X88610000Y26920000D03*
D19*
X51450000Y27340000D03*
X51450000Y29540000D03*
D25*
X51450000Y13140000D03*
X51470000Y24790000D03*
X76890000Y13140000D03*
X79880000Y32430000D03*
X81050000Y22750000D03*
X73050000Y18330000D03*
X72210000Y21300000D03*
X62970000Y39090000D03*
X62610000Y52320000D03*
X59320000Y52320000D03*
X59490000Y48290000D03*
X62670000Y48260000D03*
X76110000Y51590000D03*
X86450000Y37930000D03*
X84850000Y30660000D03*
X62820000Y32130000D03*
X63210000Y24790000D03*
X79900000Y9870000D03*
X69800000Y15760000D03*
X76670000Y9880000D03*
X83240000Y40540000D03*
X80130000Y40540000D03*
X54420000Y38600000D03*
X71080000Y39100000D03*
X71100000Y40470000D03*
X56100000Y37710000D03*
X73620000Y47400000D03*
X71460000Y47240000D03*
X71050000Y30070000D03*
X64840000Y24610000D03*
X69660000Y36100000D03*
X74160000Y51690000D03*
X75860000Y37480000D03*
X73230000Y50170000D03*
X71010000Y37680000D03*
X64840000Y33160000D03*
X75770000Y39100000D03*
D26*
X67090000Y37870000D02*
X68880000Y37870000D01*
X69720000Y38710000D02*
X69720000Y40980000D01*
X68880000Y37870000D02*
X69720000Y38710000D01*
X59120000Y32130000D02*
X57920000Y32130000D01*
X57500000Y31710000D02*
X57500000Y24790000D01*
X57920000Y32130000D02*
X57500000Y31710000D01*
X70540000Y41800000D02*
X69720000Y40980000D01*
X77340000Y43760000D02*
X75410000Y43760000D01*
X72500000Y43760000D02*
X70540000Y41800000D01*
X75410000Y43760000D02*
X72500000Y43760000D01*
X77340000Y45950000D02*
X77340000Y43760000D01*
X77340000Y43760000D02*
X77340000Y43770000D01*
X77340000Y43770000D02*
X77340000Y43760000D01*
X77340000Y45950000D02*
X77340000Y49710000D01*
X67040000Y35490000D02*
X67040000Y37820000D01*
X67040000Y37820000D02*
X67090000Y37870000D01*
X61180000Y37870000D02*
X67090000Y37870000D01*
X67040000Y29590000D02*
X67040000Y35490000D01*
X71370000Y16700000D02*
X72160000Y15910000D01*
X76200000Y15910000D02*
X78190000Y13920000D01*
X72160000Y15910000D02*
X76200000Y15910000D01*
X60720000Y41380000D02*
X60720000Y38330000D01*
X60720000Y38330000D02*
X61180000Y37870000D01*
X78770000Y51140000D02*
X78770000Y53620000D01*
X77340000Y49710000D02*
X78770000Y51140000D01*
X79530000Y43760000D02*
X77340000Y43760000D01*
X67040000Y27180000D02*
X67040000Y21030000D01*
X78190000Y13920000D02*
X78190000Y11400000D01*
X67050000Y21020000D02*
X71370000Y16700000D01*
X67040000Y21030000D02*
X67050000Y21020000D01*
X67040000Y29590000D02*
X67040000Y27180000D01*
X67040000Y29590000D02*
X67040000Y30690000D01*
X67040000Y27180000D02*
X67050000Y27170000D01*
D27*
X59120000Y32130000D02*
X59120000Y29460000D01*
X59120000Y29460000D02*
X59165000Y29415000D01*
X59165000Y29415000D02*
X59165000Y28765000D01*
X59165000Y28765000D02*
X59915000Y28765000D01*
X60565000Y28115000D02*
X61215000Y28115000D01*
X59915000Y28765000D02*
X60565000Y28115000D01*
D28*
X59090000Y24790000D02*
X59090000Y27390000D01*
X59090000Y27390000D02*
X59165000Y27465000D01*
D26*
X51450000Y15060000D02*
X51450000Y13140000D01*
X52280000Y24790000D02*
X51470000Y24790000D01*
X56240000Y24790000D02*
X52280000Y24790000D01*
X51450000Y24810000D02*
X51450000Y27340000D01*
X51470000Y24790000D02*
X51450000Y24810000D01*
X61180000Y37870000D02*
X61180000Y36550000D01*
X59120000Y34490000D02*
X59120000Y32130000D01*
X61180000Y36550000D02*
X59120000Y34490000D01*
X56240000Y24790000D02*
X57500000Y24790000D01*
X57500000Y24790000D02*
X59090000Y24790000D01*
X86450000Y13970000D02*
X85190000Y13970000D01*
X85100000Y19000000D02*
X86440000Y19000000D01*
X84470000Y18370000D02*
X85100000Y19000000D01*
X84470000Y14690000D02*
X84470000Y18370000D01*
X85190000Y13970000D02*
X84470000Y14690000D01*
X86450000Y13970000D02*
X86450000Y11470000D01*
X78190000Y10520000D02*
X78190000Y11400000D01*
X78190000Y10520000D02*
X78190000Y7490000D01*
X78190000Y7490000D02*
X76740000Y6040000D01*
X75050000Y6040000D02*
X76740000Y6040000D01*
X78190000Y11400000D02*
X78090000Y11500000D01*
X75050000Y11500000D02*
X78090000Y11500000D01*
X78090000Y11500000D02*
X86420000Y11500000D01*
X86420000Y11500000D02*
X86450000Y11470000D01*
X75050000Y11500000D02*
X77210000Y11500000D01*
X47620000Y14170000D02*
X48980000Y14170000D01*
X49870000Y15060000D02*
X51450000Y15060000D01*
X48980000Y14170000D02*
X49870000Y15060000D01*
X47620000Y26470000D02*
X49060000Y26470000D01*
X49060000Y26470000D02*
X49930000Y27340000D01*
X49930000Y27340000D02*
X51450000Y27340000D01*
X72210000Y21300000D02*
X72210000Y19170000D01*
X72210000Y19170000D02*
X73050000Y18330000D01*
X72210000Y21300000D02*
X72250000Y21300000D01*
X62670000Y52260000D02*
X62610000Y52320000D01*
X62670000Y52260000D02*
X62670000Y48260000D01*
X59450000Y48250000D02*
X59490000Y48290000D01*
X59450000Y41380000D02*
X59450000Y48250000D01*
X62670000Y48260000D02*
X62670000Y48240000D01*
X76110000Y53650000D02*
X76110000Y51590000D01*
X76110000Y53650000D02*
X76100000Y53660000D01*
X51860000Y29540000D02*
X56960000Y34640000D01*
X58260000Y35940000D02*
X56960000Y34640000D01*
X58260000Y35940000D02*
X58980000Y36660000D01*
X58980000Y36660000D02*
X58980000Y37870000D01*
X51860000Y29540000D02*
X51450000Y29540000D01*
X84850000Y33840000D02*
X86450000Y35440000D01*
X86450000Y35440000D02*
X86450000Y37930000D01*
X84850000Y30660000D02*
X84850000Y33840000D01*
X59450000Y41380000D02*
X59450000Y38340000D01*
X59450000Y38340000D02*
X58980000Y37870000D01*
X88970000Y30670000D02*
X88610000Y30310000D01*
X88610000Y30310000D02*
X88610000Y26920000D01*
X88610000Y26920000D02*
X88620000Y26910000D01*
X88620000Y26910000D02*
X88620000Y24080000D01*
X61320000Y32130000D02*
X62820000Y32130000D01*
X61290000Y24790000D02*
X63210000Y24790000D01*
D27*
X59165000Y28115000D02*
X59705000Y28115000D01*
X60355000Y27465000D02*
X61215000Y27465000D01*
X59705000Y28115000D02*
X60355000Y27465000D01*
D28*
X61215000Y27465000D02*
X61215000Y24865000D01*
X61215000Y24865000D02*
X61290000Y24790000D01*
D26*
X79900000Y9870000D02*
X88070000Y9870000D01*
X88650000Y10450000D02*
X88650000Y11470000D01*
X88070000Y9870000D02*
X88650000Y10450000D01*
X69780000Y15740000D02*
X69780000Y15090000D01*
X69780000Y15090000D02*
X69780000Y13880000D01*
X69780000Y15740000D02*
X69800000Y15760000D01*
X69100000Y15740000D02*
X69780000Y15740000D01*
X69780000Y15740000D02*
X69800000Y15760000D01*
D29*
X88340000Y21700000D02*
X88340000Y23800000D01*
X88340000Y23800000D02*
X88620000Y24080000D01*
D30*
X87390000Y21700000D02*
X88340000Y21700000D01*
X86460000Y16450000D02*
X86460000Y16900000D01*
X86460000Y16900000D02*
X87390000Y17830000D01*
X87390000Y17830000D02*
X87390000Y21700000D01*
D26*
X86460000Y16450000D02*
X86460000Y16300000D01*
X86460000Y16300000D02*
X88650000Y14110000D01*
X88650000Y14110000D02*
X88650000Y13970000D01*
X88650000Y13970000D02*
X88650000Y11470000D01*
X75440000Y9880000D02*
X76670000Y9880000D01*
X69800000Y9880000D02*
X75440000Y9880000D01*
X62700000Y15740000D02*
X69100000Y15740000D01*
X69100000Y15740000D02*
X69130000Y15740000D01*
X61290000Y24790000D02*
X61290000Y17250000D01*
X62700000Y15840000D02*
X62700000Y15740000D01*
X62700000Y15740000D02*
X62700000Y13700000D01*
X61290000Y17250000D02*
X62700000Y15840000D01*
X69800000Y8390000D02*
X69800000Y9880000D01*
X69800000Y9880000D02*
X69800000Y9890000D01*
X69800000Y9890000D02*
X69800000Y9880000D01*
X62580000Y9880000D02*
X69800000Y9880000D01*
X51450000Y17260000D02*
X52970000Y17260000D01*
X62730000Y9730000D02*
X62580000Y9880000D01*
X62580000Y9880000D02*
X55700000Y9880000D01*
X62730000Y9730000D02*
X62730000Y8260000D01*
X55200000Y9880000D02*
X55700000Y9880000D01*
X53650000Y11430000D02*
X55200000Y9880000D01*
X53650000Y16580000D02*
X53650000Y11430000D01*
X52970000Y17260000D02*
X53650000Y16580000D01*
X47620000Y18170000D02*
X48600000Y18170000D01*
X49510000Y17260000D02*
X51450000Y17260000D01*
X48600000Y18170000D02*
X49510000Y17260000D01*
X47620000Y30470000D02*
X48510000Y30470000D01*
X48510000Y30470000D02*
X49440000Y29540000D01*
X49440000Y29540000D02*
X51450000Y29540000D01*
X88970000Y34330000D02*
X87330000Y34330000D01*
X86410000Y33410000D02*
X86410000Y26920000D01*
X87330000Y34330000D02*
X86410000Y33410000D01*
X86410000Y26920000D02*
X86420000Y26910000D01*
X86420000Y26910000D02*
X86420000Y24080000D01*
D29*
X86440000Y21700000D02*
X86440000Y24060000D01*
X86440000Y24060000D02*
X86420000Y24080000D01*
D26*
X88660000Y16450000D02*
X88660000Y18680000D01*
X88660000Y18680000D02*
X88340000Y19000000D01*
X62700000Y11500000D02*
X65300000Y11500000D01*
X65300000Y11500000D02*
X65310000Y11490000D01*
X59850000Y11350000D02*
X62550000Y11350000D01*
X62550000Y11350000D02*
X62700000Y11500000D01*
X62730000Y6060000D02*
X65310000Y6060000D01*
X59870000Y5910000D02*
X62580000Y5910000D01*
X62580000Y5910000D02*
X62730000Y6060000D01*
X73440000Y55860000D02*
X76100000Y55860000D01*
X57010000Y13700000D02*
X59700000Y13700000D01*
X59700000Y13700000D02*
X59850000Y13850000D01*
X57020000Y8260000D02*
X59720000Y8260000D01*
X59720000Y8260000D02*
X59870000Y8410000D01*
X68830000Y11380000D02*
X72290000Y11380000D01*
X72290000Y11380000D02*
X72400000Y11490000D01*
X72400000Y13690000D02*
X75040000Y13690000D01*
X75040000Y13690000D02*
X75050000Y13700000D01*
X68850000Y5890000D02*
X72230000Y5890000D01*
X72230000Y5890000D02*
X72380000Y6040000D01*
X72380000Y8240000D02*
X75050000Y8240000D01*
X83240000Y40540000D02*
X84030000Y40540000D01*
X85370000Y46170000D02*
X83150000Y48390000D01*
X85370000Y41880000D02*
X85370000Y46170000D01*
X84030000Y40540000D02*
X85370000Y41880000D01*
X83150000Y48390000D02*
X80720000Y48390000D01*
X83070000Y37460000D02*
X83070000Y40370000D01*
X83070000Y40370000D02*
X83240000Y40540000D01*
X72150000Y39100000D02*
X73590000Y40540000D01*
X73590000Y40540000D02*
X80130000Y40540000D01*
X55640000Y41380000D02*
X55640000Y39820000D01*
X54420000Y38600000D02*
X55640000Y39820000D01*
X71080000Y39100000D02*
X72150000Y39100000D01*
X79530000Y46300000D02*
X79530000Y47200000D01*
X79530000Y47200000D02*
X80720000Y48390000D01*
X75890000Y20400000D02*
X75890000Y18450000D01*
X83070000Y20660000D02*
X83070000Y37460000D01*
X80220000Y17810000D02*
X83070000Y20660000D01*
X76530000Y17810000D02*
X80220000Y17810000D01*
X75890000Y18450000D02*
X76530000Y17810000D01*
X81510000Y41920000D02*
X83070000Y41920000D01*
X83860000Y42710000D02*
X83860000Y44510000D01*
X83070000Y41920000D02*
X83860000Y42710000D01*
X83860000Y44510000D02*
X82070000Y46300000D01*
X81510000Y41920000D02*
X81510000Y39880000D01*
X81510000Y39880000D02*
X81510000Y39330000D01*
X81510000Y41920000D02*
X81510000Y41930000D01*
X81510000Y41930000D02*
X81510000Y41920000D01*
X71100000Y40470000D02*
X71580000Y40470000D01*
X56910000Y38520000D02*
X56100000Y37710000D01*
X56910000Y41380000D02*
X56910000Y38520000D01*
X73030000Y41920000D02*
X81510000Y41920000D01*
X71580000Y40470000D02*
X73030000Y41920000D01*
X81510000Y38350000D02*
X81510000Y39330000D01*
X75850000Y30130000D02*
X75850000Y28490000D01*
X75850000Y28490000D02*
X76710000Y27630000D01*
X76710000Y27630000D02*
X80410000Y27630000D01*
X80410000Y27630000D02*
X81510000Y28730000D01*
X81510000Y28730000D02*
X81510000Y38350000D01*
X81510000Y39330000D02*
X81510000Y39350000D01*
X78390000Y34960000D02*
X78390000Y30130000D01*
X68820000Y48510000D02*
X72510000Y48510000D01*
X72510000Y48510000D02*
X73620000Y47400000D01*
X57010000Y11500000D02*
X55730000Y11500000D01*
X55250000Y18720000D02*
X54090000Y19880000D01*
X55250000Y11980000D02*
X55250000Y18720000D01*
X55730000Y11500000D02*
X55250000Y11980000D01*
X47620000Y28470000D02*
X46880000Y28470000D01*
X46880000Y28470000D02*
X45670000Y27260000D01*
X51770000Y22200000D02*
X54090000Y19880000D01*
X49110000Y22200000D02*
X51770000Y22200000D01*
X45670000Y25640000D02*
X49110000Y22200000D01*
X45670000Y27260000D02*
X45670000Y25640000D01*
X78420000Y25240000D02*
X78420000Y20410000D01*
X78420000Y20410000D02*
X78430000Y20400000D01*
X68820000Y47240000D02*
X71460000Y47240000D01*
X71050000Y30070000D02*
X75880000Y25240000D01*
X47620000Y16170000D02*
X46810000Y16170000D01*
X52940000Y6060000D02*
X57020000Y6060000D01*
X45680000Y13320000D02*
X52940000Y6060000D01*
X45680000Y15040000D02*
X45680000Y13320000D01*
X46810000Y16170000D02*
X45680000Y15040000D01*
X65310000Y13690000D02*
X67690000Y13690000D01*
X67690000Y13690000D02*
X67880000Y13880000D01*
X65310000Y8260000D02*
X67770000Y8260000D01*
X67770000Y8260000D02*
X67900000Y8390000D01*
X73440000Y53660000D02*
X72180000Y53660000D01*
X70980000Y54860000D02*
X68820000Y54860000D01*
X72180000Y53660000D02*
X70980000Y54860000D01*
X64840000Y27180000D02*
X64840000Y24610000D01*
X74630000Y37480000D02*
X73250000Y36100000D01*
X73250000Y36100000D02*
X69660000Y36100000D01*
X71490000Y52320000D02*
X68820000Y52320000D01*
X72120000Y51690000D02*
X74160000Y51690000D01*
X71490000Y52320000D02*
X72120000Y51690000D01*
X75860000Y37480000D02*
X74630000Y37480000D01*
D27*
X61215000Y28765000D02*
X62195000Y28765000D01*
X63780000Y27180000D02*
X64840000Y27180000D01*
X62195000Y28765000D02*
X63780000Y27180000D01*
D26*
X71010000Y37680000D02*
X72740000Y37680000D01*
X68820000Y51050000D02*
X70680000Y51050000D01*
X71560000Y50170000D02*
X73230000Y50170000D01*
X70680000Y51050000D02*
X71560000Y50170000D01*
X64840000Y33160000D02*
X64840000Y29590000D01*
X74160000Y39100000D02*
X75770000Y39100000D01*
X72740000Y37680000D02*
X74160000Y39100000D01*
D27*
X61215000Y29415000D02*
X64665000Y29415000D01*
X64665000Y29415000D02*
X64840000Y29590000D01*
D26*
X68820000Y57400000D02*
X71200000Y57400000D01*
X78770000Y57590000D02*
X78770000Y55820000D01*
X78130000Y58230000D02*
X78770000Y57590000D01*
X72030000Y58230000D02*
X78130000Y58230000D01*
X71200000Y57400000D02*
X72030000Y58230000D01*
D28*
G36*
X51940084Y58511754D02*
X51620000Y58511754D01*
X51397654Y58469917D01*
X51193442Y58338510D01*
X51056444Y58138007D01*
X51008246Y57900000D01*
X51008246Y56900000D01*
X51034581Y56760043D01*
X51008246Y56630000D01*
X51008246Y55630000D01*
X51034581Y55490043D01*
X51008246Y55360000D01*
X51008246Y54360000D01*
X51034581Y54220043D01*
X51008246Y54090000D01*
X51008246Y53090000D01*
X51034581Y52950043D01*
X51008246Y52820000D01*
X51008246Y51820000D01*
X51034581Y51680043D01*
X51008246Y51550000D01*
X51008246Y50550000D01*
X51034581Y50410043D01*
X51008246Y50280000D01*
X51008246Y49280000D01*
X51034581Y49140043D01*
X51008246Y49010000D01*
X51008246Y48010000D01*
X51034581Y47870043D01*
X51008246Y47740000D01*
X51008246Y46740000D01*
X51034581Y46600043D01*
X51008246Y46470000D01*
X51008246Y45470000D01*
X51034581Y45330043D01*
X51008246Y45200000D01*
X51008246Y44200000D01*
X51034581Y44060043D01*
X51008246Y43930000D01*
X51008246Y42930000D01*
X51050083Y42707654D01*
X51181490Y42503442D01*
X51381993Y42366444D01*
X51620000Y42318246D01*
X53258246Y42318246D01*
X53258246Y40380000D01*
X53300083Y40157654D01*
X53431490Y39953442D01*
X53631993Y39816444D01*
X53870000Y39768246D01*
X54174032Y39768246D01*
X53712893Y39307107D01*
X53572736Y39167194D01*
X53496121Y38982686D01*
X53496120Y38982684D01*
X53496120Y38982682D01*
X53420174Y38799785D01*
X53419827Y38401960D01*
X53571747Y38034286D01*
X53852806Y37752736D01*
X54037314Y37676121D01*
X54037316Y37676120D01*
X54037318Y37676120D01*
X54220215Y37600174D01*
X54618040Y37599827D01*
X54802682Y37676120D01*
X54802684Y37676120D01*
X54802686Y37676121D01*
X54985714Y37751747D01*
X55100136Y37865969D01*
X55099827Y37511960D01*
X55251747Y37144286D01*
X55532806Y36862736D01*
X55717314Y36786121D01*
X55717316Y36786120D01*
X55717318Y36786120D01*
X55900215Y36710174D01*
X56298040Y36709827D01*
X56482682Y36786120D01*
X56482684Y36786120D01*
X56482686Y36786121D01*
X56665714Y36861747D01*
X56947264Y37142806D01*
X56947437Y37143223D01*
X57617107Y37812893D01*
X57833880Y38137316D01*
X57910000Y38520000D01*
X57910000Y39768246D01*
X58680000Y39768246D01*
X58902346Y39810083D01*
X59106558Y39941490D01*
X59243556Y40141993D01*
X59291754Y40380000D01*
X59291754Y42380000D01*
X59249917Y42602346D01*
X59118510Y42806558D01*
X58918007Y42943556D01*
X58680000Y42991754D01*
X57680000Y42991754D01*
X57540043Y42965419D01*
X57410000Y42991754D01*
X56410000Y42991754D01*
X56270043Y42965419D01*
X56140000Y42991754D01*
X55140000Y42991754D01*
X55000043Y42965419D01*
X54870000Y42991754D01*
X54231754Y42991754D01*
X54231754Y43930000D01*
X54205419Y44069957D01*
X54231754Y44200000D01*
X54231754Y45200000D01*
X54205419Y45339957D01*
X54231754Y45470000D01*
X54231754Y46470000D01*
X54205419Y46609957D01*
X54231754Y46740000D01*
X54231754Y47740000D01*
X54205419Y47879957D01*
X54231754Y48010000D01*
X54231754Y49010000D01*
X54205419Y49149957D01*
X54231754Y49280000D01*
X54231754Y50280000D01*
X54205419Y50419957D01*
X54231754Y50550000D01*
X54231754Y51550000D01*
X54205419Y51689957D01*
X54231754Y51820000D01*
X54231754Y52820000D01*
X54205419Y52959957D01*
X54231754Y53090000D01*
X54231754Y54090000D01*
X54205419Y54229957D01*
X54231754Y54360000D01*
X54231754Y55360000D01*
X54205419Y55499957D01*
X54231754Y55630000D01*
X54231754Y56630000D01*
X54205419Y56769957D01*
X54231754Y56900000D01*
X54231754Y57900000D01*
X54189917Y58122346D01*
X54101339Y58260000D01*
X67339798Y58260000D01*
X67256444Y58138007D01*
X67208246Y57900000D01*
X67208246Y56900000D01*
X67234581Y56760043D01*
X67208246Y56630000D01*
X67208246Y55630000D01*
X67234581Y55490043D01*
X67208246Y55360000D01*
X67208246Y54360000D01*
X67234581Y54220043D01*
X67208246Y54090000D01*
X67208246Y53090000D01*
X67234581Y52950043D01*
X67208246Y52820000D01*
X67208246Y51820000D01*
X67234581Y51680043D01*
X67208246Y51550000D01*
X67208246Y50550000D01*
X67234581Y50410043D01*
X67208246Y50280000D01*
X67208246Y49280000D01*
X67234581Y49140043D01*
X67208246Y49010000D01*
X67208246Y48010000D01*
X67234581Y47870043D01*
X67208246Y47740000D01*
X67208246Y46740000D01*
X67234581Y46600043D01*
X67208246Y46470000D01*
X67208246Y45470000D01*
X67234581Y45330043D01*
X67208246Y45200000D01*
X67208246Y44200000D01*
X67234581Y44060043D01*
X67208246Y43930000D01*
X67208246Y42991754D01*
X66570000Y42991754D01*
X66430043Y42965419D01*
X66300000Y42991754D01*
X65300000Y42991754D01*
X65160043Y42965419D01*
X65030000Y42991754D01*
X64030000Y42991754D01*
X63890043Y42965419D01*
X63760000Y42991754D01*
X62760000Y42991754D01*
X62620043Y42965419D01*
X62490000Y42991754D01*
X61490000Y42991754D01*
X61350043Y42965419D01*
X61220000Y42991754D01*
X60220000Y42991754D01*
X59997654Y42949917D01*
X59793442Y42818510D01*
X59656444Y42618007D01*
X59608246Y42380000D01*
X59608246Y40380000D01*
X59650083Y40157654D01*
X59720000Y40049000D01*
X59720000Y38330000D01*
X59796120Y37947316D01*
X59968246Y37689712D01*
X59968246Y37420000D01*
X60010083Y37197654D01*
X60141490Y36993442D01*
X60180000Y36967129D01*
X60180000Y36964214D01*
X58412893Y35197107D01*
X58196120Y34872684D01*
X58196120Y34872683D01*
X58120000Y34490000D01*
X58120000Y33130000D01*
X57920005Y33130000D01*
X57920000Y33130001D01*
X57537316Y33053880D01*
X57212893Y32837107D01*
X56792893Y32417107D01*
X56576120Y32092684D01*
X56576120Y32092683D01*
X56500000Y31710000D01*
X56500000Y25790000D01*
X52450000Y25790000D01*
X52450000Y26482153D01*
X52463556Y26501993D01*
X52511754Y26740000D01*
X52511754Y27940000D01*
X52469917Y28162346D01*
X52338510Y28366558D01*
X52138007Y28503556D01*
X51900000Y28551754D01*
X51000000Y28551754D01*
X50777654Y28509917D01*
X50573442Y28378510D01*
X50547129Y28340000D01*
X49930000Y28340000D01*
X49547316Y28263880D01*
X49222893Y28047107D01*
X48645786Y27470000D01*
X48529269Y27470000D01*
X48529190Y27470079D01*
X48763807Y27704288D01*
X48969765Y28200290D01*
X48970234Y28737353D01*
X48765142Y29233715D01*
X48385712Y29613807D01*
X47889710Y29819765D01*
X47352647Y29820234D01*
X46856285Y29615142D01*
X46668808Y29427992D01*
X46497317Y29393880D01*
X46172893Y29177107D01*
X46172891Y29177104D01*
X44962893Y27967107D01*
X44746120Y27642684D01*
X44713080Y27476580D01*
X44670000Y27260000D01*
X44670000Y25640000D01*
X44746120Y25257316D01*
X44962893Y24932893D01*
X48402893Y21492893D01*
X48727316Y21276120D01*
X49110000Y21199999D01*
X49110005Y21200000D01*
X51355786Y21200000D01*
X53382891Y19172896D01*
X53382893Y19172893D01*
X54250000Y18305786D01*
X54250000Y11980000D01*
X54326120Y11597316D01*
X54542893Y11272893D01*
X55022891Y10792896D01*
X55022893Y10792893D01*
X55172554Y10692893D01*
X55347316Y10576120D01*
X55730000Y10499999D01*
X55730005Y10500000D01*
X56104400Y10500000D01*
X56121490Y10473442D01*
X56321993Y10336444D01*
X56560000Y10288246D01*
X57460000Y10288246D01*
X57682346Y10330083D01*
X57886558Y10461490D01*
X58023556Y10661993D01*
X58071754Y10900000D01*
X58071754Y11350000D01*
X58850000Y11350000D01*
X58926120Y10967317D01*
X58938246Y10949169D01*
X58938246Y10850000D01*
X58980083Y10627654D01*
X59111490Y10423442D01*
X59311993Y10286444D01*
X59550000Y10238246D01*
X60150000Y10238246D01*
X60372346Y10280083D01*
X60481000Y10350000D01*
X61992153Y10350000D01*
X62011993Y10336444D01*
X62250000Y10288246D01*
X63150000Y10288246D01*
X63372346Y10330083D01*
X63576558Y10461490D01*
X63602871Y10500000D01*
X64397966Y10500000D01*
X64421490Y10463442D01*
X64621993Y10326444D01*
X64860000Y10278246D01*
X65760000Y10278246D01*
X65982346Y10320083D01*
X66186558Y10451490D01*
X66323556Y10651993D01*
X66371754Y10890000D01*
X66371754Y12090000D01*
X66329917Y12312346D01*
X66198510Y12516558D01*
X66091012Y12590008D01*
X66186558Y12651490D01*
X66212871Y12690000D01*
X67249074Y12690000D01*
X67479950Y12643246D01*
X68280050Y12643246D01*
X68502396Y12685083D01*
X68706608Y12816490D01*
X68843606Y13016993D01*
X68891804Y13255000D01*
X68891804Y14505000D01*
X68849967Y14727346D01*
X68718560Y14931558D01*
X68518057Y15068556D01*
X68280050Y15116754D01*
X67479950Y15116754D01*
X67257604Y15074917D01*
X67053392Y14943510D01*
X66916394Y14743007D01*
X66905660Y14690000D01*
X66215600Y14690000D01*
X66198510Y14716558D01*
X65998007Y14853556D01*
X65760000Y14901754D01*
X64860000Y14901754D01*
X64637654Y14859917D01*
X64433442Y14728510D01*
X64296444Y14528007D01*
X64248246Y14290000D01*
X64248246Y13090000D01*
X64290083Y12867654D01*
X64421490Y12663442D01*
X64528988Y12589992D01*
X64433442Y12528510D01*
X64413962Y12500000D01*
X63605600Y12500000D01*
X63588510Y12526558D01*
X63388007Y12663556D01*
X63150000Y12711754D01*
X62250000Y12711754D01*
X62027654Y12669917D01*
X61823442Y12538510D01*
X61694638Y12350000D01*
X60481024Y12350000D01*
X60388007Y12413556D01*
X60150000Y12461754D01*
X59550000Y12461754D01*
X59327654Y12419917D01*
X59123442Y12288510D01*
X58986444Y12088007D01*
X58938246Y11850000D01*
X58938246Y11750831D01*
X58926120Y11732683D01*
X58850000Y11350000D01*
X58071754Y11350000D01*
X58071754Y12100000D01*
X58029917Y12322346D01*
X57898510Y12526558D01*
X57791012Y12600008D01*
X57886558Y12661490D01*
X57912871Y12700000D01*
X59700000Y12700000D01*
X59892277Y12738246D01*
X60150000Y12738246D01*
X60372346Y12780083D01*
X60576558Y12911490D01*
X60713556Y13111993D01*
X60761754Y13350000D01*
X60761754Y13449168D01*
X60773880Y13467316D01*
X60850000Y13850000D01*
X60773880Y14232684D01*
X60761754Y14250832D01*
X60761754Y14350000D01*
X60719917Y14572346D01*
X60588510Y14776558D01*
X60388007Y14913556D01*
X60150000Y14961754D01*
X59550000Y14961754D01*
X59327654Y14919917D01*
X59123442Y14788510D01*
X59062966Y14700000D01*
X57915600Y14700000D01*
X57898510Y14726558D01*
X57698007Y14863556D01*
X57460000Y14911754D01*
X56560000Y14911754D01*
X56337654Y14869917D01*
X56250000Y14813513D01*
X56250000Y18720000D01*
X56212801Y18907011D01*
X56173880Y19102684D01*
X55957107Y19427107D01*
X54797107Y20587107D01*
X54797104Y20587109D01*
X52477107Y22907107D01*
X52152684Y23123880D01*
X51770000Y23200000D01*
X49524214Y23200000D01*
X47604201Y25120013D01*
X47887353Y25119766D01*
X48383715Y25324858D01*
X48529110Y25470000D01*
X49060000Y25470000D01*
X49442684Y25546120D01*
X49767107Y25762893D01*
X50344214Y26340000D01*
X50450000Y26340000D01*
X50450000Y24810000D01*
X50469930Y24709805D01*
X50469827Y24591960D01*
X50515225Y24482088D01*
X50526120Y24427316D01*
X50556875Y24381288D01*
X50621747Y24224286D01*
X50742822Y24103000D01*
X50742893Y24102893D01*
X50762893Y24082893D01*
X50902806Y23942736D01*
X51270215Y23790174D01*
X51668040Y23789827D01*
X51668459Y23790000D01*
X58232153Y23790000D01*
X58251993Y23776444D01*
X58490000Y23728246D01*
X59690000Y23728246D01*
X59912346Y23770083D01*
X60116558Y23901490D01*
X60253556Y24101993D01*
X60301754Y24340000D01*
X60301754Y25240000D01*
X60259917Y25462346D01*
X60128510Y25666558D01*
X59928007Y25803556D01*
X59890000Y25811253D01*
X59890000Y26922387D01*
X59978556Y27051993D01*
X60026754Y27290000D01*
X60026754Y27560469D01*
X60268420Y27398993D01*
X60565000Y27340000D01*
X60906957Y27340000D01*
X60965000Y27328246D01*
X61765000Y27328246D01*
X61987346Y27370083D01*
X62191558Y27501490D01*
X62260944Y27603040D01*
X63231990Y26631995D01*
X63231992Y26631992D01*
X63483420Y26463993D01*
X63729701Y26415005D01*
X63801490Y26303442D01*
X63840000Y26277129D01*
X63840000Y24610299D01*
X63839827Y24411960D01*
X63991747Y24044286D01*
X64272806Y23762736D01*
X64640215Y23610174D01*
X65038040Y23609827D01*
X65405714Y23761747D01*
X65687264Y24042806D01*
X65839826Y24410215D01*
X65840173Y24808040D01*
X65840000Y24808459D01*
X65840000Y26274400D01*
X65866558Y26291490D01*
X65940008Y26398988D01*
X66001490Y26303442D01*
X66040000Y26277129D01*
X66040000Y21030000D01*
X66116120Y20647316D01*
X66332893Y20322893D01*
X66342893Y20312893D01*
X70662891Y15992896D01*
X70662893Y15992893D01*
X71452893Y15202893D01*
X71777316Y14986120D01*
X72160000Y14909999D01*
X72160005Y14910000D01*
X74590678Y14910000D01*
X74377654Y14869917D01*
X74173442Y14738510D01*
X74140296Y14690000D01*
X73305600Y14690000D01*
X73288510Y14716558D01*
X73088007Y14853556D01*
X72850000Y14901754D01*
X71950000Y14901754D01*
X71727654Y14859917D01*
X71523442Y14728510D01*
X71386444Y14528007D01*
X71338246Y14290000D01*
X71338246Y13090000D01*
X71380083Y12867654D01*
X71511490Y12663442D01*
X71618988Y12589992D01*
X71523442Y12528510D01*
X71421969Y12380000D01*
X69701737Y12380000D01*
X69668560Y12431558D01*
X69468057Y12568556D01*
X69230050Y12616754D01*
X68429950Y12616754D01*
X68207604Y12574917D01*
X68003392Y12443510D01*
X67866394Y12243007D01*
X67818196Y12005000D01*
X67818196Y10755000D01*
X67860033Y10532654D01*
X67991440Y10328442D01*
X68191943Y10191444D01*
X68429950Y10143246D01*
X69230050Y10143246D01*
X69452396Y10185083D01*
X69656608Y10316490D01*
X69700003Y10380000D01*
X71633611Y10380000D01*
X71711993Y10326444D01*
X71950000Y10278246D01*
X72850000Y10278246D01*
X73072346Y10320083D01*
X73276558Y10451490D01*
X73413556Y10651993D01*
X73461754Y10890000D01*
X73461754Y12090000D01*
X73419917Y12312346D01*
X73288510Y12516558D01*
X73181012Y12590008D01*
X73276558Y12651490D01*
X73302871Y12690000D01*
X74150835Y12690000D01*
X74161490Y12673442D01*
X74268988Y12599992D01*
X74173442Y12538510D01*
X74036444Y12338007D01*
X73988246Y12100000D01*
X73988246Y10900000D01*
X74030083Y10677654D01*
X74161490Y10473442D01*
X74361993Y10336444D01*
X74600000Y10288246D01*
X75500000Y10288246D01*
X75722346Y10330083D01*
X75926558Y10461490D01*
X75952871Y10500000D01*
X77190000Y10500000D01*
X77190000Y7904214D01*
X76325786Y7040000D01*
X75955600Y7040000D01*
X75938510Y7066558D01*
X75831012Y7140008D01*
X75926558Y7201490D01*
X76063556Y7401993D01*
X76111754Y7640000D01*
X76111754Y8840000D01*
X76069917Y9062346D01*
X75938510Y9266558D01*
X75738007Y9403556D01*
X75500000Y9451754D01*
X74600000Y9451754D01*
X74377654Y9409917D01*
X74173442Y9278510D01*
X74147129Y9240000D01*
X73285600Y9240000D01*
X73268510Y9266558D01*
X73068007Y9403556D01*
X72830000Y9451754D01*
X71930000Y9451754D01*
X71707654Y9409917D01*
X71503442Y9278510D01*
X71366444Y9078007D01*
X71318246Y8840000D01*
X71318246Y7640000D01*
X71360083Y7417654D01*
X71491490Y7213442D01*
X71598988Y7139992D01*
X71503442Y7078510D01*
X71374638Y6890000D01*
X69721737Y6890000D01*
X69688560Y6941558D01*
X69488057Y7078556D01*
X69250050Y7126754D01*
X68449950Y7126754D01*
X68227604Y7084917D01*
X68023392Y6953510D01*
X67886394Y6753007D01*
X67838196Y6515000D01*
X67838196Y5265000D01*
X67880033Y5042654D01*
X68011440Y4838442D01*
X68211943Y4701444D01*
X68449950Y4653246D01*
X69250050Y4653246D01*
X69472396Y4695083D01*
X69676608Y4826490D01*
X69720003Y4890000D01*
X71672153Y4890000D01*
X71691993Y4876444D01*
X71930000Y4828246D01*
X72830000Y4828246D01*
X73052346Y4870083D01*
X73256558Y5001490D01*
X73393556Y5201993D01*
X73441754Y5440000D01*
X73441754Y6640000D01*
X73399917Y6862346D01*
X73268510Y7066558D01*
X73161012Y7140008D01*
X73256558Y7201490D01*
X73282871Y7240000D01*
X74144400Y7240000D01*
X74161490Y7213442D01*
X74268988Y7139992D01*
X74173442Y7078510D01*
X74036444Y6878007D01*
X73988246Y6640000D01*
X73988246Y5440000D01*
X74030083Y5217654D01*
X74161490Y5013442D01*
X74361993Y4876444D01*
X74600000Y4828246D01*
X75500000Y4828246D01*
X75722346Y4870083D01*
X75926558Y5001490D01*
X75952871Y5040000D01*
X76740000Y5040000D01*
X77122684Y5116120D01*
X77447107Y5332893D01*
X78120614Y6006400D01*
X83251100Y6006400D01*
X83460431Y4954021D01*
X84056556Y4061856D01*
X84948721Y3465731D01*
X86001100Y3256400D01*
X87053479Y3465731D01*
X87945644Y4061856D01*
X88541769Y4954021D01*
X88751100Y6006400D01*
X88541769Y7058779D01*
X87945644Y7950944D01*
X87053479Y8547069D01*
X86001100Y8756400D01*
X84948721Y8547069D01*
X84056556Y7950944D01*
X83460431Y7058779D01*
X83251100Y6006400D01*
X78120614Y6006400D01*
X78897107Y6782893D01*
X79113880Y7107316D01*
X79190001Y7490000D01*
X79190000Y7490005D01*
X79190000Y10500000D01*
X85548247Y10500000D01*
X85611993Y10456444D01*
X85850000Y10408246D01*
X87050000Y10408246D01*
X87272346Y10450083D01*
X87476558Y10581490D01*
X87613556Y10781993D01*
X87661754Y11020000D01*
X87661754Y11920000D01*
X87619917Y12142346D01*
X87488510Y12346558D01*
X87450000Y12372871D01*
X87450000Y13064400D01*
X87476558Y13081490D01*
X87613556Y13281993D01*
X87661754Y13520000D01*
X87661754Y14420000D01*
X87619917Y14642346D01*
X87488510Y14846558D01*
X87288007Y14983556D01*
X87050000Y15031754D01*
X85850000Y15031754D01*
X85627654Y14989917D01*
X85601273Y14972941D01*
X85470000Y15104214D01*
X85470000Y17955786D01*
X85514213Y18000000D01*
X85772387Y18000000D01*
X85901993Y17911444D01*
X86140000Y17863246D01*
X86740000Y17863246D01*
X86962346Y17905083D01*
X87166558Y18036490D01*
X87303556Y18236993D01*
X87351754Y18475000D01*
X87351754Y18599169D01*
X87363880Y18617317D01*
X87390000Y18748631D01*
X87416120Y18617316D01*
X87428246Y18599168D01*
X87428246Y18475000D01*
X87470083Y18252654D01*
X87601490Y18048442D01*
X87660000Y18008464D01*
X87660000Y17355600D01*
X87633442Y17338510D01*
X87496444Y17138007D01*
X87448246Y16900000D01*
X87448246Y16000000D01*
X87490083Y15777654D01*
X87621490Y15573442D01*
X87821993Y15436444D01*
X88060000Y15388246D01*
X89260000Y15388246D01*
X89482346Y15430083D01*
X89686558Y15561490D01*
X89823556Y15761993D01*
X89871754Y16000000D01*
X89871754Y16900000D01*
X89829917Y17122346D01*
X89698510Y17326558D01*
X89660000Y17352871D01*
X89660000Y18680000D01*
X89583880Y19062683D01*
X89367107Y19387107D01*
X89251754Y19502460D01*
X89251754Y19525000D01*
X89209917Y19747346D01*
X89078510Y19951558D01*
X88878007Y20088556D01*
X88640000Y20136754D01*
X88040000Y20136754D01*
X87817654Y20094917D01*
X87613442Y19963510D01*
X87476444Y19763007D01*
X87428246Y19525000D01*
X87428246Y19400832D01*
X87416120Y19382684D01*
X87390000Y19251369D01*
X87363880Y19382683D01*
X87351754Y19400831D01*
X87351754Y19525000D01*
X87309917Y19747346D01*
X87178510Y19951558D01*
X86978007Y20088556D01*
X86740000Y20136754D01*
X86140000Y20136754D01*
X85917654Y20094917D01*
X85770149Y20000000D01*
X85100005Y20000000D01*
X85100000Y20000001D01*
X84717316Y19923880D01*
X84555105Y19815494D01*
X84392893Y19707107D01*
X84392891Y19707104D01*
X83762893Y19077107D01*
X83546120Y18752684D01*
X83519194Y18617317D01*
X83470000Y18370000D01*
X83470000Y14690000D01*
X83546120Y14307316D01*
X83762893Y13982893D01*
X84482893Y13262893D01*
X84807316Y13046120D01*
X85190000Y12970000D01*
X85450000Y12970000D01*
X85450000Y12500000D01*
X79190000Y12500000D01*
X79190000Y13920000D01*
X79176424Y13988253D01*
X79113880Y14302684D01*
X78897107Y14627107D01*
X76907107Y16617107D01*
X76618423Y16810000D01*
X80220000Y16810000D01*
X80602684Y16886120D01*
X80927107Y17102893D01*
X83777107Y19952893D01*
X83993880Y20277316D01*
X84070001Y20660000D01*
X84070000Y20660005D01*
X84070000Y39547956D01*
X84412684Y39616120D01*
X84737107Y39832893D01*
X86077107Y41172893D01*
X86157948Y41293880D01*
X86293880Y41497317D01*
X86370000Y41880000D01*
X86370000Y46170000D01*
X86293880Y46552683D01*
X86077107Y46877107D01*
X83857107Y49097107D01*
X83532684Y49313880D01*
X83150000Y49390000D01*
X80720000Y49390000D01*
X80337317Y49313880D01*
X80122246Y49170174D01*
X80012893Y49097107D01*
X78822893Y47907107D01*
X78606120Y47582684D01*
X78577755Y47440083D01*
X78570699Y47404608D01*
X78466405Y47334921D01*
X78340000Y47145743D01*
X78340000Y49295786D01*
X79477107Y50432893D01*
X79633744Y50667317D01*
X79693880Y50757317D01*
X79770000Y51140000D01*
X79770000Y52762153D01*
X79783556Y52781993D01*
X79831754Y53020000D01*
X79831754Y54220000D01*
X79789917Y54442346D01*
X79658510Y54646558D01*
X79551012Y54720008D01*
X79646558Y54781490D01*
X79783556Y54981993D01*
X79831754Y55220000D01*
X79831754Y56420000D01*
X79789917Y56642346D01*
X79770000Y56673298D01*
X79770000Y57589995D01*
X79770001Y57590000D01*
X79693880Y57972684D01*
X79477107Y58297107D01*
X78837107Y58937107D01*
X78733403Y59006400D01*
X83251100Y59006400D01*
X83460431Y57954021D01*
X84056556Y57061856D01*
X84948721Y56465731D01*
X86001100Y56256400D01*
X87053479Y56465731D01*
X87945644Y57061856D01*
X88541769Y57954021D01*
X88751100Y59006400D01*
X88541769Y60058779D01*
X87945644Y60950944D01*
X87053479Y61547069D01*
X86001100Y61756400D01*
X84948721Y61547069D01*
X84056556Y60950944D01*
X83460431Y60058779D01*
X83251100Y59006400D01*
X78733403Y59006400D01*
X78512684Y59153880D01*
X78130000Y59230000D01*
X72030000Y59230000D01*
X71647317Y59153880D01*
X71322893Y58937107D01*
X70785786Y58400000D01*
X70151024Y58400000D01*
X70058007Y58463556D01*
X69820000Y58511754D01*
X69490085Y58511754D01*
X69499573Y64356400D01*
X84937083Y64356400D01*
X87426266Y63861271D01*
X89482222Y62487524D01*
X90855971Y60431566D01*
X91351100Y57942379D01*
X91351100Y35468968D01*
X91067488Y35658471D01*
X90570000Y35757428D01*
X90072512Y35658471D01*
X89770000Y35456340D01*
X89467488Y35658471D01*
X88970000Y35757428D01*
X88472512Y35658471D01*
X88050761Y35376667D01*
X88019579Y35330000D01*
X87330000Y35330000D01*
X86947317Y35253880D01*
X86622893Y35037107D01*
X86622891Y35037104D01*
X85702893Y34117107D01*
X85486120Y33792684D01*
X85452347Y33622893D01*
X85410000Y33410000D01*
X85410000Y27825600D01*
X85383442Y27808510D01*
X85246444Y27608007D01*
X85198246Y27370000D01*
X85198246Y26470000D01*
X85240083Y26247654D01*
X85371490Y26043442D01*
X85420000Y26010296D01*
X85420000Y24985600D01*
X85393442Y24968510D01*
X85256444Y24768007D01*
X85208246Y24530000D01*
X85208246Y23630000D01*
X85250083Y23407654D01*
X85381490Y23203442D01*
X85540000Y23095137D01*
X85540000Y22283043D01*
X85528246Y22225000D01*
X85528246Y21175000D01*
X85570083Y20952654D01*
X85701490Y20748442D01*
X85901993Y20611444D01*
X86140000Y20563246D01*
X86740000Y20563246D01*
X86962346Y20605083D01*
X87166558Y20736490D01*
X87303556Y20936993D01*
X87351754Y21175000D01*
X87351754Y22225000D01*
X87340000Y22287468D01*
X87340000Y23122922D01*
X87446558Y23191490D01*
X87583556Y23391993D01*
X87631754Y23630000D01*
X87631754Y24530000D01*
X87589917Y24752346D01*
X87458510Y24956558D01*
X87420000Y24982871D01*
X87420000Y26020835D01*
X87436558Y26031490D01*
X87573556Y26231993D01*
X87621754Y26470000D01*
X87621754Y27370000D01*
X87579917Y27592346D01*
X87448510Y27796558D01*
X87410000Y27822871D01*
X87410000Y32995786D01*
X87744213Y33330000D01*
X87905989Y33330000D01*
X87768957Y33124916D01*
X87670000Y32627428D01*
X87670000Y32372572D01*
X87768957Y31875084D01*
X88050761Y31453333D01*
X88472512Y31171529D01*
X88970000Y31072572D01*
X89339343Y31146039D01*
X89270000Y30797428D01*
X89270000Y30542572D01*
X89368957Y30045084D01*
X89650761Y29623333D01*
X90072512Y29341529D01*
X90570000Y29242572D01*
X91067488Y29341529D01*
X91351100Y29531032D01*
X91351100Y7070421D01*
X90855971Y4581234D01*
X89482222Y2525276D01*
X87426266Y1151529D01*
X84937083Y656400D01*
X7065121Y656400D01*
X4575934Y1151529D01*
X2519976Y2525278D01*
X1146229Y4581234D01*
X862747Y6006400D01*
X30251100Y6006400D01*
X30460431Y4954021D01*
X31056556Y4061856D01*
X31948721Y3465731D01*
X33001100Y3256400D01*
X34053479Y3465731D01*
X34945644Y4061856D01*
X35541769Y4954021D01*
X35751100Y6006400D01*
X35541769Y7058779D01*
X34945644Y7950944D01*
X34053479Y8547069D01*
X33001100Y8756400D01*
X31948721Y8547069D01*
X31056556Y7950944D01*
X30460431Y7058779D01*
X30251100Y6006400D01*
X862747Y6006400D01*
X651100Y7070417D01*
X651100Y15506400D01*
X16236960Y15506400D01*
X16408231Y14645362D01*
X16895970Y13915410D01*
X17625922Y13427671D01*
X18486960Y13256400D01*
X19347998Y13427671D01*
X20077950Y13915410D01*
X20565689Y14645362D01*
X20644187Y15040000D01*
X44680000Y15040000D01*
X44680000Y13320000D01*
X44756120Y12937316D01*
X44972893Y12612893D01*
X52232891Y5352896D01*
X52232893Y5352893D01*
X52557317Y5136120D01*
X52940000Y5060000D01*
X56114400Y5060000D01*
X56131490Y5033442D01*
X56331993Y4896444D01*
X56570000Y4848246D01*
X57470000Y4848246D01*
X57692346Y4890083D01*
X57896558Y5021490D01*
X58033556Y5221993D01*
X58081754Y5460000D01*
X58081754Y5910000D01*
X58870000Y5910000D01*
X58946120Y5527317D01*
X58958246Y5509169D01*
X58958246Y5410000D01*
X59000083Y5187654D01*
X59131490Y4983442D01*
X59331993Y4846444D01*
X59570000Y4798246D01*
X60170000Y4798246D01*
X60392346Y4840083D01*
X60501000Y4910000D01*
X62022153Y4910000D01*
X62041993Y4896444D01*
X62280000Y4848246D01*
X63180000Y4848246D01*
X63402346Y4890083D01*
X63606558Y5021490D01*
X63632871Y5060000D01*
X64404400Y5060000D01*
X64421490Y5033442D01*
X64621993Y4896444D01*
X64860000Y4848246D01*
X65760000Y4848246D01*
X65982346Y4890083D01*
X66186558Y5021490D01*
X66323556Y5221993D01*
X66371754Y5460000D01*
X66371754Y6660000D01*
X66329917Y6882346D01*
X66198510Y7086558D01*
X66091012Y7160008D01*
X66186558Y7221490D01*
X66212871Y7260000D01*
X67176244Y7260000D01*
X67261943Y7201444D01*
X67499950Y7153246D01*
X68300050Y7153246D01*
X68522396Y7195083D01*
X68726608Y7326490D01*
X68863606Y7526993D01*
X68911804Y7765000D01*
X68911804Y9015000D01*
X68869967Y9237346D01*
X68738560Y9441558D01*
X68538057Y9578556D01*
X68300050Y9626754D01*
X67499950Y9626754D01*
X67277604Y9584917D01*
X67073392Y9453510D01*
X66941172Y9260000D01*
X66215600Y9260000D01*
X66198510Y9286558D01*
X65998007Y9423556D01*
X65760000Y9471754D01*
X64860000Y9471754D01*
X64637654Y9429917D01*
X64433442Y9298510D01*
X64296444Y9098007D01*
X64248246Y8860000D01*
X64248246Y7660000D01*
X64290083Y7437654D01*
X64421490Y7233442D01*
X64528988Y7159992D01*
X64433442Y7098510D01*
X64407129Y7060000D01*
X63635600Y7060000D01*
X63618510Y7086558D01*
X63418007Y7223556D01*
X63180000Y7271754D01*
X62280000Y7271754D01*
X62057654Y7229917D01*
X61853442Y7098510D01*
X61724638Y6910000D01*
X60501024Y6910000D01*
X60408007Y6973556D01*
X60170000Y7021754D01*
X59570000Y7021754D01*
X59347654Y6979917D01*
X59143442Y6848510D01*
X59006444Y6648007D01*
X58958246Y6410000D01*
X58958246Y6310831D01*
X58946120Y6292683D01*
X58870000Y5910000D01*
X58081754Y5910000D01*
X58081754Y6660000D01*
X58039917Y6882346D01*
X57908510Y7086558D01*
X57801012Y7160008D01*
X57896558Y7221490D01*
X57922871Y7260000D01*
X59720000Y7260000D01*
X59912277Y7298246D01*
X60170000Y7298246D01*
X60392346Y7340083D01*
X60596558Y7471490D01*
X60733556Y7671993D01*
X60781754Y7910000D01*
X60781754Y8009168D01*
X60793880Y8027316D01*
X60870000Y8410000D01*
X60793880Y8792684D01*
X60781754Y8810832D01*
X60781754Y8910000D01*
X60739917Y9132346D01*
X60608510Y9336558D01*
X60408007Y9473556D01*
X60170000Y9521754D01*
X59570000Y9521754D01*
X59347654Y9479917D01*
X59143442Y9348510D01*
X59082966Y9260000D01*
X57925600Y9260000D01*
X57908510Y9286558D01*
X57708007Y9423556D01*
X57470000Y9471754D01*
X56570000Y9471754D01*
X56347654Y9429917D01*
X56143442Y9298510D01*
X56006444Y9098007D01*
X55958246Y8860000D01*
X55958246Y7660000D01*
X56000083Y7437654D01*
X56131490Y7233442D01*
X56238988Y7159992D01*
X56143442Y7098510D01*
X56117129Y7060000D01*
X53354213Y7060000D01*
X47594192Y12820022D01*
X47887353Y12819766D01*
X48383715Y13024858D01*
X48529110Y13170000D01*
X48980000Y13170000D01*
X49362684Y13246120D01*
X49687107Y13462893D01*
X50284214Y14060000D01*
X50450000Y14060000D01*
X50450000Y13140299D01*
X50449827Y12941960D01*
X50601747Y12574286D01*
X50882806Y12292736D01*
X51250215Y12140174D01*
X51648040Y12139827D01*
X52015714Y12291747D01*
X52297264Y12572806D01*
X52449826Y12940215D01*
X52450173Y13338040D01*
X52450000Y13338459D01*
X52450000Y14202153D01*
X52463556Y14221993D01*
X52511754Y14460000D01*
X52511754Y15660000D01*
X52469917Y15882346D01*
X52338510Y16086558D01*
X52138007Y16223556D01*
X51900000Y16271754D01*
X51000000Y16271754D01*
X50777654Y16229917D01*
X50573442Y16098510D01*
X50547129Y16060000D01*
X49870000Y16060000D01*
X49487316Y15983880D01*
X49162893Y15767107D01*
X48565786Y15170000D01*
X48529269Y15170000D01*
X48529190Y15170079D01*
X48763807Y15404288D01*
X48969765Y15900290D01*
X48970234Y16437353D01*
X48765142Y16933715D01*
X48385712Y17313807D01*
X47889710Y17519765D01*
X47352647Y17520234D01*
X46856285Y17315142D01*
X46686227Y17145380D01*
X46427317Y17093880D01*
X46427315Y17093879D01*
X46427316Y17093879D01*
X46102893Y16877107D01*
X44972893Y15747107D01*
X44756120Y15422684D01*
X44749270Y15388246D01*
X44680000Y15040000D01*
X20644187Y15040000D01*
X20736960Y15506400D01*
X20565689Y16367438D01*
X20077950Y17097390D01*
X19347998Y17585129D01*
X18486960Y17756400D01*
X17625922Y17585129D01*
X16895970Y17097390D01*
X16408231Y16367438D01*
X16236960Y15506400D01*
X651100Y15506400D01*
X651100Y35856400D01*
X12986960Y35856400D01*
X13049751Y35868890D01*
X13113769Y35868890D01*
X15983890Y36439793D01*
X15983895Y36439793D01*
X16144697Y36506400D01*
X16218206Y36536848D01*
X16218207Y36536849D01*
X18651381Y38162643D01*
X18830716Y38341978D01*
X20276936Y40506400D01*
X21736960Y40506400D01*
X21908231Y39645362D01*
X22395970Y38915410D01*
X23125922Y38427671D01*
X23986960Y38256400D01*
X24847998Y38427671D01*
X25577950Y38915410D01*
X26065689Y39645362D01*
X26236960Y40506400D01*
X26065689Y41367438D01*
X25577950Y42097390D01*
X24847998Y42585129D01*
X23986960Y42756400D01*
X23125922Y42585129D01*
X22395970Y42097390D01*
X21908231Y41367438D01*
X21736960Y40506400D01*
X20276936Y40506400D01*
X20456509Y40775150D01*
X20456512Y40775153D01*
X20553566Y41009465D01*
X21124469Y43879588D01*
X21124471Y43879592D01*
X21124471Y44133208D01*
X21124469Y44133212D01*
X21050238Y44506400D01*
X32836960Y44506400D01*
X33076739Y43300947D01*
X33759574Y42279014D01*
X34781507Y41596179D01*
X35986960Y41356400D01*
X37192413Y41596179D01*
X38214346Y42279014D01*
X38897181Y43300947D01*
X39136960Y44506400D01*
X38897181Y45711853D01*
X38214346Y46733786D01*
X37192413Y47416621D01*
X35986960Y47656400D01*
X34781507Y47416621D01*
X33759574Y46733786D01*
X33076739Y45711853D01*
X32836960Y44506400D01*
X21050238Y44506400D01*
X20553566Y47003335D01*
X20456512Y47237647D01*
X20456509Y47237650D01*
X18830716Y49670822D01*
X18651381Y49850157D01*
X16218207Y51475951D01*
X16218206Y51475952D01*
X16105384Y51522684D01*
X15983895Y51573007D01*
X15983890Y51573007D01*
X13113769Y52143910D01*
X13049751Y52143910D01*
X12986960Y52156400D01*
X651100Y52156400D01*
X651100Y57942383D01*
X862746Y59006400D01*
X30251100Y59006400D01*
X30460431Y57954021D01*
X31056556Y57061856D01*
X31948721Y56465731D01*
X33001100Y56256400D01*
X34053479Y56465731D01*
X34945644Y57061856D01*
X35541769Y57954021D01*
X35751100Y59006400D01*
X35541769Y60058779D01*
X34945644Y60950944D01*
X34053479Y61547069D01*
X33001100Y61756400D01*
X31948721Y61547069D01*
X31056556Y60950944D01*
X30460431Y60058779D01*
X30251100Y59006400D01*
X862746Y59006400D01*
X1146229Y60431566D01*
X2519976Y62487522D01*
X4575934Y63861271D01*
X7065121Y64356400D01*
X51949587Y64356400D01*
X51940084Y58511754D01*
X51940084Y58511754D01*
G37*
X51940084Y58511754D02*
X51620000Y58511754D01*
X51397654Y58469917D01*
X51193442Y58338510D01*
X51056444Y58138007D01*
X51008246Y57900000D01*
X51008246Y56900000D01*
X51034581Y56760043D01*
X51008246Y56630000D01*
X51008246Y55630000D01*
X51034581Y55490043D01*
X51008246Y55360000D01*
X51008246Y54360000D01*
X51034581Y54220043D01*
X51008246Y54090000D01*
X51008246Y53090000D01*
X51034581Y52950043D01*
X51008246Y52820000D01*
X51008246Y51820000D01*
X51034581Y51680043D01*
X51008246Y51550000D01*
X51008246Y50550000D01*
X51034581Y50410043D01*
X51008246Y50280000D01*
X51008246Y49280000D01*
X51034581Y49140043D01*
X51008246Y49010000D01*
X51008246Y48010000D01*
X51034581Y47870043D01*
X51008246Y47740000D01*
X51008246Y46740000D01*
X51034581Y46600043D01*
X51008246Y46470000D01*
X51008246Y45470000D01*
X51034581Y45330043D01*
X51008246Y45200000D01*
X51008246Y44200000D01*
X51034581Y44060043D01*
X51008246Y43930000D01*
X51008246Y42930000D01*
X51050083Y42707654D01*
X51181490Y42503442D01*
X51381993Y42366444D01*
X51620000Y42318246D01*
X53258246Y42318246D01*
X53258246Y40380000D01*
X53300083Y40157654D01*
X53431490Y39953442D01*
X53631993Y39816444D01*
X53870000Y39768246D01*
X54174032Y39768246D01*
X53712893Y39307107D01*
X53572736Y39167194D01*
X53496121Y38982686D01*
X53496120Y38982684D01*
X53496120Y38982682D01*
X53420174Y38799785D01*
X53419827Y38401960D01*
X53571747Y38034286D01*
X53852806Y37752736D01*
X54037314Y37676121D01*
X54037316Y37676120D01*
X54037318Y37676120D01*
X54220215Y37600174D01*
X54618040Y37599827D01*
X54802682Y37676120D01*
X54802684Y37676120D01*
X54802686Y37676121D01*
X54985714Y37751747D01*
X55100136Y37865969D01*
X55099827Y37511960D01*
X55251747Y37144286D01*
X55532806Y36862736D01*
X55717314Y36786121D01*
X55717316Y36786120D01*
X55717318Y36786120D01*
X55900215Y36710174D01*
X56298040Y36709827D01*
X56482682Y36786120D01*
X56482684Y36786120D01*
X56482686Y36786121D01*
X56665714Y36861747D01*
X56947264Y37142806D01*
X56947437Y37143223D01*
X57617107Y37812893D01*
X57833880Y38137316D01*
X57910000Y38520000D01*
X57910000Y39768246D01*
X58680000Y39768246D01*
X58902346Y39810083D01*
X59106558Y39941490D01*
X59243556Y40141993D01*
X59291754Y40380000D01*
X59291754Y42380000D01*
X59249917Y42602346D01*
X59118510Y42806558D01*
X58918007Y42943556D01*
X58680000Y42991754D01*
X57680000Y42991754D01*
X57540043Y42965419D01*
X57410000Y42991754D01*
X56410000Y42991754D01*
X56270043Y42965419D01*
X56140000Y42991754D01*
X55140000Y42991754D01*
X55000043Y42965419D01*
X54870000Y42991754D01*
X54231754Y42991754D01*
X54231754Y43930000D01*
X54205419Y44069957D01*
X54231754Y44200000D01*
X54231754Y45200000D01*
X54205419Y45339957D01*
X54231754Y45470000D01*
X54231754Y46470000D01*
X54205419Y46609957D01*
X54231754Y46740000D01*
X54231754Y47740000D01*
X54205419Y47879957D01*
X54231754Y48010000D01*
X54231754Y49010000D01*
X54205419Y49149957D01*
X54231754Y49280000D01*
X54231754Y50280000D01*
X54205419Y50419957D01*
X54231754Y50550000D01*
X54231754Y51550000D01*
X54205419Y51689957D01*
X54231754Y51820000D01*
X54231754Y52820000D01*
X54205419Y52959957D01*
X54231754Y53090000D01*
X54231754Y54090000D01*
X54205419Y54229957D01*
X54231754Y54360000D01*
X54231754Y55360000D01*
X54205419Y55499957D01*
X54231754Y55630000D01*
X54231754Y56630000D01*
X54205419Y56769957D01*
X54231754Y56900000D01*
X54231754Y57900000D01*
X54189917Y58122346D01*
X54101339Y58260000D01*
X67339798Y58260000D01*
X67256444Y58138007D01*
X67208246Y57900000D01*
X67208246Y56900000D01*
X67234581Y56760043D01*
X67208246Y56630000D01*
X67208246Y55630000D01*
X67234581Y55490043D01*
X67208246Y55360000D01*
X67208246Y54360000D01*
X67234581Y54220043D01*
X67208246Y54090000D01*
X67208246Y53090000D01*
X67234581Y52950043D01*
X67208246Y52820000D01*
X67208246Y51820000D01*
X67234581Y51680043D01*
X67208246Y51550000D01*
X67208246Y50550000D01*
X67234581Y50410043D01*
X67208246Y50280000D01*
X67208246Y49280000D01*
X67234581Y49140043D01*
X67208246Y49010000D01*
X67208246Y48010000D01*
X67234581Y47870043D01*
X67208246Y47740000D01*
X67208246Y46740000D01*
X67234581Y46600043D01*
X67208246Y46470000D01*
X67208246Y45470000D01*
X67234581Y45330043D01*
X67208246Y45200000D01*
X67208246Y44200000D01*
X67234581Y44060043D01*
X67208246Y43930000D01*
X67208246Y42991754D01*
X66570000Y42991754D01*
X66430043Y42965419D01*
X66300000Y42991754D01*
X65300000Y42991754D01*
X65160043Y42965419D01*
X65030000Y42991754D01*
X64030000Y42991754D01*
X63890043Y42965419D01*
X63760000Y42991754D01*
X62760000Y42991754D01*
X62620043Y42965419D01*
X62490000Y42991754D01*
X61490000Y42991754D01*
X61350043Y42965419D01*
X61220000Y42991754D01*
X60220000Y42991754D01*
X59997654Y42949917D01*
X59793442Y42818510D01*
X59656444Y42618007D01*
X59608246Y42380000D01*
X59608246Y40380000D01*
X59650083Y40157654D01*
X59720000Y40049000D01*
X59720000Y38330000D01*
X59796120Y37947316D01*
X59968246Y37689712D01*
X59968246Y37420000D01*
X60010083Y37197654D01*
X60141490Y36993442D01*
X60180000Y36967129D01*
X60180000Y36964214D01*
X58412893Y35197107D01*
X58196120Y34872684D01*
X58196120Y34872683D01*
X58120000Y34490000D01*
X58120000Y33130000D01*
X57920005Y33130000D01*
X57920000Y33130001D01*
X57537316Y33053880D01*
X57212893Y32837107D01*
X56792893Y32417107D01*
X56576120Y32092684D01*
X56576120Y32092683D01*
X56500000Y31710000D01*
X56500000Y25790000D01*
X52450000Y25790000D01*
X52450000Y26482153D01*
X52463556Y26501993D01*
X52511754Y26740000D01*
X52511754Y27940000D01*
X52469917Y28162346D01*
X52338510Y28366558D01*
X52138007Y28503556D01*
X51900000Y28551754D01*
X51000000Y28551754D01*
X50777654Y28509917D01*
X50573442Y28378510D01*
X50547129Y28340000D01*
X49930000Y28340000D01*
X49547316Y28263880D01*
X49222893Y28047107D01*
X48645786Y27470000D01*
X48529269Y27470000D01*
X48529190Y27470079D01*
X48763807Y27704288D01*
X48969765Y28200290D01*
X48970234Y28737353D01*
X48765142Y29233715D01*
X48385712Y29613807D01*
X47889710Y29819765D01*
X47352647Y29820234D01*
X46856285Y29615142D01*
X46668808Y29427992D01*
X46497317Y29393880D01*
X46172893Y29177107D01*
X46172891Y29177104D01*
X44962893Y27967107D01*
X44746120Y27642684D01*
X44713080Y27476580D01*
X44670000Y27260000D01*
X44670000Y25640000D01*
X44746120Y25257316D01*
X44962893Y24932893D01*
X48402893Y21492893D01*
X48727316Y21276120D01*
X49110000Y21199999D01*
X49110005Y21200000D01*
X51355786Y21200000D01*
X53382891Y19172896D01*
X53382893Y19172893D01*
X54250000Y18305786D01*
X54250000Y11980000D01*
X54326120Y11597316D01*
X54542893Y11272893D01*
X55022891Y10792896D01*
X55022893Y10792893D01*
X55172554Y10692893D01*
X55347316Y10576120D01*
X55730000Y10499999D01*
X55730005Y10500000D01*
X56104400Y10500000D01*
X56121490Y10473442D01*
X56321993Y10336444D01*
X56560000Y10288246D01*
X57460000Y10288246D01*
X57682346Y10330083D01*
X57886558Y10461490D01*
X58023556Y10661993D01*
X58071754Y10900000D01*
X58071754Y11350000D01*
X58850000Y11350000D01*
X58926120Y10967317D01*
X58938246Y10949169D01*
X58938246Y10850000D01*
X58980083Y10627654D01*
X59111490Y10423442D01*
X59311993Y10286444D01*
X59550000Y10238246D01*
X60150000Y10238246D01*
X60372346Y10280083D01*
X60481000Y10350000D01*
X61992153Y10350000D01*
X62011993Y10336444D01*
X62250000Y10288246D01*
X63150000Y10288246D01*
X63372346Y10330083D01*
X63576558Y10461490D01*
X63602871Y10500000D01*
X64397966Y10500000D01*
X64421490Y10463442D01*
X64621993Y10326444D01*
X64860000Y10278246D01*
X65760000Y10278246D01*
X65982346Y10320083D01*
X66186558Y10451490D01*
X66323556Y10651993D01*
X66371754Y10890000D01*
X66371754Y12090000D01*
X66329917Y12312346D01*
X66198510Y12516558D01*
X66091012Y12590008D01*
X66186558Y12651490D01*
X66212871Y12690000D01*
X67249074Y12690000D01*
X67479950Y12643246D01*
X68280050Y12643246D01*
X68502396Y12685083D01*
X68706608Y12816490D01*
X68843606Y13016993D01*
X68891804Y13255000D01*
X68891804Y14505000D01*
X68849967Y14727346D01*
X68718560Y14931558D01*
X68518057Y15068556D01*
X68280050Y15116754D01*
X67479950Y15116754D01*
X67257604Y15074917D01*
X67053392Y14943510D01*
X66916394Y14743007D01*
X66905660Y14690000D01*
X66215600Y14690000D01*
X66198510Y14716558D01*
X65998007Y14853556D01*
X65760000Y14901754D01*
X64860000Y14901754D01*
X64637654Y14859917D01*
X64433442Y14728510D01*
X64296444Y14528007D01*
X64248246Y14290000D01*
X64248246Y13090000D01*
X64290083Y12867654D01*
X64421490Y12663442D01*
X64528988Y12589992D01*
X64433442Y12528510D01*
X64413962Y12500000D01*
X63605600Y12500000D01*
X63588510Y12526558D01*
X63388007Y12663556D01*
X63150000Y12711754D01*
X62250000Y12711754D01*
X62027654Y12669917D01*
X61823442Y12538510D01*
X61694638Y12350000D01*
X60481024Y12350000D01*
X60388007Y12413556D01*
X60150000Y12461754D01*
X59550000Y12461754D01*
X59327654Y12419917D01*
X59123442Y12288510D01*
X58986444Y12088007D01*
X58938246Y11850000D01*
X58938246Y11750831D01*
X58926120Y11732683D01*
X58850000Y11350000D01*
X58071754Y11350000D01*
X58071754Y12100000D01*
X58029917Y12322346D01*
X57898510Y12526558D01*
X57791012Y12600008D01*
X57886558Y12661490D01*
X57912871Y12700000D01*
X59700000Y12700000D01*
X59892277Y12738246D01*
X60150000Y12738246D01*
X60372346Y12780083D01*
X60576558Y12911490D01*
X60713556Y13111993D01*
X60761754Y13350000D01*
X60761754Y13449168D01*
X60773880Y13467316D01*
X60850000Y13850000D01*
X60773880Y14232684D01*
X60761754Y14250832D01*
X60761754Y14350000D01*
X60719917Y14572346D01*
X60588510Y14776558D01*
X60388007Y14913556D01*
X60150000Y14961754D01*
X59550000Y14961754D01*
X59327654Y14919917D01*
X59123442Y14788510D01*
X59062966Y14700000D01*
X57915600Y14700000D01*
X57898510Y14726558D01*
X57698007Y14863556D01*
X57460000Y14911754D01*
X56560000Y14911754D01*
X56337654Y14869917D01*
X56250000Y14813513D01*
X56250000Y18720000D01*
X56212801Y18907011D01*
X56173880Y19102684D01*
X55957107Y19427107D01*
X54797107Y20587107D01*
X54797104Y20587109D01*
X52477107Y22907107D01*
X52152684Y23123880D01*
X51770000Y23200000D01*
X49524214Y23200000D01*
X47604201Y25120013D01*
X47887353Y25119766D01*
X48383715Y25324858D01*
X48529110Y25470000D01*
X49060000Y25470000D01*
X49442684Y25546120D01*
X49767107Y25762893D01*
X50344214Y26340000D01*
X50450000Y26340000D01*
X50450000Y24810000D01*
X50469930Y24709805D01*
X50469827Y24591960D01*
X50515225Y24482088D01*
X50526120Y24427316D01*
X50556875Y24381288D01*
X50621747Y24224286D01*
X50742822Y24103000D01*
X50742893Y24102893D01*
X50762893Y24082893D01*
X50902806Y23942736D01*
X51270215Y23790174D01*
X51668040Y23789827D01*
X51668459Y23790000D01*
X58232153Y23790000D01*
X58251993Y23776444D01*
X58490000Y23728246D01*
X59690000Y23728246D01*
X59912346Y23770083D01*
X60116558Y23901490D01*
X60253556Y24101993D01*
X60301754Y24340000D01*
X60301754Y25240000D01*
X60259917Y25462346D01*
X60128510Y25666558D01*
X59928007Y25803556D01*
X59890000Y25811253D01*
X59890000Y26922387D01*
X59978556Y27051993D01*
X60026754Y27290000D01*
X60026754Y27560469D01*
X60268420Y27398993D01*
X60565000Y27340000D01*
X60906957Y27340000D01*
X60965000Y27328246D01*
X61765000Y27328246D01*
X61987346Y27370083D01*
X62191558Y27501490D01*
X62260944Y27603040D01*
X63231990Y26631995D01*
X63231992Y26631992D01*
X63483420Y26463993D01*
X63729701Y26415005D01*
X63801490Y26303442D01*
X63840000Y26277129D01*
X63840000Y24610299D01*
X63839827Y24411960D01*
X63991747Y24044286D01*
X64272806Y23762736D01*
X64640215Y23610174D01*
X65038040Y23609827D01*
X65405714Y23761747D01*
X65687264Y24042806D01*
X65839826Y24410215D01*
X65840173Y24808040D01*
X65840000Y24808459D01*
X65840000Y26274400D01*
X65866558Y26291490D01*
X65940008Y26398988D01*
X66001490Y26303442D01*
X66040000Y26277129D01*
X66040000Y21030000D01*
X66116120Y20647316D01*
X66332893Y20322893D01*
X66342893Y20312893D01*
X70662891Y15992896D01*
X70662893Y15992893D01*
X71452893Y15202893D01*
X71777316Y14986120D01*
X72160000Y14909999D01*
X72160005Y14910000D01*
X74590678Y14910000D01*
X74377654Y14869917D01*
X74173442Y14738510D01*
X74140296Y14690000D01*
X73305600Y14690000D01*
X73288510Y14716558D01*
X73088007Y14853556D01*
X72850000Y14901754D01*
X71950000Y14901754D01*
X71727654Y14859917D01*
X71523442Y14728510D01*
X71386444Y14528007D01*
X71338246Y14290000D01*
X71338246Y13090000D01*
X71380083Y12867654D01*
X71511490Y12663442D01*
X71618988Y12589992D01*
X71523442Y12528510D01*
X71421969Y12380000D01*
X69701737Y12380000D01*
X69668560Y12431558D01*
X69468057Y12568556D01*
X69230050Y12616754D01*
X68429950Y12616754D01*
X68207604Y12574917D01*
X68003392Y12443510D01*
X67866394Y12243007D01*
X67818196Y12005000D01*
X67818196Y10755000D01*
X67860033Y10532654D01*
X67991440Y10328442D01*
X68191943Y10191444D01*
X68429950Y10143246D01*
X69230050Y10143246D01*
X69452396Y10185083D01*
X69656608Y10316490D01*
X69700003Y10380000D01*
X71633611Y10380000D01*
X71711993Y10326444D01*
X71950000Y10278246D01*
X72850000Y10278246D01*
X73072346Y10320083D01*
X73276558Y10451490D01*
X73413556Y10651993D01*
X73461754Y10890000D01*
X73461754Y12090000D01*
X73419917Y12312346D01*
X73288510Y12516558D01*
X73181012Y12590008D01*
X73276558Y12651490D01*
X73302871Y12690000D01*
X74150835Y12690000D01*
X74161490Y12673442D01*
X74268988Y12599992D01*
X74173442Y12538510D01*
X74036444Y12338007D01*
X73988246Y12100000D01*
X73988246Y10900000D01*
X74030083Y10677654D01*
X74161490Y10473442D01*
X74361993Y10336444D01*
X74600000Y10288246D01*
X75500000Y10288246D01*
X75722346Y10330083D01*
X75926558Y10461490D01*
X75952871Y10500000D01*
X77190000Y10500000D01*
X77190000Y7904214D01*
X76325786Y7040000D01*
X75955600Y7040000D01*
X75938510Y7066558D01*
X75831012Y7140008D01*
X75926558Y7201490D01*
X76063556Y7401993D01*
X76111754Y7640000D01*
X76111754Y8840000D01*
X76069917Y9062346D01*
X75938510Y9266558D01*
X75738007Y9403556D01*
X75500000Y9451754D01*
X74600000Y9451754D01*
X74377654Y9409917D01*
X74173442Y9278510D01*
X74147129Y9240000D01*
X73285600Y9240000D01*
X73268510Y9266558D01*
X73068007Y9403556D01*
X72830000Y9451754D01*
X71930000Y9451754D01*
X71707654Y9409917D01*
X71503442Y9278510D01*
X71366444Y9078007D01*
X71318246Y8840000D01*
X71318246Y7640000D01*
X71360083Y7417654D01*
X71491490Y7213442D01*
X71598988Y7139992D01*
X71503442Y7078510D01*
X71374638Y6890000D01*
X69721737Y6890000D01*
X69688560Y6941558D01*
X69488057Y7078556D01*
X69250050Y7126754D01*
X68449950Y7126754D01*
X68227604Y7084917D01*
X68023392Y6953510D01*
X67886394Y6753007D01*
X67838196Y6515000D01*
X67838196Y5265000D01*
X67880033Y5042654D01*
X68011440Y4838442D01*
X68211943Y4701444D01*
X68449950Y4653246D01*
X69250050Y4653246D01*
X69472396Y4695083D01*
X69676608Y4826490D01*
X69720003Y4890000D01*
X71672153Y4890000D01*
X71691993Y4876444D01*
X71930000Y4828246D01*
X72830000Y4828246D01*
X73052346Y4870083D01*
X73256558Y5001490D01*
X73393556Y5201993D01*
X73441754Y5440000D01*
X73441754Y6640000D01*
X73399917Y6862346D01*
X73268510Y7066558D01*
X73161012Y7140008D01*
X73256558Y7201490D01*
X73282871Y7240000D01*
X74144400Y7240000D01*
X74161490Y7213442D01*
X74268988Y7139992D01*
X74173442Y7078510D01*
X74036444Y6878007D01*
X73988246Y6640000D01*
X73988246Y5440000D01*
X74030083Y5217654D01*
X74161490Y5013442D01*
X74361993Y4876444D01*
X74600000Y4828246D01*
X75500000Y4828246D01*
X75722346Y4870083D01*
X75926558Y5001490D01*
X75952871Y5040000D01*
X76740000Y5040000D01*
X77122684Y5116120D01*
X77447107Y5332893D01*
X78120614Y6006400D01*
X83251100Y6006400D01*
X83460431Y4954021D01*
X84056556Y4061856D01*
X84948721Y3465731D01*
X86001100Y3256400D01*
X87053479Y3465731D01*
X87945644Y4061856D01*
X88541769Y4954021D01*
X88751100Y6006400D01*
X88541769Y7058779D01*
X87945644Y7950944D01*
X87053479Y8547069D01*
X86001100Y8756400D01*
X84948721Y8547069D01*
X84056556Y7950944D01*
X83460431Y7058779D01*
X83251100Y6006400D01*
X78120614Y6006400D01*
X78897107Y6782893D01*
X79113880Y7107316D01*
X79190001Y7490000D01*
X79190000Y7490005D01*
X79190000Y10500000D01*
X85548247Y10500000D01*
X85611993Y10456444D01*
X85850000Y10408246D01*
X87050000Y10408246D01*
X87272346Y10450083D01*
X87476558Y10581490D01*
X87613556Y10781993D01*
X87661754Y11020000D01*
X87661754Y11920000D01*
X87619917Y12142346D01*
X87488510Y12346558D01*
X87450000Y12372871D01*
X87450000Y13064400D01*
X87476558Y13081490D01*
X87613556Y13281993D01*
X87661754Y13520000D01*
X87661754Y14420000D01*
X87619917Y14642346D01*
X87488510Y14846558D01*
X87288007Y14983556D01*
X87050000Y15031754D01*
X85850000Y15031754D01*
X85627654Y14989917D01*
X85601273Y14972941D01*
X85470000Y15104214D01*
X85470000Y17955786D01*
X85514213Y18000000D01*
X85772387Y18000000D01*
X85901993Y17911444D01*
X86140000Y17863246D01*
X86740000Y17863246D01*
X86962346Y17905083D01*
X87166558Y18036490D01*
X87303556Y18236993D01*
X87351754Y18475000D01*
X87351754Y18599169D01*
X87363880Y18617317D01*
X87390000Y18748631D01*
X87416120Y18617316D01*
X87428246Y18599168D01*
X87428246Y18475000D01*
X87470083Y18252654D01*
X87601490Y18048442D01*
X87660000Y18008464D01*
X87660000Y17355600D01*
X87633442Y17338510D01*
X87496444Y17138007D01*
X87448246Y16900000D01*
X87448246Y16000000D01*
X87490083Y15777654D01*
X87621490Y15573442D01*
X87821993Y15436444D01*
X88060000Y15388246D01*
X89260000Y15388246D01*
X89482346Y15430083D01*
X89686558Y15561490D01*
X89823556Y15761993D01*
X89871754Y16000000D01*
X89871754Y16900000D01*
X89829917Y17122346D01*
X89698510Y17326558D01*
X89660000Y17352871D01*
X89660000Y18680000D01*
X89583880Y19062683D01*
X89367107Y19387107D01*
X89251754Y19502460D01*
X89251754Y19525000D01*
X89209917Y19747346D01*
X89078510Y19951558D01*
X88878007Y20088556D01*
X88640000Y20136754D01*
X88040000Y20136754D01*
X87817654Y20094917D01*
X87613442Y19963510D01*
X87476444Y19763007D01*
X87428246Y19525000D01*
X87428246Y19400832D01*
X87416120Y19382684D01*
X87390000Y19251369D01*
X87363880Y19382683D01*
X87351754Y19400831D01*
X87351754Y19525000D01*
X87309917Y19747346D01*
X87178510Y19951558D01*
X86978007Y20088556D01*
X86740000Y20136754D01*
X86140000Y20136754D01*
X85917654Y20094917D01*
X85770149Y20000000D01*
X85100005Y20000000D01*
X85100000Y20000001D01*
X84717316Y19923880D01*
X84555105Y19815494D01*
X84392893Y19707107D01*
X84392891Y19707104D01*
X83762893Y19077107D01*
X83546120Y18752684D01*
X83519194Y18617317D01*
X83470000Y18370000D01*
X83470000Y14690000D01*
X83546120Y14307316D01*
X83762893Y13982893D01*
X84482893Y13262893D01*
X84807316Y13046120D01*
X85190000Y12970000D01*
X85450000Y12970000D01*
X85450000Y12500000D01*
X79190000Y12500000D01*
X79190000Y13920000D01*
X79176424Y13988253D01*
X79113880Y14302684D01*
X78897107Y14627107D01*
X76907107Y16617107D01*
X76618423Y16810000D01*
X80220000Y16810000D01*
X80602684Y16886120D01*
X80927107Y17102893D01*
X83777107Y19952893D01*
X83993880Y20277316D01*
X84070001Y20660000D01*
X84070000Y20660005D01*
X84070000Y39547956D01*
X84412684Y39616120D01*
X84737107Y39832893D01*
X86077107Y41172893D01*
X86157948Y41293880D01*
X86293880Y41497317D01*
X86370000Y41880000D01*
X86370000Y46170000D01*
X86293880Y46552683D01*
X86077107Y46877107D01*
X83857107Y49097107D01*
X83532684Y49313880D01*
X83150000Y49390000D01*
X80720000Y49390000D01*
X80337317Y49313880D01*
X80122246Y49170174D01*
X80012893Y49097107D01*
X78822893Y47907107D01*
X78606120Y47582684D01*
X78577755Y47440083D01*
X78570699Y47404608D01*
X78466405Y47334921D01*
X78340000Y47145743D01*
X78340000Y49295786D01*
X79477107Y50432893D01*
X79633744Y50667317D01*
X79693880Y50757317D01*
X79770000Y51140000D01*
X79770000Y52762153D01*
X79783556Y52781993D01*
X79831754Y53020000D01*
X79831754Y54220000D01*
X79789917Y54442346D01*
X79658510Y54646558D01*
X79551012Y54720008D01*
X79646558Y54781490D01*
X79783556Y54981993D01*
X79831754Y55220000D01*
X79831754Y56420000D01*
X79789917Y56642346D01*
X79770000Y56673298D01*
X79770000Y57589995D01*
X79770001Y57590000D01*
X79693880Y57972684D01*
X79477107Y58297107D01*
X78837107Y58937107D01*
X78733403Y59006400D01*
X83251100Y59006400D01*
X83460431Y57954021D01*
X84056556Y57061856D01*
X84948721Y56465731D01*
X86001100Y56256400D01*
X87053479Y56465731D01*
X87945644Y57061856D01*
X88541769Y57954021D01*
X88751100Y59006400D01*
X88541769Y60058779D01*
X87945644Y60950944D01*
X87053479Y61547069D01*
X86001100Y61756400D01*
X84948721Y61547069D01*
X84056556Y60950944D01*
X83460431Y60058779D01*
X83251100Y59006400D01*
X78733403Y59006400D01*
X78512684Y59153880D01*
X78130000Y59230000D01*
X72030000Y59230000D01*
X71647317Y59153880D01*
X71322893Y58937107D01*
X70785786Y58400000D01*
X70151024Y58400000D01*
X70058007Y58463556D01*
X69820000Y58511754D01*
X69490085Y58511754D01*
X69499573Y64356400D01*
X84937083Y64356400D01*
X87426266Y63861271D01*
X89482222Y62487524D01*
X90855971Y60431566D01*
X91351100Y57942379D01*
X91351100Y35468968D01*
X91067488Y35658471D01*
X90570000Y35757428D01*
X90072512Y35658471D01*
X89770000Y35456340D01*
X89467488Y35658471D01*
X88970000Y35757428D01*
X88472512Y35658471D01*
X88050761Y35376667D01*
X88019579Y35330000D01*
X87330000Y35330000D01*
X86947317Y35253880D01*
X86622893Y35037107D01*
X86622891Y35037104D01*
X85702893Y34117107D01*
X85486120Y33792684D01*
X85452347Y33622893D01*
X85410000Y33410000D01*
X85410000Y27825600D01*
X85383442Y27808510D01*
X85246444Y27608007D01*
X85198246Y27370000D01*
X85198246Y26470000D01*
X85240083Y26247654D01*
X85371490Y26043442D01*
X85420000Y26010296D01*
X85420000Y24985600D01*
X85393442Y24968510D01*
X85256444Y24768007D01*
X85208246Y24530000D01*
X85208246Y23630000D01*
X85250083Y23407654D01*
X85381490Y23203442D01*
X85540000Y23095137D01*
X85540000Y22283043D01*
X85528246Y22225000D01*
X85528246Y21175000D01*
X85570083Y20952654D01*
X85701490Y20748442D01*
X85901993Y20611444D01*
X86140000Y20563246D01*
X86740000Y20563246D01*
X86962346Y20605083D01*
X87166558Y20736490D01*
X87303556Y20936993D01*
X87351754Y21175000D01*
X87351754Y22225000D01*
X87340000Y22287468D01*
X87340000Y23122922D01*
X87446558Y23191490D01*
X87583556Y23391993D01*
X87631754Y23630000D01*
X87631754Y24530000D01*
X87589917Y24752346D01*
X87458510Y24956558D01*
X87420000Y24982871D01*
X87420000Y26020835D01*
X87436558Y26031490D01*
X87573556Y26231993D01*
X87621754Y26470000D01*
X87621754Y27370000D01*
X87579917Y27592346D01*
X87448510Y27796558D01*
X87410000Y27822871D01*
X87410000Y32995786D01*
X87744213Y33330000D01*
X87905989Y33330000D01*
X87768957Y33124916D01*
X87670000Y32627428D01*
X87670000Y32372572D01*
X87768957Y31875084D01*
X88050761Y31453333D01*
X88472512Y31171529D01*
X88970000Y31072572D01*
X89339343Y31146039D01*
X89270000Y30797428D01*
X89270000Y30542572D01*
X89368957Y30045084D01*
X89650761Y29623333D01*
X90072512Y29341529D01*
X90570000Y29242572D01*
X91067488Y29341529D01*
X91351100Y29531032D01*
X91351100Y7070421D01*
X90855971Y4581234D01*
X89482222Y2525276D01*
X87426266Y1151529D01*
X84937083Y656400D01*
X7065121Y656400D01*
X4575934Y1151529D01*
X2519976Y2525278D01*
X1146229Y4581234D01*
X862747Y6006400D01*
X30251100Y6006400D01*
X30460431Y4954021D01*
X31056556Y4061856D01*
X31948721Y3465731D01*
X33001100Y3256400D01*
X34053479Y3465731D01*
X34945644Y4061856D01*
X35541769Y4954021D01*
X35751100Y6006400D01*
X35541769Y7058779D01*
X34945644Y7950944D01*
X34053479Y8547069D01*
X33001100Y8756400D01*
X31948721Y8547069D01*
X31056556Y7950944D01*
X30460431Y7058779D01*
X30251100Y6006400D01*
X862747Y6006400D01*
X651100Y7070417D01*
X651100Y15506400D01*
X16236960Y15506400D01*
X16408231Y14645362D01*
X16895970Y13915410D01*
X17625922Y13427671D01*
X18486960Y13256400D01*
X19347998Y13427671D01*
X20077950Y13915410D01*
X20565689Y14645362D01*
X20644187Y15040000D01*
X44680000Y15040000D01*
X44680000Y13320000D01*
X44756120Y12937316D01*
X44972893Y12612893D01*
X52232891Y5352896D01*
X52232893Y5352893D01*
X52557317Y5136120D01*
X52940000Y5060000D01*
X56114400Y5060000D01*
X56131490Y5033442D01*
X56331993Y4896444D01*
X56570000Y4848246D01*
X57470000Y4848246D01*
X57692346Y4890083D01*
X57896558Y5021490D01*
X58033556Y5221993D01*
X58081754Y5460000D01*
X58081754Y5910000D01*
X58870000Y5910000D01*
X58946120Y5527317D01*
X58958246Y5509169D01*
X58958246Y5410000D01*
X59000083Y5187654D01*
X59131490Y4983442D01*
X59331993Y4846444D01*
X59570000Y4798246D01*
X60170000Y4798246D01*
X60392346Y4840083D01*
X60501000Y4910000D01*
X62022153Y4910000D01*
X62041993Y4896444D01*
X62280000Y4848246D01*
X63180000Y4848246D01*
X63402346Y4890083D01*
X63606558Y5021490D01*
X63632871Y5060000D01*
X64404400Y5060000D01*
X64421490Y5033442D01*
X64621993Y4896444D01*
X64860000Y4848246D01*
X65760000Y4848246D01*
X65982346Y4890083D01*
X66186558Y5021490D01*
X66323556Y5221993D01*
X66371754Y5460000D01*
X66371754Y6660000D01*
X66329917Y6882346D01*
X66198510Y7086558D01*
X66091012Y7160008D01*
X66186558Y7221490D01*
X66212871Y7260000D01*
X67176244Y7260000D01*
X67261943Y7201444D01*
X67499950Y7153246D01*
X68300050Y7153246D01*
X68522396Y7195083D01*
X68726608Y7326490D01*
X68863606Y7526993D01*
X68911804Y7765000D01*
X68911804Y9015000D01*
X68869967Y9237346D01*
X68738560Y9441558D01*
X68538057Y9578556D01*
X68300050Y9626754D01*
X67499950Y9626754D01*
X67277604Y9584917D01*
X67073392Y9453510D01*
X66941172Y9260000D01*
X66215600Y9260000D01*
X66198510Y9286558D01*
X65998007Y9423556D01*
X65760000Y9471754D01*
X64860000Y9471754D01*
X64637654Y9429917D01*
X64433442Y9298510D01*
X64296444Y9098007D01*
X64248246Y8860000D01*
X64248246Y7660000D01*
X64290083Y7437654D01*
X64421490Y7233442D01*
X64528988Y7159992D01*
X64433442Y7098510D01*
X64407129Y7060000D01*
X63635600Y7060000D01*
X63618510Y7086558D01*
X63418007Y7223556D01*
X63180000Y7271754D01*
X62280000Y7271754D01*
X62057654Y7229917D01*
X61853442Y7098510D01*
X61724638Y6910000D01*
X60501024Y6910000D01*
X60408007Y6973556D01*
X60170000Y7021754D01*
X59570000Y7021754D01*
X59347654Y6979917D01*
X59143442Y6848510D01*
X59006444Y6648007D01*
X58958246Y6410000D01*
X58958246Y6310831D01*
X58946120Y6292683D01*
X58870000Y5910000D01*
X58081754Y5910000D01*
X58081754Y6660000D01*
X58039917Y6882346D01*
X57908510Y7086558D01*
X57801012Y7160008D01*
X57896558Y7221490D01*
X57922871Y7260000D01*
X59720000Y7260000D01*
X59912277Y7298246D01*
X60170000Y7298246D01*
X60392346Y7340083D01*
X60596558Y7471490D01*
X60733556Y7671993D01*
X60781754Y7910000D01*
X60781754Y8009168D01*
X60793880Y8027316D01*
X60870000Y8410000D01*
X60793880Y8792684D01*
X60781754Y8810832D01*
X60781754Y8910000D01*
X60739917Y9132346D01*
X60608510Y9336558D01*
X60408007Y9473556D01*
X60170000Y9521754D01*
X59570000Y9521754D01*
X59347654Y9479917D01*
X59143442Y9348510D01*
X59082966Y9260000D01*
X57925600Y9260000D01*
X57908510Y9286558D01*
X57708007Y9423556D01*
X57470000Y9471754D01*
X56570000Y9471754D01*
X56347654Y9429917D01*
X56143442Y9298510D01*
X56006444Y9098007D01*
X55958246Y8860000D01*
X55958246Y7660000D01*
X56000083Y7437654D01*
X56131490Y7233442D01*
X56238988Y7159992D01*
X56143442Y7098510D01*
X56117129Y7060000D01*
X53354213Y7060000D01*
X47594192Y12820022D01*
X47887353Y12819766D01*
X48383715Y13024858D01*
X48529110Y13170000D01*
X48980000Y13170000D01*
X49362684Y13246120D01*
X49687107Y13462893D01*
X50284214Y14060000D01*
X50450000Y14060000D01*
X50450000Y13140299D01*
X50449827Y12941960D01*
X50601747Y12574286D01*
X50882806Y12292736D01*
X51250215Y12140174D01*
X51648040Y12139827D01*
X52015714Y12291747D01*
X52297264Y12572806D01*
X52449826Y12940215D01*
X52450173Y13338040D01*
X52450000Y13338459D01*
X52450000Y14202153D01*
X52463556Y14221993D01*
X52511754Y14460000D01*
X52511754Y15660000D01*
X52469917Y15882346D01*
X52338510Y16086558D01*
X52138007Y16223556D01*
X51900000Y16271754D01*
X51000000Y16271754D01*
X50777654Y16229917D01*
X50573442Y16098510D01*
X50547129Y16060000D01*
X49870000Y16060000D01*
X49487316Y15983880D01*
X49162893Y15767107D01*
X48565786Y15170000D01*
X48529269Y15170000D01*
X48529190Y15170079D01*
X48763807Y15404288D01*
X48969765Y15900290D01*
X48970234Y16437353D01*
X48765142Y16933715D01*
X48385712Y17313807D01*
X47889710Y17519765D01*
X47352647Y17520234D01*
X46856285Y17315142D01*
X46686227Y17145380D01*
X46427317Y17093880D01*
X46427315Y17093879D01*
X46427316Y17093879D01*
X46102893Y16877107D01*
X44972893Y15747107D01*
X44756120Y15422684D01*
X44749270Y15388246D01*
X44680000Y15040000D01*
X20644187Y15040000D01*
X20736960Y15506400D01*
X20565689Y16367438D01*
X20077950Y17097390D01*
X19347998Y17585129D01*
X18486960Y17756400D01*
X17625922Y17585129D01*
X16895970Y17097390D01*
X16408231Y16367438D01*
X16236960Y15506400D01*
X651100Y15506400D01*
X651100Y35856400D01*
X12986960Y35856400D01*
X13049751Y35868890D01*
X13113769Y35868890D01*
X15983890Y36439793D01*
X15983895Y36439793D01*
X16144697Y36506400D01*
X16218206Y36536848D01*
X16218207Y36536849D01*
X18651381Y38162643D01*
X18830716Y38341978D01*
X20276936Y40506400D01*
X21736960Y40506400D01*
X21908231Y39645362D01*
X22395970Y38915410D01*
X23125922Y38427671D01*
X23986960Y38256400D01*
X24847998Y38427671D01*
X25577950Y38915410D01*
X26065689Y39645362D01*
X26236960Y40506400D01*
X26065689Y41367438D01*
X25577950Y42097390D01*
X24847998Y42585129D01*
X23986960Y42756400D01*
X23125922Y42585129D01*
X22395970Y42097390D01*
X21908231Y41367438D01*
X21736960Y40506400D01*
X20276936Y40506400D01*
X20456509Y40775150D01*
X20456512Y40775153D01*
X20553566Y41009465D01*
X21124469Y43879588D01*
X21124471Y43879592D01*
X21124471Y44133208D01*
X21124469Y44133212D01*
X21050238Y44506400D01*
X32836960Y44506400D01*
X33076739Y43300947D01*
X33759574Y42279014D01*
X34781507Y41596179D01*
X35986960Y41356400D01*
X37192413Y41596179D01*
X38214346Y42279014D01*
X38897181Y43300947D01*
X39136960Y44506400D01*
X38897181Y45711853D01*
X38214346Y46733786D01*
X37192413Y47416621D01*
X35986960Y47656400D01*
X34781507Y47416621D01*
X33759574Y46733786D01*
X33076739Y45711853D01*
X32836960Y44506400D01*
X21050238Y44506400D01*
X20553566Y47003335D01*
X20456512Y47237647D01*
X20456509Y47237650D01*
X18830716Y49670822D01*
X18651381Y49850157D01*
X16218207Y51475951D01*
X16218206Y51475952D01*
X16105384Y51522684D01*
X15983895Y51573007D01*
X15983890Y51573007D01*
X13113769Y52143910D01*
X13049751Y52143910D01*
X12986960Y52156400D01*
X651100Y52156400D01*
X651100Y57942383D01*
X862746Y59006400D01*
X30251100Y59006400D01*
X30460431Y57954021D01*
X31056556Y57061856D01*
X31948721Y56465731D01*
X33001100Y56256400D01*
X34053479Y56465731D01*
X34945644Y57061856D01*
X35541769Y57954021D01*
X35751100Y59006400D01*
X35541769Y60058779D01*
X34945644Y60950944D01*
X34053479Y61547069D01*
X33001100Y61756400D01*
X31948721Y61547069D01*
X31056556Y60950944D01*
X30460431Y60058779D01*
X30251100Y59006400D01*
X862746Y59006400D01*
X1146229Y60431566D01*
X2519976Y62487522D01*
X4575934Y63861271D01*
X7065121Y64356400D01*
X51949587Y64356400D01*
X51940084Y58511754D01*
G36*
X77190000Y13505786D02*
X77190000Y12500000D01*
X75955600Y12500000D01*
X75938510Y12526558D01*
X75831012Y12600008D01*
X75926558Y12661490D01*
X76063556Y12861993D01*
X76111754Y13100000D01*
X76111754Y14300000D01*
X76069917Y14522346D01*
X75938510Y14726558D01*
X75738007Y14863556D01*
X75508661Y14910000D01*
X75785786Y14910000D01*
X77190000Y13505786D01*
X77190000Y13505786D01*
G37*
X77190000Y13505786D02*
X77190000Y12500000D01*
X75955600Y12500000D01*
X75938510Y12526558D01*
X75831012Y12600008D01*
X75926558Y12661490D01*
X76063556Y12861993D01*
X76111754Y13100000D01*
X76111754Y14300000D01*
X76069917Y14522346D01*
X75938510Y14726558D01*
X75738007Y14863556D01*
X75508661Y14910000D01*
X75785786Y14910000D01*
X77190000Y13505786D01*
G36*
X68812736Y36667194D02*
X68660174Y36299785D01*
X68659827Y35901960D01*
X68811747Y35534286D01*
X69092806Y35252736D01*
X69460215Y35100174D01*
X69858040Y35099827D01*
X69858459Y35100000D01*
X73250000Y35100000D01*
X73632684Y35176120D01*
X73957107Y35392893D01*
X74222246Y35658032D01*
X74222246Y33944000D01*
X74264083Y33721654D01*
X74395490Y33517442D01*
X74595993Y33380444D01*
X74834000Y33332246D01*
X76866000Y33332246D01*
X77088346Y33374083D01*
X77292558Y33505490D01*
X77390000Y33648101D01*
X77390000Y31439703D01*
X77304510Y31572558D01*
X77104007Y31709556D01*
X76866000Y31757754D01*
X74834000Y31757754D01*
X74611654Y31715917D01*
X74407442Y31584510D01*
X74270444Y31384007D01*
X74222246Y31146000D01*
X74222246Y29114000D01*
X74264083Y28891654D01*
X74395490Y28687442D01*
X74595993Y28550444D01*
X74834000Y28502246D01*
X74850000Y28502246D01*
X74850000Y28490000D01*
X74926120Y28107316D01*
X75142893Y27782893D01*
X76002893Y26922893D01*
X76184113Y26801805D01*
X75911659Y26856000D01*
X75848341Y26856000D01*
X75706439Y26827774D01*
X71757107Y30777107D01*
X71757106Y30777108D01*
X71617194Y30917264D01*
X71432686Y30993879D01*
X71432684Y30993880D01*
X71432682Y30993880D01*
X71249785Y31069826D01*
X70851960Y31070173D01*
X70667318Y30993880D01*
X70667316Y30993880D01*
X70667314Y30993879D01*
X70484286Y30918253D01*
X70202736Y30637194D01*
X70126121Y30452686D01*
X70126120Y30452684D01*
X70126120Y30452682D01*
X70050174Y30269785D01*
X70049827Y29871960D01*
X70201747Y29504286D01*
X70482806Y29222736D01*
X70483223Y29222563D01*
X74271072Y25434715D01*
X74232341Y25240000D01*
X74355352Y24621584D01*
X74705656Y24097315D01*
X75229925Y23747011D01*
X75848341Y23624000D01*
X75911659Y23624000D01*
X76530075Y23747011D01*
X76857264Y23965631D01*
X76965490Y23797442D01*
X77165993Y23660444D01*
X77404000Y23612246D01*
X77420000Y23612246D01*
X77420000Y22027754D01*
X77414000Y22027754D01*
X77191654Y21985917D01*
X76987442Y21854510D01*
X76865268Y21675703D01*
X76540075Y21892989D01*
X75921659Y22016000D01*
X75858341Y22016000D01*
X75239925Y21892989D01*
X74715656Y21542685D01*
X74365352Y21018416D01*
X74242341Y20400000D01*
X74365352Y19781584D01*
X74715656Y19257315D01*
X74890000Y19140823D01*
X74890000Y18450000D01*
X74966120Y18067316D01*
X75182893Y17742893D01*
X75822893Y17102893D01*
X76111577Y16910000D01*
X72574214Y16910000D01*
X72077107Y17407107D01*
X72077104Y17407109D01*
X68040000Y21444214D01*
X68040000Y26274400D01*
X68066558Y26291490D01*
X68203556Y26491993D01*
X68251754Y26730000D01*
X68251754Y27630000D01*
X68209917Y27852346D01*
X68078510Y28056558D01*
X68040000Y28082871D01*
X68040000Y28684400D01*
X68066558Y28701490D01*
X68203556Y28901993D01*
X68251754Y29140000D01*
X68251754Y30040000D01*
X68209917Y30262346D01*
X68078510Y30466558D01*
X68040000Y30492871D01*
X68040000Y36870000D01*
X68880000Y36870000D01*
X69049713Y36903758D01*
X68812736Y36667194D01*
X68812736Y36667194D01*
G37*
X68812736Y36667194D02*
X68660174Y36299785D01*
X68659827Y35901960D01*
X68811747Y35534286D01*
X69092806Y35252736D01*
X69460215Y35100174D01*
X69858040Y35099827D01*
X69858459Y35100000D01*
X73250000Y35100000D01*
X73632684Y35176120D01*
X73957107Y35392893D01*
X74222246Y35658032D01*
X74222246Y33944000D01*
X74264083Y33721654D01*
X74395490Y33517442D01*
X74595993Y33380444D01*
X74834000Y33332246D01*
X76866000Y33332246D01*
X77088346Y33374083D01*
X77292558Y33505490D01*
X77390000Y33648101D01*
X77390000Y31439703D01*
X77304510Y31572558D01*
X77104007Y31709556D01*
X76866000Y31757754D01*
X74834000Y31757754D01*
X74611654Y31715917D01*
X74407442Y31584510D01*
X74270444Y31384007D01*
X74222246Y31146000D01*
X74222246Y29114000D01*
X74264083Y28891654D01*
X74395490Y28687442D01*
X74595993Y28550444D01*
X74834000Y28502246D01*
X74850000Y28502246D01*
X74850000Y28490000D01*
X74926120Y28107316D01*
X75142893Y27782893D01*
X76002893Y26922893D01*
X76184113Y26801805D01*
X75911659Y26856000D01*
X75848341Y26856000D01*
X75706439Y26827774D01*
X71757107Y30777107D01*
X71757106Y30777108D01*
X71617194Y30917264D01*
X71432686Y30993879D01*
X71432684Y30993880D01*
X71432682Y30993880D01*
X71249785Y31069826D01*
X70851960Y31070173D01*
X70667318Y30993880D01*
X70667316Y30993880D01*
X70667314Y30993879D01*
X70484286Y30918253D01*
X70202736Y30637194D01*
X70126121Y30452686D01*
X70126120Y30452684D01*
X70126120Y30452682D01*
X70050174Y30269785D01*
X70049827Y29871960D01*
X70201747Y29504286D01*
X70482806Y29222736D01*
X70483223Y29222563D01*
X74271072Y25434715D01*
X74232341Y25240000D01*
X74355352Y24621584D01*
X74705656Y24097315D01*
X75229925Y23747011D01*
X75848341Y23624000D01*
X75911659Y23624000D01*
X76530075Y23747011D01*
X76857264Y23965631D01*
X76965490Y23797442D01*
X77165993Y23660444D01*
X77404000Y23612246D01*
X77420000Y23612246D01*
X77420000Y22027754D01*
X77414000Y22027754D01*
X77191654Y21985917D01*
X76987442Y21854510D01*
X76865268Y21675703D01*
X76540075Y21892989D01*
X75921659Y22016000D01*
X75858341Y22016000D01*
X75239925Y21892989D01*
X74715656Y21542685D01*
X74365352Y21018416D01*
X74242341Y20400000D01*
X74365352Y19781584D01*
X74715656Y19257315D01*
X74890000Y19140823D01*
X74890000Y18450000D01*
X74966120Y18067316D01*
X75182893Y17742893D01*
X75822893Y17102893D01*
X76111577Y16910000D01*
X72574214Y16910000D01*
X72077107Y17407107D01*
X72077104Y17407109D01*
X68040000Y21444214D01*
X68040000Y26274400D01*
X68066558Y26291490D01*
X68203556Y26491993D01*
X68251754Y26730000D01*
X68251754Y27630000D01*
X68209917Y27852346D01*
X68078510Y28056558D01*
X68040000Y28082871D01*
X68040000Y28684400D01*
X68066558Y28701490D01*
X68203556Y28901993D01*
X68251754Y29140000D01*
X68251754Y30040000D01*
X68209917Y30262346D01*
X68078510Y30466558D01*
X68040000Y30492871D01*
X68040000Y36870000D01*
X68880000Y36870000D01*
X69049713Y36903758D01*
X68812736Y36667194D01*
G36*
X82070000Y21074214D02*
X79805786Y18810000D01*
X79646647Y18810000D01*
X79668346Y18814083D01*
X79872558Y18945490D01*
X80009556Y19145993D01*
X80057754Y19384000D01*
X80057754Y21416000D01*
X80015917Y21638346D01*
X79884510Y21842558D01*
X79684007Y21979556D01*
X79446000Y22027754D01*
X79420000Y22027754D01*
X79420000Y23612246D01*
X79436000Y23612246D01*
X79658346Y23654083D01*
X79862558Y23785490D01*
X79999556Y23985993D01*
X80047754Y24224000D01*
X80047754Y26256000D01*
X80005917Y26478346D01*
X79908330Y26630000D01*
X80410000Y26630000D01*
X80792684Y26706120D01*
X81117107Y26922893D01*
X82070000Y27875786D01*
X82070000Y21074214D01*
X82070000Y21074214D01*
G37*
X82070000Y21074214D02*
X79805786Y18810000D01*
X79646647Y18810000D01*
X79668346Y18814083D01*
X79872558Y18945490D01*
X80009556Y19145993D01*
X80057754Y19384000D01*
X80057754Y21416000D01*
X80015917Y21638346D01*
X79884510Y21842558D01*
X79684007Y21979556D01*
X79446000Y22027754D01*
X79420000Y22027754D01*
X79420000Y23612246D01*
X79436000Y23612246D01*
X79658346Y23654083D01*
X79862558Y23785490D01*
X79999556Y23985993D01*
X80047754Y24224000D01*
X80047754Y26256000D01*
X80005917Y26478346D01*
X79908330Y26630000D01*
X80410000Y26630000D01*
X80792684Y26706120D01*
X81117107Y26922893D01*
X82070000Y27875786D01*
X82070000Y21074214D01*
G36*
X80510000Y29144214D02*
X79995786Y28630000D01*
X79004828Y28630000D01*
X79040075Y28637011D01*
X79564344Y28987315D01*
X79914648Y29511584D01*
X80037659Y30130000D01*
X79914648Y30748416D01*
X79564344Y31272685D01*
X79390000Y31389177D01*
X79390000Y33700823D01*
X79564344Y33817315D01*
X79914648Y34341584D01*
X80037659Y34960000D01*
X79914648Y35578416D01*
X79564344Y36102685D01*
X79040075Y36452989D01*
X78421659Y36576000D01*
X78358341Y36576000D01*
X77739925Y36452989D01*
X77412736Y36234369D01*
X77304510Y36402558D01*
X77104007Y36539556D01*
X76866000Y36587754D01*
X76319243Y36587754D01*
X76425714Y36631747D01*
X76707264Y36912806D01*
X76859826Y37280215D01*
X76860173Y37678040D01*
X76708253Y38045714D01*
X76427194Y38327264D01*
X76416014Y38331907D01*
X76617264Y38532806D01*
X76769826Y38900215D01*
X76770173Y39298040D01*
X76670197Y39540000D01*
X80129701Y39540000D01*
X80328040Y39539827D01*
X80510000Y39615011D01*
X80510000Y29144214D01*
X80510000Y29144214D01*
G37*
X80510000Y29144214D02*
X79995786Y28630000D01*
X79004828Y28630000D01*
X79040075Y28637011D01*
X79564344Y28987315D01*
X79914648Y29511584D01*
X80037659Y30130000D01*
X79914648Y30748416D01*
X79564344Y31272685D01*
X79390000Y31389177D01*
X79390000Y33700823D01*
X79564344Y33817315D01*
X79914648Y34341584D01*
X80037659Y34960000D01*
X79914648Y35578416D01*
X79564344Y36102685D01*
X79040075Y36452989D01*
X78421659Y36576000D01*
X78358341Y36576000D01*
X77739925Y36452989D01*
X77412736Y36234369D01*
X77304510Y36402558D01*
X77104007Y36539556D01*
X76866000Y36587754D01*
X76319243Y36587754D01*
X76425714Y36631747D01*
X76707264Y36912806D01*
X76859826Y37280215D01*
X76860173Y37678040D01*
X76708253Y38045714D01*
X76427194Y38327264D01*
X76416014Y38331907D01*
X76617264Y38532806D01*
X76769826Y38900215D01*
X76770173Y39298040D01*
X76670197Y39540000D01*
X80129701Y39540000D01*
X80328040Y39539827D01*
X80510000Y39615011D01*
X80510000Y29144214D01*
G36*
X66040000Y30495600D02*
X66013442Y30478510D01*
X65939992Y30371012D01*
X65878510Y30466558D01*
X65840000Y30492871D01*
X65840000Y33160000D01*
X65840173Y33358040D01*
X65688253Y33725714D01*
X65407194Y34007264D01*
X65039785Y34159826D01*
X64641960Y34160173D01*
X64274286Y34008253D01*
X63992736Y33727194D01*
X63840174Y33359785D01*
X63839827Y32961960D01*
X63840000Y32961541D01*
X63840000Y30495600D01*
X63813442Y30478510D01*
X63676444Y30278007D01*
X63658622Y30190000D01*
X61823043Y30190000D01*
X61765000Y30201754D01*
X60965000Y30201754D01*
X60742654Y30159917D01*
X60538442Y30028510D01*
X60401444Y29828007D01*
X60353246Y29590000D01*
X60353246Y29386349D01*
X60211580Y29481007D01*
X60026754Y29517771D01*
X60026754Y29590000D01*
X59984917Y29812346D01*
X59895000Y29952081D01*
X59895000Y31101174D01*
X59942346Y31110083D01*
X60146558Y31241490D01*
X60283556Y31441993D01*
X60331754Y31680000D01*
X60331754Y32580000D01*
X60289917Y32802346D01*
X60158510Y33006558D01*
X60120000Y33032871D01*
X60120000Y34075786D01*
X61887107Y35842893D01*
X62103880Y36167316D01*
X62180000Y36550000D01*
X62180000Y36870000D01*
X66040000Y36870000D01*
X66040000Y30495600D01*
X66040000Y30495600D01*
G37*
X66040000Y30495600D02*
X66013442Y30478510D01*
X65939992Y30371012D01*
X65878510Y30466558D01*
X65840000Y30492871D01*
X65840000Y33160000D01*
X65840173Y33358040D01*
X65688253Y33725714D01*
X65407194Y34007264D01*
X65039785Y34159826D01*
X64641960Y34160173D01*
X64274286Y34008253D01*
X63992736Y33727194D01*
X63840174Y33359785D01*
X63839827Y32961960D01*
X63840000Y32961541D01*
X63840000Y30495600D01*
X63813442Y30478510D01*
X63676444Y30278007D01*
X63658622Y30190000D01*
X61823043Y30190000D01*
X61765000Y30201754D01*
X60965000Y30201754D01*
X60742654Y30159917D01*
X60538442Y30028510D01*
X60401444Y29828007D01*
X60353246Y29590000D01*
X60353246Y29386349D01*
X60211580Y29481007D01*
X60026754Y29517771D01*
X60026754Y29590000D01*
X59984917Y29812346D01*
X59895000Y29952081D01*
X59895000Y31101174D01*
X59942346Y31110083D01*
X60146558Y31241490D01*
X60283556Y31441993D01*
X60331754Y31680000D01*
X60331754Y32580000D01*
X60289917Y32802346D01*
X60158510Y33006558D01*
X60120000Y33032871D01*
X60120000Y34075786D01*
X61887107Y35842893D01*
X62103880Y36167316D01*
X62180000Y36550000D01*
X62180000Y36870000D01*
X66040000Y36870000D01*
X66040000Y30495600D01*
G36*
X69012893Y41687107D02*
X68796120Y41362684D01*
X68766325Y41212893D01*
X68720000Y40980000D01*
X68720000Y39124214D01*
X68465786Y38870000D01*
X67090005Y38870000D01*
X67090000Y38870001D01*
X67089995Y38870000D01*
X62037847Y38870000D01*
X62018007Y38883556D01*
X61780000Y38931754D01*
X61720000Y38931754D01*
X61720000Y39768246D01*
X62490000Y39768246D01*
X62629957Y39794581D01*
X62760000Y39768246D01*
X63760000Y39768246D01*
X63899957Y39794581D01*
X64030000Y39768246D01*
X65030000Y39768246D01*
X65169957Y39794581D01*
X65300000Y39768246D01*
X66300000Y39768246D01*
X66439957Y39794581D01*
X66570000Y39768246D01*
X67570000Y39768246D01*
X67792346Y39810083D01*
X67996558Y39941490D01*
X68133556Y40141993D01*
X68181754Y40380000D01*
X68181754Y42318246D01*
X69644032Y42318246D01*
X69012893Y41687107D01*
X69012893Y41687107D01*
G37*
X69012893Y41687107D02*
X68796120Y41362684D01*
X68766325Y41212893D01*
X68720000Y40980000D01*
X68720000Y39124214D01*
X68465786Y38870000D01*
X67090005Y38870000D01*
X67090000Y38870001D01*
X67089995Y38870000D01*
X62037847Y38870000D01*
X62018007Y38883556D01*
X61780000Y38931754D01*
X61720000Y38931754D01*
X61720000Y39768246D01*
X62490000Y39768246D01*
X62629957Y39794581D01*
X62760000Y39768246D01*
X63760000Y39768246D01*
X63899957Y39794581D01*
X64030000Y39768246D01*
X65030000Y39768246D01*
X65169957Y39794581D01*
X65300000Y39768246D01*
X66300000Y39768246D01*
X66439957Y39794581D01*
X66570000Y39768246D01*
X67570000Y39768246D01*
X67792346Y39810083D01*
X67996558Y39941490D01*
X68133556Y40141993D01*
X68181754Y40380000D01*
X68181754Y42318246D01*
X69644032Y42318246D01*
X69012893Y41687107D01*
G36*
X81006405Y45265079D02*
X81481231Y44947810D01*
X82041326Y44836400D01*
X82098674Y44836400D01*
X82115950Y44839836D01*
X82860000Y44095786D01*
X82860000Y43124214D01*
X82655786Y42920000D01*
X81560274Y42920000D01*
X81510000Y42930000D01*
X81459726Y42920000D01*
X81005354Y42920000D01*
X81005354Y44623600D01*
X80963517Y44845946D01*
X80832110Y45050158D01*
X80631607Y45187156D01*
X80512940Y45211187D01*
X80593595Y45265079D01*
X80800000Y45573986D01*
X81006405Y45265079D01*
X81006405Y45265079D01*
G37*
X81006405Y45265079D02*
X81481231Y44947810D01*
X82041326Y44836400D01*
X82098674Y44836400D01*
X82115950Y44839836D01*
X82860000Y44095786D01*
X82860000Y43124214D01*
X82655786Y42920000D01*
X81560274Y42920000D01*
X81510000Y42930000D01*
X81459726Y42920000D01*
X81005354Y42920000D01*
X81005354Y44623600D01*
X80963517Y44845946D01*
X80832110Y45050158D01*
X80631607Y45187156D01*
X80512940Y45211187D01*
X80593595Y45265079D01*
X80800000Y45573986D01*
X81006405Y45265079D01*
G36*
X77770000Y57175786D02*
X77770000Y56677847D01*
X77756444Y56658007D01*
X77708246Y56420000D01*
X77708246Y55220000D01*
X77750083Y54997654D01*
X77881490Y54793442D01*
X77988988Y54719992D01*
X77893442Y54658510D01*
X77756444Y54458007D01*
X77708246Y54220000D01*
X77708246Y53020000D01*
X77750083Y52797654D01*
X77770000Y52766702D01*
X77770000Y51554214D01*
X76632893Y50417107D01*
X76416120Y50092684D01*
X76392107Y49971960D01*
X76340000Y49710000D01*
X76340000Y44760000D01*
X72500005Y44760000D01*
X72500000Y44760001D01*
X72117316Y44683880D01*
X71955105Y44575494D01*
X71792893Y44467107D01*
X71792891Y44467104D01*
X70431754Y43105968D01*
X70431754Y43930000D01*
X70405419Y44069957D01*
X70431754Y44200000D01*
X70431754Y45200000D01*
X70405419Y45339957D01*
X70431754Y45470000D01*
X70431754Y46240000D01*
X71459701Y46240000D01*
X71658040Y46239827D01*
X72025714Y46391747D01*
X72307264Y46672806D01*
X72459826Y47040215D01*
X72459918Y47145868D01*
X72912893Y46692893D01*
X73052806Y46552736D01*
X73237314Y46476121D01*
X73237316Y46476120D01*
X73237318Y46476120D01*
X73420215Y46400174D01*
X73818040Y46399827D01*
X74002682Y46476120D01*
X74002684Y46476120D01*
X74002686Y46476121D01*
X74185714Y46551747D01*
X74467264Y46832806D01*
X74543879Y47017314D01*
X74543880Y47017316D01*
X74543880Y47017318D01*
X74619826Y47200215D01*
X74620173Y47598040D01*
X74468253Y47965714D01*
X74187194Y48247264D01*
X74186777Y48247437D01*
X73264244Y49169970D01*
X73428040Y49169827D01*
X73795714Y49321747D01*
X74077264Y49602806D01*
X74229826Y49970215D01*
X74230173Y50368040D01*
X74097142Y50690000D01*
X74159701Y50690000D01*
X74358040Y50689827D01*
X74725714Y50841747D01*
X75007264Y51122806D01*
X75159826Y51490215D01*
X75160173Y51888040D01*
X75008253Y52255714D01*
X74727194Y52537264D01*
X74362484Y52688705D01*
X74453556Y52821993D01*
X74501754Y53060000D01*
X74501754Y54260000D01*
X74459917Y54482346D01*
X74328510Y54686558D01*
X74221012Y54760008D01*
X74316558Y54821490D01*
X74342871Y54860000D01*
X75194400Y54860000D01*
X75211490Y54833442D01*
X75411993Y54696444D01*
X75650000Y54648246D01*
X76550000Y54648246D01*
X76772346Y54690083D01*
X76976558Y54821490D01*
X77113556Y55021993D01*
X77161754Y55260000D01*
X77161754Y56460000D01*
X77119917Y56682346D01*
X76988510Y56886558D01*
X76788007Y57023556D01*
X76550000Y57071754D01*
X75650000Y57071754D01*
X75427654Y57029917D01*
X75223442Y56898510D01*
X75197129Y56860000D01*
X74345600Y56860000D01*
X74328510Y56886558D01*
X74128007Y57023556D01*
X73890000Y57071754D01*
X72990000Y57071754D01*
X72767654Y57029917D01*
X72563442Y56898510D01*
X72426444Y56698007D01*
X72378246Y56460000D01*
X72378246Y55260000D01*
X72420083Y55037654D01*
X72551490Y54833442D01*
X72658988Y54759992D01*
X72563442Y54698510D01*
X72560301Y54693913D01*
X71687107Y55567107D01*
X71362684Y55783880D01*
X70980000Y55860000D01*
X70431754Y55860000D01*
X70431754Y56400000D01*
X71200000Y56400000D01*
X71582684Y56476120D01*
X71907107Y56692893D01*
X72444214Y57230000D01*
X77715786Y57230000D01*
X77770000Y57175786D01*
X77770000Y57175786D01*
G37*
X77770000Y57175786D02*
X77770000Y56677847D01*
X77756444Y56658007D01*
X77708246Y56420000D01*
X77708246Y55220000D01*
X77750083Y54997654D01*
X77881490Y54793442D01*
X77988988Y54719992D01*
X77893442Y54658510D01*
X77756444Y54458007D01*
X77708246Y54220000D01*
X77708246Y53020000D01*
X77750083Y52797654D01*
X77770000Y52766702D01*
X77770000Y51554214D01*
X76632893Y50417107D01*
X76416120Y50092684D01*
X76392107Y49971960D01*
X76340000Y49710000D01*
X76340000Y44760000D01*
X72500005Y44760000D01*
X72500000Y44760001D01*
X72117316Y44683880D01*
X71955105Y44575494D01*
X71792893Y44467107D01*
X71792891Y44467104D01*
X70431754Y43105968D01*
X70431754Y43930000D01*
X70405419Y44069957D01*
X70431754Y44200000D01*
X70431754Y45200000D01*
X70405419Y45339957D01*
X70431754Y45470000D01*
X70431754Y46240000D01*
X71459701Y46240000D01*
X71658040Y46239827D01*
X72025714Y46391747D01*
X72307264Y46672806D01*
X72459826Y47040215D01*
X72459918Y47145868D01*
X72912893Y46692893D01*
X73052806Y46552736D01*
X73237314Y46476121D01*
X73237316Y46476120D01*
X73237318Y46476120D01*
X73420215Y46400174D01*
X73818040Y46399827D01*
X74002682Y46476120D01*
X74002684Y46476120D01*
X74002686Y46476121D01*
X74185714Y46551747D01*
X74467264Y46832806D01*
X74543879Y47017314D01*
X74543880Y47017316D01*
X74543880Y47017318D01*
X74619826Y47200215D01*
X74620173Y47598040D01*
X74468253Y47965714D01*
X74187194Y48247264D01*
X74186777Y48247437D01*
X73264244Y49169970D01*
X73428040Y49169827D01*
X73795714Y49321747D01*
X74077264Y49602806D01*
X74229826Y49970215D01*
X74230173Y50368040D01*
X74097142Y50690000D01*
X74159701Y50690000D01*
X74358040Y50689827D01*
X74725714Y50841747D01*
X75007264Y51122806D01*
X75159826Y51490215D01*
X75160173Y51888040D01*
X75008253Y52255714D01*
X74727194Y52537264D01*
X74362484Y52688705D01*
X74453556Y52821993D01*
X74501754Y53060000D01*
X74501754Y54260000D01*
X74459917Y54482346D01*
X74328510Y54686558D01*
X74221012Y54760008D01*
X74316558Y54821490D01*
X74342871Y54860000D01*
X75194400Y54860000D01*
X75211490Y54833442D01*
X75411993Y54696444D01*
X75650000Y54648246D01*
X76550000Y54648246D01*
X76772346Y54690083D01*
X76976558Y54821490D01*
X77113556Y55021993D01*
X77161754Y55260000D01*
X77161754Y56460000D01*
X77119917Y56682346D01*
X76988510Y56886558D01*
X76788007Y57023556D01*
X76550000Y57071754D01*
X75650000Y57071754D01*
X75427654Y57029917D01*
X75223442Y56898510D01*
X75197129Y56860000D01*
X74345600Y56860000D01*
X74328510Y56886558D01*
X74128007Y57023556D01*
X73890000Y57071754D01*
X72990000Y57071754D01*
X72767654Y57029917D01*
X72563442Y56898510D01*
X72426444Y56698007D01*
X72378246Y56460000D01*
X72378246Y55260000D01*
X72420083Y55037654D01*
X72551490Y54833442D01*
X72658988Y54759992D01*
X72563442Y54698510D01*
X72560301Y54693913D01*
X71687107Y55567107D01*
X71362684Y55783880D01*
X70980000Y55860000D01*
X70431754Y55860000D01*
X70431754Y56400000D01*
X71200000Y56400000D01*
X71582684Y56476120D01*
X71907107Y56692893D01*
X72444214Y57230000D01*
X77715786Y57230000D01*
X77770000Y57175786D01*
M02*
