M48
;DRILL file {KiCad 4.0.0-rc1-stable} date 2.2.2017 18:25:49
;FORMAT={2:4/ absolute / inch / suppress leading zeros}
FMAT,2
INCH,TZ
T1C0.016
T2C0.028
T3C0.034
T4C0.040
%
G90
G05
M72
T1
X20256Y5173
X20264Y9760
X21425Y15197
X22087Y14846
X23354Y20598
X23421Y19012
X24650Y20598
X24673Y19000
X24732Y12650
X24791Y15390
X24886Y9760
X25528Y13055
X25528Y9689
X27425Y14213
X27480Y6205
X27957Y14835
X27972Y11839
X27984Y15394
X27992Y15933
X28134Y18598
X28429Y8386
X28760Y7217
X28831Y19752
X28984Y18661
X29197Y20350
X29831Y15394
X29866Y14756
X29965Y20311
X30185Y3890
X30272Y5173
X31449Y12768
X31457Y3886
X31547Y15961
X31909Y8957
X32772Y15961
X33406Y12071
X34035Y14933
T2
X18748Y11996
X18748Y11209
X18748Y10421
X18748Y7154
X18748Y6366
X18748Y5579
T3
X35028Y13516
X35028Y12795
X35028Y12075
X35657Y13516
X35657Y12795
X35657Y12075
T4
X29862Y13764
X29862Y11862
X29874Y9937
X29878Y8031
X30862Y13764
X30862Y11862
X30874Y9937
X30878Y8031
X31311Y18228
X31311Y17228
X32311Y18228
X32311Y17228
T0
M30
