G04 #@! TF.FileFunction,Copper,L1,Top,Signal*
%FSLAX46Y46*%
G04 Gerber Fmt 4.6, Leading zero omitted, Abs format (unit mm)*
G04 Created by KiCad (PCBNEW 4.0.0-rc1-stable) date 24.2.2017 9:52:46*
%MOMM*%
G01*
G04 APERTURE LIST*
%ADD10C,0.100000*%
%ADD11R,1.727200X1.727200*%
%ADD12O,1.727200X1.727200*%
%ADD13C,4.064000*%
%ADD14R,0.900000X1.200000*%
%ADD15R,1.250000X1.500000*%
%ADD16R,1.200000X0.900000*%
%ADD17R,1.500000X1.250000*%
%ADD18R,1.016000X1.962000*%
%ADD19R,1.962000X1.016000*%
%ADD20R,1.050000X0.600000*%
%ADD21R,0.800000X0.350000*%
%ADD22O,3.400000X2.200000*%
%ADD23R,1.727200X2.032000*%
%ADD24O,1.727200X2.032000*%
%ADD25C,3.080000*%
%ADD26R,2.286000X5.080000*%
%ADD27R,2.413000X5.080000*%
%ADD28C,0.800000*%
%ADD29C,1.000000*%
%ADD30C,0.700000*%
%ADD31C,0.400000*%
%ADD32C,0.200000*%
%ADD33C,1.500000*%
%ADD34C,0.500000*%
G04 APERTURE END LIST*
D10*
D11*
X28800000Y56640000D03*
D12*
X31340000Y56640000D03*
X28800000Y54100000D03*
X31340000Y54100000D03*
X28800000Y51560000D03*
X31340000Y51560000D03*
X28800000Y49020000D03*
X31340000Y49020000D03*
X28800000Y46480000D03*
X31340000Y46480000D03*
X28800000Y43940000D03*
X31340000Y43940000D03*
X28800000Y41400000D03*
X31340000Y41400000D03*
X28800000Y38860000D03*
X31340000Y38860000D03*
X28800000Y36320000D03*
X31340000Y36320000D03*
X28800000Y33780000D03*
X31340000Y33780000D03*
X28800000Y31240000D03*
X31340000Y31240000D03*
X28800000Y28700000D03*
X31340000Y28700000D03*
X28800000Y26160000D03*
X31340000Y26160000D03*
X28800000Y23620000D03*
X31340000Y23620000D03*
X28800000Y21080000D03*
X31340000Y21080000D03*
X28800000Y18540000D03*
X31340000Y18540000D03*
X28800000Y16000000D03*
X31340000Y16000000D03*
X28800000Y13460000D03*
X31340000Y13460000D03*
X28800000Y10920000D03*
X31340000Y10920000D03*
X28800000Y8380000D03*
X31340000Y8380000D03*
D13*
X30115000Y3880000D03*
X30110000Y61140000D03*
D14*
X2030000Y33420000D03*
X2030000Y31220000D03*
X25970000Y33110000D03*
X25970000Y30910000D03*
X22110000Y7070000D03*
X22110000Y9270000D03*
D15*
X25010000Y7120000D03*
X25010000Y9620000D03*
D16*
X15300000Y8130000D03*
X13100000Y8130000D03*
X15300000Y10410000D03*
X13100000Y10410000D03*
D14*
X19210000Y7070000D03*
X19210000Y9270000D03*
D17*
X18420000Y2330000D03*
X15920000Y2330000D03*
D16*
X3870000Y1750000D03*
X6070000Y1750000D03*
X3870000Y4270000D03*
X6070000Y4270000D03*
X8550000Y1750000D03*
X10750000Y1750000D03*
D14*
X5030000Y7780000D03*
X5030000Y9980000D03*
X2380000Y7780000D03*
X2380000Y9980000D03*
X2030000Y36000000D03*
X2030000Y38200000D03*
D16*
X8550000Y4270000D03*
X10750000Y4270000D03*
D18*
X18010000Y44759000D03*
X10390000Y44759000D03*
X11660000Y44759000D03*
X16740000Y44759000D03*
X15470000Y44759000D03*
X14200000Y44759000D03*
X12930000Y44759000D03*
D19*
X23309000Y20410000D03*
X23309000Y21680000D03*
X23309000Y22950000D03*
X23309000Y24220000D03*
X23309000Y25490000D03*
X23309000Y26760000D03*
X23309000Y28030000D03*
X23309000Y29300000D03*
X23309000Y30570000D03*
X23309000Y31840000D03*
X23309000Y33110000D03*
X23309000Y34380000D03*
X23309000Y35650000D03*
X23309000Y36920000D03*
X23309000Y38190000D03*
X23309000Y39460000D03*
X23309000Y40730000D03*
X23309000Y42000000D03*
X23309000Y19140000D03*
X23309000Y43270000D03*
X5091000Y43270000D03*
X5091000Y42000000D03*
X5091000Y40730000D03*
X5091000Y39460000D03*
X5091000Y38190000D03*
X5091000Y36920000D03*
X5091000Y35650000D03*
X5091000Y34380000D03*
X5091000Y33110000D03*
X5091000Y31840000D03*
X5091000Y30570000D03*
X5091000Y29300000D03*
X5091000Y28030000D03*
X5091000Y26760000D03*
X5091000Y25490000D03*
X5091000Y24220000D03*
X5091000Y22950000D03*
X5091000Y21680000D03*
X5091000Y20410000D03*
X5091000Y19140000D03*
D20*
X21110000Y4320000D03*
X21110000Y2420000D03*
X23810000Y2420000D03*
X23810000Y4320000D03*
X23810000Y3370000D03*
D21*
X10595000Y10675000D03*
X10595000Y10025000D03*
X10595000Y9375000D03*
X10595000Y8725000D03*
X8245000Y8725000D03*
X8245000Y9375000D03*
X8245000Y10675000D03*
X8245000Y10025000D03*
D22*
X2510000Y15320000D03*
D23*
X17710000Y14770000D03*
D24*
X15170000Y14770000D03*
X12630000Y14770000D03*
X10090000Y14770000D03*
D22*
X25310000Y15320000D03*
D25*
X20290000Y55160000D03*
X22830000Y52610000D03*
X17750000Y52610000D03*
X22830000Y57710000D03*
D26*
X20290000Y62160000D03*
D27*
X24690000Y62160000D03*
X15890000Y62160000D03*
D25*
X17750000Y57710000D03*
X8070000Y55170000D03*
X10610000Y52620000D03*
X5530000Y52620000D03*
X10610000Y57720000D03*
D26*
X8070000Y62170000D03*
D27*
X12470000Y62170000D03*
X3670000Y62170000D03*
D25*
X5530000Y57720000D03*
D28*
X2380000Y6150000D03*
X18420000Y4480000D03*
X15760700Y34450020D03*
X14450060Y34460180D03*
X21550000Y16270000D03*
X17860000Y20760000D03*
X15760000Y25340000D03*
X15360000Y28080000D03*
X15760000Y23020000D03*
X20050000Y18340000D03*
X21440000Y13240000D03*
X13300000Y25350000D03*
X14400000Y31220000D03*
X13290000Y28180000D03*
X13300000Y23030000D03*
X23470000Y11300000D03*
X26630000Y9640000D03*
X20690000Y9660000D03*
X22680000Y3370000D03*
X2500000Y1750000D03*
X25310000Y28030000D03*
X3240000Y19140000D03*
X3400000Y43270000D03*
X9670000Y46970000D03*
X8100000Y48540000D03*
X6380000Y50260000D03*
X7190000Y49450000D03*
X8930000Y47710000D03*
X10370000Y46270000D03*
X12620000Y49470000D03*
X14200000Y47890000D03*
X15780000Y49480000D03*
X16590000Y50290000D03*
X14970000Y48660000D03*
X13410000Y48680000D03*
X11910000Y50180000D03*
X19150000Y47170000D03*
X20650000Y48670000D03*
X22100000Y50120000D03*
X21320000Y49340000D03*
X19890000Y47910000D03*
X18460000Y46480000D03*
X15770000Y31200000D03*
X7700000Y37440000D03*
X2030000Y26770000D03*
X11840000Y9370000D03*
X15540000Y4480000D03*
X25981660Y36034980D03*
X13240000Y3860000D03*
X11120000Y39450000D03*
X11127740Y34460180D03*
X12680000Y39440000D03*
X12677140Y34465260D03*
X7620000Y33620000D03*
X10740000Y5620000D03*
X17884140Y34465260D03*
X17890000Y39230000D03*
X17890000Y26750000D03*
X19458940Y34465260D03*
X19460000Y39250000D03*
X19460000Y25500000D03*
X21186140Y34450020D03*
X21180000Y39250000D03*
X21180000Y21680000D03*
X27020000Y17270000D03*
X3248660Y38190000D03*
D29*
X17710000Y14770000D02*
X17710000Y15100000D01*
X17710000Y15100000D02*
X10390000Y22420000D01*
X10390000Y22420000D02*
X10390000Y33110000D01*
X17710000Y33110000D02*
X10390000Y33110000D01*
X10390000Y33110000D02*
X10270000Y33110000D01*
X10270000Y33110000D02*
X7730000Y35650000D01*
X5310000Y35650000D02*
X7730000Y35650000D01*
X17710000Y33110000D02*
X17710000Y33120000D01*
X17710000Y33120000D02*
X17710000Y33110000D01*
X20310000Y33110000D02*
X17710000Y33110000D01*
X20310000Y33110000D02*
X23090000Y33110000D01*
D30*
X20310000Y33110000D02*
X23090000Y33110000D01*
D29*
X23090000Y33110000D02*
X25970000Y33110000D01*
X18420000Y4480000D02*
X17440000Y5460000D01*
X17440000Y5460000D02*
X17440000Y6310000D01*
X18420000Y4480000D02*
X18420000Y2330000D01*
X2380000Y7780000D02*
X2380000Y6150000D01*
X18420000Y4480000D02*
X18420000Y3910000D01*
X2380000Y7780000D02*
X5030000Y7780000D01*
X2030000Y36000000D02*
X2030000Y33420000D01*
D31*
X10445000Y8725000D02*
X10835000Y8725000D01*
X10835000Y8725000D02*
X11430000Y8130000D01*
X11430000Y8130000D02*
X11880000Y8130000D01*
D29*
X13100000Y8130000D02*
X13100000Y6930000D01*
X13100000Y6930000D02*
X13720000Y6310000D01*
X13720000Y6310000D02*
X17440000Y6310000D01*
D31*
X8395000Y9375000D02*
X8915000Y9375000D01*
X9565000Y10025000D02*
X10445000Y10025000D01*
X8915000Y9375000D02*
X9565000Y10025000D01*
X10445000Y10360000D02*
X13050000Y10360000D01*
X13050000Y10360000D02*
X13100000Y10410000D01*
X10445000Y10675000D02*
X10445000Y10360000D01*
X10445000Y10360000D02*
X10445000Y10025000D01*
X11880000Y8130000D02*
X13100000Y8130000D01*
D29*
X17710000Y14770000D02*
X17440000Y14500000D01*
X17440000Y14500000D02*
X17440000Y6310000D01*
X18420000Y3910000D02*
X18420000Y3910000D01*
X18420000Y3910000D02*
X18420000Y2330000D01*
X21110000Y2420000D02*
X18510000Y2420000D01*
X18510000Y2420000D02*
X18420000Y2330000D01*
X13100000Y10410000D02*
X13100000Y8130000D01*
X2030000Y36000000D02*
X2960000Y36000000D01*
X3310000Y35650000D02*
X5310000Y35650000D01*
X2960000Y36000000D02*
X3310000Y35650000D01*
X17510000Y14570000D02*
X17710000Y14770000D01*
X15760000Y35030000D02*
X15760000Y34450720D01*
X15190000Y35600000D02*
X15760000Y35030000D01*
X15020000Y35600000D02*
X15190000Y35600000D01*
X15760000Y34450720D02*
X15760700Y34450020D01*
X14450000Y35030000D02*
X14450000Y34460240D01*
X15020000Y35600000D02*
X14450000Y35030000D01*
X14450000Y34460240D02*
X14450060Y34460180D01*
D32*
X21550000Y16270000D02*
X21550000Y13350000D01*
X17860000Y20760000D02*
X17860000Y20530000D01*
X15760000Y23020000D02*
X15760000Y25340000D01*
X15770000Y31200000D02*
X15770000Y28490000D01*
X15770000Y28490000D02*
X15360000Y28080000D01*
X17860000Y20530000D02*
X20050000Y18340000D01*
X21550000Y13350000D02*
X21440000Y13240000D01*
X13300000Y23030000D02*
X13300000Y25350000D01*
X22110000Y9270000D02*
X22110000Y9940000D01*
X22110000Y9940000D02*
X23470000Y11300000D01*
X25010000Y9620000D02*
X26610000Y9620000D01*
X26610000Y9620000D02*
X26630000Y9640000D01*
X19210000Y9270000D02*
X20300000Y9270000D01*
X20300000Y9270000D02*
X20690000Y9660000D01*
X19210000Y9270000D02*
X20710000Y9270000D01*
D30*
X22110000Y9270000D02*
X20710000Y9270000D01*
D32*
X23810000Y3370000D02*
X22680000Y3370000D01*
X22680000Y3370000D02*
X22410000Y3370000D01*
D30*
X22410000Y3370000D02*
X22410000Y5070000D01*
D32*
X3870000Y1750000D02*
X2500000Y1750000D01*
X23090000Y28030000D02*
X25310000Y28030000D01*
X5310000Y19140000D02*
X3240000Y19140000D01*
X5310000Y43270000D02*
X3400000Y43270000D01*
X6380000Y50260000D02*
X5530000Y51110000D01*
X8100000Y48540000D02*
X7190000Y49450000D01*
X9670000Y46970000D02*
X8930000Y47710000D01*
X5530000Y52620000D02*
X5530000Y51110000D01*
X11910000Y50180000D02*
X12620000Y49470000D01*
X13410000Y48680000D02*
X14200000Y47890000D01*
X15780000Y49480000D02*
X14970000Y48670000D01*
X16590000Y50290000D02*
X17750000Y51450000D01*
X14970000Y48670000D02*
X14970000Y48660000D01*
X17750000Y52610000D02*
X17750000Y51450000D01*
X22830000Y50850000D02*
X22100000Y50120000D01*
X22830000Y50850000D02*
X22830000Y52610000D01*
X20650000Y48670000D02*
X21320000Y49340000D01*
X19150000Y47170000D02*
X19890000Y47910000D01*
D29*
X15770000Y31200000D02*
X20620000Y31200000D01*
X21260000Y31840000D02*
X23090000Y31840000D01*
X20620000Y31200000D02*
X21260000Y31840000D01*
X15020000Y42150000D02*
X15020000Y35600000D01*
X25310000Y28030000D02*
X25780000Y28030000D01*
X25780000Y28030000D02*
X25970000Y28220000D01*
X28800000Y26160000D02*
X26830000Y26160000D01*
X25970000Y27020000D02*
X25970000Y28220000D01*
X25970000Y28220000D02*
X25970000Y28690000D01*
X26830000Y26160000D02*
X25970000Y27020000D01*
X25970000Y28690000D02*
X25970000Y30910000D01*
D31*
X31340000Y51560000D02*
X30070000Y50290000D01*
X30070000Y47750000D02*
X28800000Y46480000D01*
X30070000Y50290000D02*
X30070000Y47750000D01*
D29*
X23090000Y43270000D02*
X26300000Y46480000D01*
X26300000Y46480000D02*
X28800000Y46480000D01*
D31*
X25970000Y30910000D02*
X27570000Y32510000D01*
X30070000Y32510000D02*
X31340000Y33780000D01*
X27570000Y32510000D02*
X30070000Y32510000D01*
D29*
X7700000Y37440000D02*
X7350000Y37440000D01*
X2030000Y27530000D02*
X2030000Y26770000D01*
X7350000Y37440000D02*
X7140000Y37230000D01*
X5310000Y36920000D02*
X6830000Y36920000D01*
X6830000Y36920000D02*
X7140000Y37230000D01*
X7140000Y37230000D02*
X7140000Y43270000D01*
X23090000Y31840000D02*
X24740000Y31840000D01*
X24740000Y31840000D02*
X25670000Y30910000D01*
X25670000Y30910000D02*
X25970000Y30910000D01*
D31*
X8395000Y8725000D02*
X8395000Y7845000D01*
D29*
X4910000Y5680000D02*
X7770000Y5680000D01*
X7770000Y5680000D02*
X8400000Y6310000D01*
X8400000Y6310000D02*
X8400000Y7840000D01*
X4910000Y5680000D02*
X3870000Y4640000D01*
D31*
X8395000Y7845000D02*
X8400000Y7840000D01*
D29*
X3870000Y4270000D02*
X3870000Y4640000D01*
X1620000Y14430000D02*
X2510000Y15320000D01*
X2030000Y31220000D02*
X2030000Y27530000D01*
X2800000Y26760000D02*
X5310000Y26760000D01*
X2030000Y27530000D02*
X2800000Y26760000D01*
D31*
X11835000Y9375000D02*
X10445000Y9375000D01*
X11835000Y9375000D02*
X11840000Y9370000D01*
D29*
X15540000Y4480000D02*
X15920000Y4100000D01*
X15920000Y4100000D02*
X15920000Y2330000D01*
X15300000Y10410000D02*
X15300000Y14640000D01*
X15300000Y14640000D02*
X15170000Y14770000D01*
D31*
X8395000Y8725000D02*
X9235000Y8725000D01*
X9235000Y8725000D02*
X9885000Y9375000D01*
X9885000Y9375000D02*
X10445000Y9375000D01*
D29*
X15300000Y10410000D02*
X15300000Y8130000D01*
X5530000Y52620000D02*
X5530000Y43490000D01*
X5530000Y43490000D02*
X5310000Y43270000D01*
X16740000Y44540000D02*
X16740000Y42880000D01*
X16010000Y42150000D02*
X15020000Y42150000D01*
X15020000Y42150000D02*
X14200000Y42150000D01*
X16740000Y42880000D02*
X16010000Y42150000D01*
X11660000Y44540000D02*
X11660000Y42750000D01*
X11660000Y42750000D02*
X12260000Y42150000D01*
X12260000Y42150000D02*
X14200000Y42150000D01*
X14200000Y44540000D02*
X14200000Y42150000D01*
X18010000Y44540000D02*
X19110000Y44540000D01*
X19110000Y44540000D02*
X20380000Y43270000D01*
X20380000Y43270000D02*
X23090000Y43270000D01*
X16740000Y44540000D02*
X18010000Y44540000D01*
X10390000Y44540000D02*
X8410000Y44540000D01*
X7140000Y43270000D02*
X5310000Y43270000D01*
X8410000Y44540000D02*
X7140000Y43270000D01*
X10390000Y44540000D02*
X11660000Y44540000D01*
X3870000Y4270000D02*
X3870000Y1750000D01*
D31*
X31340000Y16000000D02*
X30070000Y14730000D01*
X30070000Y14730000D02*
X25900000Y14730000D01*
X25900000Y14730000D02*
X25310000Y15320000D01*
D29*
X25010000Y9620000D02*
X25310000Y9920000D01*
X25310000Y9920000D02*
X25310000Y15320000D01*
X23090000Y19140000D02*
X25310000Y16920000D01*
X25310000Y16920000D02*
X25310000Y15320000D01*
X5310000Y19140000D02*
X2510000Y16340000D01*
X2510000Y16340000D02*
X2510000Y15320000D01*
D30*
X22410000Y5070000D02*
X21910000Y5570000D01*
X25010000Y9620000D02*
X24660000Y9270000D01*
X24660000Y9270000D02*
X22110000Y9270000D01*
X23810000Y3370000D02*
X22810000Y3370000D01*
X22410000Y3370000D02*
X22810000Y3370000D01*
X22410000Y3770000D02*
X22410000Y5070000D01*
X22010000Y1070000D02*
X22410000Y1470000D01*
X22410000Y1470000D02*
X22410000Y3770000D01*
X25010000Y9620000D02*
X25760000Y9620000D01*
X27000000Y8380000D02*
X28800000Y8380000D01*
X25760000Y9620000D02*
X27000000Y8380000D01*
X22110000Y9270000D02*
X24660000Y9270000D01*
X20710000Y6170000D02*
X20710000Y9270000D01*
X21910000Y5570000D02*
X21310000Y5570000D01*
X21310000Y5570000D02*
X20710000Y6170000D01*
D29*
X10610000Y57720000D02*
X10610000Y52620000D01*
X5530000Y57720000D02*
X5530000Y52620000D01*
X5530000Y57720000D02*
X3670000Y59580000D01*
X3670000Y59580000D02*
X3670000Y62170000D01*
X17750000Y57710000D02*
X17750000Y52610000D01*
X22830000Y57710000D02*
X22830000Y52610000D01*
X22830000Y57710000D02*
X24690000Y59570000D01*
X24690000Y59570000D02*
X24690000Y62160000D01*
X15890000Y62160000D02*
X15890000Y59570000D01*
X15890000Y59570000D02*
X17750000Y57710000D01*
X12470000Y62170000D02*
X15880000Y62170000D01*
X15880000Y62170000D02*
X15890000Y62160000D01*
X10610000Y57720000D02*
X11560000Y57720000D01*
X11560000Y57720000D02*
X12470000Y58630000D01*
X12470000Y58630000D02*
X12470000Y62170000D01*
D30*
X23810000Y4320000D02*
X25010000Y4320000D01*
X25010000Y4320000D02*
X25060000Y4370000D01*
X25010000Y7120000D02*
X25010000Y4370000D01*
X25010000Y4370000D02*
X25010000Y2670000D01*
X24760000Y2420000D02*
X23810000Y2420000D01*
X25010000Y2670000D02*
X24760000Y2420000D01*
X25260000Y6870000D02*
X28910000Y6870000D01*
X32910000Y52170000D02*
X31340000Y53740000D01*
X32910000Y7770000D02*
X32010000Y6870000D01*
X32910000Y52170000D02*
X32910000Y7770000D01*
X32010000Y6870000D02*
X28910000Y6870000D01*
X25260000Y6870000D02*
X25010000Y7120000D01*
D29*
X22110000Y7070000D02*
X24960000Y7070000D01*
X24960000Y7070000D02*
X25010000Y7120000D01*
D33*
X31340000Y56640000D02*
X31340000Y54100000D01*
D34*
X31340000Y54100000D02*
X31340000Y53740000D01*
D30*
X19210000Y7070000D02*
X19210000Y6220000D01*
X19210000Y6220000D02*
X21110000Y4320000D01*
D29*
X6070000Y1750000D02*
X8550000Y1750000D01*
X6070000Y4270000D02*
X8550000Y4270000D01*
D31*
X25981660Y36034980D02*
X27536680Y37590000D01*
X27536680Y37590000D02*
X30070000Y37590000D01*
D29*
X12340000Y1750000D02*
X13240000Y2650000D01*
X13240000Y2650000D02*
X13240000Y3860000D01*
X10750000Y1750000D02*
X12340000Y1750000D01*
D31*
X30070000Y37590000D02*
X31340000Y38860000D01*
X30070000Y37590000D02*
X28280000Y37590000D01*
D29*
X11130000Y35570000D02*
X11130000Y34462440D01*
X11130000Y35570000D02*
X11130000Y39440000D01*
X11130000Y39440000D02*
X11120000Y39450000D01*
X11130000Y34462440D02*
X11127740Y34460180D01*
D31*
X7250000Y10025000D02*
X7250000Y10960000D01*
X7250000Y10960000D02*
X7740000Y11450000D01*
X10090000Y12640000D02*
X10090000Y14770000D01*
X10090000Y12640000D02*
X8900000Y11450000D01*
X7740000Y11450000D02*
X8900000Y11450000D01*
X7250000Y10025000D02*
X7250000Y10060000D01*
X7250000Y10060000D02*
X7250000Y10025000D01*
X8395000Y10025000D02*
X7250000Y10025000D01*
X7250000Y10025000D02*
X5075000Y10025000D01*
X5075000Y10025000D02*
X5030000Y9980000D01*
D29*
X12680000Y35570000D02*
X12680000Y34468120D01*
X12680000Y35570000D02*
X12680000Y39440000D01*
X12680000Y34468120D02*
X12677140Y34465260D01*
D31*
X12630000Y14770000D02*
X12350000Y14770000D01*
X12350000Y14770000D02*
X10700000Y16420000D01*
X2380000Y10810000D02*
X2380000Y9980000D01*
X2890000Y11320000D02*
X2380000Y10810000D01*
X6590000Y11320000D02*
X2890000Y11320000D01*
X8610000Y13340000D02*
X6590000Y11320000D01*
X8610000Y15560000D02*
X8610000Y13340000D01*
X9470000Y16420000D02*
X8610000Y15560000D01*
X10700000Y16420000D02*
X9470000Y16420000D01*
X8395000Y10675000D02*
X9265000Y10675000D01*
X9265000Y10675000D02*
X12630000Y14040000D01*
X12630000Y14040000D02*
X12630000Y14770000D01*
D29*
X6860000Y34380000D02*
X7620000Y33620000D01*
X5310000Y34380000D02*
X6860000Y34380000D01*
X10750000Y5610000D02*
X10740000Y5620000D01*
X10750000Y5610000D02*
X10750000Y4270000D01*
X17890000Y35372820D02*
X17890000Y34471120D01*
X17890000Y34471120D02*
X17884140Y34465260D01*
X17890000Y36010000D02*
X17890000Y35372820D01*
X17890000Y39230000D02*
X17890000Y36010000D01*
X17890000Y35372820D02*
X17889220Y35372040D01*
X23090000Y26760000D02*
X17900000Y26760000D01*
X17900000Y26760000D02*
X17890000Y26750000D01*
X19460000Y35370560D02*
X19460000Y34466320D01*
X19460000Y34466320D02*
X19458940Y34465260D01*
X19460000Y36010000D02*
X19460000Y35370560D01*
X19460000Y39250000D02*
X19460000Y36010000D01*
X19460000Y35370560D02*
X19458940Y35369500D01*
X23090000Y25490000D02*
X19470000Y25490000D01*
X19470000Y25490000D02*
X19460000Y25500000D01*
X21180000Y35378600D02*
X21180000Y34456160D01*
X21180000Y34456160D02*
X21186140Y34450020D01*
X21180000Y36020000D02*
X21180000Y35378600D01*
X21180000Y39250000D02*
X21180000Y36020000D01*
X21180000Y35378600D02*
X21178520Y35377120D01*
X23090000Y21680000D02*
X21180000Y21680000D01*
X25910000Y20410000D02*
X27020000Y19300000D01*
X27020000Y19300000D02*
X27020000Y17270000D01*
X25910000Y20410000D02*
X23090000Y20410000D01*
X12930000Y44540000D02*
X12930000Y46350000D01*
D33*
X8070000Y51210000D02*
X8070000Y55170000D01*
X12910000Y46370000D02*
X8070000Y51210000D01*
D29*
X12930000Y46350000D02*
X12910000Y46370000D01*
D33*
X8070000Y55170000D02*
X8070000Y62170000D01*
X20290000Y51170000D02*
X15470000Y46350000D01*
X15510000Y46370000D02*
X15470000Y46370000D01*
X15490000Y46350000D02*
X15510000Y46370000D01*
X15470000Y46350000D02*
X15490000Y46350000D01*
X20290000Y55160000D02*
X20290000Y51170000D01*
X20290000Y51170000D02*
X20290000Y51150000D01*
D29*
X15470000Y44540000D02*
X15470000Y46370000D01*
D33*
X20290000Y55160000D02*
X20290000Y62160000D01*
D29*
X5310000Y38190000D02*
X3248660Y38190000D01*
X3248660Y38190000D02*
X2040000Y38190000D01*
X2040000Y38190000D02*
X2030000Y38200000D01*
D31*
G36*
X6315246Y59630000D02*
X6357083Y59407654D01*
X6488490Y59203442D01*
X6688993Y59066444D01*
X6720000Y59060165D01*
X6720000Y56846133D01*
X6256854Y56383795D01*
X5930372Y55597540D01*
X5929629Y54746195D01*
X6254739Y53959371D01*
X6720000Y53493297D01*
X6720000Y51210000D01*
X6822763Y50693377D01*
X6954376Y50496405D01*
X7115406Y50255406D01*
X11810246Y45560566D01*
X11810246Y43778000D01*
X11852083Y43555654D01*
X11983490Y43351442D01*
X12183993Y43214444D01*
X12422000Y43166246D01*
X13438000Y43166246D01*
X13660346Y43208083D01*
X13864558Y43339490D01*
X14001556Y43539993D01*
X14049754Y43778000D01*
X14049754Y45692517D01*
X14157238Y45853378D01*
X14188011Y46008086D01*
X14222763Y45833377D01*
X14350246Y45642585D01*
X14350246Y43778000D01*
X14392083Y43555654D01*
X14523490Y43351442D01*
X14723993Y43214444D01*
X14962000Y43166246D01*
X15978000Y43166246D01*
X16200346Y43208083D01*
X16404558Y43339490D01*
X16541556Y43539993D01*
X16589754Y43778000D01*
X16589754Y45560566D01*
X21184321Y50155133D01*
X21244594Y50195406D01*
X21537237Y50633377D01*
X21640000Y51150000D01*
X21640000Y53483867D01*
X22103146Y53946205D01*
X22429628Y54732460D01*
X22430371Y55583805D01*
X22105261Y56370629D01*
X21640000Y56836703D01*
X21640000Y59047195D01*
X21655346Y59050083D01*
X21859558Y59181490D01*
X21996556Y59381993D01*
X22044754Y59620000D01*
X22044754Y60618760D01*
X27477544Y60618760D01*
X27877398Y59651039D01*
X28617145Y58910000D01*
X29584166Y58508458D01*
X30631240Y58507544D01*
X31598961Y58907398D01*
X32340000Y59647145D01*
X32741542Y60614166D01*
X32742456Y61661240D01*
X32342602Y62628961D01*
X31602855Y63370000D01*
X30635834Y63771542D01*
X29588760Y63772456D01*
X28621039Y63372602D01*
X27880000Y62632855D01*
X27478458Y61665834D01*
X27477544Y60618760D01*
X22044754Y60618760D01*
X22044754Y64475000D01*
X32905000Y64475000D01*
X32905000Y53518503D01*
X32728704Y53694799D01*
X32803600Y54071326D01*
X32803600Y54128674D01*
X32692190Y54688769D01*
X32690000Y54692047D01*
X32690000Y56047953D01*
X32692190Y56051231D01*
X32803600Y56611326D01*
X32803600Y56668674D01*
X32692190Y57228769D01*
X32374921Y57703595D01*
X31900095Y58020864D01*
X31340000Y58132274D01*
X30779905Y58020864D01*
X30305079Y57703595D01*
X30252523Y57624939D01*
X30233517Y57725946D01*
X30102110Y57930158D01*
X29901607Y58067156D01*
X29663600Y58115354D01*
X27936400Y58115354D01*
X27714054Y58073517D01*
X27509842Y57942110D01*
X27372844Y57741607D01*
X27324646Y57503600D01*
X27324646Y55776400D01*
X27366483Y55554054D01*
X27497890Y55349842D01*
X27698393Y55212844D01*
X27806132Y55191026D01*
X27765079Y55163595D01*
X27447810Y54688769D01*
X27336400Y54128674D01*
X27336400Y54071326D01*
X27447810Y53511231D01*
X27765079Y53036405D01*
X28073986Y52830000D01*
X27765079Y52623595D01*
X27447810Y52148769D01*
X27336400Y51588674D01*
X27336400Y51531326D01*
X27447810Y50971231D01*
X27765079Y50496405D01*
X28073986Y50290000D01*
X27765079Y50083595D01*
X27447810Y49608769D01*
X27336400Y49048674D01*
X27336400Y48991326D01*
X27447810Y48431231D01*
X27765079Y47956405D01*
X28239905Y47639136D01*
X28800000Y47527726D01*
X29360095Y47639136D01*
X29834921Y47956405D01*
X30070000Y48308225D01*
X30305079Y47956405D01*
X30613986Y47750000D01*
X30305079Y47543595D01*
X29987810Y47068769D01*
X29876400Y46508674D01*
X29876400Y46451326D01*
X29987810Y45891231D01*
X30305079Y45416405D01*
X30613986Y45210000D01*
X30305079Y45003595D01*
X30070000Y44651775D01*
X29834921Y45003595D01*
X29360095Y45320864D01*
X28800000Y45432274D01*
X28239905Y45320864D01*
X27765079Y45003595D01*
X27447810Y44528769D01*
X27336400Y43968674D01*
X27336400Y43911326D01*
X27447810Y43351231D01*
X27765079Y42876405D01*
X28073986Y42670000D01*
X27765079Y42463595D01*
X27447810Y41988769D01*
X27336400Y41428674D01*
X27336400Y41371326D01*
X27447810Y40811231D01*
X27765079Y40336405D01*
X28073986Y40130000D01*
X27765079Y39923595D01*
X27447810Y39448769D01*
X27336400Y38888674D01*
X27336400Y38831326D01*
X27428467Y38368475D01*
X27230533Y38329104D01*
X26970994Y38155685D01*
X25850404Y37035095D01*
X25783620Y37035153D01*
X25415946Y36883233D01*
X25134396Y36602174D01*
X24981834Y36234765D01*
X24981487Y35836940D01*
X25133407Y35469266D01*
X25414466Y35187716D01*
X25781875Y35035154D01*
X26179700Y35034807D01*
X26547374Y35186727D01*
X26828924Y35467786D01*
X26981486Y35835195D01*
X26981546Y35903495D01*
X27341871Y36263821D01*
X27447810Y35731231D01*
X27765079Y35256405D01*
X28073986Y35050000D01*
X27765079Y34843595D01*
X27447810Y34368769D01*
X27336400Y33808674D01*
X27336400Y33751326D01*
X27447810Y33191231D01*
X27765079Y32716405D01*
X28073986Y32510000D01*
X27765079Y32303595D01*
X27447810Y31828769D01*
X27336400Y31268674D01*
X27336400Y31211326D01*
X27447810Y30651231D01*
X27765079Y30176405D01*
X28073986Y29970000D01*
X27765079Y29763595D01*
X27447810Y29288769D01*
X27336400Y28728674D01*
X27336400Y28671326D01*
X27447810Y28111231D01*
X27765079Y27636405D01*
X28239905Y27319136D01*
X28800000Y27207726D01*
X29360095Y27319136D01*
X29834921Y27636405D01*
X30070000Y27988225D01*
X30305079Y27636405D01*
X30613986Y27430000D01*
X30305079Y27223595D01*
X29987810Y26748769D01*
X29876400Y26188674D01*
X29876400Y26131326D01*
X29987810Y25571231D01*
X30305079Y25096405D01*
X30613986Y24890000D01*
X30305079Y24683595D01*
X30070000Y24331775D01*
X29834921Y24683595D01*
X29360095Y25000864D01*
X28800000Y25112274D01*
X28239905Y25000864D01*
X27765079Y24683595D01*
X27447810Y24208769D01*
X27336400Y23648674D01*
X27336400Y23591326D01*
X27447810Y23031231D01*
X27765079Y22556405D01*
X28073986Y22350000D01*
X27765079Y22143595D01*
X27447810Y21668769D01*
X27336400Y21108674D01*
X27336400Y21051326D01*
X27447810Y20491231D01*
X27575491Y20300143D01*
X26687817Y21187817D01*
X26581212Y21259048D01*
X26330952Y21426267D01*
X25910000Y21510000D01*
X24901754Y21510000D01*
X24901754Y22188000D01*
X24876980Y22319663D01*
X24901754Y22442000D01*
X24901754Y23458000D01*
X24876980Y23589663D01*
X24901754Y23712000D01*
X24901754Y24728000D01*
X24876980Y24859663D01*
X24901754Y24982000D01*
X24901754Y25998000D01*
X24876980Y26129663D01*
X24901754Y26252000D01*
X24901754Y27268000D01*
X24859917Y27490346D01*
X24728510Y27694558D01*
X24528007Y27831556D01*
X24290000Y27879754D01*
X22328000Y27879754D01*
X22223016Y27860000D01*
X17900000Y27860000D01*
X17479048Y27776267D01*
X17356762Y27694558D01*
X17122182Y27537817D01*
X17112183Y27527817D01*
X16873733Y27170951D01*
X16790001Y26750000D01*
X16873733Y26329049D01*
X17112183Y25972183D01*
X17469049Y25733733D01*
X17890000Y25650001D01*
X17940269Y25660000D01*
X18391827Y25660000D01*
X18360001Y25500000D01*
X18443733Y25079049D01*
X18682183Y24722183D01*
X18692182Y24712183D01*
X18870616Y24592958D01*
X19049048Y24473733D01*
X19470000Y24390000D01*
X21716246Y24390000D01*
X21716246Y23712000D01*
X21741020Y23580337D01*
X21716246Y23458000D01*
X21716246Y22780000D01*
X21180000Y22780000D01*
X20759048Y22696267D01*
X20402183Y22457817D01*
X20163733Y22100952D01*
X20080000Y21680000D01*
X20163733Y21259048D01*
X20402183Y20902183D01*
X20759048Y20663733D01*
X21180000Y20580000D01*
X21716246Y20580000D01*
X21716246Y19902000D01*
X21758083Y19679654D01*
X21889490Y19475442D01*
X22089993Y19338444D01*
X22328000Y19290246D01*
X24290000Y19290246D01*
X24394984Y19310000D01*
X25454366Y19310000D01*
X25920000Y18844366D01*
X25920000Y17270000D01*
X26003733Y16849048D01*
X26242183Y16492183D01*
X26599048Y16253733D01*
X27020000Y16170000D01*
X27378704Y16241351D01*
X27336400Y16028674D01*
X27336400Y15971326D01*
X27447810Y15411231D01*
X27765079Y14936405D01*
X28073986Y14730000D01*
X27765079Y14523595D01*
X27447810Y14048769D01*
X27336400Y13488674D01*
X27336400Y13431326D01*
X27447810Y12871231D01*
X27765079Y12396405D01*
X28073986Y12190000D01*
X27765079Y11983595D01*
X27447810Y11508769D01*
X27336400Y10948674D01*
X27336400Y10891326D01*
X27447810Y10331231D01*
X27765079Y9856405D01*
X28239905Y9539136D01*
X28800000Y9427726D01*
X29360095Y9539136D01*
X29834921Y9856405D01*
X30070000Y10208225D01*
X30305079Y9856405D01*
X30613986Y9650000D01*
X30305079Y9443595D01*
X29987810Y8968769D01*
X29876400Y8408674D01*
X29876400Y8351326D01*
X29982087Y7820000D01*
X26246754Y7820000D01*
X26246754Y7870000D01*
X26204917Y8092346D01*
X26073510Y8296558D01*
X25873007Y8433556D01*
X25635000Y8481754D01*
X24385000Y8481754D01*
X24162654Y8439917D01*
X23958442Y8308510D01*
X23863802Y8170000D01*
X22891024Y8170000D01*
X22798007Y8233556D01*
X22560000Y8281754D01*
X21660000Y8281754D01*
X21437654Y8239917D01*
X21233442Y8108510D01*
X21096444Y7908007D01*
X21048246Y7670000D01*
X21048246Y7262275D01*
X21010000Y7070000D01*
X21048246Y6877725D01*
X21048246Y6470000D01*
X21090083Y6247654D01*
X21221490Y6043442D01*
X21421993Y5906444D01*
X21660000Y5858246D01*
X22560000Y5858246D01*
X22782346Y5900083D01*
X22891000Y5970000D01*
X23929400Y5970000D01*
X23946490Y5943442D01*
X24060000Y5865884D01*
X24060000Y5270000D01*
X23810000Y5270000D01*
X23617723Y5231754D01*
X23285000Y5231754D01*
X23062654Y5189917D01*
X22858442Y5058510D01*
X22721444Y4858007D01*
X22673246Y4620000D01*
X22673246Y4020000D01*
X22715083Y3797654D01*
X22846490Y3593442D01*
X23046993Y3456444D01*
X23285000Y3408246D01*
X23617723Y3408246D01*
X23810000Y3370000D01*
X23617723Y3331754D01*
X23285000Y3331754D01*
X23062654Y3289917D01*
X22858442Y3158510D01*
X22721444Y2958007D01*
X22673246Y2720000D01*
X22673246Y2120000D01*
X22715083Y1897654D01*
X22846490Y1693442D01*
X23046993Y1556444D01*
X23285000Y1508246D01*
X23617723Y1508246D01*
X23810000Y1470000D01*
X24760000Y1470000D01*
X25063233Y1530317D01*
X25123550Y1542314D01*
X25431751Y1748249D01*
X25681751Y1998248D01*
X25887685Y2306450D01*
X25887686Y2306451D01*
X25960000Y2670000D01*
X25960000Y4118631D01*
X26010000Y4370000D01*
X25960000Y4621369D01*
X25960000Y5866139D01*
X26043702Y5920000D01*
X28433101Y5920000D01*
X27885000Y5372855D01*
X27483458Y4405834D01*
X27482544Y3358760D01*
X27882398Y2391039D01*
X28622145Y1650000D01*
X29589166Y1248458D01*
X30636240Y1247544D01*
X31603961Y1647398D01*
X32345000Y2387145D01*
X32746542Y3354166D01*
X32747456Y4401240D01*
X32347602Y5368961D01*
X31797524Y5920000D01*
X32010000Y5920000D01*
X32313233Y5980317D01*
X32373550Y5992314D01*
X32681751Y6198249D01*
X32905000Y6421498D01*
X32905000Y675000D01*
X12465683Y675000D01*
X12760952Y733733D01*
X13117817Y972183D01*
X14017817Y1872182D01*
X14183403Y2120000D01*
X14256267Y2229048D01*
X14340000Y2650000D01*
X14340000Y3860000D01*
X14256267Y4280952D01*
X14017817Y4637817D01*
X13660952Y4876267D01*
X13240000Y4960000D01*
X12819048Y4876267D01*
X12462183Y4637817D01*
X12223733Y4280952D01*
X12140000Y3860000D01*
X12140000Y3105635D01*
X11884366Y2850000D01*
X10750000Y2850000D01*
X10557725Y2811754D01*
X10150000Y2811754D01*
X9927654Y2769917D01*
X9723442Y2638510D01*
X9649992Y2531012D01*
X9588510Y2626558D01*
X9388007Y2763556D01*
X9150000Y2811754D01*
X8742275Y2811754D01*
X8550000Y2850000D01*
X6070000Y2850000D01*
X5877725Y2811754D01*
X5470000Y2811754D01*
X5247654Y2769917D01*
X5043442Y2638510D01*
X4906444Y2438007D01*
X4858246Y2200000D01*
X4858246Y1300000D01*
X4900083Y1077654D01*
X5031490Y873442D01*
X5231993Y736444D01*
X5470000Y688246D01*
X5877725Y688246D01*
X5944317Y675000D01*
X675000Y675000D01*
X675000Y4720000D01*
X4858246Y4720000D01*
X4858246Y3820000D01*
X4900083Y3597654D01*
X5031490Y3393442D01*
X5231993Y3256444D01*
X5470000Y3208246D01*
X5877725Y3208246D01*
X6070000Y3170000D01*
X8550000Y3170000D01*
X8742275Y3208246D01*
X9150000Y3208246D01*
X9372346Y3250083D01*
X9576558Y3381490D01*
X9650008Y3488988D01*
X9711490Y3393442D01*
X9911993Y3256444D01*
X10150000Y3208246D01*
X10557725Y3208246D01*
X10750000Y3170000D01*
X10942275Y3208246D01*
X11350000Y3208246D01*
X11572346Y3250083D01*
X11776558Y3381490D01*
X11913556Y3581993D01*
X11961754Y3820000D01*
X11961754Y4720000D01*
X11919917Y4942346D01*
X11850000Y5051000D01*
X11850000Y5610000D01*
X11766267Y6030952D01*
X11639949Y6220000D01*
X11527817Y6387818D01*
X11517817Y6397817D01*
X11160951Y6636267D01*
X10740000Y6719999D01*
X10319049Y6636267D01*
X9962183Y6397817D01*
X9723733Y6040951D01*
X9640001Y5620000D01*
X9650000Y5569731D01*
X9650000Y5051024D01*
X9649992Y5051012D01*
X9588510Y5146558D01*
X9388007Y5283556D01*
X9150000Y5331754D01*
X8742275Y5331754D01*
X8550000Y5370000D01*
X6070000Y5370000D01*
X5877725Y5331754D01*
X5470000Y5331754D01*
X5247654Y5289917D01*
X5043442Y5158510D01*
X4906444Y4958007D01*
X4858246Y4720000D01*
X675000Y4720000D01*
X675000Y25998000D01*
X3498246Y25998000D01*
X3498246Y24982000D01*
X3523020Y24850337D01*
X3498246Y24728000D01*
X3498246Y23712000D01*
X3523020Y23580337D01*
X3498246Y23458000D01*
X3498246Y22442000D01*
X3523020Y22310337D01*
X3498246Y22188000D01*
X3498246Y21172000D01*
X3523020Y21040337D01*
X3498246Y20918000D01*
X3498246Y19902000D01*
X3540083Y19679654D01*
X3671490Y19475442D01*
X3871993Y19338444D01*
X4110000Y19290246D01*
X6072000Y19290246D01*
X6294346Y19332083D01*
X6498558Y19463490D01*
X6635556Y19663993D01*
X6683754Y19902000D01*
X6683754Y20918000D01*
X6658980Y21049663D01*
X6683754Y21172000D01*
X6683754Y22188000D01*
X6658980Y22319663D01*
X6683754Y22442000D01*
X6683754Y23458000D01*
X6658980Y23589663D01*
X6683754Y23712000D01*
X6683754Y24728000D01*
X6658980Y24859663D01*
X6683754Y24982000D01*
X6683754Y25998000D01*
X6641917Y26220346D01*
X6510510Y26424558D01*
X6310007Y26561556D01*
X6072000Y26609754D01*
X4110000Y26609754D01*
X3887654Y26567917D01*
X3683442Y26436510D01*
X3546444Y26236007D01*
X3498246Y25998000D01*
X675000Y25998000D01*
X675000Y36000000D01*
X930000Y36000000D01*
X930000Y33420000D01*
X968246Y33227725D01*
X968246Y32820000D01*
X1010083Y32597654D01*
X1141490Y32393442D01*
X1341993Y32256444D01*
X1580000Y32208246D01*
X2480000Y32208246D01*
X2702346Y32250083D01*
X2906558Y32381490D01*
X3043556Y32581993D01*
X3091754Y32820000D01*
X3091754Y33227725D01*
X3130000Y33420000D01*
X3130000Y34585804D01*
X3310000Y34550000D01*
X3498246Y34550000D01*
X3498246Y33872000D01*
X3523020Y33740337D01*
X3498246Y33618000D01*
X3498246Y32602000D01*
X3523020Y32470337D01*
X3498246Y32348000D01*
X3498246Y31332000D01*
X3523020Y31200337D01*
X3498246Y31078000D01*
X3498246Y30062000D01*
X3523020Y29930337D01*
X3498246Y29808000D01*
X3498246Y28792000D01*
X3523020Y28660337D01*
X3498246Y28538000D01*
X3498246Y27522000D01*
X3540083Y27299654D01*
X3671490Y27095442D01*
X3871993Y26958444D01*
X4110000Y26910246D01*
X6072000Y26910246D01*
X6294346Y26952083D01*
X6498558Y27083490D01*
X6635556Y27283993D01*
X6683754Y27522000D01*
X6683754Y28538000D01*
X6658980Y28669663D01*
X6683754Y28792000D01*
X6683754Y29808000D01*
X6658980Y29939663D01*
X6683754Y30062000D01*
X6683754Y31078000D01*
X6658980Y31209663D01*
X6683754Y31332000D01*
X6683754Y32348000D01*
X6658980Y32479663D01*
X6683754Y32602000D01*
X6683754Y33000611D01*
X6842182Y32842183D01*
X7199049Y32603733D01*
X7620000Y32520001D01*
X8040951Y32603733D01*
X8397817Y32842183D01*
X8631881Y33192485D01*
X9290000Y32534365D01*
X9290000Y22420000D01*
X9373733Y21999048D01*
X9594419Y21668769D01*
X9612183Y21642183D01*
X16234646Y15019719D01*
X16234646Y13754000D01*
X16276483Y13531654D01*
X16340000Y13432946D01*
X16340000Y7410000D01*
X14241696Y7410000D01*
X14263556Y7441993D01*
X14311754Y7680000D01*
X14311754Y8580000D01*
X14269917Y8802346D01*
X14200000Y8911000D01*
X14200000Y9628976D01*
X14263556Y9721993D01*
X14311754Y9960000D01*
X14311754Y10860000D01*
X14269917Y11082346D01*
X14138510Y11286558D01*
X13938007Y11423556D01*
X13700000Y11471754D01*
X13292275Y11471754D01*
X13100000Y11510000D01*
X12907725Y11471754D01*
X12500000Y11471754D01*
X12277654Y11429917D01*
X12073442Y11298510D01*
X11978802Y11160000D01*
X11508513Y11160000D01*
X11433510Y11276558D01*
X11233007Y11413556D01*
X11151444Y11430073D01*
X12896777Y13175406D01*
X13190095Y13233751D01*
X13664921Y13551020D01*
X13982190Y14025846D01*
X14093600Y14585941D01*
X14093600Y14954059D01*
X13982190Y15514154D01*
X13664921Y15988980D01*
X13190095Y16306249D01*
X12630000Y16417659D01*
X12069905Y16306249D01*
X11995103Y16256268D01*
X11265685Y16985685D01*
X11006147Y17159104D01*
X11005986Y17159136D01*
X10700000Y17220000D01*
X9470000Y17220000D01*
X9163853Y17159104D01*
X8904315Y16985686D01*
X8044315Y16125685D01*
X7870896Y15866147D01*
X7810000Y15560000D01*
X7810000Y13671371D01*
X6258630Y12120000D01*
X2890000Y12120000D01*
X2583853Y12059104D01*
X2324315Y11885685D01*
X1814315Y11375685D01*
X1640896Y11116147D01*
X1638800Y11105611D01*
X1503442Y11018510D01*
X1366444Y10818007D01*
X1318246Y10580000D01*
X1318246Y9380000D01*
X1360083Y9157654D01*
X1491490Y8953442D01*
X1598988Y8879992D01*
X1503442Y8818510D01*
X1366444Y8618007D01*
X1318246Y8380000D01*
X1318246Y7972275D01*
X1280000Y7780000D01*
X1280000Y6150000D01*
X1363733Y5729048D01*
X1602183Y5372183D01*
X1959048Y5133733D01*
X2380000Y5050000D01*
X2800952Y5133733D01*
X3157817Y5372183D01*
X3396267Y5729048D01*
X3480000Y6150000D01*
X3480000Y6680000D01*
X4248976Y6680000D01*
X4341993Y6616444D01*
X4580000Y6568246D01*
X5480000Y6568246D01*
X5702346Y6610083D01*
X5906558Y6741490D01*
X6043556Y6941993D01*
X6091754Y7180000D01*
X6091754Y7587725D01*
X6130000Y7780000D01*
X6091754Y7972275D01*
X6091754Y8380000D01*
X6049917Y8602346D01*
X5918510Y8806558D01*
X5811012Y8880008D01*
X5906558Y8941490D01*
X6043556Y9141993D01*
X6060365Y9225000D01*
X7233246Y9225000D01*
X7233246Y9200000D01*
X7275083Y8977654D01*
X7406490Y8773442D01*
X7606993Y8636444D01*
X7845000Y8588246D01*
X8328407Y8588246D01*
X8395000Y8575000D01*
X8915000Y8575000D01*
X9221147Y8635896D01*
X9480685Y8809315D01*
X9586262Y8914891D01*
X9583246Y8900000D01*
X9583246Y8550000D01*
X9625083Y8327654D01*
X9756490Y8123442D01*
X9956993Y7986444D01*
X10195000Y7938246D01*
X10378407Y7938246D01*
X10445000Y7925000D01*
X10503630Y7925000D01*
X10864315Y7564315D01*
X11123853Y7390896D01*
X11430000Y7330000D01*
X12000000Y7330000D01*
X12000000Y6930000D01*
X12083733Y6509048D01*
X12195229Y6342183D01*
X12322183Y6152183D01*
X12942182Y5532183D01*
X13247385Y5328253D01*
X13299048Y5293733D01*
X13720000Y5210000D01*
X16389728Y5210000D01*
X16423733Y5039048D01*
X16644764Y4708253D01*
X16662183Y4682183D01*
X17320000Y4024365D01*
X17320000Y3442774D01*
X17243442Y3393510D01*
X17106444Y3193007D01*
X17058246Y2955000D01*
X17058246Y1705000D01*
X17100083Y1482654D01*
X17231490Y1278442D01*
X17431993Y1141444D01*
X17670000Y1093246D01*
X19170000Y1093246D01*
X19392346Y1135083D01*
X19596558Y1266490D01*
X19633120Y1320000D01*
X21110000Y1320000D01*
X21530952Y1403733D01*
X21707894Y1521962D01*
X21857346Y1550083D01*
X22061558Y1681490D01*
X22198556Y1881993D01*
X22246754Y2120000D01*
X22246754Y2720000D01*
X22204917Y2942346D01*
X22073510Y3146558D01*
X21873007Y3283556D01*
X21710139Y3316538D01*
X21572888Y3408246D01*
X21635000Y3408246D01*
X21857346Y3450083D01*
X22061558Y3581490D01*
X22198556Y3781993D01*
X22246754Y4020000D01*
X22246754Y4620000D01*
X22204917Y4842346D01*
X22073510Y5046558D01*
X21873007Y5183556D01*
X21635000Y5231754D01*
X21541749Y5231754D01*
X20271754Y6501748D01*
X20271754Y7670000D01*
X20229917Y7892346D01*
X20098510Y8096558D01*
X19898007Y8233556D01*
X19660000Y8281754D01*
X18760000Y8281754D01*
X18540000Y8240358D01*
X18540000Y13142246D01*
X18573600Y13142246D01*
X18795946Y13184083D01*
X19000158Y13315490D01*
X19137156Y13515993D01*
X19185354Y13754000D01*
X19185354Y15786000D01*
X19143517Y16008346D01*
X19012110Y16212558D01*
X18811607Y16349556D01*
X18573600Y16397754D01*
X17967881Y16397754D01*
X11490000Y22875634D01*
X11490000Y31078000D01*
X21716246Y31078000D01*
X21716246Y30062000D01*
X21741020Y29930337D01*
X21716246Y29808000D01*
X21716246Y28792000D01*
X21758083Y28569654D01*
X21889490Y28365442D01*
X22089993Y28228444D01*
X22328000Y28180246D01*
X24290000Y28180246D01*
X24512346Y28222083D01*
X24716558Y28353490D01*
X24853556Y28553993D01*
X24901754Y28792000D01*
X24901754Y29808000D01*
X24876980Y29939663D01*
X24901754Y30062000D01*
X24901754Y31078000D01*
X24859917Y31300346D01*
X24728510Y31504558D01*
X24528007Y31641556D01*
X24290000Y31689754D01*
X22328000Y31689754D01*
X22105654Y31647917D01*
X21901442Y31516510D01*
X21764444Y31316007D01*
X21716246Y31078000D01*
X11490000Y31078000D01*
X11490000Y32010000D01*
X22230453Y32010000D01*
X22328000Y31990246D01*
X24290000Y31990246D01*
X24394984Y32010000D01*
X25188976Y32010000D01*
X25281993Y31946444D01*
X25520000Y31898246D01*
X26420000Y31898246D01*
X26642346Y31940083D01*
X26846558Y32071490D01*
X26983556Y32271993D01*
X27031754Y32510000D01*
X27031754Y32917725D01*
X27070000Y33110000D01*
X27031754Y33302275D01*
X27031754Y33710000D01*
X26989917Y33932346D01*
X26858510Y34136558D01*
X26658007Y34273556D01*
X26420000Y34321754D01*
X25520000Y34321754D01*
X25297654Y34279917D01*
X25189000Y34210000D01*
X24901754Y34210000D01*
X24901754Y34888000D01*
X24876980Y35019663D01*
X24901754Y35142000D01*
X24901754Y36158000D01*
X24876980Y36289663D01*
X24901754Y36412000D01*
X24901754Y37428000D01*
X24876980Y37559663D01*
X24901754Y37682000D01*
X24901754Y38698000D01*
X24876980Y38829663D01*
X24901754Y38952000D01*
X24901754Y39968000D01*
X24876980Y40099663D01*
X24901754Y40222000D01*
X24901754Y41238000D01*
X24876980Y41369663D01*
X24901754Y41492000D01*
X24901754Y42508000D01*
X24859917Y42730346D01*
X24728510Y42934558D01*
X24528007Y43071556D01*
X24290000Y43119754D01*
X22328000Y43119754D01*
X22105654Y43077917D01*
X21901442Y42946510D01*
X21764444Y42746007D01*
X21716246Y42508000D01*
X21716246Y41492000D01*
X21741020Y41360337D01*
X21716246Y41238000D01*
X21716246Y40222000D01*
X21723299Y40184517D01*
X21600952Y40266267D01*
X21180000Y40350000D01*
X20759048Y40266267D01*
X20402183Y40027817D01*
X20320000Y39904822D01*
X20237817Y40027817D01*
X19880952Y40266267D01*
X19460000Y40350000D01*
X19039048Y40266267D01*
X18682183Y40027817D01*
X18668318Y40007067D01*
X18667817Y40007817D01*
X18310952Y40246267D01*
X17890000Y40330000D01*
X17469048Y40246267D01*
X17112183Y40007817D01*
X16873733Y39650952D01*
X16790000Y39230000D01*
X16790000Y35375956D01*
X16789221Y35372040D01*
X16790000Y35368124D01*
X16790000Y34494715D01*
X16784141Y34465260D01*
X16834915Y34210000D01*
X13728657Y34210000D01*
X13780000Y34468120D01*
X13780000Y39440000D01*
X13696267Y39860952D01*
X13457817Y40217817D01*
X13100952Y40456267D01*
X12680000Y40540000D01*
X12259048Y40456267D01*
X11905561Y40220074D01*
X11897817Y40227817D01*
X11540951Y40466267D01*
X11120000Y40549999D01*
X10699049Y40466267D01*
X10342183Y40227817D01*
X10103733Y39870951D01*
X10020001Y39450000D01*
X10030000Y39399731D01*
X10030000Y34905635D01*
X8507817Y36427817D01*
X8440465Y36472820D01*
X8150952Y36666267D01*
X7730000Y36750000D01*
X6169547Y36750000D01*
X6072000Y36769754D01*
X4110000Y36769754D01*
X4005016Y36750000D01*
X3765634Y36750000D01*
X3737817Y36777817D01*
X3647736Y36838007D01*
X3380952Y37016267D01*
X3010273Y37090000D01*
X4012453Y37090000D01*
X4110000Y37070246D01*
X6072000Y37070246D01*
X6294346Y37112083D01*
X6498558Y37243490D01*
X6635556Y37443993D01*
X6683754Y37682000D01*
X6683754Y38698000D01*
X6658980Y38829663D01*
X6683754Y38952000D01*
X6683754Y39968000D01*
X6658980Y40099663D01*
X6683754Y40222000D01*
X6683754Y41238000D01*
X6658980Y41369663D01*
X6683754Y41492000D01*
X6683754Y42508000D01*
X6641917Y42730346D01*
X6510510Y42934558D01*
X6310007Y43071556D01*
X6072000Y43119754D01*
X4110000Y43119754D01*
X3887654Y43077917D01*
X3683442Y42946510D01*
X3546444Y42746007D01*
X3498246Y42508000D01*
X3498246Y41492000D01*
X3523020Y41360337D01*
X3498246Y41238000D01*
X3498246Y40222000D01*
X3523020Y40090337D01*
X3498246Y39968000D01*
X3498246Y39290000D01*
X2825660Y39290000D01*
X2718007Y39363556D01*
X2480000Y39411754D01*
X1580000Y39411754D01*
X1357654Y39369917D01*
X1153442Y39238510D01*
X1016444Y39038007D01*
X968246Y38800000D01*
X968246Y38392271D01*
X930001Y38200000D01*
X968246Y38007729D01*
X968246Y37600000D01*
X1010083Y37377654D01*
X1141490Y37173442D01*
X1248988Y37099992D01*
X1153442Y37038510D01*
X1016444Y36838007D01*
X968246Y36600000D01*
X968246Y36192275D01*
X930000Y36000000D01*
X675000Y36000000D01*
X675000Y64475000D01*
X6315246Y64475000D01*
X6315246Y59630000D01*
X6315246Y59630000D01*
G37*
X6315246Y59630000D02*
X6357083Y59407654D01*
X6488490Y59203442D01*
X6688993Y59066444D01*
X6720000Y59060165D01*
X6720000Y56846133D01*
X6256854Y56383795D01*
X5930372Y55597540D01*
X5929629Y54746195D01*
X6254739Y53959371D01*
X6720000Y53493297D01*
X6720000Y51210000D01*
X6822763Y50693377D01*
X6954376Y50496405D01*
X7115406Y50255406D01*
X11810246Y45560566D01*
X11810246Y43778000D01*
X11852083Y43555654D01*
X11983490Y43351442D01*
X12183993Y43214444D01*
X12422000Y43166246D01*
X13438000Y43166246D01*
X13660346Y43208083D01*
X13864558Y43339490D01*
X14001556Y43539993D01*
X14049754Y43778000D01*
X14049754Y45692517D01*
X14157238Y45853378D01*
X14188011Y46008086D01*
X14222763Y45833377D01*
X14350246Y45642585D01*
X14350246Y43778000D01*
X14392083Y43555654D01*
X14523490Y43351442D01*
X14723993Y43214444D01*
X14962000Y43166246D01*
X15978000Y43166246D01*
X16200346Y43208083D01*
X16404558Y43339490D01*
X16541556Y43539993D01*
X16589754Y43778000D01*
X16589754Y45560566D01*
X21184321Y50155133D01*
X21244594Y50195406D01*
X21537237Y50633377D01*
X21640000Y51150000D01*
X21640000Y53483867D01*
X22103146Y53946205D01*
X22429628Y54732460D01*
X22430371Y55583805D01*
X22105261Y56370629D01*
X21640000Y56836703D01*
X21640000Y59047195D01*
X21655346Y59050083D01*
X21859558Y59181490D01*
X21996556Y59381993D01*
X22044754Y59620000D01*
X22044754Y60618760D01*
X27477544Y60618760D01*
X27877398Y59651039D01*
X28617145Y58910000D01*
X29584166Y58508458D01*
X30631240Y58507544D01*
X31598961Y58907398D01*
X32340000Y59647145D01*
X32741542Y60614166D01*
X32742456Y61661240D01*
X32342602Y62628961D01*
X31602855Y63370000D01*
X30635834Y63771542D01*
X29588760Y63772456D01*
X28621039Y63372602D01*
X27880000Y62632855D01*
X27478458Y61665834D01*
X27477544Y60618760D01*
X22044754Y60618760D01*
X22044754Y64475000D01*
X32905000Y64475000D01*
X32905000Y53518503D01*
X32728704Y53694799D01*
X32803600Y54071326D01*
X32803600Y54128674D01*
X32692190Y54688769D01*
X32690000Y54692047D01*
X32690000Y56047953D01*
X32692190Y56051231D01*
X32803600Y56611326D01*
X32803600Y56668674D01*
X32692190Y57228769D01*
X32374921Y57703595D01*
X31900095Y58020864D01*
X31340000Y58132274D01*
X30779905Y58020864D01*
X30305079Y57703595D01*
X30252523Y57624939D01*
X30233517Y57725946D01*
X30102110Y57930158D01*
X29901607Y58067156D01*
X29663600Y58115354D01*
X27936400Y58115354D01*
X27714054Y58073517D01*
X27509842Y57942110D01*
X27372844Y57741607D01*
X27324646Y57503600D01*
X27324646Y55776400D01*
X27366483Y55554054D01*
X27497890Y55349842D01*
X27698393Y55212844D01*
X27806132Y55191026D01*
X27765079Y55163595D01*
X27447810Y54688769D01*
X27336400Y54128674D01*
X27336400Y54071326D01*
X27447810Y53511231D01*
X27765079Y53036405D01*
X28073986Y52830000D01*
X27765079Y52623595D01*
X27447810Y52148769D01*
X27336400Y51588674D01*
X27336400Y51531326D01*
X27447810Y50971231D01*
X27765079Y50496405D01*
X28073986Y50290000D01*
X27765079Y50083595D01*
X27447810Y49608769D01*
X27336400Y49048674D01*
X27336400Y48991326D01*
X27447810Y48431231D01*
X27765079Y47956405D01*
X28239905Y47639136D01*
X28800000Y47527726D01*
X29360095Y47639136D01*
X29834921Y47956405D01*
X30070000Y48308225D01*
X30305079Y47956405D01*
X30613986Y47750000D01*
X30305079Y47543595D01*
X29987810Y47068769D01*
X29876400Y46508674D01*
X29876400Y46451326D01*
X29987810Y45891231D01*
X30305079Y45416405D01*
X30613986Y45210000D01*
X30305079Y45003595D01*
X30070000Y44651775D01*
X29834921Y45003595D01*
X29360095Y45320864D01*
X28800000Y45432274D01*
X28239905Y45320864D01*
X27765079Y45003595D01*
X27447810Y44528769D01*
X27336400Y43968674D01*
X27336400Y43911326D01*
X27447810Y43351231D01*
X27765079Y42876405D01*
X28073986Y42670000D01*
X27765079Y42463595D01*
X27447810Y41988769D01*
X27336400Y41428674D01*
X27336400Y41371326D01*
X27447810Y40811231D01*
X27765079Y40336405D01*
X28073986Y40130000D01*
X27765079Y39923595D01*
X27447810Y39448769D01*
X27336400Y38888674D01*
X27336400Y38831326D01*
X27428467Y38368475D01*
X27230533Y38329104D01*
X26970994Y38155685D01*
X25850404Y37035095D01*
X25783620Y37035153D01*
X25415946Y36883233D01*
X25134396Y36602174D01*
X24981834Y36234765D01*
X24981487Y35836940D01*
X25133407Y35469266D01*
X25414466Y35187716D01*
X25781875Y35035154D01*
X26179700Y35034807D01*
X26547374Y35186727D01*
X26828924Y35467786D01*
X26981486Y35835195D01*
X26981546Y35903495D01*
X27341871Y36263821D01*
X27447810Y35731231D01*
X27765079Y35256405D01*
X28073986Y35050000D01*
X27765079Y34843595D01*
X27447810Y34368769D01*
X27336400Y33808674D01*
X27336400Y33751326D01*
X27447810Y33191231D01*
X27765079Y32716405D01*
X28073986Y32510000D01*
X27765079Y32303595D01*
X27447810Y31828769D01*
X27336400Y31268674D01*
X27336400Y31211326D01*
X27447810Y30651231D01*
X27765079Y30176405D01*
X28073986Y29970000D01*
X27765079Y29763595D01*
X27447810Y29288769D01*
X27336400Y28728674D01*
X27336400Y28671326D01*
X27447810Y28111231D01*
X27765079Y27636405D01*
X28239905Y27319136D01*
X28800000Y27207726D01*
X29360095Y27319136D01*
X29834921Y27636405D01*
X30070000Y27988225D01*
X30305079Y27636405D01*
X30613986Y27430000D01*
X30305079Y27223595D01*
X29987810Y26748769D01*
X29876400Y26188674D01*
X29876400Y26131326D01*
X29987810Y25571231D01*
X30305079Y25096405D01*
X30613986Y24890000D01*
X30305079Y24683595D01*
X30070000Y24331775D01*
X29834921Y24683595D01*
X29360095Y25000864D01*
X28800000Y25112274D01*
X28239905Y25000864D01*
X27765079Y24683595D01*
X27447810Y24208769D01*
X27336400Y23648674D01*
X27336400Y23591326D01*
X27447810Y23031231D01*
X27765079Y22556405D01*
X28073986Y22350000D01*
X27765079Y22143595D01*
X27447810Y21668769D01*
X27336400Y21108674D01*
X27336400Y21051326D01*
X27447810Y20491231D01*
X27575491Y20300143D01*
X26687817Y21187817D01*
X26581212Y21259048D01*
X26330952Y21426267D01*
X25910000Y21510000D01*
X24901754Y21510000D01*
X24901754Y22188000D01*
X24876980Y22319663D01*
X24901754Y22442000D01*
X24901754Y23458000D01*
X24876980Y23589663D01*
X24901754Y23712000D01*
X24901754Y24728000D01*
X24876980Y24859663D01*
X24901754Y24982000D01*
X24901754Y25998000D01*
X24876980Y26129663D01*
X24901754Y26252000D01*
X24901754Y27268000D01*
X24859917Y27490346D01*
X24728510Y27694558D01*
X24528007Y27831556D01*
X24290000Y27879754D01*
X22328000Y27879754D01*
X22223016Y27860000D01*
X17900000Y27860000D01*
X17479048Y27776267D01*
X17356762Y27694558D01*
X17122182Y27537817D01*
X17112183Y27527817D01*
X16873733Y27170951D01*
X16790001Y26750000D01*
X16873733Y26329049D01*
X17112183Y25972183D01*
X17469049Y25733733D01*
X17890000Y25650001D01*
X17940269Y25660000D01*
X18391827Y25660000D01*
X18360001Y25500000D01*
X18443733Y25079049D01*
X18682183Y24722183D01*
X18692182Y24712183D01*
X18870616Y24592958D01*
X19049048Y24473733D01*
X19470000Y24390000D01*
X21716246Y24390000D01*
X21716246Y23712000D01*
X21741020Y23580337D01*
X21716246Y23458000D01*
X21716246Y22780000D01*
X21180000Y22780000D01*
X20759048Y22696267D01*
X20402183Y22457817D01*
X20163733Y22100952D01*
X20080000Y21680000D01*
X20163733Y21259048D01*
X20402183Y20902183D01*
X20759048Y20663733D01*
X21180000Y20580000D01*
X21716246Y20580000D01*
X21716246Y19902000D01*
X21758083Y19679654D01*
X21889490Y19475442D01*
X22089993Y19338444D01*
X22328000Y19290246D01*
X24290000Y19290246D01*
X24394984Y19310000D01*
X25454366Y19310000D01*
X25920000Y18844366D01*
X25920000Y17270000D01*
X26003733Y16849048D01*
X26242183Y16492183D01*
X26599048Y16253733D01*
X27020000Y16170000D01*
X27378704Y16241351D01*
X27336400Y16028674D01*
X27336400Y15971326D01*
X27447810Y15411231D01*
X27765079Y14936405D01*
X28073986Y14730000D01*
X27765079Y14523595D01*
X27447810Y14048769D01*
X27336400Y13488674D01*
X27336400Y13431326D01*
X27447810Y12871231D01*
X27765079Y12396405D01*
X28073986Y12190000D01*
X27765079Y11983595D01*
X27447810Y11508769D01*
X27336400Y10948674D01*
X27336400Y10891326D01*
X27447810Y10331231D01*
X27765079Y9856405D01*
X28239905Y9539136D01*
X28800000Y9427726D01*
X29360095Y9539136D01*
X29834921Y9856405D01*
X30070000Y10208225D01*
X30305079Y9856405D01*
X30613986Y9650000D01*
X30305079Y9443595D01*
X29987810Y8968769D01*
X29876400Y8408674D01*
X29876400Y8351326D01*
X29982087Y7820000D01*
X26246754Y7820000D01*
X26246754Y7870000D01*
X26204917Y8092346D01*
X26073510Y8296558D01*
X25873007Y8433556D01*
X25635000Y8481754D01*
X24385000Y8481754D01*
X24162654Y8439917D01*
X23958442Y8308510D01*
X23863802Y8170000D01*
X22891024Y8170000D01*
X22798007Y8233556D01*
X22560000Y8281754D01*
X21660000Y8281754D01*
X21437654Y8239917D01*
X21233442Y8108510D01*
X21096444Y7908007D01*
X21048246Y7670000D01*
X21048246Y7262275D01*
X21010000Y7070000D01*
X21048246Y6877725D01*
X21048246Y6470000D01*
X21090083Y6247654D01*
X21221490Y6043442D01*
X21421993Y5906444D01*
X21660000Y5858246D01*
X22560000Y5858246D01*
X22782346Y5900083D01*
X22891000Y5970000D01*
X23929400Y5970000D01*
X23946490Y5943442D01*
X24060000Y5865884D01*
X24060000Y5270000D01*
X23810000Y5270000D01*
X23617723Y5231754D01*
X23285000Y5231754D01*
X23062654Y5189917D01*
X22858442Y5058510D01*
X22721444Y4858007D01*
X22673246Y4620000D01*
X22673246Y4020000D01*
X22715083Y3797654D01*
X22846490Y3593442D01*
X23046993Y3456444D01*
X23285000Y3408246D01*
X23617723Y3408246D01*
X23810000Y3370000D01*
X23617723Y3331754D01*
X23285000Y3331754D01*
X23062654Y3289917D01*
X22858442Y3158510D01*
X22721444Y2958007D01*
X22673246Y2720000D01*
X22673246Y2120000D01*
X22715083Y1897654D01*
X22846490Y1693442D01*
X23046993Y1556444D01*
X23285000Y1508246D01*
X23617723Y1508246D01*
X23810000Y1470000D01*
X24760000Y1470000D01*
X25063233Y1530317D01*
X25123550Y1542314D01*
X25431751Y1748249D01*
X25681751Y1998248D01*
X25887685Y2306450D01*
X25887686Y2306451D01*
X25960000Y2670000D01*
X25960000Y4118631D01*
X26010000Y4370000D01*
X25960000Y4621369D01*
X25960000Y5866139D01*
X26043702Y5920000D01*
X28433101Y5920000D01*
X27885000Y5372855D01*
X27483458Y4405834D01*
X27482544Y3358760D01*
X27882398Y2391039D01*
X28622145Y1650000D01*
X29589166Y1248458D01*
X30636240Y1247544D01*
X31603961Y1647398D01*
X32345000Y2387145D01*
X32746542Y3354166D01*
X32747456Y4401240D01*
X32347602Y5368961D01*
X31797524Y5920000D01*
X32010000Y5920000D01*
X32313233Y5980317D01*
X32373550Y5992314D01*
X32681751Y6198249D01*
X32905000Y6421498D01*
X32905000Y675000D01*
X12465683Y675000D01*
X12760952Y733733D01*
X13117817Y972183D01*
X14017817Y1872182D01*
X14183403Y2120000D01*
X14256267Y2229048D01*
X14340000Y2650000D01*
X14340000Y3860000D01*
X14256267Y4280952D01*
X14017817Y4637817D01*
X13660952Y4876267D01*
X13240000Y4960000D01*
X12819048Y4876267D01*
X12462183Y4637817D01*
X12223733Y4280952D01*
X12140000Y3860000D01*
X12140000Y3105635D01*
X11884366Y2850000D01*
X10750000Y2850000D01*
X10557725Y2811754D01*
X10150000Y2811754D01*
X9927654Y2769917D01*
X9723442Y2638510D01*
X9649992Y2531012D01*
X9588510Y2626558D01*
X9388007Y2763556D01*
X9150000Y2811754D01*
X8742275Y2811754D01*
X8550000Y2850000D01*
X6070000Y2850000D01*
X5877725Y2811754D01*
X5470000Y2811754D01*
X5247654Y2769917D01*
X5043442Y2638510D01*
X4906444Y2438007D01*
X4858246Y2200000D01*
X4858246Y1300000D01*
X4900083Y1077654D01*
X5031490Y873442D01*
X5231993Y736444D01*
X5470000Y688246D01*
X5877725Y688246D01*
X5944317Y675000D01*
X675000Y675000D01*
X675000Y4720000D01*
X4858246Y4720000D01*
X4858246Y3820000D01*
X4900083Y3597654D01*
X5031490Y3393442D01*
X5231993Y3256444D01*
X5470000Y3208246D01*
X5877725Y3208246D01*
X6070000Y3170000D01*
X8550000Y3170000D01*
X8742275Y3208246D01*
X9150000Y3208246D01*
X9372346Y3250083D01*
X9576558Y3381490D01*
X9650008Y3488988D01*
X9711490Y3393442D01*
X9911993Y3256444D01*
X10150000Y3208246D01*
X10557725Y3208246D01*
X10750000Y3170000D01*
X10942275Y3208246D01*
X11350000Y3208246D01*
X11572346Y3250083D01*
X11776558Y3381490D01*
X11913556Y3581993D01*
X11961754Y3820000D01*
X11961754Y4720000D01*
X11919917Y4942346D01*
X11850000Y5051000D01*
X11850000Y5610000D01*
X11766267Y6030952D01*
X11639949Y6220000D01*
X11527817Y6387818D01*
X11517817Y6397817D01*
X11160951Y6636267D01*
X10740000Y6719999D01*
X10319049Y6636267D01*
X9962183Y6397817D01*
X9723733Y6040951D01*
X9640001Y5620000D01*
X9650000Y5569731D01*
X9650000Y5051024D01*
X9649992Y5051012D01*
X9588510Y5146558D01*
X9388007Y5283556D01*
X9150000Y5331754D01*
X8742275Y5331754D01*
X8550000Y5370000D01*
X6070000Y5370000D01*
X5877725Y5331754D01*
X5470000Y5331754D01*
X5247654Y5289917D01*
X5043442Y5158510D01*
X4906444Y4958007D01*
X4858246Y4720000D01*
X675000Y4720000D01*
X675000Y25998000D01*
X3498246Y25998000D01*
X3498246Y24982000D01*
X3523020Y24850337D01*
X3498246Y24728000D01*
X3498246Y23712000D01*
X3523020Y23580337D01*
X3498246Y23458000D01*
X3498246Y22442000D01*
X3523020Y22310337D01*
X3498246Y22188000D01*
X3498246Y21172000D01*
X3523020Y21040337D01*
X3498246Y20918000D01*
X3498246Y19902000D01*
X3540083Y19679654D01*
X3671490Y19475442D01*
X3871993Y19338444D01*
X4110000Y19290246D01*
X6072000Y19290246D01*
X6294346Y19332083D01*
X6498558Y19463490D01*
X6635556Y19663993D01*
X6683754Y19902000D01*
X6683754Y20918000D01*
X6658980Y21049663D01*
X6683754Y21172000D01*
X6683754Y22188000D01*
X6658980Y22319663D01*
X6683754Y22442000D01*
X6683754Y23458000D01*
X6658980Y23589663D01*
X6683754Y23712000D01*
X6683754Y24728000D01*
X6658980Y24859663D01*
X6683754Y24982000D01*
X6683754Y25998000D01*
X6641917Y26220346D01*
X6510510Y26424558D01*
X6310007Y26561556D01*
X6072000Y26609754D01*
X4110000Y26609754D01*
X3887654Y26567917D01*
X3683442Y26436510D01*
X3546444Y26236007D01*
X3498246Y25998000D01*
X675000Y25998000D01*
X675000Y36000000D01*
X930000Y36000000D01*
X930000Y33420000D01*
X968246Y33227725D01*
X968246Y32820000D01*
X1010083Y32597654D01*
X1141490Y32393442D01*
X1341993Y32256444D01*
X1580000Y32208246D01*
X2480000Y32208246D01*
X2702346Y32250083D01*
X2906558Y32381490D01*
X3043556Y32581993D01*
X3091754Y32820000D01*
X3091754Y33227725D01*
X3130000Y33420000D01*
X3130000Y34585804D01*
X3310000Y34550000D01*
X3498246Y34550000D01*
X3498246Y33872000D01*
X3523020Y33740337D01*
X3498246Y33618000D01*
X3498246Y32602000D01*
X3523020Y32470337D01*
X3498246Y32348000D01*
X3498246Y31332000D01*
X3523020Y31200337D01*
X3498246Y31078000D01*
X3498246Y30062000D01*
X3523020Y29930337D01*
X3498246Y29808000D01*
X3498246Y28792000D01*
X3523020Y28660337D01*
X3498246Y28538000D01*
X3498246Y27522000D01*
X3540083Y27299654D01*
X3671490Y27095442D01*
X3871993Y26958444D01*
X4110000Y26910246D01*
X6072000Y26910246D01*
X6294346Y26952083D01*
X6498558Y27083490D01*
X6635556Y27283993D01*
X6683754Y27522000D01*
X6683754Y28538000D01*
X6658980Y28669663D01*
X6683754Y28792000D01*
X6683754Y29808000D01*
X6658980Y29939663D01*
X6683754Y30062000D01*
X6683754Y31078000D01*
X6658980Y31209663D01*
X6683754Y31332000D01*
X6683754Y32348000D01*
X6658980Y32479663D01*
X6683754Y32602000D01*
X6683754Y33000611D01*
X6842182Y32842183D01*
X7199049Y32603733D01*
X7620000Y32520001D01*
X8040951Y32603733D01*
X8397817Y32842183D01*
X8631881Y33192485D01*
X9290000Y32534365D01*
X9290000Y22420000D01*
X9373733Y21999048D01*
X9594419Y21668769D01*
X9612183Y21642183D01*
X16234646Y15019719D01*
X16234646Y13754000D01*
X16276483Y13531654D01*
X16340000Y13432946D01*
X16340000Y7410000D01*
X14241696Y7410000D01*
X14263556Y7441993D01*
X14311754Y7680000D01*
X14311754Y8580000D01*
X14269917Y8802346D01*
X14200000Y8911000D01*
X14200000Y9628976D01*
X14263556Y9721993D01*
X14311754Y9960000D01*
X14311754Y10860000D01*
X14269917Y11082346D01*
X14138510Y11286558D01*
X13938007Y11423556D01*
X13700000Y11471754D01*
X13292275Y11471754D01*
X13100000Y11510000D01*
X12907725Y11471754D01*
X12500000Y11471754D01*
X12277654Y11429917D01*
X12073442Y11298510D01*
X11978802Y11160000D01*
X11508513Y11160000D01*
X11433510Y11276558D01*
X11233007Y11413556D01*
X11151444Y11430073D01*
X12896777Y13175406D01*
X13190095Y13233751D01*
X13664921Y13551020D01*
X13982190Y14025846D01*
X14093600Y14585941D01*
X14093600Y14954059D01*
X13982190Y15514154D01*
X13664921Y15988980D01*
X13190095Y16306249D01*
X12630000Y16417659D01*
X12069905Y16306249D01*
X11995103Y16256268D01*
X11265685Y16985685D01*
X11006147Y17159104D01*
X11005986Y17159136D01*
X10700000Y17220000D01*
X9470000Y17220000D01*
X9163853Y17159104D01*
X8904315Y16985686D01*
X8044315Y16125685D01*
X7870896Y15866147D01*
X7810000Y15560000D01*
X7810000Y13671371D01*
X6258630Y12120000D01*
X2890000Y12120000D01*
X2583853Y12059104D01*
X2324315Y11885685D01*
X1814315Y11375685D01*
X1640896Y11116147D01*
X1638800Y11105611D01*
X1503442Y11018510D01*
X1366444Y10818007D01*
X1318246Y10580000D01*
X1318246Y9380000D01*
X1360083Y9157654D01*
X1491490Y8953442D01*
X1598988Y8879992D01*
X1503442Y8818510D01*
X1366444Y8618007D01*
X1318246Y8380000D01*
X1318246Y7972275D01*
X1280000Y7780000D01*
X1280000Y6150000D01*
X1363733Y5729048D01*
X1602183Y5372183D01*
X1959048Y5133733D01*
X2380000Y5050000D01*
X2800952Y5133733D01*
X3157817Y5372183D01*
X3396267Y5729048D01*
X3480000Y6150000D01*
X3480000Y6680000D01*
X4248976Y6680000D01*
X4341993Y6616444D01*
X4580000Y6568246D01*
X5480000Y6568246D01*
X5702346Y6610083D01*
X5906558Y6741490D01*
X6043556Y6941993D01*
X6091754Y7180000D01*
X6091754Y7587725D01*
X6130000Y7780000D01*
X6091754Y7972275D01*
X6091754Y8380000D01*
X6049917Y8602346D01*
X5918510Y8806558D01*
X5811012Y8880008D01*
X5906558Y8941490D01*
X6043556Y9141993D01*
X6060365Y9225000D01*
X7233246Y9225000D01*
X7233246Y9200000D01*
X7275083Y8977654D01*
X7406490Y8773442D01*
X7606993Y8636444D01*
X7845000Y8588246D01*
X8328407Y8588246D01*
X8395000Y8575000D01*
X8915000Y8575000D01*
X9221147Y8635896D01*
X9480685Y8809315D01*
X9586262Y8914891D01*
X9583246Y8900000D01*
X9583246Y8550000D01*
X9625083Y8327654D01*
X9756490Y8123442D01*
X9956993Y7986444D01*
X10195000Y7938246D01*
X10378407Y7938246D01*
X10445000Y7925000D01*
X10503630Y7925000D01*
X10864315Y7564315D01*
X11123853Y7390896D01*
X11430000Y7330000D01*
X12000000Y7330000D01*
X12000000Y6930000D01*
X12083733Y6509048D01*
X12195229Y6342183D01*
X12322183Y6152183D01*
X12942182Y5532183D01*
X13247385Y5328253D01*
X13299048Y5293733D01*
X13720000Y5210000D01*
X16389728Y5210000D01*
X16423733Y5039048D01*
X16644764Y4708253D01*
X16662183Y4682183D01*
X17320000Y4024365D01*
X17320000Y3442774D01*
X17243442Y3393510D01*
X17106444Y3193007D01*
X17058246Y2955000D01*
X17058246Y1705000D01*
X17100083Y1482654D01*
X17231490Y1278442D01*
X17431993Y1141444D01*
X17670000Y1093246D01*
X19170000Y1093246D01*
X19392346Y1135083D01*
X19596558Y1266490D01*
X19633120Y1320000D01*
X21110000Y1320000D01*
X21530952Y1403733D01*
X21707894Y1521962D01*
X21857346Y1550083D01*
X22061558Y1681490D01*
X22198556Y1881993D01*
X22246754Y2120000D01*
X22246754Y2720000D01*
X22204917Y2942346D01*
X22073510Y3146558D01*
X21873007Y3283556D01*
X21710139Y3316538D01*
X21572888Y3408246D01*
X21635000Y3408246D01*
X21857346Y3450083D01*
X22061558Y3581490D01*
X22198556Y3781993D01*
X22246754Y4020000D01*
X22246754Y4620000D01*
X22204917Y4842346D01*
X22073510Y5046558D01*
X21873007Y5183556D01*
X21635000Y5231754D01*
X21541749Y5231754D01*
X20271754Y6501748D01*
X20271754Y7670000D01*
X20229917Y7892346D01*
X20098510Y8096558D01*
X19898007Y8233556D01*
X19660000Y8281754D01*
X18760000Y8281754D01*
X18540000Y8240358D01*
X18540000Y13142246D01*
X18573600Y13142246D01*
X18795946Y13184083D01*
X19000158Y13315490D01*
X19137156Y13515993D01*
X19185354Y13754000D01*
X19185354Y15786000D01*
X19143517Y16008346D01*
X19012110Y16212558D01*
X18811607Y16349556D01*
X18573600Y16397754D01*
X17967881Y16397754D01*
X11490000Y22875634D01*
X11490000Y31078000D01*
X21716246Y31078000D01*
X21716246Y30062000D01*
X21741020Y29930337D01*
X21716246Y29808000D01*
X21716246Y28792000D01*
X21758083Y28569654D01*
X21889490Y28365442D01*
X22089993Y28228444D01*
X22328000Y28180246D01*
X24290000Y28180246D01*
X24512346Y28222083D01*
X24716558Y28353490D01*
X24853556Y28553993D01*
X24901754Y28792000D01*
X24901754Y29808000D01*
X24876980Y29939663D01*
X24901754Y30062000D01*
X24901754Y31078000D01*
X24859917Y31300346D01*
X24728510Y31504558D01*
X24528007Y31641556D01*
X24290000Y31689754D01*
X22328000Y31689754D01*
X22105654Y31647917D01*
X21901442Y31516510D01*
X21764444Y31316007D01*
X21716246Y31078000D01*
X11490000Y31078000D01*
X11490000Y32010000D01*
X22230453Y32010000D01*
X22328000Y31990246D01*
X24290000Y31990246D01*
X24394984Y32010000D01*
X25188976Y32010000D01*
X25281993Y31946444D01*
X25520000Y31898246D01*
X26420000Y31898246D01*
X26642346Y31940083D01*
X26846558Y32071490D01*
X26983556Y32271993D01*
X27031754Y32510000D01*
X27031754Y32917725D01*
X27070000Y33110000D01*
X27031754Y33302275D01*
X27031754Y33710000D01*
X26989917Y33932346D01*
X26858510Y34136558D01*
X26658007Y34273556D01*
X26420000Y34321754D01*
X25520000Y34321754D01*
X25297654Y34279917D01*
X25189000Y34210000D01*
X24901754Y34210000D01*
X24901754Y34888000D01*
X24876980Y35019663D01*
X24901754Y35142000D01*
X24901754Y36158000D01*
X24876980Y36289663D01*
X24901754Y36412000D01*
X24901754Y37428000D01*
X24876980Y37559663D01*
X24901754Y37682000D01*
X24901754Y38698000D01*
X24876980Y38829663D01*
X24901754Y38952000D01*
X24901754Y39968000D01*
X24876980Y40099663D01*
X24901754Y40222000D01*
X24901754Y41238000D01*
X24876980Y41369663D01*
X24901754Y41492000D01*
X24901754Y42508000D01*
X24859917Y42730346D01*
X24728510Y42934558D01*
X24528007Y43071556D01*
X24290000Y43119754D01*
X22328000Y43119754D01*
X22105654Y43077917D01*
X21901442Y42946510D01*
X21764444Y42746007D01*
X21716246Y42508000D01*
X21716246Y41492000D01*
X21741020Y41360337D01*
X21716246Y41238000D01*
X21716246Y40222000D01*
X21723299Y40184517D01*
X21600952Y40266267D01*
X21180000Y40350000D01*
X20759048Y40266267D01*
X20402183Y40027817D01*
X20320000Y39904822D01*
X20237817Y40027817D01*
X19880952Y40266267D01*
X19460000Y40350000D01*
X19039048Y40266267D01*
X18682183Y40027817D01*
X18668318Y40007067D01*
X18667817Y40007817D01*
X18310952Y40246267D01*
X17890000Y40330000D01*
X17469048Y40246267D01*
X17112183Y40007817D01*
X16873733Y39650952D01*
X16790000Y39230000D01*
X16790000Y35375956D01*
X16789221Y35372040D01*
X16790000Y35368124D01*
X16790000Y34494715D01*
X16784141Y34465260D01*
X16834915Y34210000D01*
X13728657Y34210000D01*
X13780000Y34468120D01*
X13780000Y39440000D01*
X13696267Y39860952D01*
X13457817Y40217817D01*
X13100952Y40456267D01*
X12680000Y40540000D01*
X12259048Y40456267D01*
X11905561Y40220074D01*
X11897817Y40227817D01*
X11540951Y40466267D01*
X11120000Y40549999D01*
X10699049Y40466267D01*
X10342183Y40227817D01*
X10103733Y39870951D01*
X10020001Y39450000D01*
X10030000Y39399731D01*
X10030000Y34905635D01*
X8507817Y36427817D01*
X8440465Y36472820D01*
X8150952Y36666267D01*
X7730000Y36750000D01*
X6169547Y36750000D01*
X6072000Y36769754D01*
X4110000Y36769754D01*
X4005016Y36750000D01*
X3765634Y36750000D01*
X3737817Y36777817D01*
X3647736Y36838007D01*
X3380952Y37016267D01*
X3010273Y37090000D01*
X4012453Y37090000D01*
X4110000Y37070246D01*
X6072000Y37070246D01*
X6294346Y37112083D01*
X6498558Y37243490D01*
X6635556Y37443993D01*
X6683754Y37682000D01*
X6683754Y38698000D01*
X6658980Y38829663D01*
X6683754Y38952000D01*
X6683754Y39968000D01*
X6658980Y40099663D01*
X6683754Y40222000D01*
X6683754Y41238000D01*
X6658980Y41369663D01*
X6683754Y41492000D01*
X6683754Y42508000D01*
X6641917Y42730346D01*
X6510510Y42934558D01*
X6310007Y43071556D01*
X6072000Y43119754D01*
X4110000Y43119754D01*
X3887654Y43077917D01*
X3683442Y42946510D01*
X3546444Y42746007D01*
X3498246Y42508000D01*
X3498246Y41492000D01*
X3523020Y41360337D01*
X3498246Y41238000D01*
X3498246Y40222000D01*
X3523020Y40090337D01*
X3498246Y39968000D01*
X3498246Y39290000D01*
X2825660Y39290000D01*
X2718007Y39363556D01*
X2480000Y39411754D01*
X1580000Y39411754D01*
X1357654Y39369917D01*
X1153442Y39238510D01*
X1016444Y39038007D01*
X968246Y38800000D01*
X968246Y38392271D01*
X930001Y38200000D01*
X968246Y38007729D01*
X968246Y37600000D01*
X1010083Y37377654D01*
X1141490Y37173442D01*
X1248988Y37099992D01*
X1153442Y37038510D01*
X1016444Y36838007D01*
X968246Y36600000D01*
X968246Y36192275D01*
X930000Y36000000D01*
X675000Y36000000D01*
X675000Y64475000D01*
X6315246Y64475000D01*
X6315246Y59630000D01*
G36*
X12000000Y8930000D02*
X11761370Y8930000D01*
X11557504Y9133866D01*
X11433510Y9326558D01*
X11363698Y9374258D01*
X11421558Y9411490D01*
X11523031Y9560000D01*
X12000000Y9560000D01*
X12000000Y8930000D01*
X12000000Y8930000D01*
G37*
X12000000Y8930000D02*
X11761370Y8930000D01*
X11557504Y9133866D01*
X11433510Y9326558D01*
X11363698Y9374258D01*
X11421558Y9411490D01*
X11523031Y9560000D01*
X12000000Y9560000D01*
X12000000Y8930000D01*
G36*
X30305079Y17476405D02*
X30779905Y17159136D01*
X31340000Y17047726D01*
X31900095Y17159136D01*
X31960000Y17199163D01*
X31960000Y14800837D01*
X31900095Y14840864D01*
X31340000Y14952274D01*
X30779905Y14840864D01*
X30305079Y14523595D01*
X30070000Y14171775D01*
X29834921Y14523595D01*
X29526014Y14730000D01*
X29834921Y14936405D01*
X30152190Y15411231D01*
X30263600Y15971326D01*
X30263600Y16028674D01*
X30152190Y16588769D01*
X29834921Y17063595D01*
X29526014Y17270000D01*
X29834921Y17476405D01*
X30070000Y17828225D01*
X30305079Y17476405D01*
X30305079Y17476405D01*
G37*
X30305079Y17476405D02*
X30779905Y17159136D01*
X31340000Y17047726D01*
X31900095Y17159136D01*
X31960000Y17199163D01*
X31960000Y14800837D01*
X31900095Y14840864D01*
X31340000Y14952274D01*
X30779905Y14840864D01*
X30305079Y14523595D01*
X30070000Y14171775D01*
X29834921Y14523595D01*
X29526014Y14730000D01*
X29834921Y14936405D01*
X30152190Y15411231D01*
X30263600Y15971326D01*
X30263600Y16028674D01*
X30152190Y16588769D01*
X29834921Y17063595D01*
X29526014Y17270000D01*
X29834921Y17476405D01*
X30070000Y17828225D01*
X30305079Y17476405D01*
G36*
X30305079Y22556405D02*
X30779905Y22239136D01*
X31340000Y22127726D01*
X31900095Y22239136D01*
X31960000Y22279163D01*
X31960000Y19880837D01*
X31900095Y19920864D01*
X31340000Y20032274D01*
X30779905Y19920864D01*
X30305079Y19603595D01*
X30070000Y19251775D01*
X29834921Y19603595D01*
X29526014Y19810000D01*
X29834921Y20016405D01*
X30152190Y20491231D01*
X30263600Y21051326D01*
X30263600Y21108674D01*
X30152190Y21668769D01*
X29834921Y22143595D01*
X29526014Y22350000D01*
X29834921Y22556405D01*
X30070000Y22908225D01*
X30305079Y22556405D01*
X30305079Y22556405D01*
G37*
X30305079Y22556405D02*
X30779905Y22239136D01*
X31340000Y22127726D01*
X31900095Y22239136D01*
X31960000Y22279163D01*
X31960000Y19880837D01*
X31900095Y19920864D01*
X31340000Y20032274D01*
X30779905Y19920864D01*
X30305079Y19603595D01*
X30070000Y19251775D01*
X29834921Y19603595D01*
X29526014Y19810000D01*
X29834921Y20016405D01*
X30152190Y20491231D01*
X30263600Y21051326D01*
X30263600Y21108674D01*
X30152190Y21668769D01*
X29834921Y22143595D01*
X29526014Y22350000D01*
X29834921Y22556405D01*
X30070000Y22908225D01*
X30305079Y22556405D01*
G36*
X30305079Y35256405D02*
X30779905Y34939136D01*
X31340000Y34827726D01*
X31900095Y34939136D01*
X31960000Y34979163D01*
X31960000Y32580837D01*
X31900095Y32620864D01*
X31340000Y32732274D01*
X30779905Y32620864D01*
X30305079Y32303595D01*
X30070000Y31951775D01*
X29834921Y32303595D01*
X29526014Y32510000D01*
X29834921Y32716405D01*
X30152190Y33191231D01*
X30263600Y33751326D01*
X30263600Y33808674D01*
X30152190Y34368769D01*
X29834921Y34843595D01*
X29526014Y35050000D01*
X29834921Y35256405D01*
X30070000Y35608225D01*
X30305079Y35256405D01*
X30305079Y35256405D01*
G37*
X30305079Y35256405D02*
X30779905Y34939136D01*
X31340000Y34827726D01*
X31900095Y34939136D01*
X31960000Y34979163D01*
X31960000Y32580837D01*
X31900095Y32620864D01*
X31340000Y32732274D01*
X30779905Y32620864D01*
X30305079Y32303595D01*
X30070000Y31951775D01*
X29834921Y32303595D01*
X29526014Y32510000D01*
X29834921Y32716405D01*
X30152190Y33191231D01*
X30263600Y33751326D01*
X30263600Y33808674D01*
X30152190Y34368769D01*
X29834921Y34843595D01*
X29526014Y35050000D01*
X29834921Y35256405D01*
X30070000Y35608225D01*
X30305079Y35256405D01*
G36*
X30305079Y42876405D02*
X30779905Y42559136D01*
X31340000Y42447726D01*
X31900095Y42559136D01*
X31960000Y42599163D01*
X31960000Y40200837D01*
X31900095Y40240864D01*
X31340000Y40352274D01*
X30779905Y40240864D01*
X30305079Y39923595D01*
X30070000Y39571775D01*
X29834921Y39923595D01*
X29526014Y40130000D01*
X29834921Y40336405D01*
X30152190Y40811231D01*
X30263600Y41371326D01*
X30263600Y41428674D01*
X30152190Y41988769D01*
X29834921Y42463595D01*
X29526014Y42670000D01*
X29834921Y42876405D01*
X30070000Y43228225D01*
X30305079Y42876405D01*
X30305079Y42876405D01*
G37*
X30305079Y42876405D02*
X30779905Y42559136D01*
X31340000Y42447726D01*
X31900095Y42559136D01*
X31960000Y42599163D01*
X31960000Y40200837D01*
X31900095Y40240864D01*
X31340000Y40352274D01*
X30779905Y40240864D01*
X30305079Y39923595D01*
X30070000Y39571775D01*
X29834921Y39923595D01*
X29526014Y40130000D01*
X29834921Y40336405D01*
X30152190Y40811231D01*
X30263600Y41371326D01*
X30263600Y41428674D01*
X30152190Y41988769D01*
X29834921Y42463595D01*
X29526014Y42670000D01*
X29834921Y42876405D01*
X30070000Y43228225D01*
X30305079Y42876405D01*
G36*
X18535246Y59620000D02*
X18577083Y59397654D01*
X18708490Y59193442D01*
X18908993Y59056444D01*
X18940000Y59050165D01*
X18940000Y56836133D01*
X18476854Y56373795D01*
X18150372Y55587540D01*
X18149629Y54736195D01*
X18474739Y53949371D01*
X18940000Y53483297D01*
X18940000Y51729188D01*
X14575679Y47364867D01*
X14515406Y47324594D01*
X14222763Y46886623D01*
X14190000Y46721914D01*
X14157238Y46886622D01*
X13864594Y47324594D01*
X9420000Y51769188D01*
X9420000Y53493867D01*
X9883146Y53956205D01*
X10209628Y54742460D01*
X10210371Y55593805D01*
X9885261Y56380629D01*
X9420000Y56846703D01*
X9420000Y59057195D01*
X9435346Y59060083D01*
X9639558Y59191490D01*
X9776556Y59391993D01*
X9824754Y59630000D01*
X9824754Y64475000D01*
X18535246Y64475000D01*
X18535246Y59620000D01*
X18535246Y59620000D01*
G37*
X18535246Y59620000D02*
X18577083Y59397654D01*
X18708490Y59193442D01*
X18908993Y59056444D01*
X18940000Y59050165D01*
X18940000Y56836133D01*
X18476854Y56373795D01*
X18150372Y55587540D01*
X18149629Y54736195D01*
X18474739Y53949371D01*
X18940000Y53483297D01*
X18940000Y51729188D01*
X14575679Y47364867D01*
X14515406Y47324594D01*
X14222763Y46886623D01*
X14190000Y46721914D01*
X14157238Y46886622D01*
X13864594Y47324594D01*
X9420000Y51769188D01*
X9420000Y53493867D01*
X9883146Y53956205D01*
X10209628Y54742460D01*
X10210371Y55593805D01*
X9885261Y56380629D01*
X9420000Y56846703D01*
X9420000Y59057195D01*
X9435346Y59060083D01*
X9639558Y59191490D01*
X9776556Y59391993D01*
X9824754Y59630000D01*
X9824754Y64475000D01*
X18535246Y64475000D01*
X18535246Y59620000D01*
G36*
X30305079Y53036405D02*
X30779905Y52719136D01*
X31076323Y52660175D01*
X31960000Y51776497D01*
X31960000Y50360837D01*
X31900095Y50400864D01*
X31340000Y50512274D01*
X30779905Y50400864D01*
X30305079Y50083595D01*
X30070000Y49731775D01*
X29834921Y50083595D01*
X29526014Y50290000D01*
X29834921Y50496405D01*
X30152190Y50971231D01*
X30263600Y51531326D01*
X30263600Y51588674D01*
X30152190Y52148769D01*
X29834921Y52623595D01*
X29526014Y52830000D01*
X29834921Y53036405D01*
X30070000Y53388225D01*
X30305079Y53036405D01*
X30305079Y53036405D01*
G37*
X30305079Y53036405D02*
X30779905Y52719136D01*
X31076323Y52660175D01*
X31960000Y51776497D01*
X31960000Y50360837D01*
X31900095Y50400864D01*
X31340000Y50512274D01*
X30779905Y50400864D01*
X30305079Y50083595D01*
X30070000Y49731775D01*
X29834921Y50083595D01*
X29526014Y50290000D01*
X29834921Y50496405D01*
X30152190Y50971231D01*
X30263600Y51531326D01*
X30263600Y51588674D01*
X30152190Y52148769D01*
X29834921Y52623595D01*
X29526014Y52830000D01*
X29834921Y53036405D01*
X30070000Y53388225D01*
X30305079Y53036405D01*
M02*
