G04 #@! TF.FileFunction,Copper,L2,Bot,Signal*
%FSLAX46Y46*%
G04 Gerber Fmt 4.6, Leading zero omitted, Abs format (unit mm)*
G04 Created by KiCad (PCBNEW 4.0.0-rc1-stable) date 3.2.2017 11:58:08*
%MOMM*%
G01*
G04 APERTURE LIST*
%ADD10C,0.100000*%
%ADD11R,1.727200X1.727200*%
%ADD12O,1.727200X1.727200*%
%ADD13C,4.064000*%
%ADD14O,3.400000X2.200000*%
%ADD15R,1.727200X2.032000*%
%ADD16O,1.727200X2.032000*%
%ADD17C,3.080000*%
%ADD18C,0.800000*%
%ADD19C,1.000000*%
%ADD20C,0.200000*%
%ADD21C,0.400000*%
%ADD22C,0.500000*%
G04 APERTURE END LIST*
D10*
D11*
X28800000Y56640000D03*
D12*
X31340000Y56640000D03*
X28800000Y54100000D03*
X31340000Y54100000D03*
X28800000Y51560000D03*
X31340000Y51560000D03*
X28800000Y49020000D03*
X31340000Y49020000D03*
X28800000Y46480000D03*
X31340000Y46480000D03*
X28800000Y43940000D03*
X31340000Y43940000D03*
X28800000Y41400000D03*
X31340000Y41400000D03*
X28800000Y38860000D03*
X31340000Y38860000D03*
X28800000Y36320000D03*
X31340000Y36320000D03*
X28800000Y33780000D03*
X31340000Y33780000D03*
X28800000Y31240000D03*
X31340000Y31240000D03*
X28800000Y28700000D03*
X31340000Y28700000D03*
X28800000Y26160000D03*
X31340000Y26160000D03*
X28800000Y23620000D03*
X31340000Y23620000D03*
X28800000Y21080000D03*
X31340000Y21080000D03*
X28800000Y18540000D03*
X31340000Y18540000D03*
X28800000Y16000000D03*
X31340000Y16000000D03*
X28800000Y13460000D03*
X31340000Y13460000D03*
X28800000Y10920000D03*
X31340000Y10920000D03*
X28800000Y8380000D03*
X31340000Y8380000D03*
D13*
X30115000Y3880000D03*
X30110000Y61140000D03*
D14*
X2510000Y15320000D03*
D15*
X17710000Y14770000D03*
D16*
X15170000Y14770000D03*
X12630000Y14770000D03*
X10090000Y14770000D03*
D14*
X25310000Y15320000D03*
D17*
X20290000Y55160000D03*
X22830000Y52610000D03*
X17750000Y52610000D03*
X22830000Y57710000D03*
X17750000Y57710000D03*
X8070000Y55170000D03*
X10610000Y52620000D03*
X5530000Y52620000D03*
X10610000Y57720000D03*
X5530000Y57720000D03*
D18*
X2380000Y6150000D03*
X18420000Y4480000D03*
X21550000Y16270000D03*
X17860000Y20760000D03*
X15760000Y25340000D03*
X15360000Y28080000D03*
X15760000Y23020000D03*
X20050000Y18340000D03*
X21440000Y13240000D03*
X13300000Y25350000D03*
X14400000Y31220000D03*
X14450000Y35030000D03*
X13290000Y28180000D03*
X13300000Y23030000D03*
X23470000Y11300000D03*
X26630000Y9640000D03*
X20690000Y9660000D03*
X22680000Y3370000D03*
X2500000Y1750000D03*
X25310000Y28030000D03*
X3240000Y19140000D03*
X3400000Y43270000D03*
X9670000Y46970000D03*
X8100000Y48540000D03*
X6380000Y50260000D03*
X7190000Y49450000D03*
X8930000Y47710000D03*
X10370000Y46270000D03*
X12620000Y49470000D03*
X14200000Y47890000D03*
X15780000Y49480000D03*
X16590000Y50290000D03*
X14970000Y48660000D03*
X13410000Y48680000D03*
X11910000Y50180000D03*
X19150000Y47170000D03*
X20650000Y48670000D03*
X22100000Y50120000D03*
X21320000Y49340000D03*
X19890000Y47910000D03*
X18460000Y46480000D03*
X15770000Y31200000D03*
X15760000Y35030000D03*
X7700000Y37440000D03*
X2030000Y26770000D03*
X11840000Y9370000D03*
X15540000Y4480000D03*
X13240000Y3860000D03*
X25310000Y37590000D03*
X11120000Y39450000D03*
X11130000Y35570000D03*
X12680000Y35570000D03*
X12680000Y39440000D03*
X7620000Y33620000D03*
X10740000Y5620000D03*
X17890000Y39230000D03*
X17890000Y26750000D03*
X17890000Y36010000D03*
X19460000Y39250000D03*
X19460000Y25500000D03*
X19460000Y36010000D03*
X21180000Y36020000D03*
X21180000Y21680000D03*
X21180000Y39250000D03*
X27020000Y17270000D03*
D19*
X2380000Y6150000D02*
X2380000Y4180000D01*
X18420000Y3270000D02*
X18420000Y4480000D01*
X16850000Y1700000D02*
X18420000Y3270000D01*
X4860000Y1700000D02*
X16850000Y1700000D01*
X2380000Y4180000D02*
X4860000Y1700000D01*
D20*
X20050000Y17770000D02*
X21550000Y16270000D01*
X15760000Y22860000D02*
X17860000Y20760000D01*
X15360000Y25740000D02*
X15760000Y25340000D01*
X15360000Y28080000D02*
X15360000Y25740000D01*
X15760000Y23020000D02*
X15760000Y22860000D01*
X20050000Y18340000D02*
X20050000Y17770000D01*
X13290000Y25360000D02*
X13300000Y25350000D01*
X14400000Y31220000D02*
X14400000Y29290000D01*
D19*
X14450000Y31270000D02*
X14400000Y31220000D01*
X14450000Y35030000D02*
X14450000Y31270000D01*
D20*
X14400000Y29290000D02*
X13290000Y28180000D01*
X13290000Y28180000D02*
X13290000Y25360000D01*
X20720000Y9630000D02*
X20720000Y9620000D01*
X20690000Y9660000D02*
X20720000Y9630000D01*
X25310000Y28030000D02*
X25310000Y28040000D01*
X3400000Y43270000D02*
X3400000Y43260000D01*
X10370000Y46270000D02*
X9670000Y46970000D01*
X8930000Y47710000D02*
X8100000Y48540000D01*
X7190000Y49450000D02*
X6380000Y50260000D01*
X15780000Y49480000D02*
X16590000Y50290000D01*
X14200000Y47890000D02*
X14970000Y48660000D01*
X12620000Y49470000D02*
X13410000Y48680000D01*
X18460000Y46480000D02*
X19150000Y47170000D01*
X19890000Y47910000D02*
X20650000Y48670000D01*
X21320000Y49340000D02*
X22100000Y50120000D01*
D19*
X15760000Y31210000D02*
X15770000Y31200000D01*
X15760000Y35030000D02*
X15760000Y31210000D01*
D21*
X31340000Y41400000D02*
X31370000Y41370000D01*
X31370000Y41370000D02*
X32820000Y41370000D01*
X31340000Y51560000D02*
X32820000Y50080000D01*
X32820000Y50080000D02*
X32820000Y41370000D01*
X32820000Y41370000D02*
X32820000Y39920000D01*
X32820000Y39920000D02*
X32820000Y35260000D01*
X32820000Y35260000D02*
X31340000Y33780000D01*
X28800000Y26160000D02*
X30070000Y27430000D01*
X30070000Y27430000D02*
X32810000Y27430000D01*
X31340000Y33780000D02*
X32810000Y32310000D01*
X32810000Y32310000D02*
X32810000Y27430000D01*
X32810000Y22550000D02*
X31340000Y21080000D01*
X32810000Y27430000D02*
X32810000Y22550000D01*
X31340000Y21080000D02*
X32810000Y19610000D01*
X32810000Y17470000D02*
X31340000Y16000000D01*
X32810000Y19610000D02*
X32810000Y17470000D01*
D19*
X2030000Y31770000D02*
X7700000Y37440000D01*
X2030000Y26770000D02*
X2030000Y31770000D01*
X15170000Y9370000D02*
X11840000Y9370000D01*
X15170000Y9370000D02*
X15180000Y9370000D01*
X15180000Y9370000D02*
X15170000Y9370000D01*
X15170000Y4850000D02*
X15540000Y4480000D01*
X15170000Y14770000D02*
X15170000Y9370000D01*
X15170000Y9370000D02*
X15170000Y4850000D01*
X15170000Y14770000D02*
X15170000Y15530000D01*
X15170000Y15530000D02*
X16410000Y16770000D01*
X16410000Y16770000D02*
X19010000Y16770000D01*
X19010000Y16770000D02*
X20460000Y15320000D01*
X20460000Y15320000D02*
X25310000Y15320000D01*
X17750000Y57710000D02*
X22830000Y57710000D01*
X5530000Y57720000D02*
X10610000Y57720000D01*
X11160000Y37590000D02*
X10340000Y37590000D01*
X9200000Y36450000D02*
X9200000Y35630000D01*
X10340000Y37590000D02*
X9200000Y36450000D01*
X14000000Y37590000D02*
X11160000Y37590000D01*
X9200000Y35630000D02*
X9200000Y32790000D01*
X13240000Y3860000D02*
X13240000Y5790000D01*
X6830000Y9390000D02*
X6830000Y11030000D01*
X9140000Y7080000D02*
X6830000Y9390000D01*
X11950000Y7080000D02*
X9140000Y7080000D01*
X13240000Y5790000D02*
X11950000Y7080000D01*
X6830000Y11030000D02*
X6830000Y30420000D01*
X6830000Y30420000D02*
X9200000Y32790000D01*
X25310000Y37590000D02*
X14000000Y37590000D01*
D22*
X11120000Y39450000D02*
X12100000Y40430000D01*
D19*
X8830000Y29870000D02*
X11130000Y32170000D01*
X11130000Y32170000D02*
X11130000Y35570000D01*
X10090000Y14770000D02*
X8830000Y16030000D01*
X8830000Y29870000D02*
X8830000Y16030000D01*
D22*
X27190000Y52490000D02*
X28800000Y54100000D01*
X27190000Y51120000D02*
X27190000Y52490000D01*
X26300000Y50230000D02*
X27190000Y51120000D01*
X26300000Y48970000D02*
X26300000Y50230000D01*
X24370000Y47040000D02*
X26300000Y48970000D01*
X24370000Y44640000D02*
X24370000Y47040000D01*
X22530000Y42800000D02*
X24370000Y44640000D01*
X18760000Y42800000D02*
X22530000Y42800000D01*
X16390000Y40430000D02*
X18760000Y42800000D01*
X12100000Y40430000D02*
X16390000Y40430000D01*
X12680000Y39440000D02*
X16530000Y39440000D01*
D19*
X10500000Y17320000D02*
X10500000Y28740000D01*
X12630000Y15190000D02*
X10500000Y17320000D01*
X12680000Y30920000D02*
X12680000Y35570000D01*
X10500000Y28740000D02*
X12680000Y30920000D01*
D22*
X27080000Y49840000D02*
X28800000Y51560000D01*
X27080000Y48620000D02*
X27080000Y49840000D01*
X25140000Y46680000D02*
X27080000Y48620000D01*
X25140000Y44260000D02*
X25140000Y46680000D01*
X22860000Y41980000D02*
X25140000Y44260000D01*
X19070000Y41980000D02*
X22860000Y41980000D01*
X16530000Y39440000D02*
X19070000Y41980000D01*
D19*
X12630000Y14770000D02*
X12630000Y15190000D01*
X7620000Y33620000D02*
X5310000Y31310000D01*
X5310000Y8840000D02*
X6490000Y7660000D01*
X5310000Y31310000D02*
X5310000Y8840000D01*
X6490000Y7660000D02*
X8530000Y5620000D01*
X8530000Y5620000D02*
X10740000Y5620000D01*
D22*
X17890000Y39230000D02*
X19740000Y41080000D01*
D19*
X17890000Y36010000D02*
X17890000Y35300000D01*
X17890000Y35300000D02*
X17890000Y26750000D01*
D22*
X26170000Y46250000D02*
X27670000Y47750000D01*
X26170000Y43920000D02*
X26170000Y46250000D01*
X23330000Y41080000D02*
X26170000Y43920000D01*
X19740000Y41080000D02*
X23330000Y41080000D01*
D21*
X31340000Y49020000D02*
X30070000Y47750000D01*
X27670000Y47750000D02*
X26880000Y46960000D01*
X30070000Y47750000D02*
X27670000Y47750000D01*
D22*
X19460000Y39250000D02*
X19460000Y39660000D01*
D19*
X19460000Y36010000D02*
X19460000Y35150000D01*
X19460000Y25500000D02*
X19460000Y35150000D01*
D22*
X27020000Y44610000D02*
X27620000Y45210000D01*
X27020000Y43560000D02*
X27020000Y44610000D01*
X23760000Y40300000D02*
X27020000Y43560000D01*
X20100000Y40300000D02*
X23760000Y40300000D01*
X19460000Y39660000D02*
X20100000Y40300000D01*
D21*
X31340000Y46480000D02*
X30070000Y45210000D01*
X30070000Y45210000D02*
X27620000Y45210000D01*
D22*
X21180000Y39250000D02*
X24110000Y39250000D01*
D19*
X21180000Y36020000D02*
X21180000Y21680000D01*
D22*
X24110000Y39250000D02*
X28800000Y43940000D01*
D21*
X28280000Y17270000D02*
X27020000Y17270000D01*
X30070000Y16790000D02*
X29590000Y17270000D01*
X29590000Y17270000D02*
X28280000Y17270000D01*
X30070000Y15690000D02*
X30070000Y16790000D01*
X31340000Y13460000D02*
X30070000Y14730000D01*
X30070000Y14730000D02*
X30070000Y15690000D01*
X30070000Y15690000D02*
X30070000Y16390000D01*
G36*
X32905000Y675000D02*
X17227048Y675000D01*
X17270952Y683733D01*
X17627817Y922183D01*
X19197817Y2492182D01*
X19403494Y2800000D01*
X19436267Y2849048D01*
X19520000Y3270000D01*
X19520000Y3358760D01*
X27482544Y3358760D01*
X27882398Y2391039D01*
X28622145Y1650000D01*
X29589166Y1248458D01*
X30636240Y1247544D01*
X31603961Y1647398D01*
X32345000Y2387145D01*
X32746542Y3354166D01*
X32747456Y4401240D01*
X32347602Y5368961D01*
X31607855Y6110000D01*
X30640834Y6511542D01*
X29593760Y6512456D01*
X28626039Y6112602D01*
X27885000Y5372855D01*
X27483458Y4405834D01*
X27482544Y3358760D01*
X19520000Y3358760D01*
X19520000Y4480000D01*
X19436267Y4900952D01*
X19197817Y5257817D01*
X18840952Y5496267D01*
X18420000Y5580000D01*
X17999048Y5496267D01*
X17642183Y5257817D01*
X17403733Y4900952D01*
X17320000Y4480000D01*
X17320000Y3725635D01*
X16394366Y2800000D01*
X13441093Y2800000D01*
X13660952Y2843733D01*
X14017817Y3082183D01*
X14256267Y3439048D01*
X14340000Y3860000D01*
X14340000Y5790000D01*
X14256267Y6210952D01*
X14131408Y6397817D01*
X14017817Y6567818D01*
X12727817Y7857817D01*
X12727816Y7857818D01*
X12370952Y8096267D01*
X11950000Y8180000D01*
X9595635Y8180000D01*
X7930000Y9845634D01*
X7930000Y15435042D01*
X7964204Y15383853D01*
X8052183Y15252183D01*
X8626400Y14677966D01*
X8626400Y14585941D01*
X8737810Y14025846D01*
X9055079Y13551020D01*
X9529905Y13233751D01*
X10090000Y13122341D01*
X10650095Y13233751D01*
X11124921Y13551020D01*
X11360000Y13902840D01*
X11595079Y13551020D01*
X12069905Y13233751D01*
X12630000Y13122341D01*
X13190095Y13233751D01*
X13664921Y13551020D01*
X13982190Y14025846D01*
X14093600Y14585941D01*
X14093600Y14954059D01*
X13982190Y15514154D01*
X13800549Y15786000D01*
X16234646Y15786000D01*
X16234646Y13754000D01*
X16276483Y13531654D01*
X16407890Y13327442D01*
X16608393Y13190444D01*
X16846400Y13142246D01*
X18573600Y13142246D01*
X18795946Y13184083D01*
X19000158Y13315490D01*
X19137156Y13515993D01*
X19185354Y13754000D01*
X19185354Y15786000D01*
X19143517Y16008346D01*
X19012110Y16212558D01*
X18811607Y16349556D01*
X18573600Y16397754D01*
X16846400Y16397754D01*
X16624054Y16355917D01*
X16419842Y16224510D01*
X16282844Y16024007D01*
X16234646Y15786000D01*
X13800549Y15786000D01*
X13664921Y15988980D01*
X13190095Y16306249D01*
X13039413Y16336221D01*
X11600000Y17775634D01*
X11600000Y28284366D01*
X13457818Y30142183D01*
X13696268Y30499049D01*
X13780000Y30920000D01*
X13780000Y35570000D01*
X13696267Y35990952D01*
X13457817Y36347817D01*
X13245025Y36490000D01*
X16913188Y36490000D01*
X16873733Y36430952D01*
X16790000Y36010000D01*
X16790000Y26750000D01*
X16873733Y26329048D01*
X17112183Y25972183D01*
X17469048Y25733733D01*
X17890000Y25650000D01*
X18310952Y25733733D01*
X18360000Y25766506D01*
X18360000Y25500000D01*
X18443733Y25079048D01*
X18682183Y24722183D01*
X19039048Y24483733D01*
X19460000Y24400000D01*
X19880952Y24483733D01*
X20080000Y24616733D01*
X20080000Y21680000D01*
X20163733Y21259048D01*
X20402183Y20902183D01*
X20759048Y20663733D01*
X21180000Y20580000D01*
X21600952Y20663733D01*
X21957817Y20902183D01*
X22196267Y21259048D01*
X22280000Y21680000D01*
X22280000Y36020000D01*
X22196267Y36440952D01*
X22163494Y36490000D01*
X25310000Y36490000D01*
X25730952Y36573733D01*
X26087817Y36812183D01*
X26326267Y37169048D01*
X26410000Y37590000D01*
X26326267Y38010952D01*
X26087817Y38367817D01*
X25730952Y38606267D01*
X25310000Y38690000D01*
X24752082Y38690000D01*
X27352495Y41290413D01*
X27447810Y40811231D01*
X27765079Y40336405D01*
X28073986Y40130000D01*
X27765079Y39923595D01*
X27447810Y39448769D01*
X27336400Y38888674D01*
X27336400Y38831326D01*
X27447810Y38271231D01*
X27765079Y37796405D01*
X28073986Y37590000D01*
X27765079Y37383595D01*
X27447810Y36908769D01*
X27336400Y36348674D01*
X27336400Y36291326D01*
X27447810Y35731231D01*
X27765079Y35256405D01*
X28073986Y35050000D01*
X27765079Y34843595D01*
X27447810Y34368769D01*
X27336400Y33808674D01*
X27336400Y33751326D01*
X27447810Y33191231D01*
X27765079Y32716405D01*
X28073986Y32510000D01*
X27765079Y32303595D01*
X27447810Y31828769D01*
X27336400Y31268674D01*
X27336400Y31211326D01*
X27447810Y30651231D01*
X27765079Y30176405D01*
X28073986Y29970000D01*
X27765079Y29763595D01*
X27447810Y29288769D01*
X27336400Y28728674D01*
X27336400Y28671326D01*
X27447810Y28111231D01*
X27765079Y27636405D01*
X28239905Y27319136D01*
X28800000Y27207726D01*
X29360095Y27319136D01*
X29834921Y27636405D01*
X30070000Y27988225D01*
X30305079Y27636405D01*
X30613986Y27430000D01*
X30305079Y27223595D01*
X29987810Y26748769D01*
X29876400Y26188674D01*
X29876400Y26131326D01*
X29987810Y25571231D01*
X30305079Y25096405D01*
X30613986Y24890000D01*
X30305079Y24683595D01*
X30070000Y24331775D01*
X29834921Y24683595D01*
X29360095Y25000864D01*
X28800000Y25112274D01*
X28239905Y25000864D01*
X27765079Y24683595D01*
X27447810Y24208769D01*
X27336400Y23648674D01*
X27336400Y23591326D01*
X27447810Y23031231D01*
X27765079Y22556405D01*
X28073986Y22350000D01*
X27765079Y22143595D01*
X27447810Y21668769D01*
X27336400Y21108674D01*
X27336400Y21051326D01*
X27447810Y20491231D01*
X27765079Y20016405D01*
X28073986Y19810000D01*
X27765079Y19603595D01*
X27447810Y19128769D01*
X27336400Y18568674D01*
X27336400Y18511326D01*
X27399261Y18195301D01*
X27219785Y18269826D01*
X26821960Y18270173D01*
X26454286Y18118253D01*
X26172736Y17837194D01*
X26020174Y17469785D01*
X26019827Y17071960D01*
X26171747Y16704286D01*
X26452806Y16422736D01*
X26820215Y16270174D01*
X27218040Y16269827D01*
X27399263Y16344707D01*
X27336400Y16028674D01*
X27336400Y15971326D01*
X27447810Y15411231D01*
X27765079Y14936405D01*
X28073986Y14730000D01*
X27765079Y14523595D01*
X27447810Y14048769D01*
X27336400Y13488674D01*
X27336400Y13431326D01*
X27447810Y12871231D01*
X27765079Y12396405D01*
X28073986Y12190000D01*
X27765079Y11983595D01*
X27447810Y11508769D01*
X27336400Y10948674D01*
X27336400Y10891326D01*
X27447810Y10331231D01*
X27765079Y9856405D01*
X28239905Y9539136D01*
X28800000Y9427726D01*
X29360095Y9539136D01*
X29834921Y9856405D01*
X30070000Y10208225D01*
X30305079Y9856405D01*
X30613986Y9650000D01*
X30305079Y9443595D01*
X29987810Y8968769D01*
X29876400Y8408674D01*
X29876400Y8351326D01*
X29987810Y7791231D01*
X30305079Y7316405D01*
X30779905Y6999136D01*
X31340000Y6887726D01*
X31900095Y6999136D01*
X32374921Y7316405D01*
X32692190Y7791231D01*
X32803600Y8351326D01*
X32803600Y8408674D01*
X32692190Y8968769D01*
X32374921Y9443595D01*
X32066014Y9650000D01*
X32374921Y9856405D01*
X32692190Y10331231D01*
X32803600Y10891326D01*
X32803600Y10948674D01*
X32692190Y11508769D01*
X32374921Y11983595D01*
X32066014Y12190000D01*
X32374921Y12396405D01*
X32692190Y12871231D01*
X32803600Y13431326D01*
X32803600Y13488674D01*
X32692190Y14048769D01*
X32374921Y14523595D01*
X31900095Y14840864D01*
X31340000Y14952274D01*
X31038974Y14892396D01*
X30870000Y15061370D01*
X30870000Y16790000D01*
X30809104Y17096147D01*
X30756620Y17174695D01*
X30779905Y17159136D01*
X31340000Y17047726D01*
X31900095Y17159136D01*
X32374921Y17476405D01*
X32692190Y17951231D01*
X32803600Y18511326D01*
X32803600Y18568674D01*
X32692190Y19128769D01*
X32374921Y19603595D01*
X31900095Y19920864D01*
X31340000Y20032274D01*
X30779905Y19920864D01*
X30305079Y19603595D01*
X30070000Y19251775D01*
X29834921Y19603595D01*
X29526014Y19810000D01*
X29834921Y20016405D01*
X30152190Y20491231D01*
X30263600Y21051326D01*
X30263600Y21108674D01*
X30152190Y21668769D01*
X29834921Y22143595D01*
X29526014Y22350000D01*
X29834921Y22556405D01*
X30070000Y22908225D01*
X30305079Y22556405D01*
X30779905Y22239136D01*
X31340000Y22127726D01*
X31900095Y22239136D01*
X32374921Y22556405D01*
X32692190Y23031231D01*
X32803600Y23591326D01*
X32803600Y23648674D01*
X32692190Y24208769D01*
X32374921Y24683595D01*
X32066014Y24890000D01*
X32374921Y25096405D01*
X32692190Y25571231D01*
X32803600Y26131326D01*
X32803600Y26188674D01*
X32692190Y26748769D01*
X32374921Y27223595D01*
X32066014Y27430000D01*
X32374921Y27636405D01*
X32692190Y28111231D01*
X32803600Y28671326D01*
X32803600Y28728674D01*
X32692190Y29288769D01*
X32374921Y29763595D01*
X32066014Y29970000D01*
X32374921Y30176405D01*
X32692190Y30651231D01*
X32803600Y31211326D01*
X32803600Y31268674D01*
X32692190Y31828769D01*
X32374921Y32303595D01*
X31900095Y32620864D01*
X31340000Y32732274D01*
X30779905Y32620864D01*
X30305079Y32303595D01*
X30070000Y31951775D01*
X29834921Y32303595D01*
X29526014Y32510000D01*
X29834921Y32716405D01*
X30152190Y33191231D01*
X30263600Y33751326D01*
X30263600Y33808674D01*
X30152190Y34368769D01*
X29834921Y34843595D01*
X29526014Y35050000D01*
X29834921Y35256405D01*
X30070000Y35608225D01*
X30305079Y35256405D01*
X30779905Y34939136D01*
X31340000Y34827726D01*
X31900095Y34939136D01*
X32374921Y35256405D01*
X32692190Y35731231D01*
X32803600Y36291326D01*
X32803600Y36348674D01*
X32692190Y36908769D01*
X32374921Y37383595D01*
X32066014Y37590000D01*
X32374921Y37796405D01*
X32692190Y38271231D01*
X32803600Y38831326D01*
X32803600Y38888674D01*
X32692190Y39448769D01*
X32374921Y39923595D01*
X31900095Y40240864D01*
X31340000Y40352274D01*
X30779905Y40240864D01*
X30305079Y39923595D01*
X30070000Y39571775D01*
X29834921Y39923595D01*
X29526014Y40130000D01*
X29834921Y40336405D01*
X30152190Y40811231D01*
X30263600Y41371326D01*
X30263600Y41428674D01*
X30152190Y41988769D01*
X29834921Y42463595D01*
X29526014Y42670000D01*
X29834921Y42876405D01*
X30070000Y43228225D01*
X30305079Y42876405D01*
X30779905Y42559136D01*
X31340000Y42447726D01*
X31900095Y42559136D01*
X32374921Y42876405D01*
X32692190Y43351231D01*
X32803600Y43911326D01*
X32803600Y43968674D01*
X32692190Y44528769D01*
X32374921Y45003595D01*
X32066014Y45210000D01*
X32374921Y45416405D01*
X32692190Y45891231D01*
X32803600Y46451326D01*
X32803600Y46508674D01*
X32692190Y47068769D01*
X32374921Y47543595D01*
X32066014Y47750000D01*
X32374921Y47956405D01*
X32692190Y48431231D01*
X32803600Y48991326D01*
X32803600Y49048674D01*
X32692190Y49608769D01*
X32374921Y50083595D01*
X31900095Y50400864D01*
X31340000Y50512274D01*
X30779905Y50400864D01*
X30305079Y50083595D01*
X30070000Y49731775D01*
X29834921Y50083595D01*
X29526014Y50290000D01*
X29834921Y50496405D01*
X30152190Y50971231D01*
X30263600Y51531326D01*
X30263600Y51588674D01*
X30152190Y52148769D01*
X29834921Y52623595D01*
X29526014Y52830000D01*
X29834921Y53036405D01*
X30070000Y53388225D01*
X30305079Y53036405D01*
X30779905Y52719136D01*
X31340000Y52607726D01*
X31900095Y52719136D01*
X32374921Y53036405D01*
X32692190Y53511231D01*
X32803600Y54071326D01*
X32803600Y54128674D01*
X32692190Y54688769D01*
X32374921Y55163595D01*
X32066014Y55370000D01*
X32374921Y55576405D01*
X32692190Y56051231D01*
X32803600Y56611326D01*
X32803600Y56668674D01*
X32692190Y57228769D01*
X32374921Y57703595D01*
X31900095Y58020864D01*
X31340000Y58132274D01*
X30779905Y58020864D01*
X30305079Y57703595D01*
X30252523Y57624939D01*
X30233517Y57725946D01*
X30102110Y57930158D01*
X29901607Y58067156D01*
X29663600Y58115354D01*
X27936400Y58115354D01*
X27714054Y58073517D01*
X27509842Y57942110D01*
X27372844Y57741607D01*
X27324646Y57503600D01*
X27324646Y55776400D01*
X27366483Y55554054D01*
X27497890Y55349842D01*
X27698393Y55212844D01*
X27806132Y55191026D01*
X27765079Y55163595D01*
X27447810Y54688769D01*
X27336400Y54128674D01*
X27336400Y54071326D01*
X27375031Y53877113D01*
X26588959Y53091041D01*
X26404702Y52815281D01*
X26340000Y52490000D01*
X26340000Y51472082D01*
X25698959Y50831041D01*
X25514702Y50555281D01*
X25450000Y50230000D01*
X25450000Y49322082D01*
X23768959Y47641041D01*
X23584702Y47365281D01*
X23520000Y47040000D01*
X23520000Y44992082D01*
X22177918Y43650000D01*
X18760000Y43650000D01*
X18434719Y43585298D01*
X18158959Y43401041D01*
X16037918Y41280000D01*
X12100000Y41280000D01*
X11774719Y41215298D01*
X11498959Y41031041D01*
X10915367Y40447449D01*
X10554286Y40298253D01*
X10272736Y40017194D01*
X10120174Y39649785D01*
X10119827Y39251960D01*
X10271747Y38884286D01*
X10465694Y38690000D01*
X10340000Y38690000D01*
X9919048Y38606267D01*
X9562182Y38367817D01*
X8422183Y37227817D01*
X8183733Y36870952D01*
X8100000Y36450000D01*
X8100000Y34596812D01*
X8040951Y34636267D01*
X7620000Y34719999D01*
X7199048Y34636267D01*
X6842182Y34397817D01*
X4532183Y32087817D01*
X4293733Y31730952D01*
X4210000Y31310000D01*
X4210000Y8840000D01*
X4293733Y8419048D01*
X4453460Y8180000D01*
X4532183Y8062183D01*
X5712183Y6882183D01*
X7752183Y4842182D01*
X8109049Y4603732D01*
X8530000Y4520000D01*
X10740000Y4520000D01*
X11160952Y4603733D01*
X11517817Y4842183D01*
X11756267Y5199048D01*
X11840000Y5620000D01*
X11836433Y5637932D01*
X12140000Y5334365D01*
X12140000Y3860000D01*
X12223733Y3439048D01*
X12462183Y3082183D01*
X12819048Y2843733D01*
X13038907Y2800000D01*
X5315635Y2800000D01*
X3480000Y4635634D01*
X3480000Y6150000D01*
X3396267Y6570952D01*
X3157817Y6927817D01*
X2800952Y7166267D01*
X2380000Y7250000D01*
X1959048Y7166267D01*
X1602183Y6927817D01*
X1363733Y6570952D01*
X1280000Y6150000D01*
X1280000Y4180000D01*
X1363733Y3759048D01*
X1448793Y3631747D01*
X1602183Y3402183D01*
X4082183Y922182D01*
X4439049Y683732D01*
X4482948Y675000D01*
X675000Y675000D01*
X675000Y54746195D01*
X5929629Y54746195D01*
X6254739Y53959371D01*
X6856205Y53356854D01*
X7642460Y53030372D01*
X8493805Y53029629D01*
X9280629Y53354739D01*
X9883146Y53956205D01*
X10207026Y54736195D01*
X18149629Y54736195D01*
X18474739Y53949371D01*
X19076205Y53346854D01*
X19862460Y53020372D01*
X20713805Y53019629D01*
X21500629Y53344739D01*
X22103146Y53946205D01*
X22429628Y54732460D01*
X22430371Y55583805D01*
X22105261Y56370629D01*
X21503795Y56973146D01*
X20717540Y57299628D01*
X19866195Y57300371D01*
X19079371Y56975261D01*
X18476854Y56373795D01*
X18150372Y55587540D01*
X18149629Y54736195D01*
X10207026Y54736195D01*
X10209628Y54742460D01*
X10210371Y55593805D01*
X9885261Y56380629D01*
X9283795Y56983146D01*
X8497540Y57309628D01*
X7646195Y57310371D01*
X6859371Y56985261D01*
X6256854Y56383795D01*
X5930372Y55597540D01*
X5929629Y54746195D01*
X675000Y54746195D01*
X675000Y60618760D01*
X27477544Y60618760D01*
X27877398Y59651039D01*
X28617145Y58910000D01*
X29584166Y58508458D01*
X30631240Y58507544D01*
X31598961Y58907398D01*
X32340000Y59647145D01*
X32741542Y60614166D01*
X32742456Y61661240D01*
X32342602Y62628961D01*
X31602855Y63370000D01*
X30635834Y63771542D01*
X29588760Y63772456D01*
X28621039Y63372602D01*
X27880000Y62632855D01*
X27478458Y61665834D01*
X27477544Y60618760D01*
X675000Y60618760D01*
X675000Y64475000D01*
X32905000Y64475000D01*
X32905000Y675000D01*
X32905000Y675000D01*
G37*
X32905000Y675000D02*
X17227048Y675000D01*
X17270952Y683733D01*
X17627817Y922183D01*
X19197817Y2492182D01*
X19403494Y2800000D01*
X19436267Y2849048D01*
X19520000Y3270000D01*
X19520000Y3358760D01*
X27482544Y3358760D01*
X27882398Y2391039D01*
X28622145Y1650000D01*
X29589166Y1248458D01*
X30636240Y1247544D01*
X31603961Y1647398D01*
X32345000Y2387145D01*
X32746542Y3354166D01*
X32747456Y4401240D01*
X32347602Y5368961D01*
X31607855Y6110000D01*
X30640834Y6511542D01*
X29593760Y6512456D01*
X28626039Y6112602D01*
X27885000Y5372855D01*
X27483458Y4405834D01*
X27482544Y3358760D01*
X19520000Y3358760D01*
X19520000Y4480000D01*
X19436267Y4900952D01*
X19197817Y5257817D01*
X18840952Y5496267D01*
X18420000Y5580000D01*
X17999048Y5496267D01*
X17642183Y5257817D01*
X17403733Y4900952D01*
X17320000Y4480000D01*
X17320000Y3725635D01*
X16394366Y2800000D01*
X13441093Y2800000D01*
X13660952Y2843733D01*
X14017817Y3082183D01*
X14256267Y3439048D01*
X14340000Y3860000D01*
X14340000Y5790000D01*
X14256267Y6210952D01*
X14131408Y6397817D01*
X14017817Y6567818D01*
X12727817Y7857817D01*
X12727816Y7857818D01*
X12370952Y8096267D01*
X11950000Y8180000D01*
X9595635Y8180000D01*
X7930000Y9845634D01*
X7930000Y15435042D01*
X7964204Y15383853D01*
X8052183Y15252183D01*
X8626400Y14677966D01*
X8626400Y14585941D01*
X8737810Y14025846D01*
X9055079Y13551020D01*
X9529905Y13233751D01*
X10090000Y13122341D01*
X10650095Y13233751D01*
X11124921Y13551020D01*
X11360000Y13902840D01*
X11595079Y13551020D01*
X12069905Y13233751D01*
X12630000Y13122341D01*
X13190095Y13233751D01*
X13664921Y13551020D01*
X13982190Y14025846D01*
X14093600Y14585941D01*
X14093600Y14954059D01*
X13982190Y15514154D01*
X13800549Y15786000D01*
X16234646Y15786000D01*
X16234646Y13754000D01*
X16276483Y13531654D01*
X16407890Y13327442D01*
X16608393Y13190444D01*
X16846400Y13142246D01*
X18573600Y13142246D01*
X18795946Y13184083D01*
X19000158Y13315490D01*
X19137156Y13515993D01*
X19185354Y13754000D01*
X19185354Y15786000D01*
X19143517Y16008346D01*
X19012110Y16212558D01*
X18811607Y16349556D01*
X18573600Y16397754D01*
X16846400Y16397754D01*
X16624054Y16355917D01*
X16419842Y16224510D01*
X16282844Y16024007D01*
X16234646Y15786000D01*
X13800549Y15786000D01*
X13664921Y15988980D01*
X13190095Y16306249D01*
X13039413Y16336221D01*
X11600000Y17775634D01*
X11600000Y28284366D01*
X13457818Y30142183D01*
X13696268Y30499049D01*
X13780000Y30920000D01*
X13780000Y35570000D01*
X13696267Y35990952D01*
X13457817Y36347817D01*
X13245025Y36490000D01*
X16913188Y36490000D01*
X16873733Y36430952D01*
X16790000Y36010000D01*
X16790000Y26750000D01*
X16873733Y26329048D01*
X17112183Y25972183D01*
X17469048Y25733733D01*
X17890000Y25650000D01*
X18310952Y25733733D01*
X18360000Y25766506D01*
X18360000Y25500000D01*
X18443733Y25079048D01*
X18682183Y24722183D01*
X19039048Y24483733D01*
X19460000Y24400000D01*
X19880952Y24483733D01*
X20080000Y24616733D01*
X20080000Y21680000D01*
X20163733Y21259048D01*
X20402183Y20902183D01*
X20759048Y20663733D01*
X21180000Y20580000D01*
X21600952Y20663733D01*
X21957817Y20902183D01*
X22196267Y21259048D01*
X22280000Y21680000D01*
X22280000Y36020000D01*
X22196267Y36440952D01*
X22163494Y36490000D01*
X25310000Y36490000D01*
X25730952Y36573733D01*
X26087817Y36812183D01*
X26326267Y37169048D01*
X26410000Y37590000D01*
X26326267Y38010952D01*
X26087817Y38367817D01*
X25730952Y38606267D01*
X25310000Y38690000D01*
X24752082Y38690000D01*
X27352495Y41290413D01*
X27447810Y40811231D01*
X27765079Y40336405D01*
X28073986Y40130000D01*
X27765079Y39923595D01*
X27447810Y39448769D01*
X27336400Y38888674D01*
X27336400Y38831326D01*
X27447810Y38271231D01*
X27765079Y37796405D01*
X28073986Y37590000D01*
X27765079Y37383595D01*
X27447810Y36908769D01*
X27336400Y36348674D01*
X27336400Y36291326D01*
X27447810Y35731231D01*
X27765079Y35256405D01*
X28073986Y35050000D01*
X27765079Y34843595D01*
X27447810Y34368769D01*
X27336400Y33808674D01*
X27336400Y33751326D01*
X27447810Y33191231D01*
X27765079Y32716405D01*
X28073986Y32510000D01*
X27765079Y32303595D01*
X27447810Y31828769D01*
X27336400Y31268674D01*
X27336400Y31211326D01*
X27447810Y30651231D01*
X27765079Y30176405D01*
X28073986Y29970000D01*
X27765079Y29763595D01*
X27447810Y29288769D01*
X27336400Y28728674D01*
X27336400Y28671326D01*
X27447810Y28111231D01*
X27765079Y27636405D01*
X28239905Y27319136D01*
X28800000Y27207726D01*
X29360095Y27319136D01*
X29834921Y27636405D01*
X30070000Y27988225D01*
X30305079Y27636405D01*
X30613986Y27430000D01*
X30305079Y27223595D01*
X29987810Y26748769D01*
X29876400Y26188674D01*
X29876400Y26131326D01*
X29987810Y25571231D01*
X30305079Y25096405D01*
X30613986Y24890000D01*
X30305079Y24683595D01*
X30070000Y24331775D01*
X29834921Y24683595D01*
X29360095Y25000864D01*
X28800000Y25112274D01*
X28239905Y25000864D01*
X27765079Y24683595D01*
X27447810Y24208769D01*
X27336400Y23648674D01*
X27336400Y23591326D01*
X27447810Y23031231D01*
X27765079Y22556405D01*
X28073986Y22350000D01*
X27765079Y22143595D01*
X27447810Y21668769D01*
X27336400Y21108674D01*
X27336400Y21051326D01*
X27447810Y20491231D01*
X27765079Y20016405D01*
X28073986Y19810000D01*
X27765079Y19603595D01*
X27447810Y19128769D01*
X27336400Y18568674D01*
X27336400Y18511326D01*
X27399261Y18195301D01*
X27219785Y18269826D01*
X26821960Y18270173D01*
X26454286Y18118253D01*
X26172736Y17837194D01*
X26020174Y17469785D01*
X26019827Y17071960D01*
X26171747Y16704286D01*
X26452806Y16422736D01*
X26820215Y16270174D01*
X27218040Y16269827D01*
X27399263Y16344707D01*
X27336400Y16028674D01*
X27336400Y15971326D01*
X27447810Y15411231D01*
X27765079Y14936405D01*
X28073986Y14730000D01*
X27765079Y14523595D01*
X27447810Y14048769D01*
X27336400Y13488674D01*
X27336400Y13431326D01*
X27447810Y12871231D01*
X27765079Y12396405D01*
X28073986Y12190000D01*
X27765079Y11983595D01*
X27447810Y11508769D01*
X27336400Y10948674D01*
X27336400Y10891326D01*
X27447810Y10331231D01*
X27765079Y9856405D01*
X28239905Y9539136D01*
X28800000Y9427726D01*
X29360095Y9539136D01*
X29834921Y9856405D01*
X30070000Y10208225D01*
X30305079Y9856405D01*
X30613986Y9650000D01*
X30305079Y9443595D01*
X29987810Y8968769D01*
X29876400Y8408674D01*
X29876400Y8351326D01*
X29987810Y7791231D01*
X30305079Y7316405D01*
X30779905Y6999136D01*
X31340000Y6887726D01*
X31900095Y6999136D01*
X32374921Y7316405D01*
X32692190Y7791231D01*
X32803600Y8351326D01*
X32803600Y8408674D01*
X32692190Y8968769D01*
X32374921Y9443595D01*
X32066014Y9650000D01*
X32374921Y9856405D01*
X32692190Y10331231D01*
X32803600Y10891326D01*
X32803600Y10948674D01*
X32692190Y11508769D01*
X32374921Y11983595D01*
X32066014Y12190000D01*
X32374921Y12396405D01*
X32692190Y12871231D01*
X32803600Y13431326D01*
X32803600Y13488674D01*
X32692190Y14048769D01*
X32374921Y14523595D01*
X31900095Y14840864D01*
X31340000Y14952274D01*
X31038974Y14892396D01*
X30870000Y15061370D01*
X30870000Y16790000D01*
X30809104Y17096147D01*
X30756620Y17174695D01*
X30779905Y17159136D01*
X31340000Y17047726D01*
X31900095Y17159136D01*
X32374921Y17476405D01*
X32692190Y17951231D01*
X32803600Y18511326D01*
X32803600Y18568674D01*
X32692190Y19128769D01*
X32374921Y19603595D01*
X31900095Y19920864D01*
X31340000Y20032274D01*
X30779905Y19920864D01*
X30305079Y19603595D01*
X30070000Y19251775D01*
X29834921Y19603595D01*
X29526014Y19810000D01*
X29834921Y20016405D01*
X30152190Y20491231D01*
X30263600Y21051326D01*
X30263600Y21108674D01*
X30152190Y21668769D01*
X29834921Y22143595D01*
X29526014Y22350000D01*
X29834921Y22556405D01*
X30070000Y22908225D01*
X30305079Y22556405D01*
X30779905Y22239136D01*
X31340000Y22127726D01*
X31900095Y22239136D01*
X32374921Y22556405D01*
X32692190Y23031231D01*
X32803600Y23591326D01*
X32803600Y23648674D01*
X32692190Y24208769D01*
X32374921Y24683595D01*
X32066014Y24890000D01*
X32374921Y25096405D01*
X32692190Y25571231D01*
X32803600Y26131326D01*
X32803600Y26188674D01*
X32692190Y26748769D01*
X32374921Y27223595D01*
X32066014Y27430000D01*
X32374921Y27636405D01*
X32692190Y28111231D01*
X32803600Y28671326D01*
X32803600Y28728674D01*
X32692190Y29288769D01*
X32374921Y29763595D01*
X32066014Y29970000D01*
X32374921Y30176405D01*
X32692190Y30651231D01*
X32803600Y31211326D01*
X32803600Y31268674D01*
X32692190Y31828769D01*
X32374921Y32303595D01*
X31900095Y32620864D01*
X31340000Y32732274D01*
X30779905Y32620864D01*
X30305079Y32303595D01*
X30070000Y31951775D01*
X29834921Y32303595D01*
X29526014Y32510000D01*
X29834921Y32716405D01*
X30152190Y33191231D01*
X30263600Y33751326D01*
X30263600Y33808674D01*
X30152190Y34368769D01*
X29834921Y34843595D01*
X29526014Y35050000D01*
X29834921Y35256405D01*
X30070000Y35608225D01*
X30305079Y35256405D01*
X30779905Y34939136D01*
X31340000Y34827726D01*
X31900095Y34939136D01*
X32374921Y35256405D01*
X32692190Y35731231D01*
X32803600Y36291326D01*
X32803600Y36348674D01*
X32692190Y36908769D01*
X32374921Y37383595D01*
X32066014Y37590000D01*
X32374921Y37796405D01*
X32692190Y38271231D01*
X32803600Y38831326D01*
X32803600Y38888674D01*
X32692190Y39448769D01*
X32374921Y39923595D01*
X31900095Y40240864D01*
X31340000Y40352274D01*
X30779905Y40240864D01*
X30305079Y39923595D01*
X30070000Y39571775D01*
X29834921Y39923595D01*
X29526014Y40130000D01*
X29834921Y40336405D01*
X30152190Y40811231D01*
X30263600Y41371326D01*
X30263600Y41428674D01*
X30152190Y41988769D01*
X29834921Y42463595D01*
X29526014Y42670000D01*
X29834921Y42876405D01*
X30070000Y43228225D01*
X30305079Y42876405D01*
X30779905Y42559136D01*
X31340000Y42447726D01*
X31900095Y42559136D01*
X32374921Y42876405D01*
X32692190Y43351231D01*
X32803600Y43911326D01*
X32803600Y43968674D01*
X32692190Y44528769D01*
X32374921Y45003595D01*
X32066014Y45210000D01*
X32374921Y45416405D01*
X32692190Y45891231D01*
X32803600Y46451326D01*
X32803600Y46508674D01*
X32692190Y47068769D01*
X32374921Y47543595D01*
X32066014Y47750000D01*
X32374921Y47956405D01*
X32692190Y48431231D01*
X32803600Y48991326D01*
X32803600Y49048674D01*
X32692190Y49608769D01*
X32374921Y50083595D01*
X31900095Y50400864D01*
X31340000Y50512274D01*
X30779905Y50400864D01*
X30305079Y50083595D01*
X30070000Y49731775D01*
X29834921Y50083595D01*
X29526014Y50290000D01*
X29834921Y50496405D01*
X30152190Y50971231D01*
X30263600Y51531326D01*
X30263600Y51588674D01*
X30152190Y52148769D01*
X29834921Y52623595D01*
X29526014Y52830000D01*
X29834921Y53036405D01*
X30070000Y53388225D01*
X30305079Y53036405D01*
X30779905Y52719136D01*
X31340000Y52607726D01*
X31900095Y52719136D01*
X32374921Y53036405D01*
X32692190Y53511231D01*
X32803600Y54071326D01*
X32803600Y54128674D01*
X32692190Y54688769D01*
X32374921Y55163595D01*
X32066014Y55370000D01*
X32374921Y55576405D01*
X32692190Y56051231D01*
X32803600Y56611326D01*
X32803600Y56668674D01*
X32692190Y57228769D01*
X32374921Y57703595D01*
X31900095Y58020864D01*
X31340000Y58132274D01*
X30779905Y58020864D01*
X30305079Y57703595D01*
X30252523Y57624939D01*
X30233517Y57725946D01*
X30102110Y57930158D01*
X29901607Y58067156D01*
X29663600Y58115354D01*
X27936400Y58115354D01*
X27714054Y58073517D01*
X27509842Y57942110D01*
X27372844Y57741607D01*
X27324646Y57503600D01*
X27324646Y55776400D01*
X27366483Y55554054D01*
X27497890Y55349842D01*
X27698393Y55212844D01*
X27806132Y55191026D01*
X27765079Y55163595D01*
X27447810Y54688769D01*
X27336400Y54128674D01*
X27336400Y54071326D01*
X27375031Y53877113D01*
X26588959Y53091041D01*
X26404702Y52815281D01*
X26340000Y52490000D01*
X26340000Y51472082D01*
X25698959Y50831041D01*
X25514702Y50555281D01*
X25450000Y50230000D01*
X25450000Y49322082D01*
X23768959Y47641041D01*
X23584702Y47365281D01*
X23520000Y47040000D01*
X23520000Y44992082D01*
X22177918Y43650000D01*
X18760000Y43650000D01*
X18434719Y43585298D01*
X18158959Y43401041D01*
X16037918Y41280000D01*
X12100000Y41280000D01*
X11774719Y41215298D01*
X11498959Y41031041D01*
X10915367Y40447449D01*
X10554286Y40298253D01*
X10272736Y40017194D01*
X10120174Y39649785D01*
X10119827Y39251960D01*
X10271747Y38884286D01*
X10465694Y38690000D01*
X10340000Y38690000D01*
X9919048Y38606267D01*
X9562182Y38367817D01*
X8422183Y37227817D01*
X8183733Y36870952D01*
X8100000Y36450000D01*
X8100000Y34596812D01*
X8040951Y34636267D01*
X7620000Y34719999D01*
X7199048Y34636267D01*
X6842182Y34397817D01*
X4532183Y32087817D01*
X4293733Y31730952D01*
X4210000Y31310000D01*
X4210000Y8840000D01*
X4293733Y8419048D01*
X4453460Y8180000D01*
X4532183Y8062183D01*
X5712183Y6882183D01*
X7752183Y4842182D01*
X8109049Y4603732D01*
X8530000Y4520000D01*
X10740000Y4520000D01*
X11160952Y4603733D01*
X11517817Y4842183D01*
X11756267Y5199048D01*
X11840000Y5620000D01*
X11836433Y5637932D01*
X12140000Y5334365D01*
X12140000Y3860000D01*
X12223733Y3439048D01*
X12462183Y3082183D01*
X12819048Y2843733D01*
X13038907Y2800000D01*
X5315635Y2800000D01*
X3480000Y4635634D01*
X3480000Y6150000D01*
X3396267Y6570952D01*
X3157817Y6927817D01*
X2800952Y7166267D01*
X2380000Y7250000D01*
X1959048Y7166267D01*
X1602183Y6927817D01*
X1363733Y6570952D01*
X1280000Y6150000D01*
X1280000Y4180000D01*
X1363733Y3759048D01*
X1448793Y3631747D01*
X1602183Y3402183D01*
X4082183Y922182D01*
X4439049Y683732D01*
X4482948Y675000D01*
X675000Y675000D01*
X675000Y54746195D01*
X5929629Y54746195D01*
X6254739Y53959371D01*
X6856205Y53356854D01*
X7642460Y53030372D01*
X8493805Y53029629D01*
X9280629Y53354739D01*
X9883146Y53956205D01*
X10207026Y54736195D01*
X18149629Y54736195D01*
X18474739Y53949371D01*
X19076205Y53346854D01*
X19862460Y53020372D01*
X20713805Y53019629D01*
X21500629Y53344739D01*
X22103146Y53946205D01*
X22429628Y54732460D01*
X22430371Y55583805D01*
X22105261Y56370629D01*
X21503795Y56973146D01*
X20717540Y57299628D01*
X19866195Y57300371D01*
X19079371Y56975261D01*
X18476854Y56373795D01*
X18150372Y55587540D01*
X18149629Y54736195D01*
X10207026Y54736195D01*
X10209628Y54742460D01*
X10210371Y55593805D01*
X9885261Y56380629D01*
X9283795Y56983146D01*
X8497540Y57309628D01*
X7646195Y57310371D01*
X6859371Y56985261D01*
X6256854Y56383795D01*
X5930372Y55597540D01*
X5929629Y54746195D01*
X675000Y54746195D01*
X675000Y60618760D01*
X27477544Y60618760D01*
X27877398Y59651039D01*
X28617145Y58910000D01*
X29584166Y58508458D01*
X30631240Y58507544D01*
X31598961Y58907398D01*
X32340000Y59647145D01*
X32741542Y60614166D01*
X32742456Y61661240D01*
X32342602Y62628961D01*
X31602855Y63370000D01*
X30635834Y63771542D01*
X29588760Y63772456D01*
X28621039Y63372602D01*
X27880000Y62632855D01*
X27478458Y61665834D01*
X27477544Y60618760D01*
X675000Y60618760D01*
X675000Y64475000D01*
X32905000Y64475000D01*
X32905000Y675000D01*
G36*
X29876400Y46508674D02*
X29876400Y46451326D01*
X29926763Y46198134D01*
X29738630Y46010000D01*
X27871369Y46010000D01*
X27620000Y46060000D01*
X27294719Y45995298D01*
X27020000Y45811737D01*
X27020000Y45897918D01*
X28072082Y46950000D01*
X29964185Y46950000D01*
X29876400Y46508674D01*
X29876400Y46508674D01*
G37*
X29876400Y46508674D02*
X29876400Y46451326D01*
X29926763Y46198134D01*
X29738630Y46010000D01*
X27871369Y46010000D01*
X27620000Y46060000D01*
X27294719Y45995298D01*
X27020000Y45811737D01*
X27020000Y45897918D01*
X28072082Y46950000D01*
X29964185Y46950000D01*
X29876400Y46508674D01*
M02*
