G04 #@! TF.FileFunction,Soldermask,Top*
%FSLAX46Y46*%
G04 Gerber Fmt 4.6, Leading zero omitted, Abs format (unit mm)*
G04 Created by KiCad (PCBNEW 4.0.0-rc1-stable) date 24.2.2017 9:52:48*
%MOMM*%
G01*
G04 APERTURE LIST*
%ADD10C,0.100000*%
%ADD11R,2.127200X2.127200*%
%ADD12O,2.127200X2.127200*%
%ADD13C,4.464000*%
%ADD14R,1.300000X1.600000*%
%ADD15R,1.650000X1.900000*%
%ADD16R,1.600000X1.300000*%
%ADD17R,1.900000X1.650000*%
%ADD18R,1.416000X2.362000*%
%ADD19R,2.362000X1.416000*%
%ADD20R,1.450000X1.000000*%
%ADD21R,1.200000X0.750000*%
%ADD22O,3.800000X2.600000*%
%ADD23R,2.127200X2.432000*%
%ADD24O,2.127200X2.432000*%
%ADD25C,3.480000*%
%ADD26R,2.686000X5.480000*%
%ADD27R,2.813000X5.480000*%
G04 APERTURE END LIST*
D10*
D11*
X28800000Y56640000D03*
D12*
X31340000Y56640000D03*
X28800000Y54100000D03*
X31340000Y54100000D03*
X28800000Y51560000D03*
X31340000Y51560000D03*
X28800000Y49020000D03*
X31340000Y49020000D03*
X28800000Y46480000D03*
X31340000Y46480000D03*
X28800000Y43940000D03*
X31340000Y43940000D03*
X28800000Y41400000D03*
X31340000Y41400000D03*
X28800000Y38860000D03*
X31340000Y38860000D03*
X28800000Y36320000D03*
X31340000Y36320000D03*
X28800000Y33780000D03*
X31340000Y33780000D03*
X28800000Y31240000D03*
X31340000Y31240000D03*
X28800000Y28700000D03*
X31340000Y28700000D03*
X28800000Y26160000D03*
X31340000Y26160000D03*
X28800000Y23620000D03*
X31340000Y23620000D03*
X28800000Y21080000D03*
X31340000Y21080000D03*
X28800000Y18540000D03*
X31340000Y18540000D03*
X28800000Y16000000D03*
X31340000Y16000000D03*
X28800000Y13460000D03*
X31340000Y13460000D03*
X28800000Y10920000D03*
X31340000Y10920000D03*
X28800000Y8380000D03*
X31340000Y8380000D03*
D13*
X30115000Y3880000D03*
X30110000Y61140000D03*
D14*
X2030000Y33420000D03*
X2030000Y31220000D03*
X25970000Y33110000D03*
X25970000Y30910000D03*
X22110000Y7070000D03*
X22110000Y9270000D03*
D15*
X25010000Y7120000D03*
X25010000Y9620000D03*
D16*
X15300000Y8130000D03*
X13100000Y8130000D03*
X15300000Y10410000D03*
X13100000Y10410000D03*
D14*
X19210000Y7070000D03*
X19210000Y9270000D03*
D17*
X18420000Y2330000D03*
X15920000Y2330000D03*
D16*
X3870000Y1750000D03*
X6070000Y1750000D03*
X3870000Y4270000D03*
X6070000Y4270000D03*
X8550000Y1750000D03*
X10750000Y1750000D03*
D14*
X5030000Y7780000D03*
X5030000Y9980000D03*
X2380000Y7780000D03*
X2380000Y9980000D03*
X2030000Y36000000D03*
X2030000Y38200000D03*
D16*
X8550000Y4270000D03*
X10750000Y4270000D03*
D18*
X18010000Y44759000D03*
X10390000Y44759000D03*
X11660000Y44759000D03*
X16740000Y44759000D03*
X15470000Y44759000D03*
X14200000Y44759000D03*
X12930000Y44759000D03*
D19*
X23309000Y20410000D03*
X23309000Y21680000D03*
X23309000Y22950000D03*
X23309000Y24220000D03*
X23309000Y25490000D03*
X23309000Y26760000D03*
X23309000Y28030000D03*
X23309000Y29300000D03*
X23309000Y30570000D03*
X23309000Y31840000D03*
X23309000Y33110000D03*
X23309000Y34380000D03*
X23309000Y35650000D03*
X23309000Y36920000D03*
X23309000Y38190000D03*
X23309000Y39460000D03*
X23309000Y40730000D03*
X23309000Y42000000D03*
X23309000Y19140000D03*
X23309000Y43270000D03*
X5091000Y43270000D03*
X5091000Y42000000D03*
X5091000Y40730000D03*
X5091000Y39460000D03*
X5091000Y38190000D03*
X5091000Y36920000D03*
X5091000Y35650000D03*
X5091000Y34380000D03*
X5091000Y33110000D03*
X5091000Y31840000D03*
X5091000Y30570000D03*
X5091000Y29300000D03*
X5091000Y28030000D03*
X5091000Y26760000D03*
X5091000Y25490000D03*
X5091000Y24220000D03*
X5091000Y22950000D03*
X5091000Y21680000D03*
X5091000Y20410000D03*
X5091000Y19140000D03*
D20*
X21110000Y4320000D03*
X21110000Y2420000D03*
X23810000Y2420000D03*
X23810000Y4320000D03*
X23810000Y3370000D03*
D21*
X10595000Y10675000D03*
X10595000Y10025000D03*
X10595000Y9375000D03*
X10595000Y8725000D03*
X8245000Y8725000D03*
X8245000Y9375000D03*
X8245000Y10675000D03*
X8245000Y10025000D03*
D22*
X2510000Y15320000D03*
D23*
X17710000Y14770000D03*
D24*
X15170000Y14770000D03*
X12630000Y14770000D03*
X10090000Y14770000D03*
D22*
X25310000Y15320000D03*
D25*
X20290000Y55160000D03*
X22830000Y52610000D03*
X17750000Y52610000D03*
X22830000Y57710000D03*
D26*
X20290000Y62160000D03*
D27*
X24690000Y62160000D03*
X15890000Y62160000D03*
D25*
X17750000Y57710000D03*
X8070000Y55170000D03*
X10610000Y52620000D03*
X5530000Y52620000D03*
X10610000Y57720000D03*
D26*
X8070000Y62170000D03*
D27*
X12470000Y62170000D03*
X3670000Y62170000D03*
D25*
X5530000Y57720000D03*
M02*
