M48
;DRILL file {KiCad 4.0.0-rc1-stable} date 3.2.2017 11:58:14
;FORMAT={2:4/ absolute / inch / suppress leading zeros}
FMAT,2
INCH,TZ
T1C0.016
T2C0.040
T3C0.061
T4C0.083
T5C0.125
%
G90
G05
M72
T1
X799Y10539
X937Y2421
X984Y689
X1276Y7535
X1339Y17035
X2512Y19787
X2831Y19469
X3000Y13236
X3031Y14740
X3189Y19110
X3516Y18783
X3807Y18492
X4083Y18217
X4228Y2213
X4378Y15531
X4382Y14004
X4661Y3689
X4689Y19756
X4969Y19476
X4992Y15528
X4992Y14004
X5213Y1520
X5232Y11094
X5236Y9980
X5236Y9067
X5280Y19165
X5591Y18854
X5669Y12291
X5689Y13791
X5894Y19157
X6047Y11055
X6118Y1764
X6205Y13791
X6205Y9976
X6205Y9063
X6209Y12283
X6213Y19480
X6531Y19799
X7031Y8173
X7043Y15445
X7043Y14177
X7043Y10531
X7252Y1764
X7268Y18299
X7539Y18571
X7661Y15453
X7661Y14177
X7661Y10039
X7831Y18862
X7894Y7220
X8130Y19161
X8146Y3803
X8339Y15453
X8339Y14181
X8339Y8535
X8394Y19425
X8441Y5213
X8484Y6406
X8701Y19732
X8929Y1327
X9240Y4449
X9965Y14799
X9965Y11035
X10484Y3795
X10638Y6799
T2
X3972Y5815
X4972Y5815
X5972Y5815
X6972Y5815
X11339Y22299
X11339Y21299
X11339Y20299
X11339Y19299
X11339Y18299
X11339Y17299
X11339Y16299
X11339Y15299
X11339Y14299
X11339Y13299
X11339Y12299
X11339Y11299
X11339Y10299
X11339Y9299
X11339Y8299
X11339Y7299
X11339Y6299
X11339Y5299
X11339Y4299
X11339Y3299
X12339Y22299
X12339Y21299
X12339Y20299
X12339Y19299
X12339Y18299
X12339Y17299
X12339Y16299
X12339Y15299
X12339Y14299
X12339Y13299
X12339Y12299
X12339Y11299
X12339Y10299
X12339Y9299
X12339Y8299
X12339Y7299
X12339Y6299
X12339Y5299
X12339Y4299
X12339Y3299
T3
X2177Y22724
X2177Y20717
X3177Y21720
X4177Y22724
X4177Y20717
X6988Y22720
X6988Y20713
X7988Y21717
X8988Y22720
X8988Y20713
T5
X11854Y24071
X11856Y1528
T4
X1224Y6031G85X752Y6031
G05
X10201Y6031G85X9728Y6031
G05
T0
M30
