G04 #@! TF.FileFunction,Soldermask,Bot*
%FSLAX46Y46*%
G04 Gerber Fmt 4.6, Leading zero omitted, Abs format (unit mm)*
G04 Created by KiCad (PCBNEW 4.0.0-rc1-stable) date 24.2.2017 20:34:00*
%MOMM*%
G01*
G04 APERTURE LIST*
%ADD10C,0.100000*%
%ADD11C,3.600000*%
%ADD12C,1.906220*%
%ADD13R,2.100000X2.100000*%
%ADD14O,2.100000X2.100000*%
%ADD15C,5.000000*%
%ADD16O,1.900000X2.400000*%
%ADD17C,2.000000*%
%ADD18R,2.000000X2.000000*%
%ADD19O,1.700000X2.900000*%
%ADD20C,1.700000*%
%ADD21R,2.127200X2.127200*%
%ADD22O,2.127200X2.127200*%
G04 APERTURE END LIST*
D10*
D11*
X121790460Y124650500D03*
X121790460Y4000500D03*
X46809660Y4000500D03*
X46809660Y124650500D03*
X3980180Y87596980D03*
X4051300Y27637740D03*
D12*
X113030000Y24206200D03*
X113030000Y26746200D03*
X100330000Y24206200D03*
X100330000Y26746200D03*
X102870000Y24206200D03*
X102870000Y26746200D03*
X105410000Y24206200D03*
X105410000Y26746200D03*
X107950000Y24206200D03*
X107950000Y26746200D03*
X110490000Y24206200D03*
X110490000Y26746200D03*
D13*
X63969900Y19431000D03*
D14*
X66509900Y19431000D03*
D13*
X34404300Y17907000D03*
D14*
X36944300Y17907000D03*
D13*
X89781380Y19286220D03*
D14*
X87241380Y19286220D03*
D13*
X122034300Y15773400D03*
D14*
X119494300Y15773400D03*
D13*
X63830200Y108610400D03*
D14*
X61290200Y108610400D03*
D13*
X63863220Y100197920D03*
D14*
X61323220Y100197920D03*
D13*
X63832740Y96103440D03*
D14*
X61292740Y96103440D03*
D13*
X106433620Y47622460D03*
D14*
X103893620Y47622460D03*
D13*
X106436160Y51899820D03*
D14*
X103896160Y51899820D03*
D13*
X63804800Y104368600D03*
D14*
X61264800Y104368600D03*
D15*
X97309800Y10596900D03*
X110309800Y10596900D03*
D16*
X107309800Y13296900D03*
X100309800Y13296900D03*
X104809800Y13296900D03*
X102809800Y13296900D03*
D15*
X77794980Y10652780D03*
X90794980Y10652780D03*
D16*
X87794980Y13352780D03*
X80794980Y13352780D03*
X85294980Y13352780D03*
X83294980Y13352780D03*
D15*
X58414780Y10718820D03*
X71414780Y10718820D03*
D16*
X68414780Y13418820D03*
X61414780Y13418820D03*
X65914780Y13418820D03*
X63914780Y13418820D03*
D13*
X47673260Y16553180D03*
D14*
X50213260Y16553180D03*
D17*
X90741500Y103301800D03*
D18*
X90741500Y105841800D03*
D17*
X90741500Y108381800D03*
D18*
X90741500Y110921800D03*
D17*
X90741500Y116001800D03*
D18*
X90741500Y118541800D03*
D17*
X90741500Y121081800D03*
D18*
X90741500Y123621800D03*
D12*
X119621300Y69024500D03*
X122161300Y69024500D03*
X119621300Y66484500D03*
X122161300Y66484500D03*
X119621300Y63944500D03*
X122161300Y63944500D03*
X119621300Y61404500D03*
X122161300Y61404500D03*
X119621300Y58864500D03*
X122161300Y58864500D03*
D19*
X66370720Y115204240D03*
X64370720Y115204240D03*
X62370720Y115204240D03*
X60370720Y115204240D03*
X66388500Y122664220D03*
X64388500Y122664220D03*
X62388500Y122664220D03*
X60388500Y122664220D03*
D18*
X104697560Y72147440D03*
D17*
X102157560Y72147440D03*
X99617560Y72147440D03*
X97077560Y72147440D03*
X94537560Y72147440D03*
X79297560Y72147440D03*
X81837560Y72147440D03*
X84377560Y72147440D03*
X86917560Y72147440D03*
X89457560Y72147440D03*
X91997560Y72147440D03*
X10909300Y74866500D03*
X13449300Y74866500D03*
X15989300Y74866500D03*
X18529300Y74866500D03*
X21069300Y74866500D03*
X23609300Y74866500D03*
X26149300Y74866500D03*
X28689300Y74866500D03*
X31229300Y74866500D03*
X33769300Y74866500D03*
X36309300Y74866500D03*
X38849300Y74866500D03*
X41389300Y74866500D03*
X43929300Y74866500D03*
X46469300Y74866500D03*
X49009300Y74866500D03*
X51549300Y74866500D03*
D18*
X54089300Y74866500D03*
D17*
X37925900Y42011600D03*
X40465900Y42011600D03*
X43005900Y42011600D03*
X45545900Y42011600D03*
X48085900Y42011600D03*
X15975900Y42011600D03*
X18515900Y42011600D03*
X21055900Y42011600D03*
X23595900Y42011600D03*
X26135900Y42011600D03*
X28675900Y42011600D03*
X31215900Y42011600D03*
X33755900Y42011600D03*
D18*
X50625900Y42011600D03*
D20*
X33409500Y119594800D03*
D21*
X59169300Y68262500D03*
D22*
X59169300Y65722500D03*
X56629300Y68262500D03*
X56629300Y65722500D03*
X54089300Y68262500D03*
X54089300Y65722500D03*
X51549300Y68262500D03*
X51549300Y65722500D03*
X49009300Y68262500D03*
X49009300Y65722500D03*
X46469300Y68262500D03*
X46469300Y65722500D03*
X43929300Y68262500D03*
X43929300Y65722500D03*
X41389300Y68262500D03*
X41389300Y65722500D03*
X38849300Y68262500D03*
X38849300Y65722500D03*
X36309300Y68262500D03*
X36309300Y65722500D03*
X33769300Y68262500D03*
X33769300Y65722500D03*
X31229300Y68262500D03*
X31229300Y65722500D03*
X28689300Y68262500D03*
X28689300Y65722500D03*
X26149300Y68262500D03*
X26149300Y65722500D03*
X23609300Y68262500D03*
X23609300Y65722500D03*
X21069300Y68262500D03*
X21069300Y65722500D03*
X18529300Y68262500D03*
X18529300Y65722500D03*
X15989300Y68262500D03*
X15989300Y65722500D03*
X13449300Y68262500D03*
X13449300Y65722500D03*
X10909300Y68262500D03*
X10909300Y65722500D03*
D13*
X115928140Y35295840D03*
D14*
X113388140Y35295840D03*
X110848140Y35295840D03*
D13*
X110863380Y38755320D03*
D14*
X113403380Y38755320D03*
X115943380Y38755320D03*
D13*
X102108000Y38567360D03*
D14*
X99568000Y38567360D03*
X97028000Y38567360D03*
D13*
X97058480Y35212020D03*
D14*
X99598480Y35212020D03*
X102138480Y35212020D03*
D13*
X31219140Y4655820D03*
D14*
X33759140Y4655820D03*
X36299140Y4655820D03*
D13*
X36263580Y8008620D03*
D14*
X33723580Y8008620D03*
X31183580Y8008620D03*
D13*
X88591420Y84462620D03*
D14*
X91131420Y84462620D03*
X93671420Y84462620D03*
X96211420Y84462620D03*
X98751420Y84462620D03*
M02*
