M48
;DRILL file {KiCad 4.0.0-rc1-stable} date 10.2.2017 8:52:06
;FORMAT={2:4/ absolute / inch / suppress leading zeros}
FMAT,2
INCH,TZ
T1C0.016
T2C0.031
T3C0.035
T4C0.036
T5C0.039
T6C0.039
T7C0.040
T8C0.047
T9C0.091
T10C0.126
%
G90
G05
M72
T1
X1919Y40109
X4059Y34437
X4059Y30600
X4539Y37261
X4551Y30597
X5089Y30594
X5239Y23365
X5239Y22815
X5242Y21735
X5247Y22275
X5639Y33655
X6045Y19185
X6223Y12191
X6384Y35184
X6807Y32021
X7629Y36087
X8311Y32989
X8583Y36534
X9177Y37227
X9677Y36969
X9687Y33441
X9915Y44220
X10177Y38637
X10200Y31935
X10593Y42246
X10597Y41782
X10608Y41328
X10677Y37497
X11178Y39019
X11511Y44685
X11688Y39459
X11785Y30159
X11794Y30631
X12495Y48623
X12685Y4779
X12831Y40740
X12831Y36803
X12999Y12631
X13347Y4683
X13831Y40741
X13831Y36811
X14337Y36633
X14439Y48421
X14831Y38637
X14832Y40743
X14895Y42765
X15331Y37476
X15333Y39459
X15831Y38659
X15927Y44193
X16103Y42389
X16323Y36771
X16503Y44197
X16635Y30990
X16937Y22619
X17103Y44309
X17415Y13440
X17497Y38277
X17967Y38277
X18558Y41430
X18684Y44302
X18738Y47061
X19284Y42490
X19296Y37726
X19299Y39325
X19301Y40655
X19409Y44797
X19533Y22619
X19737Y32205
X20110Y41815
X20122Y38411
X20125Y39985
X20421Y45016
X20641Y30389
X20643Y32217
X20956Y40842
X20959Y49533
X21695Y48773
X21733Y37363
X21816Y39857
X21852Y35730
X22161Y35325
X22293Y38409
X22518Y35070
X22593Y43060
X22671Y38712
X22875Y36303
X22878Y34752
X22959Y33213
X22983Y33771
X22983Y17061
X22987Y34255
X23031Y32685
X23034Y32178
X23103Y46840
X23149Y46307
X23403Y42527
X23547Y17064
X23548Y29259
X23581Y10673
X24183Y29811
X24565Y46840
X24795Y33213
X24799Y33773
X24831Y49197
X25095Y16290
X25185Y12300
X25639Y16861
X25735Y42025
X25929Y38178
X26046Y38736
X26159Y15805
X26331Y10739
X26421Y31479
X26471Y32109
X26514Y34150
X26514Y33673
X26575Y16573
X26721Y36225
X26739Y33207
X26799Y44841
X26820Y12795
X27255Y23025
X27411Y37776
X27599Y30338
X27717Y5595
X28256Y47171
X28267Y27019
X28395Y45493
X28543Y9490
X28545Y8003
X28545Y6663
X28827Y35595
X28926Y46165
X29322Y10956
X29371Y7353
X29431Y44841
X29640Y48300
X29742Y35595
X29857Y13135
X29904Y39186
X29981Y43663
X30199Y10525
X30341Y13625
X30591Y43161
X30657Y10005
X31153Y42615
X31225Y21861
X31239Y10989
X31275Y48300
X31677Y42034
X32010Y12684
X32449Y39631
X32650Y12232
X33318Y12069
X33399Y31701
X33435Y40905
X33879Y11389
X34087Y36171
X34087Y33057
X34519Y9369
X34896Y9771
X35023Y11056
X35055Y11553
X35055Y10637
X35061Y12669
X35061Y12099
X35165Y10187
X35523Y19291
X35572Y13434
X35725Y40670
X35955Y32436
X36057Y6789
X36081Y20286
X36424Y18560
X36455Y19953
X36508Y21861
X36543Y14157
X36544Y6475
X36567Y14739
X36615Y35597
X36803Y39199
X36836Y16503
X37147Y35320
X37318Y39514
X37328Y40154
X37359Y6437
X37367Y12325
X37371Y19253
X37707Y35253
X37768Y47668
X37771Y9958
X37849Y36828
X37851Y41601
X37903Y26623
X37947Y28823
X38111Y12333
X38178Y48024
X38236Y35055
X38303Y6421
X38361Y21747
X38362Y20110
X38452Y48573
X38466Y38457
X38475Y38961
X38796Y43962
X38796Y20535
X38799Y21741
X38902Y46021
X38902Y45535
X38904Y46572
X39009Y38433
X39075Y40336
X39330Y37968
X39423Y37029
X39487Y40336
X39897Y49347
X39897Y47181
X40476Y6825
X40536Y49374
X40599Y25578
X40722Y47217
X40923Y14574
X41263Y6825
X41324Y12532
X41445Y43333
X41550Y45537
X41647Y47153
X41691Y39753
X41694Y39288
X41697Y38817
X41697Y38376
X41778Y25578
X41896Y41847
X41904Y19611
X41940Y14505
X41945Y36953
X42313Y24466
X42367Y25191
X42447Y43293
X42560Y35507
X42633Y12521
X42895Y15845
X42927Y24077
X42933Y36489
X42945Y43295
X43167Y39735
X43402Y26289
X43425Y40846
X43569Y24070
X43743Y21629
X43887Y47127
X43927Y26775
X43947Y43299
X44087Y12621
X44196Y16254
X44229Y21186
X44446Y43294
X44454Y36894
X44481Y36065
X44524Y30010
X44619Y3015
X44907Y24807
X44914Y3312
X44967Y29631
X45327Y12037
X45405Y24817
X45647Y16853
X45663Y5024
X45663Y3647
X45679Y10757
X45918Y34254
X45955Y45708
X46343Y16845
X46399Y34741
X46444Y45121
X46485Y4335
T2
X4295Y29475
X5295Y29475
X6290Y16540
X6295Y29475
X6895Y46886
X7290Y16540
X7295Y29475
X7895Y46886
X8290Y16540
X8295Y29475
X8895Y46886
X9290Y16540
X9295Y29475
X9895Y46886
X10290Y16540
X10295Y29475
X10895Y46886
X11290Y16540
X11295Y29475
X11895Y46886
X12290Y16540
X12295Y29475
X12895Y46886
X13290Y16540
X13295Y29475
X13895Y46886
X14295Y29475
X14895Y46886
X14931Y16540
X15295Y29475
X15895Y46886
X15931Y16540
X16295Y29475
X16895Y46886
X16931Y16540
X17295Y29475
X17931Y16540
X18295Y29475
X18931Y16540
X19295Y29475
X19931Y16540
X20295Y29475
X21295Y29475
X35725Y48670
X35725Y47670
X35725Y46670
X35725Y45670
X35725Y43670
X35725Y42670
X35725Y41670
X35725Y40670
T3
X23768Y45356
X23775Y48293
X24555Y45356
X24562Y48293
X25343Y45356
X25350Y48293
X26130Y45356
X26137Y48293
T4
X24179Y5283
X25163Y5283
X25951Y5283
X26935Y5283
X31809Y5257
X32793Y5257
X33581Y5257
X34565Y5257
X39492Y5235
X40476Y5235
X41264Y5235
X42248Y5235
T5
X39500Y10530
X39500Y9530
X40500Y10530
X40500Y9530
X41500Y10530
X41500Y9530
X42500Y10530
X42500Y9530
X43500Y10530
X43500Y9530
X44500Y10530
X44500Y9530
X47095Y27175
X47095Y26175
X47095Y25175
X47095Y24175
X47095Y23175
X48095Y27175
X48095Y26175
X48095Y25175
X48095Y24175
X48095Y23175
T6
X12277Y3153
X12291Y1833
X13277Y3153
X13291Y1833
X13545Y7050
X14277Y3153
X14291Y1833
X14545Y7050
X18769Y6517
X19769Y6517
X24120Y41090
X24130Y42760
X24131Y37836
X24143Y39448
X25120Y41090
X25130Y42760
X25131Y37836
X25143Y39448
X25185Y7650
X26185Y7650
X34347Y7593
X35347Y7593
X38200Y15184
X38212Y13863
X39200Y15184
X39212Y13863
X40200Y15184
X40212Y13863
X40903Y18749
X40904Y20433
X41903Y18749
X41904Y20433
X43641Y13896
X43647Y15258
X44641Y13896
X44647Y15258
X45641Y13896
X45647Y15258
X47045Y6210
X48045Y6210
T7
X4295Y26875
X4295Y25875
X5295Y26875
X5295Y25875
X6295Y26875
X6295Y25875
X7295Y26875
X7295Y25875
X8295Y26875
X8295Y25875
X9295Y26875
X9295Y25875
X10295Y26875
X10295Y25875
X11295Y26875
X11295Y25875
X12295Y26875
X12295Y25875
X13295Y26875
X13295Y25875
X14295Y26875
X14295Y25875
X15295Y26875
X15295Y25875
X16295Y26875
X16295Y25875
X17295Y26875
X17295Y25875
X18295Y26875
X18295Y25875
X19295Y26875
X19295Y25875
X20295Y26875
X20295Y25875
X21295Y26875
X21295Y25875
X22295Y26875
X22295Y25875
X23295Y26875
X23295Y25875
T8
X38113Y31273
T9
X22998Y4220
X28116Y4220
X30628Y4194
X35746Y4194
X38311Y4172
X43429Y4172
T10
X1567Y34487
X1595Y10881
X18429Y49075
X18429Y1575
X47949Y49075
X47949Y1575
T0
M30
