M48
;DRILL file {KiCad 4.0.0-rc1-stable} date 24.2.2017 20:34:04
;FORMAT={2:4/ absolute / inch / suppress leading zeros}
FMAT,2
INCH,TZ
T1C0.016
T2C0.031
T3C0.035
T4C0.036
T5C0.039
T6C0.039
T7C0.040
T8C0.047
T9C0.091
T10C0.126
%
G90
G05
M72
T1
X2526Y28404
X3023Y31173
X3503Y30421
X4245Y28155
X4539Y37261
X4859Y31056
X5433Y28275
X5760Y34170
X6031Y33605
X6045Y19185
X6223Y12191
X6384Y35184
X6495Y28275
X6553Y31045
X6575Y32211
X6599Y40999
X7143Y38031
X7389Y21321
X7709Y37291
X7724Y48087
X7725Y49896
X8313Y35889
X8345Y40999
X8643Y32565
X8715Y44117
X8799Y30073
X9177Y39165
X9193Y44113
X9675Y38913
X9677Y36969
X9681Y32907
X9687Y33441
X9792Y30111
X10176Y40821
X10177Y38637
X10315Y35621
X10326Y31089
X10557Y21233
X10668Y48243
X10677Y37497
X10836Y47650
X11177Y40767
X11178Y39019
X11331Y23489
X11688Y39459
X11751Y42111
X11753Y40990
X11766Y42813
X11809Y23491
X12295Y23493
X12335Y36277
X12345Y30708
X12685Y4779
X12793Y23497
X12831Y40825
X12999Y12631
X13347Y4683
X13383Y42111
X13831Y40741
X13935Y28275
X14216Y35266
X14331Y40701
X14337Y36633
X14394Y18303
X14751Y35265
X14751Y33733
X14831Y38637
X14931Y18454
X15099Y31557
X15331Y37476
X15333Y39459
X15405Y18867
X15831Y39255
X15831Y38659
X15958Y28625
X16323Y36771
X16596Y40947
X16635Y30990
X17415Y13440
X17445Y40767
X17463Y39924
X17760Y21210
X17823Y45189
X17933Y17970
X18018Y40986
X18091Y39795
X18185Y38506
X18558Y41430
X18744Y39198
X18932Y18454
X19284Y42490
X19296Y37726
X19301Y40655
X19409Y46608
X19410Y44604
X19737Y32205
X19932Y18870
X19935Y22545
X20110Y41815
X20111Y44599
X20122Y38411
X20125Y39985
X20420Y44980
X20641Y30389
X20643Y32217
X20715Y21510
X20956Y40842
X20967Y13965
X21387Y14373
X21458Y18373
X21733Y37363
X21816Y39857
X22161Y35325
X22173Y45837
X22227Y45357
X22233Y44925
X22293Y38409
X22518Y35070
X22671Y38712
X22869Y36835
X22878Y34752
X22905Y43069
X22983Y15942
X22987Y34255
X22989Y33735
X23031Y32685
X23034Y32178
X23217Y11715
X23244Y46332
X23403Y42527
X23548Y15944
X23548Y29259
X23581Y10673
X24537Y36093
X24831Y33735
X25065Y13617
X25095Y16290
X25110Y18405
X25185Y12300
X25641Y36189
X25735Y42025
X25875Y29551
X25929Y38178
X26046Y38736
X26159Y15805
X26331Y10739
X26471Y32109
X26487Y29074
X26514Y34150
X26514Y33673
X26672Y46152
X26721Y36225
X26739Y33207
X26799Y44841
X26820Y12795
X27300Y18405
X27411Y37776
X27690Y48240
X27717Y5595
X27785Y34149
X27785Y32239
X28113Y20463
X28214Y32241
X28215Y33678
X28395Y45493
X28543Y9490
X28545Y8003
X28545Y6663
X28711Y32669
X28827Y35595
X28926Y46165
X29313Y21861
X29371Y7353
X29431Y44841
X29721Y10950
X29904Y39186
X29981Y43663
X30199Y10525
X30341Y13625
X30591Y43161
X30657Y10521
X30780Y48225
X31153Y42615
X31677Y42034
X32010Y12684
X32449Y39631
X32650Y12232
X32899Y44269
X33318Y12069
X33372Y38739
X33651Y19293
X33879Y11389
X33903Y35595
X33906Y33663
X34519Y9369
X34530Y18540
X34896Y9771
X35023Y11056
X35055Y11553
X35055Y10637
X35061Y12669
X35061Y12099
X35165Y10187
X35547Y19299
X35572Y13434
X35725Y40670
X36051Y20409
X36057Y6789
X36424Y18560
X36455Y19953
X36508Y21861
X36543Y14157
X36544Y6475
X36567Y14739
X36615Y35597
X36803Y39199
X36836Y16503
X37147Y35320
X37188Y23884
X37318Y39514
X37328Y40154
X37359Y6437
X37367Y12325
X37371Y19253
X37707Y35253
X37768Y47668
X37771Y9958
X37849Y36828
X37851Y41601
X38111Y12333
X38178Y48024
X38236Y35055
X38303Y6421
X38361Y21747
X38362Y20110
X38452Y48573
X38466Y38457
X38475Y38961
X38796Y43962
X38902Y46021
X38902Y45535
X38929Y46478
X39009Y38433
X39075Y40336
X39330Y37968
X39423Y37029
X39487Y40336
X39897Y49347
X39897Y47181
X40159Y25509
X40476Y6825
X40536Y49374
X40722Y47217
X40923Y14574
X41220Y30739
X41263Y6825
X41324Y12532
X41445Y43333
X41550Y45537
X41647Y47153
X41691Y39753
X41694Y39288
X41697Y38817
X41697Y38376
X41896Y41847
X41904Y19611
X41940Y14505
X41945Y36953
X42367Y25191
X42447Y43293
X42560Y35507
X42633Y12521
X42872Y30739
X42895Y15845
X42927Y24077
X42933Y36489
X42945Y43295
X43167Y39735
X43402Y26289
X43425Y40846
X43569Y24070
X43743Y21629
X43887Y47127
X43927Y26775
X43947Y43299
X44087Y12621
X44196Y16254
X44229Y21186
X44446Y43294
X44454Y36894
X44481Y36065
X44524Y30010
X44619Y3015
X44907Y24807
X44914Y3312
X45327Y12037
X45351Y46477
X45405Y24817
X45647Y16853
X45663Y5024
X45663Y3647
X45679Y10757
X45918Y34254
X46343Y16845
X46399Y34741
X46444Y45121
X46485Y4335
X48405Y36825
T2
X4295Y29475
X5295Y29475
X6290Y16540
X6295Y29475
X7290Y16540
X7295Y29475
X8290Y16540
X8295Y29475
X9290Y16540
X9295Y29475
X10290Y16540
X10295Y29475
X11290Y16540
X11295Y29475
X12290Y16540
X12295Y29475
X13290Y16540
X13295Y29475
X14295Y29475
X14931Y16540
X15295Y29475
X15931Y16540
X16295Y29475
X16931Y16540
X17295Y29475
X17931Y16540
X18295Y29475
X18931Y16540
X19295Y29475
X19931Y16540
X20295Y29475
X21295Y29475
X31220Y28405
X32220Y28405
X33220Y28405
X34220Y28405
X35220Y28405
X35725Y48670
X35725Y47670
X35725Y46670
X35725Y45670
X35725Y43670
X35725Y42670
X35725Y41670
X35725Y40670
X36220Y28405
X37220Y28405
X38220Y28405
X39220Y28405
X40220Y28405
X41220Y28405
T3
X23768Y45356
X23775Y48293
X24555Y45356
X24562Y48293
X25343Y45356
X25350Y48293
X26130Y45356
X26137Y48293
T4
X24179Y5283
X25163Y5283
X25951Y5283
X26935Y5283
X31809Y5257
X32793Y5257
X33581Y5257
X34565Y5257
X39492Y5235
X40476Y5235
X41264Y5235
X42248Y5235
T5
X39500Y10530
X39500Y9530
X40500Y10530
X40500Y9530
X41500Y10530
X41500Y9530
X42500Y10530
X42500Y9530
X43500Y10530
X43500Y9530
X44500Y10530
X44500Y9530
X47095Y27175
X47095Y26175
X47095Y25175
X47095Y24175
X47095Y23175
X48095Y27175
X48095Y26175
X48095Y25175
X48095Y24175
X48095Y23175
T6
X12277Y3153
X12291Y1833
X13277Y3153
X13291Y1833
X13545Y7050
X14277Y3153
X14291Y1833
X14545Y7050
X18769Y6517
X19769Y6517
X24120Y41090
X24130Y42760
X24131Y37836
X24143Y39448
X25120Y41090
X25130Y42760
X25131Y37836
X25143Y39448
X25185Y7650
X26185Y7650
X34347Y7593
X34879Y33253
X35347Y7593
X35879Y33253
X36879Y33253
X37879Y33253
X38200Y15184
X38212Y13863
X38879Y33253
X39200Y15184
X39212Y13863
X40200Y15184
X40212Y13863
X40903Y18749
X40904Y20433
X41903Y18749
X41904Y20433
X43641Y13896
X43647Y15258
X44641Y13896
X44647Y15258
X45641Y13896
X45647Y15258
X47045Y6210
X48045Y6210
T7
X4295Y26875
X4295Y25875
X5295Y26875
X5295Y25875
X6295Y26875
X6295Y25875
X7295Y26875
X7295Y25875
X8295Y26875
X8295Y25875
X9295Y26875
X9295Y25875
X10295Y26875
X10295Y25875
X11295Y26875
X11295Y25875
X12295Y26875
X12295Y25875
X13295Y26875
X13295Y25875
X14295Y26875
X14295Y25875
X15295Y26875
X15295Y25875
X16295Y26875
X16295Y25875
X17295Y26875
X17295Y25875
X18295Y26875
X18295Y25875
X19295Y26875
X19295Y25875
X20295Y26875
X20295Y25875
X21295Y26875
X21295Y25875
X22295Y26875
X22295Y25875
X23295Y26875
X23295Y25875
T8
X13153Y47085
T9
X22998Y4220
X28116Y4220
X30628Y4194
X35746Y4194
X38311Y4172
X43429Y4172
T10
X1567Y34487
X1595Y10881
X18429Y49075
X18429Y1575
X47949Y49075
X47949Y1575
T0
M30
