G04 #@! TF.FileFunction,Soldermask,Top*
%FSLAX46Y46*%
G04 Gerber Fmt 4.6, Leading zero omitted, Abs format (unit mm)*
G04 Created by KiCad (PCBNEW 4.0.0-rc1-stable) date 10.2.2017 11:41:21*
%MOMM*%
G01*
G04 APERTURE LIST*
%ADD10C,0.100000*%
%ADD11C,3.600000*%
%ADD12R,1.300000X1.600000*%
%ADD13R,1.600000X1.300000*%
%ADD14C,1.906220*%
%ADD15R,2.100000X2.100000*%
%ADD16O,2.100000X2.100000*%
%ADD17C,5.000000*%
%ADD18O,1.900000X2.400000*%
%ADD19R,2.400000X1.400000*%
%ADD20R,1.400000X2.400000*%
%ADD21C,2.000000*%
%ADD22R,2.000000X2.000000*%
%ADD23R,2.000000X0.800000*%
%ADD24R,1.970000X2.290000*%
%ADD25O,1.700000X2.900000*%
%ADD26R,1.200000X0.750000*%
%ADD27R,1.000000X1.950000*%
%ADD28C,1.700000*%
%ADD29R,1.400000X1.400000*%
%ADD30R,1.400000X2.600000*%
%ADD31R,2.127200X2.127200*%
%ADD32O,2.127200X2.127200*%
G04 APERTURE END LIST*
D10*
D11*
X121790460Y124650500D03*
X121790460Y4000500D03*
X46809660Y4000500D03*
X46809660Y124650500D03*
X3980180Y87596980D03*
X4051300Y27637740D03*
D12*
X96141540Y101990980D03*
X96141540Y104190980D03*
X49296320Y114957680D03*
X49296320Y117157680D03*
D13*
X19883300Y123512580D03*
X17683300Y123512580D03*
X80573700Y81536540D03*
X82773700Y81536540D03*
X80578780Y79359760D03*
X82778780Y79359760D03*
D12*
X110413800Y121155280D03*
X110413800Y123355280D03*
X105783380Y121170520D03*
X105783380Y123370520D03*
D13*
X82799100Y75062080D03*
X80599100Y75062080D03*
D14*
X113030000Y24206200D03*
X113030000Y26746200D03*
X100330000Y24206200D03*
X100330000Y26746200D03*
X102870000Y24206200D03*
X102870000Y26746200D03*
X105410000Y24206200D03*
X105410000Y26746200D03*
X107950000Y24206200D03*
X107950000Y26746200D03*
X110490000Y24206200D03*
X110490000Y26746200D03*
D15*
X63969900Y19431000D03*
D16*
X66509900Y19431000D03*
D15*
X34404300Y17907000D03*
D16*
X36944300Y17907000D03*
D15*
X89781380Y19286220D03*
D16*
X87241380Y19286220D03*
D15*
X122034300Y15773400D03*
D16*
X119494300Y15773400D03*
D15*
X63830200Y108610400D03*
D16*
X61290200Y108610400D03*
D15*
X63863220Y100197920D03*
D16*
X61323220Y100197920D03*
D15*
X63832740Y96103440D03*
D16*
X61292740Y96103440D03*
D15*
X106433620Y47622460D03*
D16*
X103893620Y47622460D03*
D15*
X106436160Y51899820D03*
D16*
X103896160Y51899820D03*
D15*
X63804800Y104368600D03*
D16*
X61264800Y104368600D03*
D13*
X82776240Y83723480D03*
X80576240Y83723480D03*
D17*
X97309800Y10596900D03*
X110309800Y10596900D03*
D18*
X107309800Y13296900D03*
X100309800Y13296900D03*
X104809800Y13296900D03*
X102809800Y13296900D03*
D17*
X77794980Y10652780D03*
X90794980Y10652780D03*
D18*
X87794980Y13352780D03*
X80794980Y13352780D03*
X85294980Y13352780D03*
X83294980Y13352780D03*
D17*
X58414780Y10718820D03*
X71414780Y10718820D03*
D18*
X68414780Y13418820D03*
X61414780Y13418820D03*
X65914780Y13418820D03*
X63914780Y13418820D03*
D15*
X47673260Y16553180D03*
D16*
X50213260Y16553180D03*
D12*
X112786160Y123355280D03*
X112786160Y121155280D03*
X108120180Y123375600D03*
X108120180Y121175600D03*
X98727260Y123380680D03*
X98727260Y121180680D03*
X103433880Y123378140D03*
X103433880Y121178140D03*
X101097080Y123378140D03*
X101097080Y121178140D03*
D13*
X22849660Y123512580D03*
X25049660Y123512580D03*
X28046500Y123512580D03*
X30246500Y123512580D03*
X80599100Y77195680D03*
X82799100Y77195680D03*
X21038640Y49014380D03*
X23238640Y49014380D03*
D19*
X101950300Y98643500D03*
X101950300Y99913500D03*
X101950300Y101183500D03*
X101950300Y102453500D03*
X101950300Y103723500D03*
X101950300Y104993500D03*
X101950300Y97373500D03*
X101950300Y106263500D03*
X101950300Y107533500D03*
X101950300Y108803500D03*
X101950300Y110073500D03*
D20*
X117970300Y95623500D03*
X116700300Y95623500D03*
X115430300Y95623500D03*
X114160300Y95623500D03*
X112890300Y95623500D03*
X111620300Y95623500D03*
X110350300Y95623500D03*
X109080300Y95623500D03*
X107810300Y95623500D03*
X106540300Y95623500D03*
X105270300Y95623500D03*
X104000300Y95623500D03*
X117970300Y111823500D03*
X116700300Y111823500D03*
X115430300Y111823500D03*
X114160300Y111823500D03*
X112890300Y111823500D03*
X111620300Y111823500D03*
X110350300Y111823500D03*
X109080300Y111823500D03*
X107810300Y111823500D03*
X106540300Y111823500D03*
X105270300Y111823500D03*
X104000300Y111823500D03*
D21*
X90741500Y103301800D03*
D22*
X90741500Y105841800D03*
D21*
X90741500Y108381800D03*
D22*
X90741500Y110921800D03*
D21*
X90741500Y116001800D03*
D22*
X90741500Y118541800D03*
D21*
X90741500Y121081800D03*
D22*
X90741500Y123621800D03*
D23*
X76702340Y19651620D03*
X76702340Y19001620D03*
X76702340Y18351620D03*
X76702340Y17701620D03*
X72502340Y17701620D03*
X72502340Y18351620D03*
X72502340Y19651620D03*
X72502340Y19001620D03*
D24*
X74602340Y18676620D03*
D14*
X119621300Y69024500D03*
X122161300Y69024500D03*
X119621300Y66484500D03*
X122161300Y66484500D03*
X119621300Y63944500D03*
X122161300Y63944500D03*
X119621300Y61404500D03*
X122161300Y61404500D03*
X119621300Y58864500D03*
X122161300Y58864500D03*
D23*
X120171900Y11985900D03*
X120171900Y11335900D03*
X120171900Y10685900D03*
X120171900Y10035900D03*
X115971900Y10035900D03*
X115971900Y10685900D03*
X115971900Y11985900D03*
X115971900Y11335900D03*
D24*
X118071900Y11010900D03*
D23*
X53179400Y107185100D03*
X53179400Y106535100D03*
X53179400Y105885100D03*
X53179400Y105235100D03*
X48979400Y105235100D03*
X48979400Y105885100D03*
X48979400Y107185100D03*
X48979400Y106535100D03*
D24*
X51079400Y106210100D03*
D25*
X66370720Y115204240D03*
X64370720Y115204240D03*
X62370720Y115204240D03*
X60370720Y115204240D03*
D26*
X51718280Y115085540D03*
X51718280Y115735540D03*
X51718280Y116385540D03*
X51718280Y117035540D03*
X54068280Y117035540D03*
X54068280Y116385540D03*
X54068280Y115085540D03*
X54068280Y115735540D03*
D25*
X66388500Y122664220D03*
X64388500Y122664220D03*
X62388500Y122664220D03*
X60388500Y122664220D03*
D22*
X17513300Y119091700D03*
D21*
X20053300Y119091700D03*
X22593300Y119091700D03*
X25133300Y119091700D03*
X27673300Y119091700D03*
X42913300Y119091700D03*
X40373300Y119091700D03*
X37833300Y119091700D03*
X35293300Y119091700D03*
X32753300Y119091700D03*
X30213300Y119091700D03*
X10909300Y74866500D03*
X13449300Y74866500D03*
X15989300Y74866500D03*
X18529300Y74866500D03*
X21069300Y74866500D03*
X23609300Y74866500D03*
X26149300Y74866500D03*
X28689300Y74866500D03*
X31229300Y74866500D03*
X33769300Y74866500D03*
X36309300Y74866500D03*
X38849300Y74866500D03*
X41389300Y74866500D03*
X43929300Y74866500D03*
X46469300Y74866500D03*
X49009300Y74866500D03*
X51549300Y74866500D03*
D22*
X54089300Y74866500D03*
D23*
X53209880Y98538940D03*
X53209880Y97888940D03*
X53209880Y97238940D03*
X53209880Y96588940D03*
X49009880Y96588940D03*
X49009880Y97238940D03*
X49009880Y98538940D03*
X49009880Y97888940D03*
D24*
X51109880Y97563940D03*
D21*
X37925900Y42011600D03*
X40465900Y42011600D03*
X43005900Y42011600D03*
X45545900Y42011600D03*
X48085900Y42011600D03*
X15975900Y42011600D03*
X18515900Y42011600D03*
X21055900Y42011600D03*
X23595900Y42011600D03*
X26135900Y42011600D03*
X28675900Y42011600D03*
X31215900Y42011600D03*
X33755900Y42011600D03*
D22*
X50625900Y42011600D03*
D27*
X31320740Y96586060D03*
X32590740Y96586060D03*
X33860740Y96586060D03*
X35130740Y96586060D03*
X31320740Y101986060D03*
X32590740Y101986060D03*
X33860740Y101986060D03*
X35130740Y101986060D03*
X40210740Y96586060D03*
X38940740Y96586060D03*
X37670740Y96586060D03*
X36400740Y96586060D03*
X40210740Y101986060D03*
X38940740Y101986060D03*
X37670740Y101986060D03*
X36400740Y101986060D03*
D23*
X97022340Y49877620D03*
X97022340Y49227620D03*
X97022340Y48577620D03*
X97022340Y47927620D03*
X92822340Y47927620D03*
X92822340Y48577620D03*
X92822340Y49877620D03*
X92822340Y49227620D03*
D24*
X94922340Y48902620D03*
D19*
X88607900Y71882320D03*
X88607900Y73382320D03*
X88607900Y74882320D03*
X88607900Y76382320D03*
X88607900Y77882320D03*
X88607900Y79382320D03*
X88607900Y80882320D03*
X88607900Y82382320D03*
X88607900Y83882320D03*
X88607900Y85382320D03*
X104607900Y85382320D03*
X104607900Y83882320D03*
X104607900Y82382320D03*
X104607900Y80882320D03*
X104607900Y79382320D03*
X104607900Y77882320D03*
X104607900Y76382320D03*
X104607900Y74882320D03*
X104607900Y73382320D03*
X104607900Y71882320D03*
D28*
X96807900Y79432320D03*
D29*
X104617520Y68779520D03*
D30*
X103117520Y67279520D03*
X106117520Y67279520D03*
D27*
X19499580Y96596220D03*
X20769580Y96596220D03*
X22039580Y96596220D03*
X23309580Y96596220D03*
X19499580Y101996220D03*
X20769580Y101996220D03*
X22039580Y101996220D03*
X23309580Y101996220D03*
X28389580Y96596220D03*
X27119580Y96596220D03*
X25849580Y96596220D03*
X24579580Y96596220D03*
X28389580Y101996220D03*
X27119580Y101996220D03*
X25849580Y101996220D03*
X24579580Y101996220D03*
D31*
X59169300Y68262500D03*
D32*
X59169300Y65722500D03*
X56629300Y68262500D03*
X56629300Y65722500D03*
X54089300Y68262500D03*
X54089300Y65722500D03*
X51549300Y68262500D03*
X51549300Y65722500D03*
X49009300Y68262500D03*
X49009300Y65722500D03*
X46469300Y68262500D03*
X46469300Y65722500D03*
X43929300Y68262500D03*
X43929300Y65722500D03*
X41389300Y68262500D03*
X41389300Y65722500D03*
X38849300Y68262500D03*
X38849300Y65722500D03*
X36309300Y68262500D03*
X36309300Y65722500D03*
X33769300Y68262500D03*
X33769300Y65722500D03*
X31229300Y68262500D03*
X31229300Y65722500D03*
X28689300Y68262500D03*
X28689300Y65722500D03*
X26149300Y68262500D03*
X26149300Y65722500D03*
X23609300Y68262500D03*
X23609300Y65722500D03*
X21069300Y68262500D03*
X21069300Y65722500D03*
X18529300Y68262500D03*
X18529300Y65722500D03*
X15989300Y68262500D03*
X15989300Y65722500D03*
X13449300Y68262500D03*
X13449300Y65722500D03*
X10909300Y68262500D03*
X10909300Y65722500D03*
D23*
X53217500Y102536900D03*
X53217500Y101886900D03*
X53217500Y101236900D03*
X53217500Y100586900D03*
X49017500Y100586900D03*
X49017500Y101236900D03*
X49017500Y102536900D03*
X49017500Y101886900D03*
D24*
X51117500Y101561900D03*
D15*
X115928140Y35295840D03*
D16*
X113388140Y35295840D03*
X110848140Y35295840D03*
D15*
X110863380Y38755320D03*
D16*
X113403380Y38755320D03*
X115943380Y38755320D03*
D15*
X102108000Y38567360D03*
D16*
X99568000Y38567360D03*
X97028000Y38567360D03*
D15*
X97058480Y35212020D03*
D16*
X99598480Y35212020D03*
X102138480Y35212020D03*
D15*
X31219140Y4655820D03*
D16*
X33759140Y4655820D03*
X36299140Y4655820D03*
D15*
X36263580Y8008620D03*
D16*
X33723580Y8008620D03*
X31183580Y8008620D03*
M02*
