M48
;DRILL file {KiCad 4.0.0-rc1-stable} date 24.1.2017 20:57:37
;FORMAT={2:4/ absolute / inch / suppress leading zeros}
FMAT,2
INCH,TZ
T1C0.016
T2C0.034
T3C0.039
T4C0.040
%
G90
G05
M72
T1
X3417Y1787
X3571Y4154
X4028Y8626
X4122Y1571
X4185Y5776
X4480Y6563
X4484Y10130
X4890Y2417
X5248Y10130
X5354Y6150
X5429Y5752
X5441Y10575
X5622Y4850
X5795Y2417
X5913Y1516
X6008Y5772
X6154Y5071
X6193Y4398
X6350Y1563
X6453Y10575
X6713Y5142
X7260Y10575
X7272Y11744
X7343Y5484
X7929Y4697
X8433Y15008
X8551Y5791
X8606Y8713
X8642Y14504
X9043Y4075
X9098Y11303
X9264Y10858
X9567Y8783
X9630Y14504
X9646Y10114
X9976Y15358
X10114Y13516
X10114Y12110
X10378Y9177
X10496Y12110
X10504Y13516
X10823Y7559
X10937Y5063
X11142Y14185
X11228Y1693
X11228Y1280
X11299Y8449
X11315Y10272
X11370Y3791
X11453Y2406
X11512Y13870
X11661Y8248
X11807Y15339
X11831Y11504
X12130Y7933
X12138Y15567
X12339Y1280
X12343Y1693
X12571Y7252
X12972Y7921
X13098Y10787
X13386Y11102
X13417Y6256
X13929Y13331
X14142Y4535
X14417Y10516
X14646Y8606
X15102Y14461
X15295Y11949
X15917Y11335
X15976Y6594
X16776Y9055
X17236Y13933
X17689Y13110
X19598Y12748
X20874Y12614
X21724Y12709
X22094Y11748
X23217Y12957
X24193Y10319
T2
X13244Y15626
X13244Y14996
X13965Y15626
X13965Y14996
X14685Y15626
X14685Y14996
T3
X16362Y11882
X16362Y10882
X17362Y11882
X17362Y10882
X18362Y11882
X18362Y10882
X19362Y11882
X19362Y10882
X20362Y11882
X20362Y10882
X21362Y11882
X21362Y10882
T4
X1346Y9386
X2346Y9386
X3346Y9386
X4346Y9386
X4937Y12041
X5346Y9386
X5937Y12041
X6346Y9386
X7346Y9386
X8346Y9386
X11260Y12531
X12126Y4984
X12126Y3984
X12260Y12531
X13126Y4984
X13126Y3984
T0
M30
